ISO-10303-21;
HEADER;
FILE_DESCRIPTION(('FreeCAD Model'),'2;1');
FILE_NAME('Open CASCADE Shape Model','2025-11-08T21:08:19',(''),(''),
  'Open CASCADE STEP processor 7.9','FreeCAD','Unknown');
FILE_SCHEMA(('AUTOMOTIVE_DESIGN { 1 0 10303 214 1 1 1 1 }'));
ENDSEC;
DATA;
#1 = APPLICATION_PROTOCOL_DEFINITION('international standard',
  'automotive_design',2000,#2);
#2 = APPLICATION_CONTEXT(
  'core data for automotive mechanical design processes');
#3 = SHAPE_DEFINITION_REPRESENTATION(#4,#10);
#4 = PRODUCT_DEFINITION_SHAPE('','',#5);
#5 = PRODUCT_DEFINITION('design','',#6,#9);
#6 = PRODUCT_DEFINITION_FORMATION('','',#7);
#7 = PRODUCT('Dragon_Mount','Dragon_Mount','',(#8));
#8 = PRODUCT_CONTEXT('',#2,'mechanical');
#9 = PRODUCT_DEFINITION_CONTEXT('part definition',#2,'design');
#10 = ADVANCED_BREP_SHAPE_REPRESENTATION('',(#11,#15),#1340);
#11 = AXIS2_PLACEMENT_3D('',#12,#13,#14);
#12 = CARTESIAN_POINT('',(0.,0.,0.));
#13 = DIRECTION('',(0.,0.,1.));
#14 = DIRECTION('',(1.,0.,-0.));
#15 = MANIFOLD_SOLID_BREP('',#16);
#16 = CLOSED_SHELL('',(#17,#50,#59,#92,#101,#134,#143,#176,#185,#233,
    #270,#318,#346,#374,#402,#430,#455,#480,#505,#530,#555,#580,#622,
    #647,#672,#697,#722,#748,#773,#798,#823,#848,#873,#898,#923,#954,
    #1000,#1024,#1064,#1103,#1142,#1174,#1196,#1220,#1237,#1265,#1282,
    #1303,#1322));
#17 = ADVANCED_FACE('',(#18),#45,.F.);
#18 = FACE_BOUND('',#19,.F.);
#19 = EDGE_LOOP('',(#20,#30,#37,#38));
#20 = ORIENTED_EDGE('',*,*,#21,.T.);
#21 = EDGE_CURVE('',#22,#24,#26,.T.);
#22 = VERTEX_POINT('',#23);
#23 = CARTESIAN_POINT('',(13.047329122067,9.325113409694,23.310540137179
    ));
#24 = VERTEX_POINT('',#25);
#25 = CARTESIAN_POINT('',(8.047329122067,9.325113409694,23.310540137179)
  );
#26 = LINE('',#27,#28);
#27 = CARTESIAN_POINT('',(12.247329122067,9.325113409694,23.310540137179
    ));
#28 = VECTOR('',#29,1.);
#29 = DIRECTION('',(-1.,0.,-1.863822951144E-31));
#30 = ORIENTED_EDGE('',*,*,#31,.F.);
#31 = EDGE_CURVE('',#24,#24,#32,.T.);
#32 = CIRCLE('',#33,2.25);
#33 = AXIS2_PLACEMENT_3D('',#34,#35,#36);
#34 = CARTESIAN_POINT('',(8.047329122067,11.575113409694,23.310540137179
    ));
#35 = DIRECTION('',(-1.,0.,-1.863822951144E-31));
#36 = DIRECTION('',(4.05484011024E-46,1.,-2.175550047686E-15));
#37 = ORIENTED_EDGE('',*,*,#21,.F.);
#38 = ORIENTED_EDGE('',*,*,#39,.T.);
#39 = EDGE_CURVE('',#22,#22,#40,.T.);
#40 = CIRCLE('',#41,2.25);
#41 = AXIS2_PLACEMENT_3D('',#42,#43,#44);
#42 = CARTESIAN_POINT('',(13.047329122067,11.575113409694,
    23.310540137179));
#43 = DIRECTION('',(-1.,-1.832221767506E-31,-5.363535625109E-16));
#44 = DIRECTION('',(9.836418417464E-31,1.,-2.175550047686E-15));
#45 = CYLINDRICAL_SURFACE('',#46,2.25);
#46 = AXIS2_PLACEMENT_3D('',#47,#48,#49);
#47 = CARTESIAN_POINT('',(12.247329122067,11.575113409694,
    23.310540137179));
#48 = DIRECTION('',(-1.,0.,-1.863822951144E-31));
#49 = DIRECTION('',(4.05484011024E-46,1.,-2.175550047686E-15));
#50 = ADVANCED_FACE('',(#51),#54,.F.);
#51 = FACE_BOUND('',#52,.T.);
#52 = EDGE_LOOP('',(#53));
#53 = ORIENTED_EDGE('',*,*,#31,.F.);
#54 = PLANE('',#55);
#55 = AXIS2_PLACEMENT_3D('',#56,#57,#58);
#56 = CARTESIAN_POINT('',(8.047329122067,11.575113409694,23.310540137179
    ));
#57 = DIRECTION('',(-1.,0.,-1.863822951144E-31));
#58 = DIRECTION('',(4.05484011024E-46,1.,-2.175550047686E-15));
#59 = ADVANCED_FACE('',(#60),#87,.F.);
#60 = FACE_BOUND('',#61,.F.);
#61 = EDGE_LOOP('',(#62,#72,#79,#80));
#62 = ORIENTED_EDGE('',*,*,#63,.T.);
#63 = EDGE_CURVE('',#64,#66,#68,.T.);
#64 = VERTEX_POINT('',#65);
#65 = CARTESIAN_POINT('',(13.047329122067,-2.224882010756,
    24.560271396581));
#66 = VERTEX_POINT('',#67);
#67 = CARTESIAN_POINT('',(8.047329122067,-2.224882010756,24.560271396581
    ));
#68 = LINE('',#69,#70);
#69 = CARTESIAN_POINT('',(12.247329122067,-2.224882010756,
    24.560271396581));
#70 = VECTOR('',#71,1.);
#71 = DIRECTION('',(-1.,0.,-1.863822951144E-31));
#72 = ORIENTED_EDGE('',*,*,#73,.F.);
#73 = EDGE_CURVE('',#66,#66,#74,.T.);
#74 = CIRCLE('',#75,2.25);
#75 = AXIS2_PLACEMENT_3D('',#76,#77,#78);
#76 = CARTESIAN_POINT('',(8.047329122067,2.511798924391E-02,
    24.560271396581));
#77 = DIRECTION('',(-1.,0.,-1.863822951144E-31));
#78 = DIRECTION('',(4.05484011024E-46,1.,-2.175550047686E-15));
#79 = ORIENTED_EDGE('',*,*,#63,.F.);
#80 = ORIENTED_EDGE('',*,*,#81,.T.);
#81 = EDGE_CURVE('',#64,#64,#82,.T.);
#82 = CIRCLE('',#83,2.25);
#83 = AXIS2_PLACEMENT_3D('',#84,#85,#86);
#84 = CARTESIAN_POINT('',(13.047329122067,2.511798924391E-02,
    24.560271396581));
#85 = DIRECTION('',(-1.,-1.832221767506E-31,-5.363535625109E-16));
#86 = DIRECTION('',(9.836418417464E-31,1.,-2.175550047686E-15));
#87 = CYLINDRICAL_SURFACE('',#88,2.25);
#88 = AXIS2_PLACEMENT_3D('',#89,#90,#91);
#89 = CARTESIAN_POINT('',(12.247329122067,2.511798924391E-02,
    24.560271396581));
#90 = DIRECTION('',(-1.,0.,-1.863822951144E-31));
#91 = DIRECTION('',(4.05484011024E-46,1.,-2.175550047686E-15));
#92 = ADVANCED_FACE('',(#93),#96,.F.);
#93 = FACE_BOUND('',#94,.T.);
#94 = EDGE_LOOP('',(#95));
#95 = ORIENTED_EDGE('',*,*,#73,.F.);
#96 = PLANE('',#97);
#97 = AXIS2_PLACEMENT_3D('',#98,#99,#100);
#98 = CARTESIAN_POINT('',(8.047329122067,2.511798924391E-02,
    24.560271396581));
#99 = DIRECTION('',(-1.,0.,-1.863822951144E-31));
#100 = DIRECTION('',(4.05484011024E-46,1.,-2.175550047686E-15));
#101 = ADVANCED_FACE('',(#102),#129,.F.);
#102 = FACE_BOUND('',#103,.F.);
#103 = EDGE_LOOP('',(#104,#114,#121,#122));
#104 = ORIENTED_EDGE('',*,*,#105,.T.);
#105 = EDGE_CURVE('',#106,#108,#110,.T.);
#106 = VERTEX_POINT('',#107);
#107 = CARTESIAN_POINT('',(-13.06142052253,8.925113409694,
    22.310540137178));
#108 = VERTEX_POINT('',#109);
#109 = CARTESIAN_POINT('',(-8.061420522534,8.925113409694,
    22.310540137178));
#110 = LINE('',#111,#112);
#111 = CARTESIAN_POINT('',(-12.26142052253,8.925113409694,
    22.310540137178));
#112 = VECTOR('',#113,1.);
#113 = DIRECTION('',(1.,0.,1.863822951144E-31));
#114 = ORIENTED_EDGE('',*,*,#115,.F.);
#115 = EDGE_CURVE('',#108,#108,#116,.T.);
#116 = CIRCLE('',#117,2.35);
#117 = AXIS2_PLACEMENT_3D('',#118,#119,#120);
#118 = CARTESIAN_POINT('',(-8.061420522534,6.575113409694,
    22.310540137178));
#119 = DIRECTION('',(1.,0.,1.863822951144E-31));
#120 = DIRECTION('',(-4.05484011024E-46,-1.,2.175550047686E-15));
#121 = ORIENTED_EDGE('',*,*,#105,.F.);
#122 = ORIENTED_EDGE('',*,*,#123,.T.);
#123 = EDGE_CURVE('',#106,#106,#124,.T.);
#124 = CIRCLE('',#125,2.35);
#125 = AXIS2_PLACEMENT_3D('',#126,#127,#128);
#126 = CARTESIAN_POINT('',(-13.06142052253,6.575113409694,
    22.310540137178));
#127 = DIRECTION('',(1.,9.161108837528E-32,5.363535625109E-16));
#128 = DIRECTION('',(-1.075252930122E-30,-1.,2.175550047686E-15));
#129 = CYLINDRICAL_SURFACE('',#130,2.35);
#130 = AXIS2_PLACEMENT_3D('',#131,#132,#133);
#131 = CARTESIAN_POINT('',(-12.26142052253,6.575113409694,
    22.310540137178));
#132 = DIRECTION('',(1.,0.,1.863822951144E-31));
#133 = DIRECTION('',(-4.05484011024E-46,-1.,2.175550047686E-15));
#134 = ADVANCED_FACE('',(#135),#138,.F.);
#135 = FACE_BOUND('',#136,.T.);
#136 = EDGE_LOOP('',(#137));
#137 = ORIENTED_EDGE('',*,*,#115,.F.);
#138 = PLANE('',#139);
#139 = AXIS2_PLACEMENT_3D('',#140,#141,#142);
#140 = CARTESIAN_POINT('',(-8.061420522534,6.575113409694,
    22.310540137178));
#141 = DIRECTION('',(1.,0.,1.863822951144E-31));
#142 = DIRECTION('',(-4.05484011024E-46,-1.,2.175550047686E-15));
#143 = ADVANCED_FACE('',(#144),#171,.F.);
#144 = FACE_BOUND('',#145,.F.);
#145 = EDGE_LOOP('',(#146,#156,#163,#164));
#146 = ORIENTED_EDGE('',*,*,#147,.T.);
#147 = EDGE_CURVE('',#148,#150,#152,.T.);
#148 = VERTEX_POINT('',#149);
#149 = CARTESIAN_POINT('',(-13.06142052253,-2.624882010756,
    23.560271396581));
#150 = VERTEX_POINT('',#151);
#151 = CARTESIAN_POINT('',(-8.061420522534,-2.624882010756,
    23.560271396581));
#152 = LINE('',#153,#154);
#153 = CARTESIAN_POINT('',(-12.26142052253,-2.624882010756,
    23.560271396581));
#154 = VECTOR('',#155,1.);
#155 = DIRECTION('',(1.,0.,1.863822951144E-31));
#156 = ORIENTED_EDGE('',*,*,#157,.F.);
#157 = EDGE_CURVE('',#150,#150,#158,.T.);
#158 = CIRCLE('',#159,2.35);
#159 = AXIS2_PLACEMENT_3D('',#160,#161,#162);
#160 = CARTESIAN_POINT('',(-8.061420522534,-4.974882010756,
    23.560271396581));
#161 = DIRECTION('',(1.,0.,1.863822951144E-31));
#162 = DIRECTION('',(-4.05484011024E-46,-1.,2.175550047686E-15));
#163 = ORIENTED_EDGE('',*,*,#147,.F.);
#164 = ORIENTED_EDGE('',*,*,#165,.T.);
#165 = EDGE_CURVE('',#148,#148,#166,.T.);
#166 = CIRCLE('',#167,2.35);
#167 = AXIS2_PLACEMENT_3D('',#168,#169,#170);
#168 = CARTESIAN_POINT('',(-13.06142052253,-4.974882010756,
    23.560271396581));
#169 = DIRECTION('',(1.,9.161108837528E-32,5.363535625109E-16));
#170 = DIRECTION('',(-1.075252930122E-30,-1.,2.175550047686E-15));
#171 = CYLINDRICAL_SURFACE('',#172,2.35);
#172 = AXIS2_PLACEMENT_3D('',#173,#174,#175);
#173 = CARTESIAN_POINT('',(-12.26142052253,-4.974882010756,
    23.560271396581));
#174 = DIRECTION('',(1.,0.,1.863822951144E-31));
#175 = DIRECTION('',(-4.05484011024E-46,-1.,2.175550047686E-15));
#176 = ADVANCED_FACE('',(#177),#180,.F.);
#177 = FACE_BOUND('',#178,.T.);
#178 = EDGE_LOOP('',(#179));
#179 = ORIENTED_EDGE('',*,*,#157,.F.);
#180 = PLANE('',#181);
#181 = AXIS2_PLACEMENT_3D('',#182,#183,#184);
#182 = CARTESIAN_POINT('',(-8.061420522534,-4.974882010756,
    23.560271396581));
#183 = DIRECTION('',(1.,0.,1.863822951144E-31));
#184 = DIRECTION('',(-4.05484011024E-46,-1.,2.175550047686E-15));
#185 = ADVANCED_FACE('',(#186),#228,.T.);
#186 = FACE_BOUND('',#187,.T.);
#187 = EDGE_LOOP('',(#188,#198,#206,#214,#222));
#188 = ORIENTED_EDGE('',*,*,#189,.F.);
#189 = EDGE_CURVE('',#190,#192,#194,.T.);
#190 = VERTEX_POINT('',#191);
#191 = CARTESIAN_POINT('',(-13.06142052253,-10.53174541885,
    31.89284606874));
#192 = VERTEX_POINT('',#193);
#193 = CARTESIAN_POINT('',(-13.06142052253,15.468254581144,
    31.89284606874));
#194 = LINE('',#195,#196);
#195 = CARTESIAN_POINT('',(-13.06142052253,3.843254581144,31.89284606874
    ));
#196 = VECTOR('',#197,1.);
#197 = DIRECTION('',(1.075252972486E-30,1.,-2.175550126672E-15));
#198 = ORIENTED_EDGE('',*,*,#199,.F.);
#199 = EDGE_CURVE('',#200,#190,#202,.T.);
#200 = VERTEX_POINT('',#201);
#201 = CARTESIAN_POINT('',(-16.06142052253,-10.53174541885,
    34.892846068701));
#202 = LINE('',#203,#204);
#203 = CARTESIAN_POINT('',(-14.24263336152,-10.53174541885,
    33.074058907713));
#204 = VECTOR('',#205,1.);
#205 = DIRECTION('',(0.707106781191,-1.51703696465E-16,-0.707106781182)
  );
#206 = ORIENTED_EDGE('',*,*,#207,.F.);
#207 = EDGE_CURVE('',#208,#200,#210,.T.);
#208 = VERTEX_POINT('',#209);
#209 = CARTESIAN_POINT('',(-16.06142052253,15.395462375008,
    34.892846068701));
#210 = LINE('',#211,#212);
#211 = CARTESIAN_POINT('',(-16.06142052253,-2.906745418856,
    34.892846068701));
#212 = VECTOR('',#213,1.);
#213 = DIRECTION('',(-3.087862470812E-30,-1.,2.175550126672E-15));
#214 = ORIENTED_EDGE('',*,*,#215,.F.);
#215 = EDGE_CURVE('',#216,#208,#218,.T.);
#216 = VERTEX_POINT('',#217);
#217 = CARTESIAN_POINT('',(-15.98862831639,15.468254581144,
    34.820053862564));
#218 = LINE('',#219,#220);
#219 = CARTESIAN_POINT('',(-15.9709485107,15.485934386837,
    34.802374056871));
#220 = VECTOR('',#221,1.);
#221 = DIRECTION('',(-0.577350269195,-0.577350269187,0.577350269187));
#222 = ORIENTED_EDGE('',*,*,#223,.T.);
#223 = EDGE_CURVE('',#216,#192,#224,.T.);
#224 = LINE('',#225,#226);
#225 = CARTESIAN_POINT('',(-5.292945950286,15.468254581144,
    24.124371496594));
#226 = VECTOR('',#227,1.);
#227 = DIRECTION('',(0.707106781191,-1.56834012334E-16,-0.707106781182)
  );
#228 = PLANE('',#229);
#229 = AXIS2_PLACEMENT_3D('',#230,#231,#232);
#230 = CARTESIAN_POINT('',(-15.61999916629,-6.781745418856,
    34.451424712463));
#231 = DIRECTION('',(-0.707106781182,-1.538346247391E-15,-0.707106781191
    ));
#232 = DIRECTION('',(-0.707106781191,0.,0.707106781182));
#233 = ADVANCED_FACE('',(#234,#259,#262),#265,.T.);
#234 = FACE_BOUND('',#235,.T.);
#235 = EDGE_LOOP('',(#236,#237,#245,#253));
#236 = ORIENTED_EDGE('',*,*,#189,.T.);
#237 = ORIENTED_EDGE('',*,*,#238,.T.);
#238 = EDGE_CURVE('',#192,#239,#241,.T.);
#239 = VERTEX_POINT('',#240);
#240 = CARTESIAN_POINT('',(-13.06142052253,15.468254581144,
    17.820540137179));
#241 = LINE('',#242,#243);
#242 = CARTESIAN_POINT('',(-13.06142052253,15.468254581144,
    26.655540137179));
#243 = VECTOR('',#244,1.);
#244 = DIRECTION('',(5.363535625109E-16,-2.217967872856E-16,-1.));
#245 = ORIENTED_EDGE('',*,*,#246,.F.);
#246 = EDGE_CURVE('',#247,#239,#249,.T.);
#247 = VERTEX_POINT('',#248);
#248 = CARTESIAN_POINT('',(-13.06142052253,-10.53174541885,
    17.820540137179));
#249 = LINE('',#250,#251);
#250 = CARTESIAN_POINT('',(-13.06142052253,8.968254581144,
    17.820540137179));
#251 = VECTOR('',#252,1.);
#252 = DIRECTION('',(1.19434734501E-30,1.,-2.397594652611E-15));
#253 = ORIENTED_EDGE('',*,*,#254,.F.);
#254 = EDGE_CURVE('',#190,#247,#255,.T.);
#255 = LINE('',#256,#257);
#256 = CARTESIAN_POINT('',(-13.06142052253,-10.53174541885,
    31.300540137179));
#257 = VECTOR('',#258,1.);
#258 = DIRECTION('',(5.363535625109E-16,-2.145414250044E-16,-1.));
#259 = FACE_BOUND('',#260,.T.);
#260 = EDGE_LOOP('',(#261));
#261 = ORIENTED_EDGE('',*,*,#123,.T.);
#262 = FACE_BOUND('',#263,.T.);
#263 = EDGE_LOOP('',(#264));
#264 = ORIENTED_EDGE('',*,*,#165,.T.);
#265 = PLANE('',#266);
#266 = AXIS2_PLACEMENT_3D('',#267,#268,#269);
#267 = CARTESIAN_POINT('',(-13.06142052253,14.468254581144,
    31.300540137179));
#268 = DIRECTION('',(-1.,-9.161108837528E-32,-5.363535625109E-16));
#269 = DIRECTION('',(2.189528850508E-47,-1.,1.7080354225E-16));
#270 = ADVANCED_FACE('',(#271),#313,.T.);
#271 = FACE_BOUND('',#272,.T.);
#272 = EDGE_LOOP('',(#273,#283,#291,#299,#307));
#273 = ORIENTED_EDGE('',*,*,#274,.F.);
#274 = EDGE_CURVE('',#275,#277,#279,.T.);
#275 = VERTEX_POINT('',#276);
#276 = CARTESIAN_POINT('',(13.047329122067,15.468254581144,31.8928460687
    ));
#277 = VERTEX_POINT('',#278);
#278 = CARTESIAN_POINT('',(13.047329122067,-10.53174541885,31.8928460687
    ));
#279 = LINE('',#280,#281);
#280 = CARTESIAN_POINT('',(13.047329122067,-9.156745418856,31.8928460687
    ));
#281 = VECTOR('',#282,1.);
#282 = DIRECTION('',(-9.836418841112E-31,-1.,2.175550126672E-15));
#283 = ORIENTED_EDGE('',*,*,#284,.T.);
#284 = EDGE_CURVE('',#275,#285,#287,.T.);
#285 = VERTEX_POINT('',#286);
#286 = CARTESIAN_POINT('',(15.974536915931,15.468254581144,
    34.820053862564));
#287 = LINE('',#288,#289);
#288 = CARTESIAN_POINT('',(11.906041961068,15.468254581144,
    30.751558907701));
#289 = VECTOR('',#290,1.);
#290 = DIRECTION('',(0.707106781187,1.56834012335E-16,0.707106781187));
#291 = ORIENTED_EDGE('',*,*,#292,.F.);
#292 = EDGE_CURVE('',#293,#285,#295,.T.);
#293 = VERTEX_POINT('',#294);
#294 = CARTESIAN_POINT('',(16.047329122067,15.395462375009,34.8928460687
    ));
#295 = LINE('',#296,#297);
#296 = CARTESIAN_POINT('',(18.165919580672,13.276871916404,
    37.011436527305));
#297 = VECTOR('',#298,1.);
#298 = DIRECTION('',(-0.57735026919,0.57735026919,-0.57735026919));
#299 = ORIENTED_EDGE('',*,*,#300,.F.);
#300 = EDGE_CURVE('',#301,#293,#303,.T.);
#301 = VERTEX_POINT('',#302);
#302 = CARTESIAN_POINT('',(16.047329122067,-10.53174541885,34.8928460687
    ));
#303 = LINE('',#304,#305);
#304 = CARTESIAN_POINT('',(16.047329122067,-2.906745418856,34.8928460687
    ));
#305 = VECTOR('',#306,1.);
#306 = DIRECTION('',(3.087862470812E-30,1.,-2.175550126672E-15));
#307 = ORIENTED_EDGE('',*,*,#308,.F.);
#308 = EDGE_CURVE('',#277,#301,#309,.T.);
#309 = LINE('',#310,#311);
#310 = CARTESIAN_POINT('',(7.601354549918,-10.53174541885,
    26.446871496551));
#311 = VECTOR('',#312,1.);
#312 = DIRECTION('',(0.707106781187,1.51703696466E-16,0.707106781187));
#313 = PLANE('',#314);
#314 = AXIS2_PLACEMENT_3D('',#315,#316,#317);
#315 = CARTESIAN_POINT('',(15.60590776583,-6.781745418856,
    34.451424712463));
#316 = DIRECTION('',(0.707106781187,-1.538346247381E-15,-0.707106781187)
  );
#317 = DIRECTION('',(-0.707106781187,0.,-0.707106781187));
#318 = ADVANCED_FACE('',(#319,#330),#341,.T.);
#319 = FACE_BOUND('',#320,.T.);
#320 = EDGE_LOOP('',(#321));
#321 = ORIENTED_EDGE('',*,*,#322,.F.);
#322 = EDGE_CURVE('',#323,#323,#325,.T.);
#323 = VERTEX_POINT('',#324);
#324 = CARTESIAN_POINT('',(8.649808548766,-5.631736259756,
    28.310546653752));
#325 = CIRCLE('',#326,3.);
#326 = AXIS2_PLACEMENT_3D('',#327,#328,#329);
#327 = CARTESIAN_POINT('',(5.649808548766,-5.631736259756,
    28.310546653752));
#328 = DIRECTION('',(5.575469309059E-16,-2.220446925932E-16,-1.));
#329 = DIRECTION('',(-1.,1.875206677352E-30,-5.575469309059E-16));
#330 = FACE_BOUND('',#331,.T.);
#331 = EDGE_LOOP('',(#332));
#332 = ORIENTED_EDGE('',*,*,#333,.F.);
#333 = EDGE_CURVE('',#334,#334,#336,.T.);
#334 = VERTEX_POINT('',#335);
#335 = CARTESIAN_POINT('',(4.199808548766,-5.631736259756,
    28.310546653752));
#336 = CIRCLE('',#337,1.45);
#337 = AXIS2_PLACEMENT_3D('',#338,#339,#340);
#338 = CARTESIAN_POINT('',(5.649808548766,-5.631736259756,
    28.310546653752));
#339 = DIRECTION('',(-5.575469309059E-16,2.220446925932E-16,1.));
#340 = DIRECTION('',(1.,-2.584044089815E-14,5.575469309059E-16));
#341 = PLANE('',#342);
#342 = AXIS2_PLACEMENT_3D('',#343,#344,#345);
#343 = CARTESIAN_POINT('',(-7.045700233706E-03,2.511798924344E-02,
    28.310546653752));
#344 = DIRECTION('',(-5.575469309059E-16,2.220446925932E-16,1.));
#345 = DIRECTION('',(1.,-2.584044089815E-14,5.575469309059E-16));
#346 = ADVANCED_FACE('',(#347,#358),#369,.T.);
#347 = FACE_BOUND('',#348,.T.);
#348 = EDGE_LOOP('',(#349));
#349 = ORIENTED_EDGE('',*,*,#350,.F.);
#350 = EDGE_CURVE('',#351,#351,#353,.T.);
#351 = VERTEX_POINT('',#352);
#352 = CARTESIAN_POINT('',(8.649808548766,5.681972238244,28.310546653752
    ));
#353 = CIRCLE('',#354,3.);
#354 = AXIS2_PLACEMENT_3D('',#355,#356,#357);
#355 = CARTESIAN_POINT('',(5.649808548766,5.681972238244,28.310546653752
    ));
#356 = DIRECTION('',(5.575469309059E-16,-2.220446925932E-16,-1.));
#357 = DIRECTION('',(-1.,1.875206677352E-30,-5.575469309059E-16));
#358 = FACE_BOUND('',#359,.T.);
#359 = EDGE_LOOP('',(#360));
#360 = ORIENTED_EDGE('',*,*,#361,.F.);
#361 = EDGE_CURVE('',#362,#362,#364,.T.);
#362 = VERTEX_POINT('',#363);
#363 = CARTESIAN_POINT('',(4.199808548766,5.681972238243,28.310546653752
    ));
#364 = CIRCLE('',#365,1.45);
#365 = AXIS2_PLACEMENT_3D('',#366,#367,#368);
#366 = CARTESIAN_POINT('',(5.649808548766,5.681972238243,28.310546653752
    ));
#367 = DIRECTION('',(-5.575469309059E-16,2.220446925932E-16,1.));
#368 = DIRECTION('',(1.,-2.584044089815E-14,5.575469309059E-16));
#369 = PLANE('',#370);
#370 = AXIS2_PLACEMENT_3D('',#371,#372,#373);
#371 = CARTESIAN_POINT('',(-7.045700233706E-03,2.511798924344E-02,
    28.310546653752));
#372 = DIRECTION('',(-5.575469309059E-16,2.220446925932E-16,1.));
#373 = DIRECTION('',(1.,-2.584044089815E-14,5.575469309059E-16));
#374 = ADVANCED_FACE('',(#375,#386),#397,.T.);
#375 = FACE_BOUND('',#376,.T.);
#376 = EDGE_LOOP('',(#377));
#377 = ORIENTED_EDGE('',*,*,#378,.F.);
#378 = EDGE_CURVE('',#379,#379,#381,.T.);
#379 = VERTEX_POINT('',#380);
#380 = CARTESIAN_POINT('',(-2.663899949234,5.681972238244,
    28.310546653752));
#381 = CIRCLE('',#382,3.);
#382 = AXIS2_PLACEMENT_3D('',#383,#384,#385);
#383 = CARTESIAN_POINT('',(-5.663899949234,5.681972238244,
    28.310546653752));
#384 = DIRECTION('',(5.575469309059E-16,-2.220446925932E-16,-1.));
#385 = DIRECTION('',(-1.,1.875206677352E-30,-5.575469309059E-16));
#386 = FACE_BOUND('',#387,.T.);
#387 = EDGE_LOOP('',(#388));
#388 = ORIENTED_EDGE('',*,*,#389,.F.);
#389 = EDGE_CURVE('',#390,#390,#392,.T.);
#390 = VERTEX_POINT('',#391);
#391 = CARTESIAN_POINT('',(-7.113899949234,5.681972238244,
    28.310546653752));
#392 = CIRCLE('',#393,1.45);
#393 = AXIS2_PLACEMENT_3D('',#394,#395,#396);
#394 = CARTESIAN_POINT('',(-5.663899949234,5.681972238243,
    28.310546653752));
#395 = DIRECTION('',(-5.575469309059E-16,2.220446925932E-16,1.));
#396 = DIRECTION('',(1.,-2.584044089815E-14,5.575469309059E-16));
#397 = PLANE('',#398);
#398 = AXIS2_PLACEMENT_3D('',#399,#400,#401);
#399 = CARTESIAN_POINT('',(-7.045700233706E-03,2.511798924344E-02,
    28.310546653752));
#400 = DIRECTION('',(-5.575469309059E-16,2.220446925932E-16,1.));
#401 = DIRECTION('',(1.,-2.584044089815E-14,5.575469309059E-16));
#402 = ADVANCED_FACE('',(#403,#414),#425,.T.);
#403 = FACE_BOUND('',#404,.T.);
#404 = EDGE_LOOP('',(#405));
#405 = ORIENTED_EDGE('',*,*,#406,.F.);
#406 = EDGE_CURVE('',#407,#407,#409,.T.);
#407 = VERTEX_POINT('',#408);
#408 = CARTESIAN_POINT('',(-2.663899949234,-5.631736259756,
    28.310546653752));
#409 = CIRCLE('',#410,3.);
#410 = AXIS2_PLACEMENT_3D('',#411,#412,#413);
#411 = CARTESIAN_POINT('',(-5.663899949234,-5.631736259756,
    28.310546653752));
#412 = DIRECTION('',(5.575469309059E-16,-2.220446925932E-16,-1.));
#413 = DIRECTION('',(-1.,1.875206677352E-30,-5.575469309059E-16));
#414 = FACE_BOUND('',#415,.T.);
#415 = EDGE_LOOP('',(#416));
#416 = ORIENTED_EDGE('',*,*,#417,.F.);
#417 = EDGE_CURVE('',#418,#418,#420,.T.);
#418 = VERTEX_POINT('',#419);
#419 = CARTESIAN_POINT('',(-7.113899949234,-5.631736259756,
    28.310546653752));
#420 = CIRCLE('',#421,1.45);
#421 = AXIS2_PLACEMENT_3D('',#422,#423,#424);
#422 = CARTESIAN_POINT('',(-5.663899949234,-5.631736259757,
    28.310546653752));
#423 = DIRECTION('',(-5.575469309059E-16,2.220446925932E-16,1.));
#424 = DIRECTION('',(1.,-2.584044089815E-14,5.575469309059E-16));
#425 = PLANE('',#426);
#426 = AXIS2_PLACEMENT_3D('',#427,#428,#429);
#427 = CARTESIAN_POINT('',(-7.045700233706E-03,2.511798924344E-02,
    28.310546653752));
#428 = DIRECTION('',(-5.575469309059E-16,2.220446925932E-16,1.));
#429 = DIRECTION('',(1.,-2.584044089815E-14,5.575469309059E-16));
#430 = ADVANCED_FACE('',(#431),#450,.F.);
#431 = FACE_BOUND('',#432,.F.);
#432 = EDGE_LOOP('',(#433,#441,#448,#449));
#433 = ORIENTED_EDGE('',*,*,#434,.T.);
#434 = EDGE_CURVE('',#418,#435,#437,.T.);
#435 = VERTEX_POINT('',#436);
#436 = CARTESIAN_POINT('',(-7.113899949234,-5.631736259756,
    17.220540137179));
#437 = LINE('',#438,#439);
#438 = CARTESIAN_POINT('',(-7.113899949234,-5.631736259756,
    28.310546653752));
#439 = VECTOR('',#440,1.);
#440 = DIRECTION('',(5.520849960009E-16,-1.004437475753E-17,-1.));
#441 = ORIENTED_EDGE('',*,*,#442,.T.);
#442 = EDGE_CURVE('',#435,#435,#443,.T.);
#443 = CIRCLE('',#444,1.45);
#444 = AXIS2_PLACEMENT_3D('',#445,#446,#447);
#445 = CARTESIAN_POINT('',(-5.663899949234,-5.631736259757,
    17.220540137179));
#446 = DIRECTION('',(-5.57546924322E-16,2.397594652611E-15,1.));
#447 = DIRECTION('',(1.,-2.584044089815E-14,5.57546924322E-16));
#448 = ORIENTED_EDGE('',*,*,#434,.F.);
#449 = ORIENTED_EDGE('',*,*,#417,.F.);
#450 = CYLINDRICAL_SURFACE('',#451,1.45);
#451 = AXIS2_PLACEMENT_3D('',#452,#453,#454);
#452 = CARTESIAN_POINT('',(-5.663899949234,-5.631736259757,
    28.310546653752));
#453 = DIRECTION('',(5.520849960009E-16,-1.004437475753E-17,-1.));
#454 = DIRECTION('',(1.,-2.584044089815E-14,5.520849960009E-16));
#455 = ADVANCED_FACE('',(#456),#475,.F.);
#456 = FACE_BOUND('',#457,.F.);
#457 = EDGE_LOOP('',(#458,#466,#473,#474));
#458 = ORIENTED_EDGE('',*,*,#459,.T.);
#459 = EDGE_CURVE('',#362,#460,#462,.T.);
#460 = VERTEX_POINT('',#461);
#461 = CARTESIAN_POINT('',(4.199808548766,5.681972238243,17.220540137179
    ));
#462 = LINE('',#463,#464);
#463 = CARTESIAN_POINT('',(4.199808548766,5.681972238243,28.310546653752
    ));
#464 = VECTOR('',#465,1.);
#465 = DIRECTION('',(5.520849960009E-16,-1.004437475753E-17,-1.));
#466 = ORIENTED_EDGE('',*,*,#467,.T.);
#467 = EDGE_CURVE('',#460,#460,#468,.T.);
#468 = CIRCLE('',#469,1.45);
#469 = AXIS2_PLACEMENT_3D('',#470,#471,#472);
#470 = CARTESIAN_POINT('',(5.649808548766,5.681972238243,17.220540137179
    ));
#471 = DIRECTION('',(-5.57546924322E-16,2.397594652611E-15,1.));
#472 = DIRECTION('',(1.,-2.584044089815E-14,5.57546924322E-16));
#473 = ORIENTED_EDGE('',*,*,#459,.F.);
#474 = ORIENTED_EDGE('',*,*,#361,.F.);
#475 = CYLINDRICAL_SURFACE('',#476,1.45);
#476 = AXIS2_PLACEMENT_3D('',#477,#478,#479);
#477 = CARTESIAN_POINT('',(5.649808548766,5.681972238243,28.310546653752
    ));
#478 = DIRECTION('',(5.520849960009E-16,-1.004437475753E-17,-1.));
#479 = DIRECTION('',(1.,-2.584044089815E-14,5.520849960009E-16));
#480 = ADVANCED_FACE('',(#481),#500,.F.);
#481 = FACE_BOUND('',#482,.F.);
#482 = EDGE_LOOP('',(#483,#491,#498,#499));
#483 = ORIENTED_EDGE('',*,*,#484,.T.);
#484 = EDGE_CURVE('',#390,#485,#487,.T.);
#485 = VERTEX_POINT('',#486);
#486 = CARTESIAN_POINT('',(-7.113899949234,5.681972238244,
    17.220540137179));
#487 = LINE('',#488,#489);
#488 = CARTESIAN_POINT('',(-7.113899949234,5.681972238244,
    28.310546653752));
#489 = VECTOR('',#490,1.);
#490 = DIRECTION('',(5.520849960009E-16,-1.004437475753E-17,-1.));
#491 = ORIENTED_EDGE('',*,*,#492,.T.);
#492 = EDGE_CURVE('',#485,#485,#493,.T.);
#493 = CIRCLE('',#494,1.45);
#494 = AXIS2_PLACEMENT_3D('',#495,#496,#497);
#495 = CARTESIAN_POINT('',(-5.663899949234,5.681972238243,
    17.220540137179));
#496 = DIRECTION('',(-5.57546924322E-16,2.397594652611E-15,1.));
#497 = DIRECTION('',(1.,-2.584044089815E-14,5.57546924322E-16));
#498 = ORIENTED_EDGE('',*,*,#484,.F.);
#499 = ORIENTED_EDGE('',*,*,#389,.F.);
#500 = CYLINDRICAL_SURFACE('',#501,1.45);
#501 = AXIS2_PLACEMENT_3D('',#502,#503,#504);
#502 = CARTESIAN_POINT('',(-5.663899949234,5.681972238243,
    28.310546653752));
#503 = DIRECTION('',(5.520849960009E-16,-1.004437475753E-17,-1.));
#504 = DIRECTION('',(1.,-2.584044089815E-14,5.520849960009E-16));
#505 = ADVANCED_FACE('',(#506),#525,.F.);
#506 = FACE_BOUND('',#507,.F.);
#507 = EDGE_LOOP('',(#508,#516,#523,#524));
#508 = ORIENTED_EDGE('',*,*,#509,.T.);
#509 = EDGE_CURVE('',#334,#510,#512,.T.);
#510 = VERTEX_POINT('',#511);
#511 = CARTESIAN_POINT('',(4.199808548766,-5.631736259756,
    17.220540137179));
#512 = LINE('',#513,#514);
#513 = CARTESIAN_POINT('',(4.199808548766,-5.631736259756,
    28.310540137179));
#514 = VECTOR('',#515,1.);
#515 = DIRECTION('',(5.520849960009E-16,-1.004437475753E-17,-1.));
#516 = ORIENTED_EDGE('',*,*,#517,.T.);
#517 = EDGE_CURVE('',#510,#510,#518,.T.);
#518 = CIRCLE('',#519,1.45);
#519 = AXIS2_PLACEMENT_3D('',#520,#521,#522);
#520 = CARTESIAN_POINT('',(5.649808548766,-5.631736259756,
    17.220540137179));
#521 = DIRECTION('',(-5.57546924322E-16,2.397594652611E-15,1.));
#522 = DIRECTION('',(1.,-2.584044089815E-14,5.57546924322E-16));
#523 = ORIENTED_EDGE('',*,*,#509,.F.);
#524 = ORIENTED_EDGE('',*,*,#333,.F.);
#525 = CYLINDRICAL_SURFACE('',#526,1.45);
#526 = AXIS2_PLACEMENT_3D('',#527,#528,#529);
#527 = CARTESIAN_POINT('',(5.649808548766,-5.631736259756,
    28.310540137179));
#528 = DIRECTION('',(5.520849960009E-16,-1.004437475753E-17,-1.));
#529 = DIRECTION('',(1.,-2.584044089815E-14,5.520849960009E-16));
#530 = ADVANCED_FACE('',(#531),#550,.F.);
#531 = FACE_BOUND('',#532,.F.);
#532 = EDGE_LOOP('',(#533,#541,#542,#543));
#533 = ORIENTED_EDGE('',*,*,#534,.T.);
#534 = EDGE_CURVE('',#535,#323,#537,.T.);
#535 = VERTEX_POINT('',#536);
#536 = CARTESIAN_POINT('',(8.649808548766,-5.631736259756,
    36.410003356225));
#537 = LINE('',#538,#539);
#538 = CARTESIAN_POINT('',(8.649808548766,-5.631736259756,
    31.300540137179));
#539 = VECTOR('',#540,1.);
#540 = DIRECTION('',(5.789044867166E-16,-2.07274792849E-16,-1.));
#541 = ORIENTED_EDGE('',*,*,#322,.F.);
#542 = ORIENTED_EDGE('',*,*,#534,.F.);
#543 = ORIENTED_EDGE('',*,*,#544,.T.);
#544 = EDGE_CURVE('',#535,#535,#545,.T.);
#545 = CIRCLE('',#546,3.);
#546 = AXIS2_PLACEMENT_3D('',#547,#548,#549);
#547 = CARTESIAN_POINT('',(5.649808548766,-5.631736259756,
    36.410003356225));
#548 = DIRECTION('',(0.,-2.175550047686E-15,-1.));
#549 = DIRECTION('',(-1.,3.12990002912E-30,-6.809254157602E-45));
#550 = CYLINDRICAL_SURFACE('',#551,3.);
#551 = AXIS2_PLACEMENT_3D('',#552,#553,#554);
#552 = CARTESIAN_POINT('',(5.649808548766,-5.631736259756,
    31.300540137179));
#553 = DIRECTION('',(5.789044867166E-16,-2.07274792849E-16,-1.));
#554 = DIRECTION('',(-1.,1.870464345438E-30,-5.789044867166E-16));
#555 = ADVANCED_FACE('',(#556),#575,.F.);
#556 = FACE_BOUND('',#557,.F.);
#557 = EDGE_LOOP('',(#558,#566,#567,#568));
#558 = ORIENTED_EDGE('',*,*,#559,.T.);
#559 = EDGE_CURVE('',#560,#351,#562,.T.);
#560 = VERTEX_POINT('',#561);
#561 = CARTESIAN_POINT('',(8.649808548766,5.681972238244,36.410003356225
    ));
#562 = LINE('',#563,#564);
#563 = CARTESIAN_POINT('',(8.649808548766,5.681972238244,31.300540137179
    ));
#564 = VECTOR('',#565,1.);
#565 = DIRECTION('',(5.789044867166E-16,-2.07274792849E-16,-1.));
#566 = ORIENTED_EDGE('',*,*,#350,.F.);
#567 = ORIENTED_EDGE('',*,*,#559,.F.);
#568 = ORIENTED_EDGE('',*,*,#569,.T.);
#569 = EDGE_CURVE('',#560,#560,#570,.T.);
#570 = CIRCLE('',#571,3.);
#571 = AXIS2_PLACEMENT_3D('',#572,#573,#574);
#572 = CARTESIAN_POINT('',(5.649808548766,5.681972238244,36.410003356225
    ));
#573 = DIRECTION('',(0.,-2.175550047686E-15,-1.));
#574 = DIRECTION('',(-1.,3.12990002912E-30,-6.809254157602E-45));
#575 = CYLINDRICAL_SURFACE('',#576,3.);
#576 = AXIS2_PLACEMENT_3D('',#577,#578,#579);
#577 = CARTESIAN_POINT('',(5.649808548766,5.681972238244,31.300540137179
    ));
#578 = DIRECTION('',(5.789044867166E-16,-2.07274792849E-16,-1.));
#579 = DIRECTION('',(-1.,1.870464345438E-30,-5.789044867166E-16));
#580 = ADVANCED_FACE('',(#581),#617,.F.);
#581 = FACE_BOUND('',#582,.F.);
#582 = EDGE_LOOP('',(#583,#593,#602,#609,#610));
#583 = ORIENTED_EDGE('',*,*,#584,.T.);
#584 = EDGE_CURVE('',#585,#587,#589,.T.);
#585 = VERTEX_POINT('',#586);
#586 = CARTESIAN_POINT('',(2.192954299766,2.51179892439E-02,
    36.410003356225));
#587 = VERTEX_POINT('',#588);
#588 = CARTESIAN_POINT('',(2.192954299766,2.51179892439E-02,
    17.220540137179));
#589 = LINE('',#590,#591);
#590 = CARTESIAN_POINT('',(2.192954299766,2.51179892439E-02,
    29.010539030917));
#591 = VECTOR('',#592,1.);
#592 = DIRECTION('',(5.551115123126E-16,-2.217967872856E-16,-1.));
#593 = ORIENTED_EDGE('',*,*,#594,.T.);
#594 = EDGE_CURVE('',#587,#595,#597,.T.);
#595 = VERTEX_POINT('',#596);
#596 = CARTESIAN_POINT('',(-2.207045700234,2.51179892439E-02,
    17.220540137179));
#597 = CIRCLE('',#598,2.2);
#598 = AXIS2_PLACEMENT_3D('',#599,#600,#601);
#599 = CARTESIAN_POINT('',(-7.045700233623E-03,2.51179892439E-02,
    17.220540137179));
#600 = DIRECTION('',(-5.57546924322E-16,2.397594652611E-15,1.));
#601 = DIRECTION('',(1.,5.298963884157E-33,5.57546924322E-16));
#602 = ORIENTED_EDGE('',*,*,#603,.T.);
#603 = EDGE_CURVE('',#595,#587,#604,.T.);
#604 = CIRCLE('',#605,2.2);
#605 = AXIS2_PLACEMENT_3D('',#606,#607,#608);
#606 = CARTESIAN_POINT('',(-7.045700233623E-03,2.51179892439E-02,
    17.220540137179));
#607 = DIRECTION('',(-5.57546924322E-16,2.397594652611E-15,1.));
#608 = DIRECTION('',(1.,5.298963884157E-33,5.57546924322E-16));
#609 = ORIENTED_EDGE('',*,*,#584,.F.);
#610 = ORIENTED_EDGE('',*,*,#611,.T.);
#611 = EDGE_CURVE('',#585,#585,#612,.T.);
#612 = CIRCLE('',#613,2.2);
#613 = AXIS2_PLACEMENT_3D('',#614,#615,#616);
#614 = CARTESIAN_POINT('',(-7.045700233633E-03,2.51179892439E-02,
    36.410003356225));
#615 = DIRECTION('',(0.,-2.175550047686E-15,-1.));
#616 = DIRECTION('',(-1.,1.208213044009E-30,-2.628527945508E-45));
#617 = CYLINDRICAL_SURFACE('',#618,2.2);
#618 = AXIS2_PLACEMENT_3D('',#619,#620,#621);
#619 = CARTESIAN_POINT('',(-7.045700233629E-03,2.51179892439E-02,
    29.010539030917));
#620 = DIRECTION('',(5.551115123126E-16,-2.217967872856E-16,-1.));
#621 = DIRECTION('',(-1.,5.401669264558E-34,-5.551115123126E-16));
#622 = ADVANCED_FACE('',(#623),#642,.F.);
#623 = FACE_BOUND('',#624,.F.);
#624 = EDGE_LOOP('',(#625,#633,#634,#635));
#625 = ORIENTED_EDGE('',*,*,#626,.T.);
#626 = EDGE_CURVE('',#627,#379,#629,.T.);
#627 = VERTEX_POINT('',#628);
#628 = CARTESIAN_POINT('',(-2.663899949234,5.681972238244,
    36.410003356225));
#629 = LINE('',#630,#631);
#630 = CARTESIAN_POINT('',(-2.663899949234,5.681972238244,
    31.300540137179));
#631 = VECTOR('',#632,1.);
#632 = DIRECTION('',(5.789044867166E-16,-2.07274792849E-16,-1.));
#633 = ORIENTED_EDGE('',*,*,#378,.F.);
#634 = ORIENTED_EDGE('',*,*,#626,.F.);
#635 = ORIENTED_EDGE('',*,*,#636,.T.);
#636 = EDGE_CURVE('',#627,#627,#637,.T.);
#637 = CIRCLE('',#638,3.);
#638 = AXIS2_PLACEMENT_3D('',#639,#640,#641);
#639 = CARTESIAN_POINT('',(-5.663899949234,5.681972238244,
    36.410003356225));
#640 = DIRECTION('',(0.,-2.175550047686E-15,-1.));
#641 = DIRECTION('',(-1.,3.12990002912E-30,-6.809254157602E-45));
#642 = CYLINDRICAL_SURFACE('',#643,3.);
#643 = AXIS2_PLACEMENT_3D('',#644,#645,#646);
#644 = CARTESIAN_POINT('',(-5.663899949234,5.681972238244,
    31.300540137179));
#645 = DIRECTION('',(5.789044867166E-16,-2.07274792849E-16,-1.));
#646 = DIRECTION('',(-1.,1.870464345438E-30,-5.789044867166E-16));
#647 = ADVANCED_FACE('',(#648),#667,.F.);
#648 = FACE_BOUND('',#649,.F.);
#649 = EDGE_LOOP('',(#650,#658,#659,#660));
#650 = ORIENTED_EDGE('',*,*,#651,.T.);
#651 = EDGE_CURVE('',#652,#407,#654,.T.);
#652 = VERTEX_POINT('',#653);
#653 = CARTESIAN_POINT('',(-2.663899949234,-5.631736259756,
    36.410003356225));
#654 = LINE('',#655,#656);
#655 = CARTESIAN_POINT('',(-2.663899949234,-5.631736259756,
    31.300540137179));
#656 = VECTOR('',#657,1.);
#657 = DIRECTION('',(5.789044867166E-16,-2.07274792849E-16,-1.));
#658 = ORIENTED_EDGE('',*,*,#406,.F.);
#659 = ORIENTED_EDGE('',*,*,#651,.F.);
#660 = ORIENTED_EDGE('',*,*,#661,.T.);
#661 = EDGE_CURVE('',#652,#652,#662,.T.);
#662 = CIRCLE('',#663,3.);
#663 = AXIS2_PLACEMENT_3D('',#664,#665,#666);
#664 = CARTESIAN_POINT('',(-5.663899949234,-5.631736259756,
    36.410003356225));
#665 = DIRECTION('',(0.,-2.175550047686E-15,-1.));
#666 = DIRECTION('',(-1.,3.12990002912E-30,-6.809254157602E-45));
#667 = CYLINDRICAL_SURFACE('',#668,3.);
#668 = AXIS2_PLACEMENT_3D('',#669,#670,#671);
#669 = CARTESIAN_POINT('',(-5.663899949234,-5.631736259756,
    31.300540137179));
#670 = DIRECTION('',(5.789044867166E-16,-2.07274792849E-16,-1.));
#671 = DIRECTION('',(-1.,1.870464345438E-30,-5.789044867166E-16));
#672 = ADVANCED_FACE('',(#673),#692,.F.);
#673 = FACE_BOUND('',#674,.F.);
#674 = EDGE_LOOP('',(#675,#683,#690,#691));
#675 = ORIENTED_EDGE('',*,*,#676,.T.);
#676 = EDGE_CURVE('',#435,#677,#679,.T.);
#677 = VERTEX_POINT('',#678);
#678 = CARTESIAN_POINT('',(-7.513899949234,-5.631736259756,
    16.820540137179));
#679 = LINE('',#680,#681);
#680 = CARTESIAN_POINT('',(-7.313899949234,-5.631736259756,
    17.020540137179));
#681 = VECTOR('',#682,1.);
#682 = DIRECTION('',(-0.707106781187,1.63959310202E-14,-0.707106781187)
  );
#683 = ORIENTED_EDGE('',*,*,#684,.F.);
#684 = EDGE_CURVE('',#677,#677,#685,.T.);
#685 = CIRCLE('',#686,1.85);
#686 = AXIS2_PLACEMENT_3D('',#687,#688,#689);
#687 = CARTESIAN_POINT('',(-5.663899949234,-5.631736259757,
    16.820540137179));
#688 = DIRECTION('',(5.57546924322E-16,-2.397594652611E-15,-1.));
#689 = DIRECTION('',(1.,-2.584044089815E-14,5.57546924322E-16));
#690 = ORIENTED_EDGE('',*,*,#676,.F.);
#691 = ORIENTED_EDGE('',*,*,#442,.F.);
#692 = CONICAL_SURFACE('',#693,1.65,0.785398163397);
#693 = AXIS2_PLACEMENT_3D('',#694,#695,#696);
#694 = CARTESIAN_POINT('',(-5.663899949234,-5.631736259757,
    17.020540137179));
#695 = DIRECTION('',(0.,-2.775557561563E-15,-1.));
#696 = DIRECTION('',(1.,-2.584044089815E-14,7.172163112898E-29));
#697 = ADVANCED_FACE('',(#698),#717,.F.);
#698 = FACE_BOUND('',#699,.F.);
#699 = EDGE_LOOP('',(#700,#708,#715,#716));
#700 = ORIENTED_EDGE('',*,*,#701,.T.);
#701 = EDGE_CURVE('',#460,#702,#704,.T.);
#702 = VERTEX_POINT('',#703);
#703 = CARTESIAN_POINT('',(3.799808548766,5.681972238243,16.820540137179
    ));
#704 = LINE('',#705,#706);
#705 = CARTESIAN_POINT('',(3.999808548766,5.681972238243,17.020540137179
    ));
#706 = VECTOR('',#707,1.);
#707 = DIRECTION('',(-0.707106781187,1.63959310202E-14,-0.707106781187)
  );
#708 = ORIENTED_EDGE('',*,*,#709,.F.);
#709 = EDGE_CURVE('',#702,#702,#710,.T.);
#710 = CIRCLE('',#711,1.85);
#711 = AXIS2_PLACEMENT_3D('',#712,#713,#714);
#712 = CARTESIAN_POINT('',(5.649808548766,5.681972238243,16.820540137179
    ));
#713 = DIRECTION('',(5.57546924322E-16,-2.397594652611E-15,-1.));
#714 = DIRECTION('',(1.,-2.584044089815E-14,5.57546924322E-16));
#715 = ORIENTED_EDGE('',*,*,#701,.F.);
#716 = ORIENTED_EDGE('',*,*,#467,.F.);
#717 = CONICAL_SURFACE('',#718,1.65,0.785398163397);
#718 = AXIS2_PLACEMENT_3D('',#719,#720,#721);
#719 = CARTESIAN_POINT('',(5.649808548766,5.681972238243,17.020540137179
    ));
#720 = DIRECTION('',(0.,-2.775557561563E-15,-1.));
#721 = DIRECTION('',(1.,-2.584044089815E-14,7.172163112898E-29));
#722 = ADVANCED_FACE('',(#723),#743,.F.);
#723 = FACE_BOUND('',#724,.F.);
#724 = EDGE_LOOP('',(#725,#726,#734,#741,#742));
#725 = ORIENTED_EDGE('',*,*,#603,.F.);
#726 = ORIENTED_EDGE('',*,*,#727,.T.);
#727 = EDGE_CURVE('',#595,#728,#730,.T.);
#728 = VERTEX_POINT('',#729);
#729 = CARTESIAN_POINT('',(-2.607045700234,2.51179892439E-02,
    16.820540137179));
#730 = LINE('',#731,#732);
#731 = CARTESIAN_POINT('',(-2.407045700234,2.51179892439E-02,
    17.020540137179));
#732 = VECTOR('',#733,1.);
#733 = DIRECTION('',(-0.707106781187,-1.607693619812E-15,-0.707106781187
    ));
#734 = ORIENTED_EDGE('',*,*,#735,.F.);
#735 = EDGE_CURVE('',#728,#728,#736,.T.);
#736 = CIRCLE('',#737,2.6);
#737 = AXIS2_PLACEMENT_3D('',#738,#739,#740);
#738 = CARTESIAN_POINT('',(-7.045700233623E-03,2.51179892439E-02,
    16.820540137179));
#739 = DIRECTION('',(5.57546924322E-16,-2.397594652611E-15,-1.));
#740 = DIRECTION('',(1.,5.298963884157E-33,5.57546924322E-16));
#741 = ORIENTED_EDGE('',*,*,#727,.F.);
#742 = ORIENTED_EDGE('',*,*,#594,.F.);
#743 = CONICAL_SURFACE('',#744,2.4,0.785398163397);
#744 = AXIS2_PLACEMENT_3D('',#745,#746,#747);
#745 = CARTESIAN_POINT('',(-7.045700233623E-03,2.51179892439E-02,
    17.020540137179));
#746 = DIRECTION('',(5.583641188301E-16,-2.396086801193E-15,-1.));
#747 = DIRECTION('',(1.,7.255349749253E-33,5.583641188301E-16));
#748 = ADVANCED_FACE('',(#749),#768,.F.);
#749 = FACE_BOUND('',#750,.F.);
#750 = EDGE_LOOP('',(#751,#759,#766,#767));
#751 = ORIENTED_EDGE('',*,*,#752,.T.);
#752 = EDGE_CURVE('',#485,#753,#755,.T.);
#753 = VERTEX_POINT('',#754);
#754 = CARTESIAN_POINT('',(-7.513899949234,5.681972238244,
    16.820540137179));
#755 = LINE('',#756,#757);
#756 = CARTESIAN_POINT('',(-7.313899949234,5.681972238244,
    17.020540137179));
#757 = VECTOR('',#758,1.);
#758 = DIRECTION('',(-0.707106781187,1.63959310202E-14,-0.707106781187)
  );
#759 = ORIENTED_EDGE('',*,*,#760,.F.);
#760 = EDGE_CURVE('',#753,#753,#761,.T.);
#761 = CIRCLE('',#762,1.85);
#762 = AXIS2_PLACEMENT_3D('',#763,#764,#765);
#763 = CARTESIAN_POINT('',(-5.663899949234,5.681972238243,
    16.820540137179));
#764 = DIRECTION('',(5.57546924322E-16,-2.397594652611E-15,-1.));
#765 = DIRECTION('',(1.,-2.584044089815E-14,5.57546924322E-16));
#766 = ORIENTED_EDGE('',*,*,#752,.F.);
#767 = ORIENTED_EDGE('',*,*,#492,.F.);
#768 = CONICAL_SURFACE('',#769,1.65,0.785398163397);
#769 = AXIS2_PLACEMENT_3D('',#770,#771,#772);
#770 = CARTESIAN_POINT('',(-5.663899949234,5.681972238243,
    17.020540137179));
#771 = DIRECTION('',(0.,-2.775557561563E-15,-1.));
#772 = DIRECTION('',(1.,-2.584044089815E-14,7.172163112897E-29));
#773 = ADVANCED_FACE('',(#774),#793,.F.);
#774 = FACE_BOUND('',#775,.F.);
#775 = EDGE_LOOP('',(#776,#784,#791,#792));
#776 = ORIENTED_EDGE('',*,*,#777,.T.);
#777 = EDGE_CURVE('',#510,#778,#780,.T.);
#778 = VERTEX_POINT('',#779);
#779 = CARTESIAN_POINT('',(3.799808548766,-5.631736259756,
    16.820540137179));
#780 = LINE('',#781,#782);
#781 = CARTESIAN_POINT('',(3.999808548766,-5.631736259756,
    17.020540137179));
#782 = VECTOR('',#783,1.);
#783 = DIRECTION('',(-0.707106781187,1.63959310202E-14,-0.707106781187)
  );
#784 = ORIENTED_EDGE('',*,*,#785,.F.);
#785 = EDGE_CURVE('',#778,#778,#786,.T.);
#786 = CIRCLE('',#787,1.85);
#787 = AXIS2_PLACEMENT_3D('',#788,#789,#790);
#788 = CARTESIAN_POINT('',(5.649808548766,-5.631736259756,
    16.820540137179));
#789 = DIRECTION('',(5.57546924322E-16,-2.397594652611E-15,-1.));
#790 = DIRECTION('',(1.,-2.584044089815E-14,5.57546924322E-16));
#791 = ORIENTED_EDGE('',*,*,#777,.F.);
#792 = ORIENTED_EDGE('',*,*,#517,.F.);
#793 = CONICAL_SURFACE('',#794,1.65,0.785398163397);
#794 = AXIS2_PLACEMENT_3D('',#795,#796,#797);
#795 = CARTESIAN_POINT('',(5.649808548766,-5.631736259756,
    17.020540137179));
#796 = DIRECTION('',(0.,-2.775557561563E-15,-1.));
#797 = DIRECTION('',(1.,-2.584044089815E-14,7.172163112899E-29));
#798 = ADVANCED_FACE('',(#799),#818,.F.);
#799 = FACE_BOUND('',#800,.F.);
#800 = EDGE_LOOP('',(#801,#809,#816,#817));
#801 = ORIENTED_EDGE('',*,*,#802,.T.);
#802 = EDGE_CURVE('',#535,#803,#805,.T.);
#803 = VERTEX_POINT('',#804);
#804 = CARTESIAN_POINT('',(9.049808548766,-5.631736259756,
    36.810003356225));
#805 = LINE('',#806,#807);
#806 = CARTESIAN_POINT('',(8.849808548766,-5.631736259756,
    36.610003356225));
#807 = VECTOR('',#808,1.);
#808 = DIRECTION('',(0.707106781187,2.049211178978E-15,0.707106781187));
#809 = ORIENTED_EDGE('',*,*,#810,.F.);
#810 = EDGE_CURVE('',#803,#803,#811,.T.);
#811 = CIRCLE('',#812,3.4);
#812 = AXIS2_PLACEMENT_3D('',#813,#814,#815);
#813 = CARTESIAN_POINT('',(5.649808548766,-5.631736259756,
    36.810003356225));
#814 = DIRECTION('',(0.,2.175550047686E-15,1.));
#815 = DIRECTION('',(-1.,3.12990002912E-30,-6.809254157602E-45));
#816 = ORIENTED_EDGE('',*,*,#802,.F.);
#817 = ORIENTED_EDGE('',*,*,#544,.F.);
#818 = CONICAL_SURFACE('',#819,3.2,0.785398163397);
#819 = AXIS2_PLACEMENT_3D('',#820,#821,#822);
#820 = CARTESIAN_POINT('',(5.649808548766,-5.631736259756,
    36.610003356225));
#821 = DIRECTION('',(0.,2.775557561563E-15,1.));
#822 = DIRECTION('',(-1.,3.292718954985E-30,-9.13913099361E-45));
#823 = ADVANCED_FACE('',(#824),#843,.F.);
#824 = FACE_BOUND('',#825,.F.);
#825 = EDGE_LOOP('',(#826,#834,#841,#842));
#826 = ORIENTED_EDGE('',*,*,#827,.T.);
#827 = EDGE_CURVE('',#560,#828,#830,.T.);
#828 = VERTEX_POINT('',#829);
#829 = CARTESIAN_POINT('',(9.049808548766,5.681972238244,36.810003356225
    ));
#830 = LINE('',#831,#832);
#831 = CARTESIAN_POINT('',(8.849808548766,5.681972238244,36.610003356225
    ));
#832 = VECTOR('',#833,1.);
#833 = DIRECTION('',(0.707106781187,2.049211178978E-15,0.707106781187));
#834 = ORIENTED_EDGE('',*,*,#835,.F.);
#835 = EDGE_CURVE('',#828,#828,#836,.T.);
#836 = CIRCLE('',#837,3.4);
#837 = AXIS2_PLACEMENT_3D('',#838,#839,#840);
#838 = CARTESIAN_POINT('',(5.649808548766,5.681972238244,36.810003356225
    ));
#839 = DIRECTION('',(0.,2.175550047686E-15,1.));
#840 = DIRECTION('',(-1.,3.12990002912E-30,-6.809254157602E-45));
#841 = ORIENTED_EDGE('',*,*,#827,.F.);
#842 = ORIENTED_EDGE('',*,*,#569,.F.);
#843 = CONICAL_SURFACE('',#844,3.2,0.785398163397);
#844 = AXIS2_PLACEMENT_3D('',#845,#846,#847);
#845 = CARTESIAN_POINT('',(5.649808548766,5.681972238244,36.610003356225
    ));
#846 = DIRECTION('',(0.,2.775557561563E-15,1.));
#847 = DIRECTION('',(-1.,3.292718954985E-30,-9.139130993612E-45));
#848 = ADVANCED_FACE('',(#849),#868,.F.);
#849 = FACE_BOUND('',#850,.F.);
#850 = EDGE_LOOP('',(#851,#859,#866,#867));
#851 = ORIENTED_EDGE('',*,*,#852,.T.);
#852 = EDGE_CURVE('',#585,#853,#855,.T.);
#853 = VERTEX_POINT('',#854);
#854 = CARTESIAN_POINT('',(2.592954299766,2.51179892439E-02,
    36.810003356225));
#855 = LINE('',#856,#857);
#856 = CARTESIAN_POINT('',(2.392954299766,2.51179892439E-02,
    36.610003356225));
#857 = VECTOR('',#858,1.);
#858 = DIRECTION('',(0.707106781187,1.62755548939E-15,0.707106781187));
#859 = ORIENTED_EDGE('',*,*,#860,.F.);
#860 = EDGE_CURVE('',#853,#853,#861,.T.);
#861 = CIRCLE('',#862,2.6);
#862 = AXIS2_PLACEMENT_3D('',#863,#864,#865);
#863 = CARTESIAN_POINT('',(-7.045700233633E-03,2.51179892439E-02,
    36.810003356225));
#864 = DIRECTION('',(0.,2.175550047686E-15,1.));
#865 = DIRECTION('',(-1.,1.208213044009E-30,-2.628527945508E-45));
#866 = ORIENTED_EDGE('',*,*,#852,.F.);
#867 = ORIENTED_EDGE('',*,*,#611,.F.);
#868 = CONICAL_SURFACE('',#869,2.4,0.785398163397);
#869 = AXIS2_PLACEMENT_3D('',#870,#871,#872);
#870 = CARTESIAN_POINT('',(-7.045700233633E-03,2.51179892439E-02,
    36.610003356225));
#871 = DIRECTION('',(0.,2.179246366696E-15,1.));
#872 = DIRECTION('',(-1.,1.209153484075E-30,-2.635043336949E-45));
#873 = ADVANCED_FACE('',(#874),#893,.F.);
#874 = FACE_BOUND('',#875,.F.);
#875 = EDGE_LOOP('',(#876,#884,#891,#892));
#876 = ORIENTED_EDGE('',*,*,#877,.T.);
#877 = EDGE_CURVE('',#627,#878,#880,.T.);
#878 = VERTEX_POINT('',#879);
#879 = CARTESIAN_POINT('',(-2.263899949234,5.681972238244,
    36.810003356225));
#880 = LINE('',#881,#882);
#881 = CARTESIAN_POINT('',(-2.463899949234,5.681972238244,
    36.610003356225));
#882 = VECTOR('',#883,1.);
#883 = DIRECTION('',(0.707106781187,2.049211178978E-15,0.707106781187));
#884 = ORIENTED_EDGE('',*,*,#885,.F.);
#885 = EDGE_CURVE('',#878,#878,#886,.T.);
#886 = CIRCLE('',#887,3.4);
#887 = AXIS2_PLACEMENT_3D('',#888,#889,#890);
#888 = CARTESIAN_POINT('',(-5.663899949234,5.681972238244,
    36.810003356225));
#889 = DIRECTION('',(0.,2.175550047686E-15,1.));
#890 = DIRECTION('',(-1.,3.12990002912E-30,-6.809254157602E-45));
#891 = ORIENTED_EDGE('',*,*,#877,.F.);
#892 = ORIENTED_EDGE('',*,*,#636,.F.);
#893 = CONICAL_SURFACE('',#894,3.2,0.785398163397);
#894 = AXIS2_PLACEMENT_3D('',#895,#896,#897);
#895 = CARTESIAN_POINT('',(-5.663899949234,5.681972238244,
    36.610003356225));
#896 = DIRECTION('',(0.,2.775557561563E-15,1.));
#897 = DIRECTION('',(-1.,3.292718954985E-30,-9.139130993612E-45));
#898 = ADVANCED_FACE('',(#899),#918,.F.);
#899 = FACE_BOUND('',#900,.F.);
#900 = EDGE_LOOP('',(#901,#909,#916,#917));
#901 = ORIENTED_EDGE('',*,*,#902,.T.);
#902 = EDGE_CURVE('',#652,#903,#905,.T.);
#903 = VERTEX_POINT('',#904);
#904 = CARTESIAN_POINT('',(-2.263899949234,-5.631736259756,
    36.810003356225));
#905 = LINE('',#906,#907);
#906 = CARTESIAN_POINT('',(-2.463899949234,-5.631736259756,
    36.610003356225));
#907 = VECTOR('',#908,1.);
#908 = DIRECTION('',(0.707106781187,2.049211178978E-15,0.707106781187));
#909 = ORIENTED_EDGE('',*,*,#910,.F.);
#910 = EDGE_CURVE('',#903,#903,#911,.T.);
#911 = CIRCLE('',#912,3.4);
#912 = AXIS2_PLACEMENT_3D('',#913,#914,#915);
#913 = CARTESIAN_POINT('',(-5.663899949234,-5.631736259756,
    36.810003356225));
#914 = DIRECTION('',(0.,2.175550047686E-15,1.));
#915 = DIRECTION('',(-1.,3.12990002912E-30,-6.809254157602E-45));
#916 = ORIENTED_EDGE('',*,*,#902,.F.);
#917 = ORIENTED_EDGE('',*,*,#661,.F.);
#918 = CONICAL_SURFACE('',#919,3.2,0.785398163397);
#919 = AXIS2_PLACEMENT_3D('',#920,#921,#922);
#920 = CARTESIAN_POINT('',(-5.663899949234,-5.631736259756,
    36.610003356225));
#921 = DIRECTION('',(0.,2.775557561563E-15,1.));
#922 = DIRECTION('',(-1.,3.292718954985E-30,-9.13913099361E-45));
#923 = ADVANCED_FACE('',(#924),#949,.T.);
#924 = FACE_BOUND('',#925,.T.);
#925 = EDGE_LOOP('',(#926,#934,#942,#948));
#926 = ORIENTED_EDGE('',*,*,#927,.T.);
#927 = EDGE_CURVE('',#239,#928,#930,.T.);
#928 = VERTEX_POINT('',#929);
#929 = CARTESIAN_POINT('',(-12.06142052253,14.468254581144,
    16.820540137179));
#930 = LINE('',#931,#932);
#931 = CARTESIAN_POINT('',(-8.531160150292,10.937994208903,
    13.290279764937));
#932 = VECTOR('',#933,1.);
#933 = DIRECTION('',(0.57735026919,-0.57735026919,-0.57735026919));
#934 = ORIENTED_EDGE('',*,*,#935,.T.);
#935 = EDGE_CURVE('',#928,#936,#938,.T.);
#936 = VERTEX_POINT('',#937);
#937 = CARTESIAN_POINT('',(-12.06142052253,-9.531745418856,
    16.820540137179));
#938 = LINE('',#939,#940);
#939 = CARTESIAN_POINT('',(-12.06142052253,8.968254581144,
    16.820540137179));
#940 = VECTOR('',#941,1.);
#941 = DIRECTION('',(-1.19434734501E-30,-1.,2.397594652611E-15));
#942 = ORIENTED_EDGE('',*,*,#943,.T.);
#943 = EDGE_CURVE('',#936,#247,#944,.T.);
#944 = LINE('',#945,#946);
#945 = CARTESIAN_POINT('',(-8.573555954009,-6.043880850331,
    13.332675568654));
#946 = VECTOR('',#947,1.);
#947 = DIRECTION('',(-0.57735026919,-0.57735026919,0.57735026919));
#948 = ORIENTED_EDGE('',*,*,#246,.T.);
#949 = PLANE('',#950);
#950 = AXIS2_PLACEMENT_3D('',#951,#952,#953);
#951 = CARTESIAN_POINT('',(-12.56142052253,8.968254581144,
    17.320540137179));
#952 = DIRECTION('',(-0.707106781187,-1.695355437398E-15,-0.707106781187
    ));
#953 = DIRECTION('',(-0.707106781187,0.,0.707106781187));
#954 = ADVANCED_FACE('',(#955,#980,#983,#986,#989,#992),#995,.F.);
#955 = FACE_BOUND('',#956,.T.);
#956 = EDGE_LOOP('',(#957,#958,#966,#974));
#957 = ORIENTED_EDGE('',*,*,#935,.F.);
#958 = ORIENTED_EDGE('',*,*,#959,.F.);
#959 = EDGE_CURVE('',#960,#928,#962,.T.);
#960 = VERTEX_POINT('',#961);
#961 = CARTESIAN_POINT('',(12.047329122067,14.468254581144,
    16.820540137179));
#962 = LINE('',#963,#964);
#963 = CARTESIAN_POINT('',(6.620141710917,14.468254581144,
    16.820540137179));
#964 = VECTOR('',#965,1.);
#965 = DIRECTION('',(-1.,3.947023788252E-29,-5.57546924322E-16));
#966 = ORIENTED_EDGE('',*,*,#967,.F.);
#967 = EDGE_CURVE('',#968,#960,#970,.T.);
#968 = VERTEX_POINT('',#969);
#969 = CARTESIAN_POINT('',(12.047329122067,-9.531745418856,
    16.820540137179));
#970 = LINE('',#971,#972);
#971 = CARTESIAN_POINT('',(12.047329122067,-4.031745418856,
    16.820540137179));
#972 = VECTOR('',#973,1.);
#973 = DIRECTION('',(1.102736256634E-30,1.,-2.397594652611E-15));
#974 = ORIENTED_EDGE('',*,*,#975,.F.);
#975 = EDGE_CURVE('',#936,#968,#976,.T.);
#976 = LINE('',#977,#978);
#977 = CARTESIAN_POINT('',(-6.634233111384,-9.531745418856,
    16.820540137179));
#978 = VECTOR('',#979,1.);
#979 = DIRECTION('',(1.,-2.414774445349E-32,5.57546924322E-16));
#980 = FACE_BOUND('',#981,.T.);
#981 = EDGE_LOOP('',(#982));
#982 = ORIENTED_EDGE('',*,*,#785,.F.);
#983 = FACE_BOUND('',#984,.T.);
#984 = EDGE_LOOP('',(#985));
#985 = ORIENTED_EDGE('',*,*,#760,.F.);
#986 = FACE_BOUND('',#987,.T.);
#987 = EDGE_LOOP('',(#988));
#988 = ORIENTED_EDGE('',*,*,#735,.F.);
#989 = FACE_BOUND('',#990,.T.);
#990 = EDGE_LOOP('',(#991));
#991 = ORIENTED_EDGE('',*,*,#709,.F.);
#992 = FACE_BOUND('',#993,.T.);
#993 = EDGE_LOOP('',(#994));
#994 = ORIENTED_EDGE('',*,*,#684,.F.);
#995 = PLANE('',#996);
#996 = AXIS2_PLACEMENT_3D('',#997,#998,#999);
#997 = CARTESIAN_POINT('',(-7.045700233623E-03,3.468254581144,
    16.820540137179));
#998 = DIRECTION('',(-5.57546924322E-16,2.397594652611E-15,1.));
#999 = DIRECTION('',(1.,-1.874891233016E-30,5.57546924322E-16));
#1000 = ADVANCED_FACE('',(#1001),#1019,.T.);
#1001 = FACE_BOUND('',#1002,.T.);
#1002 = EDGE_LOOP('',(#1003,#1011,#1012,#1013));
#1003 = ORIENTED_EDGE('',*,*,#1004,.F.);
#1004 = EDGE_CURVE('',#247,#1005,#1007,.T.);
#1005 = VERTEX_POINT('',#1006);
#1006 = CARTESIAN_POINT('',(13.047329122067,-10.53174541885,
    17.820540137179));
#1007 = LINE('',#1008,#1009);
#1008 = CARTESIAN_POINT('',(-9.947826816959,-10.53174541885,
    17.820540137179));
#1009 = VECTOR('',#1010,1.);
#1010 = DIRECTION('',(1.,-2.414774445349E-32,5.57546924322E-16));
#1011 = ORIENTED_EDGE('',*,*,#943,.F.);
#1012 = ORIENTED_EDGE('',*,*,#975,.T.);
#1013 = ORIENTED_EDGE('',*,*,#1014,.F.);
#1014 = EDGE_CURVE('',#1005,#968,#1015,.T.);
#1015 = LINE('',#1016,#1017);
#1016 = CARTESIAN_POINT('',(8.517068749825,-6.001485046614,
    13.290279764937));
#1017 = VECTOR('',#1018,1.);
#1018 = DIRECTION('',(-0.57735026919,0.57735026919,-0.57735026919));
#1019 = PLANE('',#1020);
#1020 = AXIS2_PLACEMENT_3D('',#1021,#1022,#1023);
#1021 = CARTESIAN_POINT('',(-6.634233111384,-10.53174541885,
    17.820540137179));
#1022 = DIRECTION('',(3.942452110178E-16,-0.707106781187,-0.707106781187
    ));
#1023 = DIRECTION('',(-1.,3.944304526105E-31,-5.57546924322E-16));
#1024 = ADVANCED_FACE('',(#1025),#1059,.T.);
#1025 = FACE_BOUND('',#1026,.T.);
#1026 = EDGE_LOOP('',(#1027,#1037,#1045,#1053));
#1027 = ORIENTED_EDGE('',*,*,#1028,.T.);
#1028 = EDGE_CURVE('',#1029,#1031,#1033,.T.);
#1029 = VERTEX_POINT('',#1030);
#1030 = CARTESIAN_POINT('',(-15.57857781005,-10.13174541885,
    36.810003356225));
#1031 = VERTEX_POINT('',#1032);
#1032 = CARTESIAN_POINT('',(-15.97857781005,-10.53174541885,
    36.410003356225));
#1033 = LINE('',#1034,#1035);
#1034 = CARTESIAN_POINT('',(-12.37666081231,-6.929828421171,
    40.01192035391));
#1035 = VECTOR('',#1036,1.);
#1036 = DIRECTION('',(-0.577350269196,-0.577350269186,-0.577350269186));
#1037 = ORIENTED_EDGE('',*,*,#1038,.T.);
#1038 = EDGE_CURVE('',#1031,#1039,#1041,.T.);
#1039 = VERTEX_POINT('',#1040);
#1040 = CARTESIAN_POINT('',(15.964486409592,-10.53174541885,
    36.410003356225));
#1041 = LINE('',#1042,#1043);
#1042 = CARTESIAN_POINT('',(-6.634233111384,-10.53174541885,
    36.410003356225));
#1043 = VECTOR('',#1044,1.);
#1044 = DIRECTION('',(1.,-1.437646561043E-31,3.127672044433E-46));
#1045 = ORIENTED_EDGE('',*,*,#1046,.T.);
#1046 = EDGE_CURVE('',#1039,#1047,#1049,.T.);
#1047 = VERTEX_POINT('',#1048);
#1048 = CARTESIAN_POINT('',(15.564486409592,-10.13174541885,
    36.810003356225));
#1049 = LINE('',#1050,#1051);
#1050 = CARTESIAN_POINT('',(10.153506941508,-4.720765950772,
    42.220982824309));
#1051 = VECTOR('',#1052,1.);
#1052 = DIRECTION('',(-0.57735026919,0.57735026919,0.57735026919));
#1053 = ORIENTED_EDGE('',*,*,#1054,.T.);
#1054 = EDGE_CURVE('',#1047,#1029,#1055,.T.);
#1055 = LINE('',#1056,#1057);
#1056 = CARTESIAN_POINT('',(-6.634233111384,-10.13174541885,
    36.810003356225));
#1057 = VECTOR('',#1058,1.);
#1058 = DIRECTION('',(-1.,1.437646561043E-31,-3.127672044433E-46));
#1059 = PLANE('',#1060);
#1060 = AXIS2_PLACEMENT_3D('',#1061,#1062,#1063);
#1061 = CARTESIAN_POINT('',(-6.634233111384,-10.33174541885,
    36.610003356225));
#1062 = DIRECTION('',(-1.016569632263E-31,-0.707106781187,0.707106781187
    ));
#1063 = DIRECTION('',(1.,-3.284293275761E-47,1.437646561043E-31));
#1064 = ADVANCED_FACE('',(#1065),#1098,.T.);
#1065 = FACE_BOUND('',#1066,.T.);
#1066 = EDGE_LOOP('',(#1067,#1068,#1076,#1084,#1092));
#1067 = ORIENTED_EDGE('',*,*,#1046,.F.);
#1068 = ORIENTED_EDGE('',*,*,#1069,.F.);
#1069 = EDGE_CURVE('',#1070,#1039,#1072,.T.);
#1070 = VERTEX_POINT('',#1071);
#1071 = CARTESIAN_POINT('',(16.047329122067,-10.53174541885,
    36.327160643751));
#1072 = LINE('',#1073,#1074);
#1073 = CARTESIAN_POINT('',(9.906086159441,-10.53174541885,
    42.468403606377));
#1074 = VECTOR('',#1075,1.);
#1075 = DIRECTION('',(-0.707106781187,1.51703696466E-16,0.707106781187)
  );
#1076 = ORIENTED_EDGE('',*,*,#1077,.F.);
#1077 = EDGE_CURVE('',#1078,#1070,#1080,.T.);
#1078 = VERTEX_POINT('',#1079);
#1079 = CARTESIAN_POINT('',(16.047329122067,13.961147799958,
    36.327160643751));
#1080 = LINE('',#1081,#1082);
#1081 = CARTESIAN_POINT('',(16.047329122067,1.093254581144,
    36.327160643751));
#1082 = VECTOR('',#1083,1.);
#1083 = DIRECTION('',(-3.087862470812E-30,-1.,2.175550047686E-15));
#1084 = ORIENTED_EDGE('',*,*,#1085,.F.);
#1085 = EDGE_CURVE('',#1086,#1078,#1088,.T.);
#1086 = VERTEX_POINT('',#1087);
#1087 = CARTESIAN_POINT('',(15.564486409592,13.478305087483,
    36.810003356225));
#1088 = LINE('',#1089,#1090);
#1089 = CARTESIAN_POINT('',(12.642552576446,10.556371254337,
    39.731937189372));
#1090 = VECTOR('',#1091,1.);
#1091 = DIRECTION('',(0.57735026919,0.57735026919,-0.57735026919));
#1092 = ORIENTED_EDGE('',*,*,#1093,.T.);
#1093 = EDGE_CURVE('',#1086,#1047,#1094,.T.);
#1094 = LINE('',#1095,#1096);
#1095 = CARTESIAN_POINT('',(15.564486409592,1.343254581144,
    36.810003356225));
#1096 = VECTOR('',#1097,1.);
#1097 = DIRECTION('',(-3.067948925221E-30,-1.,2.175550047686E-15));
#1098 = PLANE('',#1099);
#1099 = AXIS2_PLACEMENT_3D('',#1100,#1101,#1102);
#1100 = CARTESIAN_POINT('',(15.90590776583,1.218254581144,
    36.468581999988));
#1101 = DIRECTION('',(0.707106781187,1.538346191529E-15,0.707106781187)
  );
#1102 = DIRECTION('',(0.707106781187,0.,-0.707106781187));
#1103 = ADVANCED_FACE('',(#1104,#1122,#1125,#1128,#1131,#1134),#1137,.T.
  );
#1104 = FACE_BOUND('',#1105,.T.);
#1105 = EDGE_LOOP('',(#1106,#1107,#1108,#1116));
#1106 = ORIENTED_EDGE('',*,*,#1054,.F.);
#1107 = ORIENTED_EDGE('',*,*,#1093,.F.);
#1108 = ORIENTED_EDGE('',*,*,#1109,.F.);
#1109 = EDGE_CURVE('',#1110,#1086,#1112,.T.);
#1110 = VERTEX_POINT('',#1111);
#1111 = CARTESIAN_POINT('',(-15.57857781005,13.478305087483,
    36.810003356225));
#1112 = LINE('',#1113,#1114);
#1113 = CARTESIAN_POINT('',(3.306548005342,13.478305087483,
    36.810003356225));
#1114 = VECTOR('',#1115,1.);
#1115 = DIRECTION('',(1.,-3.959389999909E-29,8.613851103109E-44));
#1116 = ORIENTED_EDGE('',*,*,#1117,.F.);
#1117 = EDGE_CURVE('',#1029,#1110,#1118,.T.);
#1118 = LINE('',#1119,#1120);
#1119 = CARTESIAN_POINT('',(-15.57857781005,1.343254581144,
    36.810003356225));
#1120 = VECTOR('',#1121,1.);
#1121 = DIRECTION('',(3.067948925248E-30,1.,-2.175550047686E-15));
#1122 = FACE_BOUND('',#1123,.T.);
#1123 = EDGE_LOOP('',(#1124));
#1124 = ORIENTED_EDGE('',*,*,#910,.F.);
#1125 = FACE_BOUND('',#1126,.T.);
#1126 = EDGE_LOOP('',(#1127));
#1127 = ORIENTED_EDGE('',*,*,#885,.F.);
#1128 = FACE_BOUND('',#1129,.T.);
#1129 = EDGE_LOOP('',(#1130));
#1130 = ORIENTED_EDGE('',*,*,#860,.F.);
#1131 = FACE_BOUND('',#1132,.T.);
#1132 = EDGE_LOOP('',(#1133));
#1133 = ORIENTED_EDGE('',*,*,#835,.F.);
#1134 = FACE_BOUND('',#1135,.T.);
#1135 = EDGE_LOOP('',(#1136));
#1136 = ORIENTED_EDGE('',*,*,#810,.F.);
#1137 = PLANE('',#1138);
#1138 = AXIS2_PLACEMENT_3D('',#1139,#1140,#1141);
#1139 = CARTESIAN_POINT('',(-7.045700233635E-03,1.468254581144,
    36.810003356225));
#1140 = DIRECTION('',(0.,2.175550047686E-15,1.));
#1141 = DIRECTION('',(1.,-3.087862470812E-30,6.717799345621E-45));
#1142 = ADVANCED_FACE('',(#1143),#1169,.T.);
#1143 = FACE_BOUND('',#1144,.T.);
#1144 = EDGE_LOOP('',(#1145,#1146,#1147,#1155,#1163));
#1145 = ORIENTED_EDGE('',*,*,#1028,.F.);
#1146 = ORIENTED_EDGE('',*,*,#1117,.T.);
#1147 = ORIENTED_EDGE('',*,*,#1148,.F.);
#1148 = EDGE_CURVE('',#1149,#1110,#1151,.T.);
#1149 = VERTEX_POINT('',#1150);
#1150 = CARTESIAN_POINT('',(-16.06142052253,13.961147799959,
    36.32716064375));
#1151 = LINE('',#1152,#1153);
#1152 = CARTESIAN_POINT('',(-10.44758150643,8.347308783953,
    41.940999659756));
#1153 = VECTOR('',#1154,1.);
#1154 = DIRECTION('',(0.577350269196,-0.577350269186,0.577350269186));
#1155 = ORIENTED_EDGE('',*,*,#1156,.F.);
#1156 = EDGE_CURVE('',#1157,#1149,#1159,.T.);
#1157 = VERTEX_POINT('',#1158);
#1158 = CARTESIAN_POINT('',(-16.06142052253,-10.53174541885,
    36.32716064375));
#1159 = LINE('',#1160,#1161);
#1160 = CARTESIAN_POINT('',(-16.06142052253,1.093254581144,
    36.32716064375));
#1161 = VECTOR('',#1162,1.);
#1162 = DIRECTION('',(3.087862470812E-30,1.,-2.175550047686E-15));
#1163 = ORIENTED_EDGE('',*,*,#1164,.F.);
#1164 = EDGE_CURVE('',#1031,#1157,#1165,.T.);
#1165 = LINE('',#1166,#1167);
#1166 = CARTESIAN_POINT('',(-16.54736497104,-10.53174541885,
    35.841216195247));
#1167 = VECTOR('',#1168,1.);
#1168 = DIRECTION('',(-0.707106781193,-1.517036964647E-16,-0.70710678118
    ));
#1169 = PLANE('',#1170);
#1170 = AXIS2_PLACEMENT_3D('',#1171,#1172,#1173);
#1171 = CARTESIAN_POINT('',(-15.91999916629,1.218254581144,
    36.468581999987));
#1172 = DIRECTION('',(-0.70710678118,1.538346191543E-15,0.707106781193)
  );
#1173 = DIRECTION('',(0.707106781193,9.860761315263E-32,0.70710678118));
#1174 = ADVANCED_FACE('',(#1175),#1191,.T.);
#1175 = FACE_BOUND('',#1176,.T.);
#1176 = EDGE_LOOP('',(#1177,#1183,#1184,#1190));
#1177 = ORIENTED_EDGE('',*,*,#1178,.F.);
#1178 = EDGE_CURVE('',#208,#1149,#1179,.T.);
#1179 = LINE('',#1180,#1181);
#1180 = CARTESIAN_POINT('',(-16.06142052253,13.596962736695,
    36.691345707014));
#1181 = VECTOR('',#1182,1.);
#1182 = DIRECTION('',(-2.183448492482E-30,-0.707106781187,0.707106781187
    ));
#1183 = ORIENTED_EDGE('',*,*,#207,.T.);
#1184 = ORIENTED_EDGE('',*,*,#1185,.F.);
#1185 = EDGE_CURVE('',#1157,#200,#1186,.T.);
#1186 = LINE('',#1187,#1188);
#1187 = CARTESIAN_POINT('',(-16.06142052253,-10.53174541885,
    29.05790594194));
#1188 = VECTOR('',#1189,1.);
#1189 = DIRECTION('',(6.055324930916E-45,-2.145414250044E-16,-1.));
#1190 = ORIENTED_EDGE('',*,*,#1156,.T.);
#1191 = PLANE('',#1192);
#1192 = AXIS2_PLACEMENT_3D('',#1193,#1194,#1195);
#1193 = CARTESIAN_POINT('',(-16.06142052253,0.968254581144,
    26.815271746702));
#1194 = DIRECTION('',(-1.,3.087862470812E-30,-6.717799345621E-45));
#1195 = DIRECTION('',(3.733809166717E-60,2.175550047686E-15,1.));
#1196 = ADVANCED_FACE('',(#1197),#1215,.T.);
#1197 = FACE_BOUND('',#1198,.T.);
#1198 = EDGE_LOOP('',(#1199,#1200,#1208,#1214));
#1199 = ORIENTED_EDGE('',*,*,#927,.F.);
#1200 = ORIENTED_EDGE('',*,*,#1201,.F.);
#1201 = EDGE_CURVE('',#1202,#239,#1204,.T.);
#1202 = VERTEX_POINT('',#1203);
#1203 = CARTESIAN_POINT('',(13.047329122067,15.468254581144,
    17.820540137179));
#1204 = LINE('',#1205,#1206);
#1205 = CARTESIAN_POINT('',(9.933735416492,15.468254581144,
    17.820540137179));
#1206 = VECTOR('',#1207,1.);
#1207 = DIRECTION('',(-1.,3.947023788252E-29,-5.57546924322E-16));
#1208 = ORIENTED_EDGE('',*,*,#1209,.F.);
#1209 = EDGE_CURVE('',#960,#1202,#1210,.T.);
#1210 = LINE('',#1211,#1212);
#1211 = CARTESIAN_POINT('',(8.559464553542,10.980390012619,
    13.332675568654));
#1212 = VECTOR('',#1213,1.);
#1213 = DIRECTION('',(0.57735026919,0.57735026919,0.57735026919));
#1214 = ORIENTED_EDGE('',*,*,#959,.T.);
#1215 = PLANE('',#1216);
#1216 = AXIS2_PLACEMENT_3D('',#1217,#1218,#1219);
#1217 = CARTESIAN_POINT('',(6.620141710917,15.468254581144,
    17.820540137179));
#1218 = DIRECTION('',(3.942452110178E-16,0.707106781187,-0.707106781187)
  );
#1219 = DIRECTION('',(-1.,2.958228394579E-31,-5.57546924322E-16));
#1220 = ADVANCED_FACE('',(#1221),#1232,.T.);
#1221 = FACE_BOUND('',#1222,.T.);
#1222 = EDGE_LOOP('',(#1223,#1224,#1225,#1226));
#1223 = ORIENTED_EDGE('',*,*,#1014,.T.);
#1224 = ORIENTED_EDGE('',*,*,#967,.T.);
#1225 = ORIENTED_EDGE('',*,*,#1209,.T.);
#1226 = ORIENTED_EDGE('',*,*,#1227,.T.);
#1227 = EDGE_CURVE('',#1202,#1005,#1228,.T.);
#1228 = LINE('',#1229,#1230);
#1229 = CARTESIAN_POINT('',(13.047329122067,-4.031745418856,
    17.820540137179));
#1230 = VECTOR('',#1231,1.);
#1231 = DIRECTION('',(-1.102736256634E-30,-1.,2.397594652611E-15));
#1232 = PLANE('',#1233);
#1233 = AXIS2_PLACEMENT_3D('',#1234,#1235,#1236);
#1234 = CARTESIAN_POINT('',(12.547329122067,-4.031745418856,
    17.320540137179));
#1235 = DIRECTION('',(0.707106781187,-1.695355437398E-15,-0.707106781187
    ));
#1236 = DIRECTION('',(-0.707106781187,0.,-0.707106781187));
#1237 = ADVANCED_FACE('',(#1238),#1260,.T.);
#1238 = FACE_BOUND('',#1239,.T.);
#1239 = EDGE_LOOP('',(#1240,#1241,#1242,#1243,#1244,#1245,#1246,#1252,
    #1253,#1259));
#1240 = ORIENTED_EDGE('',*,*,#1038,.F.);
#1241 = ORIENTED_EDGE('',*,*,#1164,.T.);
#1242 = ORIENTED_EDGE('',*,*,#1185,.T.);
#1243 = ORIENTED_EDGE('',*,*,#199,.T.);
#1244 = ORIENTED_EDGE('',*,*,#254,.T.);
#1245 = ORIENTED_EDGE('',*,*,#1004,.T.);
#1246 = ORIENTED_EDGE('',*,*,#1247,.T.);
#1247 = EDGE_CURVE('',#1005,#277,#1248,.T.);
#1248 = LINE('',#1249,#1250);
#1249 = CARTESIAN_POINT('',(13.047329122067,-10.53174541885,
    31.300540137179));
#1250 = VECTOR('',#1251,1.);
#1251 = DIRECTION('',(-5.363535625109E-16,2.145414250044E-16,1.));
#1252 = ORIENTED_EDGE('',*,*,#308,.T.);
#1253 = ORIENTED_EDGE('',*,*,#1254,.T.);
#1254 = EDGE_CURVE('',#301,#1070,#1255,.T.);
#1255 = LINE('',#1256,#1257);
#1256 = CARTESIAN_POINT('',(16.047329122067,-10.53174541885,
    29.05790594194));
#1257 = VECTOR('',#1258,1.);
#1258 = DIRECTION('',(-6.055324930916E-45,2.145414250044E-16,1.));
#1259 = ORIENTED_EDGE('',*,*,#1069,.T.);
#1260 = PLANE('',#1261);
#1261 = AXIS2_PLACEMENT_3D('',#1262,#1263,#1264);
#1262 = CARTESIAN_POINT('',(-13.26142052253,-10.53174541885,
    31.300540137179));
#1263 = DIRECTION('',(-1.437646561043E-31,-1.,2.145414250044E-16));
#1264 = DIRECTION('',(1.,5.254869241218E-46,6.701020844874E-16));
#1265 = ADVANCED_FACE('',(#1266),#1277,.T.);
#1266 = FACE_BOUND('',#1267,.T.);
#1267 = EDGE_LOOP('',(#1268,#1269,#1275,#1276));
#1268 = ORIENTED_EDGE('',*,*,#300,.T.);
#1269 = ORIENTED_EDGE('',*,*,#1270,.F.);
#1270 = EDGE_CURVE('',#1078,#293,#1271,.T.);
#1271 = LINE('',#1272,#1273);
#1272 = CARTESIAN_POINT('',(16.047329122067,13.596962736695,
    36.691345707014));
#1273 = VECTOR('',#1274,1.);
#1274 = DIRECTION('',(2.183448492482E-30,0.707106781187,-0.707106781187)
  );
#1275 = ORIENTED_EDGE('',*,*,#1077,.T.);
#1276 = ORIENTED_EDGE('',*,*,#1254,.F.);
#1277 = PLANE('',#1278);
#1278 = AXIS2_PLACEMENT_3D('',#1279,#1280,#1281);
#1279 = CARTESIAN_POINT('',(16.047329122067,0.968254581144,
    26.815271746702));
#1280 = DIRECTION('',(1.,-3.087862470812E-30,6.717799345621E-45));
#1281 = DIRECTION('',(-3.733809166717E-60,-2.175550047686E-15,-1.));
#1282 = ADVANCED_FACE('',(#1283),#1298,.T.);
#1283 = FACE_BOUND('',#1284,.T.);
#1284 = EDGE_LOOP('',(#1285,#1286,#1292,#1293,#1294,#1295,#1296,#1297));
#1285 = ORIENTED_EDGE('',*,*,#292,.T.);
#1286 = ORIENTED_EDGE('',*,*,#1287,.T.);
#1287 = EDGE_CURVE('',#285,#216,#1288,.T.);
#1288 = LINE('',#1289,#1290);
#1289 = CARTESIAN_POINT('',(9.933735416492,15.468254581144,
    34.820053862564));
#1290 = VECTOR('',#1291,1.);
#1291 = DIRECTION('',(-1.,3.959389999909E-29,-8.719635289995E-44));
#1292 = ORIENTED_EDGE('',*,*,#215,.T.);
#1293 = ORIENTED_EDGE('',*,*,#1178,.T.);
#1294 = ORIENTED_EDGE('',*,*,#1148,.T.);
#1295 = ORIENTED_EDGE('',*,*,#1109,.T.);
#1296 = ORIENTED_EDGE('',*,*,#1085,.T.);
#1297 = ORIENTED_EDGE('',*,*,#1270,.T.);
#1298 = PLANE('',#1299);
#1299 = AXIS2_PLACEMENT_3D('',#1300,#1301,#1302);
#1300 = CARTESIAN_POINT('',(6.620141710917,14.973279834314,
    35.315028609395));
#1301 = DIRECTION('',(2.799711518298E-29,0.707106781187,0.707106781187)
  );
#1302 = DIRECTION('',(1.,1.12103877146E-44,-3.959389999909E-29));
#1303 = ADVANCED_FACE('',(#1304),#1317,.T.);
#1304 = FACE_BOUND('',#1305,.T.);
#1305 = EDGE_LOOP('',(#1306,#1307,#1308,#1314,#1315,#1316));
#1306 = ORIENTED_EDGE('',*,*,#1287,.F.);
#1307 = ORIENTED_EDGE('',*,*,#284,.F.);
#1308 = ORIENTED_EDGE('',*,*,#1309,.F.);
#1309 = EDGE_CURVE('',#1202,#275,#1310,.T.);
#1310 = LINE('',#1311,#1312);
#1311 = CARTESIAN_POINT('',(13.047329122067,15.468254581144,
    26.655540137179));
#1312 = VECTOR('',#1313,1.);
#1313 = DIRECTION('',(-5.363535625109E-16,2.217967872856E-16,1.));
#1314 = ORIENTED_EDGE('',*,*,#1201,.T.);
#1315 = ORIENTED_EDGE('',*,*,#238,.F.);
#1316 = ORIENTED_EDGE('',*,*,#223,.F.);
#1317 = PLANE('',#1318);
#1318 = AXIS2_PLACEMENT_3D('',#1319,#1320,#1321);
#1319 = CARTESIAN_POINT('',(13.247329122067,15.468254581144,
    22.010540137179));
#1320 = DIRECTION('',(3.959389999909E-29,1.,-2.217967872856E-16));
#1321 = DIRECTION('',(-1.,3.947023788215E-29,-5.575469259769E-16));
#1322 = ADVANCED_FACE('',(#1323,#1329,#1332),#1335,.T.);
#1323 = FACE_BOUND('',#1324,.T.);
#1324 = EDGE_LOOP('',(#1325,#1326,#1327,#1328));
#1325 = ORIENTED_EDGE('',*,*,#274,.T.);
#1326 = ORIENTED_EDGE('',*,*,#1247,.F.);
#1327 = ORIENTED_EDGE('',*,*,#1227,.F.);
#1328 = ORIENTED_EDGE('',*,*,#1309,.T.);
#1329 = FACE_BOUND('',#1330,.T.);
#1330 = EDGE_LOOP('',(#1331));
#1331 = ORIENTED_EDGE('',*,*,#39,.T.);
#1332 = FACE_BOUND('',#1333,.T.);
#1333 = EDGE_LOOP('',(#1334));
#1334 = ORIENTED_EDGE('',*,*,#81,.T.);
#1335 = PLANE('',#1336);
#1336 = AXIS2_PLACEMENT_3D('',#1337,#1338,#1339);
#1337 = CARTESIAN_POINT('',(13.047329122067,-11.53174541885,
    31.300540137179));
#1338 = DIRECTION('',(1.,1.832221767506E-31,5.363535625109E-16));
#1339 = DIRECTION('',(1.532670195355E-46,1.,-3.416070845E-16));
#1340 = ( GEOMETRIC_REPRESENTATION_CONTEXT(3) 
GLOBAL_UNCERTAINTY_ASSIGNED_CONTEXT((#1344)) 
GLOBAL_UNIT_ASSIGNED_CONTEXT((#1341,#1342,#1343)) REPRESENTATION_CONTEXT
('Context #1','3D Context with UNIT and UNCERTAINTY') );
#1341 = ( LENGTH_UNIT() NAMED_UNIT(*) SI_UNIT(.MILLI.,.METRE.) );
#1342 = ( NAMED_UNIT(*) PLANE_ANGLE_UNIT() SI_UNIT($,.RADIAN.) );
#1343 = ( NAMED_UNIT(*) SI_UNIT($,.STERADIAN.) SOLID_ANGLE_UNIT() );
#1344 = UNCERTAINTY_MEASURE_WITH_UNIT(LENGTH_MEASURE(1.E-07),#1341,
  'distance_accuracy_value','confusion accuracy');
#1345 = PRODUCT_RELATED_PRODUCT_CATEGORY('part',$,(#7));
#1346 = MECHANICAL_DESIGN_GEOMETRIC_PRESENTATION_REPRESENTATION('',(
    #1347),#1340);
#1347 = STYLED_ITEM('color',(#1348),#15);
#1348 = PRESENTATION_STYLE_ASSIGNMENT((#1349,#1355));
#1349 = SURFACE_STYLE_USAGE(.BOTH.,#1350);
#1350 = SURFACE_SIDE_STYLE('',(#1351));
#1351 = SURFACE_STYLE_FILL_AREA(#1352);
#1352 = FILL_AREA_STYLE('',(#1353));
#1353 = FILL_AREA_STYLE_COLOUR('',#1354);
#1354 = COLOUR_RGB('',1.,0.435294116471,0.);
#1355 = CURVE_STYLE('',#1356,POSITIVE_LENGTH_MEASURE(0.1),#1357);
#1356 = DRAUGHTING_PRE_DEFINED_CURVE_FONT('continuous');
#1357 = COLOUR_RGB('',9.803921802644E-02,9.803921802644E-02,
  9.803921802644E-02);
ENDSEC;
END-ISO-10303-21;
