ISO-10303-21;
HEADER;
FILE_DESCRIPTION(('FreeCAD Model'),'2;1');
FILE_NAME('Open CASCADE Shape Model','2025-11-08T21:04:45',(''),(''),
  'Open CASCADE STEP processor 7.9','FreeCAD','Unknown');
FILE_SCHEMA(('AUTOMOTIVE_DESIGN { 1 0 10303 214 1 1 1 1 }'));
ENDSEC;
DATA;
#1 = APPLICATION_PROTOCOL_DEFINITION('international standard',
  'automotive_design',2000,#2);
#2 = APPLICATION_CONTEXT(
  'core data for automotive mechanical design processes');
#3 = SHAPE_DEFINITION_REPRESENTATION(#4,#10);
#4 = PRODUCT_DEFINITION_SHAPE('','',#5);
#5 = PRODUCT_DEFINITION('design','',#6,#9);
#6 = PRODUCT_DEFINITION_FORMATION('','',#7);
#7 = PRODUCT('[c]_Lens_DV','[c]_Lens_DV','',(#8));
#8 = PRODUCT_CONTEXT('',#2,'mechanical');
#9 = PRODUCT_DEFINITION_CONTEXT('part definition',#2,'design');
#10 = ADVANCED_BREP_SHAPE_REPRESENTATION('',(#11,#15),#1019);
#11 = AXIS2_PLACEMENT_3D('',#12,#13,#14);
#12 = CARTESIAN_POINT('',(0.,0.,0.));
#13 = DIRECTION('',(0.,0.,1.));
#14 = DIRECTION('',(1.,0.,-0.));
#15 = MANIFOLD_SOLID_BREP('',#16);
#16 = CLOSED_SHELL('',(#17,#57,#88,#119,#141,#172,#196,#208,#248,#279,
    #310,#332,#363,#387,#399,#439,#470,#501,#523,#554,#578,#590,#614,
    #631,#655,#672,#696,#713,#807,#839,#863,#922,#944,#961,#978,#995,
    #1007));
#17 = ADVANCED_FACE('',(#18),#52,.T.);
#18 = FACE_BOUND('',#19,.T.);
#19 = EDGE_LOOP('',(#20,#30,#38,#46));
#20 = ORIENTED_EDGE('',*,*,#21,.T.);
#21 = EDGE_CURVE('',#22,#24,#26,.T.);
#22 = VERTEX_POINT('',#23);
#23 = CARTESIAN_POINT('',(2.700011638326,-14.94815894946,67.314629312445
    ));
#24 = VERTEX_POINT('',#25);
#25 = CARTESIAN_POINT('',(5.138146007038,-16.56420863227,63.413140250745
    ));
#26 = LINE('',#27,#28);
#27 = CARTESIAN_POINT('',(4.714376571476,-16.2833248259,64.091253745532)
  );
#28 = VECTOR('',#29,1.);
#29 = DIRECTION('',(0.500002777,-0.331412960476,-0.800101663928));
#30 = ORIENTED_EDGE('',*,*,#31,.T.);
#31 = EDGE_CURVE('',#24,#32,#34,.T.);
#32 = VERTEX_POINT('',#33);
#33 = CARTESIAN_POINT('',(5.600026743763,-16.19465659807,63.260067411824
    ));
#34 = LINE('',#35,#36);
#35 = CARTESIAN_POINT('',(5.138146007038,-16.56420863227,63.413140250745
    ));
#36 = VECTOR('',#37,1.);
#37 = DIRECTION('',(0.755929311717,0.604821099145,-0.250524078116));
#38 = ORIENTED_EDGE('',*,*,#39,.T.);
#39 = EDGE_CURVE('',#32,#40,#42,.T.);
#40 = VERTEX_POINT('',#41);
#41 = CARTESIAN_POINT('',(2.700010637161,-14.2724614273,67.900657062606)
  );
#42 = LINE('',#43,#44);
#43 = CARTESIAN_POINT('',(5.060786091667,-15.83723590134,64.122957305333
    ));
#44 = VECTOR('',#45,1.);
#45 = DIRECTION('',(-0.500002777,0.331412960476,0.800101663928));
#46 = ORIENTED_EDGE('',*,*,#47,.F.);
#47 = EDGE_CURVE('',#22,#40,#48,.T.);
#48 = LINE('',#49,#50);
#49 = CARTESIAN_POINT('',(2.700011638326,-14.94815894946,67.314629312445
    ));
#50 = VECTOR('',#51,1.);
#51 = DIRECTION('',(-1.119339079329E-06,0.755454842507,0.655200718048));
#52 = PLANE('',#53);
#53 = AXIS2_PLACEMENT_3D('',#54,#55,#56);
#54 = CARTESIAN_POINT('',(4.887581331572,-16.06028036362,64.107105525432
    ));
#55 = DIRECTION('',(0.612371301986,-0.517981705951,0.597240605455));
#56 = DIRECTION('',(0.698207159097,-3.053113317719E-16,-0.715895776622)
  );
#57 = ADVANCED_FACE('',(#58),#83,.T.);
#58 = FACE_BOUND('',#59,.T.);
#59 = EDGE_LOOP('',(#60,#68,#76,#82));
#60 = ORIENTED_EDGE('',*,*,#61,.T.);
#61 = EDGE_CURVE('',#24,#62,#64,.T.);
#62 = VERTEX_POINT('',#63);
#63 = CARTESIAN_POINT('',(4.350024220313,-17.08659629957,62.15198485954)
  );
#64 = LINE('',#65,#66);
#65 = CARTESIAN_POINT('',(3.76784091,-17.47248257569,61.220372978182));
#66 = VECTOR('',#67,1.);
#67 = DIRECTION('',(-0.500000609411,-0.331413439391,-0.80010282013));
#68 = ORIENTED_EDGE('',*,*,#69,.T.);
#69 = EDGE_CURVE('',#62,#70,#72,.T.);
#70 = VERTEX_POINT('',#71);
#71 = CARTESIAN_POINT('',(4.350025220235,-17.02319019654,61.2598103615)
  );
#72 = LINE('',#73,#74);
#73 = CARTESIAN_POINT('',(4.350024220313,-17.08659629957,62.15198485954)
  );
#74 = VECTOR('',#75,1.);
#75 = DIRECTION('',(1.117950460249E-06,7.089037017449E-02,
    -0.997484112864));
#76 = ORIENTED_EDGE('',*,*,#77,.T.);
#77 = EDGE_CURVE('',#70,#32,#78,.T.);
#78 = LINE('',#79,#80);
#79 = CARTESIAN_POINT('',(4.114250930776,-17.17946754245,60.882523473525
    ));
#80 = VECTOR('',#81,1.);
#81 = DIRECTION('',(0.500000609411,0.331413439391,0.80010282013));
#82 = ORIENTED_EDGE('',*,*,#31,.F.);
#83 = PLANE('',#84);
#84 = AXIS2_PLACEMENT_3D('',#85,#86,#87);
#85 = CARTESIAN_POINT('',(3.941045920388,-17.32597505907,61.051448225853
    ));
#86 = DIRECTION('',(0.612372186904,-0.78858067238,-5.604308926307E-02));
#87 = DIRECTION('',(-9.113715275729E-02,4.163336342344E-17,
    -0.995838350028));
#88 = ADVANCED_FACE('',(#89),#114,.T.);
#89 = FACE_BOUND('',#90,.T.);
#90 = EDGE_LOOP('',(#91,#99,#107,#113));
#91 = ORIENTED_EDGE('',*,*,#92,.T.);
#92 = EDGE_CURVE('',#62,#93,#95,.T.);
#93 = VERTEX_POINT('',#94);
#94 = CARTESIAN_POINT('',(1.91188986034,-15.47054661097,66.053473935224)
  );
#95 = LINE('',#96,#97);
#96 = CARTESIAN_POINT('',(2.394686428696,-15.79055491599,65.28090554517)
  );
#97 = VECTOR('',#98,1.);
#98 = DIRECTION('',(-0.500002774312,0.33141296107,0.800101665362));
#99 = ORIENTED_EDGE('',*,*,#100,.T.);
#100 = EDGE_CURVE('',#93,#101,#103,.T.);
#101 = VERTEX_POINT('',#102);
#102 = CARTESIAN_POINT('',(1.450009124029,-15.10099501889,
    65.900400028914));
#103 = LINE('',#104,#105);
#104 = CARTESIAN_POINT('',(1.91188986034,-15.47054661097,66.053473935224
    ));
#105 = VECTOR('',#106,1.);
#106 = DIRECTION('',(-0.755929311427,0.604820375855,-0.250525825168));
#107 = ORIENTED_EDGE('',*,*,#108,.T.);
#108 = EDGE_CURVE('',#101,#70,#109,.T.);
#109 = LINE('',#110,#111);
#110 = CARTESIAN_POINT('',(2.048276907885,-15.49754021413,64.94305524047
    ));
#111 = VECTOR('',#112,1.);
#112 = DIRECTION('',(0.500002774312,-0.33141296107,-0.800101665362));
#113 = ORIENTED_EDGE('',*,*,#69,.F.);
#114 = PLANE('',#115);
#115 = AXIS2_PLACEMENT_3D('',#116,#117,#118);
#116 = CARTESIAN_POINT('',(2.22148166829,-15.64404756506,65.11198039282)
  );
#117 = DIRECTION('',(-0.612371303083,-0.788581258198,-5.604450355268E-02
    ));
#118 = DIRECTION('',(-9.113956401506E-02,-5.551115123126E-17,
    0.995838129352));
#119 = ADVANCED_FACE('',(#120),#136,.T.);
#120 = FACE_BOUND('',#121,.T.);
#121 = EDGE_LOOP('',(#122,#128,#129,#135));
#122 = ORIENTED_EDGE('',*,*,#123,.T.);
#123 = EDGE_CURVE('',#40,#101,#124,.T.);
#124 = LINE('',#125,#126);
#125 = CARTESIAN_POINT('',(1.114239612606,-15.32355180488,
    65.363100417779));
#126 = VECTOR('',#127,1.);
#127 = DIRECTION('',(-0.500000609411,-0.331413439391,-0.80010282013));
#128 = ORIENTED_EDGE('',*,*,#100,.F.);
#129 = ORIENTED_EDGE('',*,*,#130,.T.);
#130 = EDGE_CURVE('',#93,#22,#131,.T.);
#131 = LINE('',#132,#133);
#132 = CARTESIAN_POINT('',(1.460649633382,-15.76964039764,
    65.331397659014));
#133 = VECTOR('',#134,1.);
#134 = DIRECTION('',(0.500000609411,0.331413439391,0.80010282013));
#135 = ORIENTED_EDGE('',*,*,#47,.T.);
#136 = PLANE('',#137);
#137 = AXIS2_PLACEMENT_3D('',#138,#139,#140);
#138 = CARTESIAN_POINT('',(1.287444622994,-15.54659610126,
    65.347249038397));
#139 = DIRECTION('',(-0.612372186905,-0.517982292496,0.597239189409));
#140 = DIRECTION('',(0.698205793576,-2.498001805407E-16,0.715897108401)
  );
#141 = ADVANCED_FACE('',(#142),#167,.T.);
#142 = FACE_BOUND('',#143,.T.);
#143 = EDGE_LOOP('',(#144,#145,#153,#161));
#144 = ORIENTED_EDGE('',*,*,#123,.F.);
#145 = ORIENTED_EDGE('',*,*,#146,.F.);
#146 = EDGE_CURVE('',#147,#40,#149,.T.);
#147 = VERTEX_POINT('',#148);
#148 = CARTESIAN_POINT('',(2.700010637161,-12.88664183483,
    67.326631792402));
#149 = LINE('',#150,#151);
#150 = CARTESIAN_POINT('',(2.700010637161,-12.88664212854,
    67.326631914059));
#151 = VECTOR('',#152,1.);
#152 = DIRECTION('',(8.935773436519E-15,-0.923879532511,0.382683432365)
  );
#153 = ORIENTED_EDGE('',*,*,#154,.F.);
#154 = EDGE_CURVE('',#155,#147,#157,.T.);
#155 = VERTEX_POINT('',#156);
#156 = CARTESIAN_POINT('',(1.450009124029,-13.71517542642,65.32637475871
    ));
#157 = LINE('',#158,#159);
#158 = CARTESIAN_POINT('',(2.468827720051,-13.03987589894,
    66.956692035192));
#159 = VECTOR('',#160,1.);
#160 = DIRECTION('',(0.500000609411,0.331413439391,0.80010282013));
#161 = ORIENTED_EDGE('',*,*,#162,.T.);
#162 = EDGE_CURVE('',#155,#101,#163,.T.);
#163 = LINE('',#164,#165);
#164 = CARTESIAN_POINT('',(1.450009124029,-13.71517572012,
    65.326374880367));
#165 = VECTOR('',#166,1.);
#166 = DIRECTION('',(8.935773436519E-15,-0.923879532511,0.382683432365)
  );
#167 = PLANE('',#168);
#168 = AXIS2_PLACEMENT_3D('',#169,#170,#171);
#169 = CARTESIAN_POINT('',(2.700010637161,-12.88664212854,
    67.326631914059));
#170 = DIRECTION('',(-0.866025051941,0.191341949394,0.461940329278));
#171 = DIRECTION('',(-0.500000609411,-0.331413439391,-0.80010282013));
#172 = ADVANCED_FACE('',(#173),#191,.T.);
#173 = FACE_BOUND('',#174,.T.);
#174 = EDGE_LOOP('',(#175,#176,#184,#190));
#175 = ORIENTED_EDGE('',*,*,#39,.F.);
#176 = ORIENTED_EDGE('',*,*,#177,.F.);
#177 = EDGE_CURVE('',#178,#32,#180,.T.);
#178 = VERTEX_POINT('',#179);
#179 = CARTESIAN_POINT('',(5.600026743763,-14.80883700559,62.68604214162
    ));
#180 = LINE('',#181,#182);
#181 = CARTESIAN_POINT('',(5.600026743763,-14.8088372993,62.686042263277
    ));
#182 = VECTOR('',#183,1.);
#183 = DIRECTION('',(8.935773436519E-15,-0.923879532511,0.382683432365)
  );
#184 = ORIENTED_EDGE('',*,*,#185,.F.);
#185 = EDGE_CURVE('',#147,#178,#186,.T.);
#186 = LINE('',#187,#188);
#187 = CARTESIAN_POINT('',(3.706194069325,-13.55356259032,
    65.716542658047));
#188 = VECTOR('',#189,1.);
#189 = DIRECTION('',(0.500002777,-0.331412960476,-0.800101663928));
#190 = ORIENTED_EDGE('',*,*,#146,.T.);
#191 = PLANE('',#192);
#192 = AXIS2_PLACEMENT_3D('',#193,#194,#195);
#193 = CARTESIAN_POINT('',(5.600026743763,-14.8088372993,62.686042263277
    ));
#194 = DIRECTION('',(0.866023800477,0.191342778895,0.461942331869));
#195 = DIRECTION('',(-0.500002777,0.331412960476,0.800101663928));
#196 = ADVANCED_FACE('',(#197),#203,.T.);
#197 = FACE_BOUND('',#198,.T.);
#198 = EDGE_LOOP('',(#199,#200,#201,#202));
#199 = ORIENTED_EDGE('',*,*,#21,.F.);
#200 = ORIENTED_EDGE('',*,*,#130,.F.);
#201 = ORIENTED_EDGE('',*,*,#92,.F.);
#202 = ORIENTED_EDGE('',*,*,#61,.F.);
#203 = PLANE('',#204);
#204 = AXIS2_PLACEMENT_3D('',#205,#206,#207);
#205 = CARTESIAN_POINT('',(1.030089552746E-13,-16.84837543844,
    62.727100893323));
#206 = DIRECTION('',(9.200554557163E-15,-0.923879532511,0.382683432365)
  );
#207 = DIRECTION('',(1.,9.897380380832E-15,-1.478177340596E-16));
#208 = ADVANCED_FACE('',(#209),#243,.T.);
#209 = FACE_BOUND('',#210,.T.);
#210 = EDGE_LOOP('',(#211,#221,#229,#237));
#211 = ORIENTED_EDGE('',*,*,#212,.T.);
#212 = EDGE_CURVE('',#213,#215,#217,.T.);
#213 = VERTEX_POINT('',#214);
#214 = CARTESIAN_POINT('',(-1.919048179609,-18.009798231,59.923178235864
    ));
#215 = VERTEX_POINT('',#216);
#216 = CARTESIAN_POINT('',(2.957202601231,-18.00979380469,
    59.923188921918));
#217 = LINE('',#218,#219);
#218 = CARTESIAN_POINT('',(1.825016012654,-18.00979483241,
    59.923186440789));
#219 = VECTOR('',#220,1.);
#220 = DIRECTION('',(0.999999999997,9.077278629897E-07,
    2.191448893731E-06));
#221 = ORIENTED_EDGE('',*,*,#222,.T.);
#222 = EDGE_CURVE('',#215,#223,#225,.T.);
#223 = VERTEX_POINT('',#224);
#224 = CARTESIAN_POINT('',(3.650023877607,-17.48716798985,60.13966888026
    ));
#225 = LINE('',#226,#227);
#226 = CARTESIAN_POINT('',(2.957202601231,-18.00979380469,
    59.923188921918));
#227 = VECTOR('',#228,1.);
#228 = DIRECTION('',(0.774596459114,0.584312461847,0.242031552607));
#229 = ORIENTED_EDGE('',*,*,#230,.T.);
#230 = EDGE_CURVE('',#223,#231,#233,.T.);
#231 = VERTEX_POINT('',#232);
#232 = CARTESIAN_POINT('',(-2.149988602036,-17.48717325468,
    60.139656169829));
#233 = LINE('',#234,#235);
#234 = CARTESIAN_POINT('',(1.825015063851,-17.48716964646,
    60.139664880846));
#235 = VECTOR('',#236,1.);
#236 = DIRECTION('',(-0.999999999997,-9.077278629897E-07,
    -2.191448893731E-06));
#237 = ORIENTED_EDGE('',*,*,#238,.F.);
#238 = EDGE_CURVE('',#213,#231,#239,.T.);
#239 = LINE('',#240,#241);
#240 = CARTESIAN_POINT('',(-1.919048179609,-18.009798231,59.923178235864
    ));
#241 = VECTOR('',#242,1.);
#242 = DIRECTION('',(-0.377965136387,0.85534623336,0.354295324205));
#243 = PLANE('',#244);
#244 = AXIS2_PLACEMENT_3D('',#245,#246,#247);
#245 = CARTESIAN_POINT('',(1.825015538253,-17.74848223943,
    60.031425660818));
#246 = DIRECTION('',(-1.677262365201E-06,-0.382683432366,0.923879532509)
  );
#247 = DIRECTION('',(0.999999999998,-1.265647217699E-17,
    1.815455701933E-06));
#248 = ADVANCED_FACE('',(#249),#274,.T.);
#249 = FACE_BOUND('',#250,.T.);
#250 = EDGE_LOOP('',(#251,#259,#267,#273));
#251 = ORIENTED_EDGE('',*,*,#252,.T.);
#252 = EDGE_CURVE('',#215,#253,#255,.T.);
#253 = VERTEX_POINT('',#254);
#254 = CARTESIAN_POINT('',(2.169083442881,-18.53218057191,
    58.662035703699));
#255 = LINE('',#256,#257);
#256 = CARTESIAN_POINT('',(2.792839974681,-18.11873781427,59.66017481646
    ));
#257 = VECTOR('',#258,1.);
#258 = DIRECTION('',(-0.500000004919,-0.331413572949,-0.800103142567));
#259 = ORIENTED_EDGE('',*,*,#260,.T.);
#260 = EDGE_CURVE('',#253,#261,#263,.T.);
#261 = VERTEX_POINT('',#262);
#262 = CARTESIAN_POINT('',(2.400023865309,-18.31570192222,
    58.139411023842));
#263 = LINE('',#264,#265);
#264 = CARTESIAN_POINT('',(2.169083442881,-18.53218057191,
    58.662035703699));
#265 = VECTOR('',#266,1.);
#266 = DIRECTION('',(0.377965136388,0.354296495583,-0.855345748158));
#267 = ORIENTED_EDGE('',*,*,#268,.T.);
#268 = EDGE_CURVE('',#261,#223,#269,.T.);
#269 = LINE('',#270,#271);
#270 = CARTESIAN_POINT('',(3.139250135059,-17.82572268849,
    59.322325535194));
#271 = VECTOR('',#272,1.);
#272 = DIRECTION('',(0.500000004919,0.331413572949,0.800103142567));
#273 = ORIENTED_EDGE('',*,*,#222,.F.);
#274 = PLANE('',#275);
#275 = AXIS2_PLACEMENT_3D('',#276,#277,#278);
#276 = CARTESIAN_POINT('',(2.96604505487,-17.97223025138,59.491250175827
    ));
#277 = DIRECTION('',(0.612372433688,-0.788580508806,-5.604269435967E-02)
  );
#278 = DIRECTION('',(-9.113647947768E-02,5.551115123126E-17,
    -0.995838411645));
#279 = ADVANCED_FACE('',(#280),#305,.T.);
#280 = FACE_BOUND('',#281,.T.);
#281 = EDGE_LOOP('',(#282,#290,#298,#304));
#282 = ORIENTED_EDGE('',*,*,#283,.T.);
#283 = EDGE_CURVE('',#253,#284,#286,.T.);
#284 = VERTEX_POINT('',#285);
#285 = CARTESIAN_POINT('',(-2.707167337968,-18.53218499822,
    58.66202501764));
#286 = LINE('',#287,#288);
#287 = CARTESIAN_POINT('',(-1.699989563158,-18.53218408398,
    58.66202722482));
#288 = VECTOR('',#289,1.);
#289 = DIRECTION('',(-0.999999999997,-9.077282286628E-07,
    -2.191449776544E-06));
#290 = ORIENTED_EDGE('',*,*,#291,.T.);
#291 = EDGE_CURVE('',#284,#292,#294,.T.);
#292 = VERTEX_POINT('',#293);
#293 = CARTESIAN_POINT('',(-3.399988614348,-18.31570718706,
    58.139398313406));
#294 = LINE('',#295,#296);
#295 = CARTESIAN_POINT('',(-2.707167337968,-18.53218499822,
    58.66202501764));
#296 = VECTOR('',#297,1.);
#297 = DIRECTION('',(-0.774596459115,0.242029151993,-0.584313456213));
#298 = ORIENTED_EDGE('',*,*,#299,.T.);
#299 = EDGE_CURVE('',#292,#261,#300,.T.);
#300 = LINE('',#301,#302);
#301 = CARTESIAN_POINT('',(-1.699988614354,-18.31570564392,
    58.13940203887));
#302 = VECTOR('',#303,1.);
#303 = DIRECTION('',(0.999999999997,9.077282286628E-07,
    2.191449776544E-06));
#304 = ORIENTED_EDGE('',*,*,#260,.F.);
#305 = PLANE('',#306);
#306 = AXIS2_PLACEMENT_3D('',#307,#308,#309);
#307 = CARTESIAN_POINT('',(-1.699989088756,-18.42394486395,
    58.400714631845));
#308 = DIRECTION('',(1.677263053888E-06,-0.923879532511,-0.382683432363)
  );
#309 = DIRECTION('',(7.453254661127E-18,0.382683432364,-0.923879532512)
  );
#310 = ADVANCED_FACE('',(#311),#327,.T.);
#311 = FACE_BOUND('',#312,.T.);
#312 = EDGE_LOOP('',(#313,#319,#320,#326));
#313 = ORIENTED_EDGE('',*,*,#314,.T.);
#314 = EDGE_CURVE('',#231,#292,#315,.T.);
#315 = LINE('',#316,#317);
#316 = CARTESIAN_POINT('',(-1.310757785585,-16.93090829334,
    61.482598583769));
#317 = VECTOR('',#318,1.);
#318 = DIRECTION('',(-0.500000004922,-0.331413572948,-0.800103142566));
#319 = ORIENTED_EDGE('',*,*,#291,.F.);
#320 = ORIENTED_EDGE('',*,*,#321,.T.);
#321 = EDGE_CURVE('',#284,#213,#322,.T.);
#322 = LINE('',#323,#324);
#323 = CARTESIAN_POINT('',(-0.964347625208,-17.37699679357,
    61.450896048394));
#324 = VECTOR('',#325,1.);
#325 = DIRECTION('',(0.500000004922,0.331413572948,0.800103142566));
#326 = ORIENTED_EDGE('',*,*,#238,.T.);
#327 = PLANE('',#328);
#328 = AXIS2_PLACEMENT_3D('',#329,#330,#331);
#329 = CARTESIAN_POINT('',(-1.137552705397,-17.15395254346,
    61.466747316081));
#330 = DIRECTION('',(-0.612372433686,-0.51798245607,0.597238794508));
#331 = DIRECTION('',(0.698205412765,1.110223024625E-16,0.715897479801));
#332 = ADVANCED_FACE('',(#333),#358,.T.);
#333 = FACE_BOUND('',#334,.T.);
#334 = EDGE_LOOP('',(#335,#336,#344,#352));
#335 = ORIENTED_EDGE('',*,*,#314,.F.);
#336 = ORIENTED_EDGE('',*,*,#337,.F.);
#337 = EDGE_CURVE('',#338,#231,#340,.T.);
#338 = VERTEX_POINT('',#339);
#339 = CARTESIAN_POINT('',(-2.149988602036,-16.10135366221,
    59.565630899624));
#340 = LINE('',#341,#342);
#341 = CARTESIAN_POINT('',(-2.149988602036,-16.10135395591,
    59.565631021281));
#342 = VECTOR('',#343,1.);
#343 = DIRECTION('',(9.213329192675E-15,-0.923879532511,0.382683432365)
  );
#344 = ORIENTED_EDGE('',*,*,#345,.F.);
#345 = EDGE_CURVE('',#346,#338,#348,.T.);
#346 = VERTEX_POINT('',#347);
#347 = CARTESIAN_POINT('',(-3.399988614348,-16.92988759458,
    57.565373043201));
#348 = LINE('',#349,#350);
#349 = CARTESIAN_POINT('',(4.382923008549E-02,-14.64723166374,
    63.076191948249));
#350 = VECTOR('',#351,1.);
#351 = DIRECTION('',(0.500000004922,0.331413572948,0.800103142566));
#352 = ORIENTED_EDGE('',*,*,#353,.T.);
#353 = EDGE_CURVE('',#346,#292,#354,.T.);
#354 = LINE('',#355,#356);
#355 = CARTESIAN_POINT('',(-3.399988614348,-16.92988788829,
    57.565373164858));
#356 = VECTOR('',#357,1.);
#357 = DIRECTION('',(9.213329192675E-15,-0.923879532511,0.382683432365)
  );
#358 = PLANE('',#359);
#359 = AXIS2_PLACEMENT_3D('',#360,#361,#362);
#360 = CARTESIAN_POINT('',(-2.149988602036,-16.10135395591,
    59.565631021281));
#361 = DIRECTION('',(-0.866025400943,0.191341718066,0.461939770803));
#362 = DIRECTION('',(-0.500000004922,-0.331413572948,-0.800103142566));
#363 = ADVANCED_FACE('',(#364),#382,.T.);
#364 = FACE_BOUND('',#365,.T.);
#365 = EDGE_LOOP('',(#366,#367,#375,#381));
#366 = ORIENTED_EDGE('',*,*,#230,.F.);
#367 = ORIENTED_EDGE('',*,*,#368,.F.);
#368 = EDGE_CURVE('',#369,#223,#371,.T.);
#369 = VERTEX_POINT('',#370);
#370 = CARTESIAN_POINT('',(3.650023877607,-16.10134839738,
    59.565643610055));
#371 = LINE('',#372,#373);
#372 = CARTESIAN_POINT('',(3.650023877607,-16.10134869108,
    59.565643731712));
#373 = VECTOR('',#374,1.);
#374 = DIRECTION('',(9.213329192675E-15,-0.923879532511,0.382683432365)
  );
#375 = ORIENTED_EDGE('',*,*,#376,.F.);
#376 = EDGE_CURVE('',#338,#369,#377,.T.);
#377 = LINE('',#378,#379);
#378 = CARTESIAN_POINT('',(1.825022484165,-16.10135005348,
    59.565639610449));
#379 = VECTOR('',#380,1.);
#380 = DIRECTION('',(0.999999999997,9.077278629525E-07,
    2.191448893749E-06));
#381 = ORIENTED_EDGE('',*,*,#337,.T.);
#382 = PLANE('',#383);
#383 = AXIS2_PLACEMENT_3D('',#384,#385,#386);
#384 = CARTESIAN_POINT('',(3.650023877607,-16.10134869108,
    59.565643731712));
#385 = DIRECTION('',(-2.372007193728E-06,0.382683432364,0.923879532509)
  );
#386 = DIRECTION('',(-0.999999999997,-9.077278652736E-07,
    -2.191448892788E-06));
#387 = ADVANCED_FACE('',(#388),#394,.T.);
#388 = FACE_BOUND('',#389,.T.);
#389 = EDGE_LOOP('',(#390,#391,#392,#393));
#390 = ORIENTED_EDGE('',*,*,#212,.F.);
#391 = ORIENTED_EDGE('',*,*,#321,.F.);
#392 = ORIENTED_EDGE('',*,*,#283,.F.);
#393 = ORIENTED_EDGE('',*,*,#252,.F.);
#394 = PLANE('',#395);
#395 = AXIS2_PLACEMENT_3D('',#396,#397,#398);
#396 = CARTESIAN_POINT('',(1.030089552746E-13,-16.84837543844,
    62.727100893323));
#397 = DIRECTION('',(9.200554557163E-15,-0.923879532511,0.382683432365)
  );
#398 = DIRECTION('',(1.,9.897380380832E-15,-1.478177340596E-16));
#399 = ADVANCED_FACE('',(#400),#434,.T.);
#400 = FACE_BOUND('',#401,.T.);
#401 = EDGE_LOOP('',(#402,#412,#420,#428));
#402 = ORIENTED_EDGE('',*,*,#403,.T.);
#403 = EDGE_CURVE('',#404,#406,#408,.T.);
#404 = VERTEX_POINT('',#405);
#405 = CARTESIAN_POINT('',(-6.407168240745,-18.53218835682,
    58.662016909274));
#406 = VERTEX_POINT('',#407);
#407 = CARTESIAN_POINT('',(-0.469060337219,-14.59623902442,
    68.164239168359));
#408 = LINE('',#409,#410);
#409 = CARTESIAN_POINT('',(-1.626856543041,-15.36365977146,
    66.311521592796));
#410 = VECTOR('',#411,1.);
#411 = DIRECTION('',(0.499999027639,0.331413788871,0.80010366385));
#412 = ORIENTED_EDGE('',*,*,#413,.T.);
#413 = EDGE_CURVE('',#406,#414,#416,.T.);
#414 = VERTEX_POINT('',#415);
#415 = CARTESIAN_POINT('',(-0.700001060571,-14.0736140481,
    68.380717102323));
#416 = LINE('',#417,#418);
#417 = CARTESIAN_POINT('',(-0.469060337219,-14.59623902442,
    68.164239168359));
#418 = VECTOR('',#419,1.);
#419 = DIRECTION('',(-0.377965558533,0.855346074138,0.354295258252));
#420 = ORIENTED_EDGE('',*,*,#421,.T.);
#421 = EDGE_CURVE('',#414,#422,#424,.T.);
#422 = VERTEX_POINT('',#423);
#423 = CARTESIAN_POINT('',(-7.099988614346,-18.31571054565,
    58.139390205042));
#424 = LINE('',#425,#426);
#425 = CARTESIAN_POINT('',(-1.973266929112,-14.91757142083,
    66.343223767015));
#426 = VECTOR('',#427,1.);
#427 = DIRECTION('',(-0.499999027639,-0.331413788871,-0.80010366385));
#428 = ORIENTED_EDGE('',*,*,#429,.F.);
#429 = EDGE_CURVE('',#404,#422,#430,.T.);
#430 = LINE('',#431,#432);
#431 = CARTESIAN_POINT('',(-6.407168240745,-18.53218835682,
    58.662016909274));
#432 = VECTOR('',#433,1.);
#433 = DIRECTION('',(-0.774596055381,0.24202934122,-0.584313913044));
#434 = PLANE('',#435);
#435 = AXIS2_PLACEMENT_3D('',#436,#437,#438);
#436 = CARTESIAN_POINT('',(-1.800061736076,-15.14061559615,
    66.327372679905));
#437 = DIRECTION('',(-0.61237283266,-0.517982720521,0.597238156067));
#438 = DIRECTION('',(0.698204797103,8.326672684689E-17,0.715898080248));
#439 = ADVANCED_FACE('',(#440),#465,.T.);
#440 = FACE_BOUND('',#441,.T.);
#441 = EDGE_LOOP('',(#442,#450,#458,#464));
#442 = ORIENTED_EDGE('',*,*,#443,.T.);
#443 = EDGE_CURVE('',#406,#444,#446,.T.);
#444 = VERTEX_POINT('',#445);
#445 = CARTESIAN_POINT('',(1.107178565828,-14.59623759362,
    68.164242622607));
#446 = LINE('',#447,#448);
#447 = CARTESIAN_POINT('',(0.899992964344,-14.59623778169,68.16424216857
    ));
#448 = VECTOR('',#449,1.);
#449 = DIRECTION('',(0.999999999997,9.077280742771E-07,
    2.191449403824E-06));
#450 = ORIENTED_EDGE('',*,*,#451,.T.);
#451 = EDGE_CURVE('',#444,#452,#454,.T.);
#452 = VERTEX_POINT('',#453);
#453 = CARTESIAN_POINT('',(1.799998939429,-14.07361177878,
    68.380722580947));
#454 = LINE('',#455,#456);
#455 = CARTESIAN_POINT('',(1.107178565828,-14.59623759362,
    68.164242622607));
#456 = VECTOR('',#457,1.);
#457 = DIRECTION('',(0.774596055381,0.584312918678,0.242031741832));
#458 = ORIENTED_EDGE('',*,*,#459,.T.);
#459 = EDGE_CURVE('',#452,#414,#460,.T.);
#460 = LINE('',#461,#462);
#461 = CARTESIAN_POINT('',(0.899992015541,-14.07361259574,
    68.380720608627));
#462 = VECTOR('',#463,1.);
#463 = DIRECTION('',(-0.999999999997,-9.077280742771E-07,
    -2.191449403824E-06));
#464 = ORIENTED_EDGE('',*,*,#413,.F.);
#465 = PLANE('',#466);
#466 = AXIS2_PLACEMENT_3D('',#467,#468,#469);
#467 = CARTESIAN_POINT('',(0.899992489943,-14.33492518872,
    68.272481388599));
#468 = DIRECTION('',(-1.677262755609E-06,-0.382683432366,0.923879532509)
  );
#469 = DIRECTION('',(0.999999999998,-1.265393107815E-17,
    1.815456124507E-06));
#470 = ADVANCED_FACE('',(#471),#496,.T.);
#471 = FACE_BOUND('',#472,.T.);
#472 = EDGE_LOOP('',(#473,#481,#489,#495));
#473 = ORIENTED_EDGE('',*,*,#474,.T.);
#474 = EDGE_CURVE('',#444,#475,#477,.T.);
#475 = VERTEX_POINT('',#476);
#476 = CARTESIAN_POINT('',(-4.8309293377,-18.53218692602,58.662020363523
    ));
#477 = LINE('',#478,#479);
#478 = CARTESIAN_POINT('',(-3.332171160506,-17.53876674188,
    61.060348845203));
#479 = VECTOR('',#480,1.);
#480 = DIRECTION('',(-0.499999027639,-0.331413788871,-0.80010366385));
#481 = ORIENTED_EDGE('',*,*,#482,.T.);
#482 = EDGE_CURVE('',#475,#483,#485,.T.);
#483 = VERTEX_POINT('',#484);
#484 = CARTESIAN_POINT('',(-4.599988614348,-18.31570827633,
    58.139395683666));
#485 = LINE('',#486,#487);
#486 = CARTESIAN_POINT('',(-4.8309293377,-18.53218692602,58.662020363523
    ));
#487 = VECTOR('',#488,1.);
#488 = DIRECTION('',(0.377965558533,0.354296429632,-0.855345588936));
#489 = ORIENTED_EDGE('',*,*,#490,.T.);
#490 = EDGE_CURVE('',#483,#452,#491,.T.);
#491 = LINE('',#492,#493);
#492 = CARTESIAN_POINT('',(-2.985760774435,-17.24575146651,
    60.722499925092));
#493 = VECTOR('',#494,1.);
#494 = DIRECTION('',(0.499999027639,0.331413788871,0.80010366385));
#495 = ORIENTED_EDGE('',*,*,#451,.F.);
#496 = PLANE('',#497);
#497 = AXIS2_PLACEMENT_3D('',#498,#499,#500);
#498 = CARTESIAN_POINT('',(-3.158965967471,-17.39225910419,
    60.891424385148));
#499 = DIRECTION('',(0.61237283266,-0.788580244356,-5.604205592044E-02)
  );
#500 = DIRECTION('',(-9.113539098943E-02,8.326672684689E-17,
    -0.99583851126));
#501 = ADVANCED_FACE('',(#502),#518,.T.);
#502 = FACE_BOUND('',#503,.T.);
#503 = EDGE_LOOP('',(#504,#510,#511,#517));
#504 = ORIENTED_EDGE('',*,*,#505,.T.);
#505 = EDGE_CURVE('',#422,#483,#506,.T.);
#506 = LINE('',#507,#508);
#507 = CARTESIAN_POINT('',(-3.549988614354,-18.31570732321,
    58.139397984688));
#508 = VECTOR('',#509,1.);
#509 = DIRECTION('',(0.999999999997,9.077282265489E-07,
    2.191449771441E-06));
#510 = ORIENTED_EDGE('',*,*,#482,.F.);
#511 = ORIENTED_EDGE('',*,*,#512,.T.);
#512 = EDGE_CURVE('',#475,#404,#513,.T.);
#513 = LINE('',#514,#515);
#514 = CARTESIAN_POINT('',(-3.549989563157,-18.53218576327,
    58.662023170638));
#515 = VECTOR('',#516,1.);
#516 = DIRECTION('',(-0.999999999997,-9.077282265489E-07,
    -2.191449771441E-06));
#517 = ORIENTED_EDGE('',*,*,#429,.T.);
#518 = PLANE('',#519);
#519 = AXIS2_PLACEMENT_3D('',#520,#521,#522);
#520 = CARTESIAN_POINT('',(-3.549989088755,-18.42394654324,
    58.400710577663));
#521 = DIRECTION('',(1.677263049982E-06,-0.923879532511,-0.382683432363)
  );
#522 = DIRECTION('',(7.455584001732E-18,0.382683432364,-0.923879532512)
  );
#523 = ADVANCED_FACE('',(#524),#549,.T.);
#524 = FACE_BOUND('',#525,.T.);
#525 = EDGE_LOOP('',(#526,#527,#535,#543));
#526 = ORIENTED_EDGE('',*,*,#505,.F.);
#527 = ORIENTED_EDGE('',*,*,#528,.F.);
#528 = EDGE_CURVE('',#529,#422,#531,.T.);
#529 = VERTEX_POINT('',#530);
#530 = CARTESIAN_POINT('',(-7.099988614346,-16.92989095318,
    57.565364934837));
#531 = LINE('',#532,#533);
#532 = CARTESIAN_POINT('',(-7.099988614346,-16.92989124688,
    57.565365056494));
#533 = VECTOR('',#534,1.);
#534 = DIRECTION('',(9.213329192675E-15,-0.923879532511,0.382683432365)
  );
#535 = ORIENTED_EDGE('',*,*,#536,.F.);
#536 = EDGE_CURVE('',#537,#529,#539,.T.);
#537 = VERTEX_POINT('',#538);
#538 = CARTESIAN_POINT('',(-4.599988614348,-16.92988868386,
    57.565370413461));
#539 = LINE('',#540,#541);
#540 = CARTESIAN_POINT('',(-3.549981194037,-16.92988773023,
    57.565372714291));
#541 = VECTOR('',#542,1.);
#542 = DIRECTION('',(-0.999999999997,-9.077282265117E-07,
    -2.191449771459E-06));
#543 = ORIENTED_EDGE('',*,*,#544,.T.);
#544 = EDGE_CURVE('',#537,#483,#545,.T.);
#545 = LINE('',#546,#547);
#546 = CARTESIAN_POINT('',(-4.599988614348,-16.92988897756,
    57.565370535118));
#547 = VECTOR('',#548,1.);
#548 = DIRECTION('',(9.213329192675E-15,-0.923879532511,0.382683432365)
  );
#549 = PLANE('',#550);
#550 = AXIS2_PLACEMENT_3D('',#551,#552,#553);
#551 = CARTESIAN_POINT('',(-7.099988614346,-16.92989124688,
    57.565365056494));
#552 = DIRECTION('',(2.372008143754E-06,-0.382683432364,-0.923879532509)
  );
#553 = DIRECTION('',(0.999999999997,9.077282203574E-07,
    2.191449774008E-06));
#554 = ADVANCED_FACE('',(#555),#573,.T.);
#555 = FACE_BOUND('',#556,.T.);
#556 = EDGE_LOOP('',(#557,#558,#566,#572));
#557 = ORIENTED_EDGE('',*,*,#421,.F.);
#558 = ORIENTED_EDGE('',*,*,#559,.F.);
#559 = EDGE_CURVE('',#560,#414,#562,.T.);
#560 = VERTEX_POINT('',#561);
#561 = CARTESIAN_POINT('',(-0.700001060571,-12.68779445563,
    67.806691832119));
#562 = LINE('',#563,#564);
#563 = CARTESIAN_POINT('',(-0.700001060571,-12.68779474933,
    67.806691953776));
#564 = VECTOR('',#565,1.);
#565 = DIRECTION('',(9.213329192675E-15,-0.923879532511,0.382683432365)
  );
#566 = ORIENTED_EDGE('',*,*,#567,.F.);
#567 = EDGE_CURVE('',#529,#560,#568,.T.);
#568 = LINE('',#569,#570);
#569 = CARTESIAN_POINT('',(-0.618681678532,-12.63389362128,
    67.936819955997));
#570 = VECTOR('',#571,1.);
#571 = DIRECTION('',(0.499999027639,0.331413788871,0.80010366385));
#572 = ORIENTED_EDGE('',*,*,#528,.T.);
#573 = PLANE('',#574);
#574 = AXIS2_PLACEMENT_3D('',#575,#576,#577);
#575 = CARTESIAN_POINT('',(-0.700001060571,-12.68779474933,
    67.806691953776));
#576 = DIRECTION('',(-0.866025965177,0.191341344076,0.461938867911));
#577 = DIRECTION('',(-0.499999027639,-0.331413788871,-0.80010366385));
#578 = ADVANCED_FACE('',(#579),#585,.T.);
#579 = FACE_BOUND('',#580,.T.);
#580 = EDGE_LOOP('',(#581,#582,#583,#584));
#581 = ORIENTED_EDGE('',*,*,#403,.F.);
#582 = ORIENTED_EDGE('',*,*,#512,.F.);
#583 = ORIENTED_EDGE('',*,*,#474,.F.);
#584 = ORIENTED_EDGE('',*,*,#443,.F.);
#585 = PLANE('',#586);
#586 = AXIS2_PLACEMENT_3D('',#587,#588,#589);
#587 = CARTESIAN_POINT('',(1.030089552746E-13,-16.84837543844,
    62.727100893323));
#588 = DIRECTION('',(9.200554557163E-15,-0.923879532511,0.382683432365)
  );
#589 = DIRECTION('',(1.,9.897380380832E-15,-1.478177340596E-16));
#590 = ADVANCED_FACE('',(#591),#609,.T.);
#591 = FACE_BOUND('',#592,.T.);
#592 = EDGE_LOOP('',(#593,#594,#602,#608));
#593 = ORIENTED_EDGE('',*,*,#459,.F.);
#594 = ORIENTED_EDGE('',*,*,#595,.F.);
#595 = EDGE_CURVE('',#596,#452,#598,.T.);
#596 = VERTEX_POINT('',#597);
#597 = CARTESIAN_POINT('',(1.799998939429,-12.68779218631,
    67.806697310742));
#598 = LINE('',#599,#600);
#599 = CARTESIAN_POINT('',(1.799998939429,-12.68779248001,
    67.806697432399));
#600 = VECTOR('',#601,1.);
#601 = DIRECTION('',(9.213329192675E-15,-0.923879532511,0.382683432365)
  );
#602 = ORIENTED_EDGE('',*,*,#603,.F.);
#603 = EDGE_CURVE('',#560,#596,#604,.T.);
#604 = LINE('',#605,#606);
#605 = CARTESIAN_POINT('',(0.899999435857,-12.68779300276,67.80669533823
    ));
#606 = VECTOR('',#607,1.);
#607 = DIRECTION('',(0.999999999997,9.077280742399E-07,
    2.191449403842E-06));
#608 = ORIENTED_EDGE('',*,*,#559,.T.);
#609 = PLANE('',#610);
#610 = AXIS2_PLACEMENT_3D('',#611,#612,#613);
#611 = CARTESIAN_POINT('',(1.799998939429,-12.68779248001,
    67.806697432399));
#612 = DIRECTION('',(-2.372007745848E-06,0.382683432364,0.923879532509)
  );
#613 = DIRECTION('',(-0.999999999997,-9.077280678805E-07,
    -2.191449406476E-06));
#614 = ADVANCED_FACE('',(#615),#626,.T.);
#615 = FACE_BOUND('',#616,.T.);
#616 = EDGE_LOOP('',(#617,#618,#619,#625));
#617 = ORIENTED_EDGE('',*,*,#490,.F.);
#618 = ORIENTED_EDGE('',*,*,#544,.F.);
#619 = ORIENTED_EDGE('',*,*,#620,.F.);
#620 = EDGE_CURVE('',#596,#537,#621,.T.);
#621 = LINE('',#622,#623);
#622 = CARTESIAN_POINT('',(-1.631175523855,-14.96207366696,
    62.316096114074));
#623 = VECTOR('',#624,1.);
#624 = DIRECTION('',(-0.499999027639,-0.331413788871,-0.80010366385));
#625 = ORIENTED_EDGE('',*,*,#595,.T.);
#626 = PLANE('',#627);
#627 = AXIS2_PLACEMENT_3D('',#628,#629,#630);
#628 = CARTESIAN_POINT('',(-4.599988614348,-16.92988897756,
    57.565370535118));
#629 = DIRECTION('',(0.866025965177,-0.191341344076,-0.461938867911));
#630 = DIRECTION('',(0.499999027639,0.331413788871,0.80010366385));
#631 = ADVANCED_FACE('',(#632),#650,.T.);
#632 = FACE_BOUND('',#633,.T.);
#633 = EDGE_LOOP('',(#634,#635,#643,#649));
#634 = ORIENTED_EDGE('',*,*,#77,.F.);
#635 = ORIENTED_EDGE('',*,*,#636,.F.);
#636 = EDGE_CURVE('',#637,#70,#639,.T.);
#637 = VERTEX_POINT('',#638);
#638 = CARTESIAN_POINT('',(4.350025220235,-15.63737060407,
    60.685785091295));
#639 = LINE('',#640,#641);
#640 = CARTESIAN_POINT('',(4.350025220235,-15.63737089778,
    60.685785212952));
#641 = VECTOR('',#642,1.);
#642 = DIRECTION('',(8.935773436519E-15,-0.923879532511,0.382683432365)
  );
#643 = ORIENTED_EDGE('',*,*,#644,.F.);
#644 = EDGE_CURVE('',#178,#637,#645,.T.);
#645 = LINE('',#646,#647);
#646 = CARTESIAN_POINT('',(5.468839038222,-14.8957916365,62.476115090935
    ));
#647 = VECTOR('',#648,1.);
#648 = DIRECTION('',(-0.500000609411,-0.331413439391,-0.80010282013));
#649 = ORIENTED_EDGE('',*,*,#177,.T.);
#650 = PLANE('',#651);
#651 = AXIS2_PLACEMENT_3D('',#652,#653,#654);
#652 = CARTESIAN_POINT('',(4.350025220235,-15.63737089778,
    60.685785212952));
#653 = DIRECTION('',(0.86602505194,-0.191341949394,-0.461940329278));
#654 = DIRECTION('',(0.500000609411,0.331413439391,0.80010282013));
#655 = ADVANCED_FACE('',(#656),#667,.T.);
#656 = FACE_BOUND('',#657,.T.);
#657 = EDGE_LOOP('',(#658,#659,#660,#666));
#658 = ORIENTED_EDGE('',*,*,#108,.F.);
#659 = ORIENTED_EDGE('',*,*,#162,.F.);
#660 = ORIENTED_EDGE('',*,*,#661,.F.);
#661 = EDGE_CURVE('',#637,#155,#662,.T.);
#662 = LINE('',#663,#664);
#663 = CARTESIAN_POINT('',(0.693684890398,-13.21386689989,
    66.536640600954));
#664 = VECTOR('',#665,1.);
#665 = DIRECTION('',(-0.500002774312,0.33141296107,0.800101665362));
#666 = ORIENTED_EDGE('',*,*,#636,.T.);
#667 = PLANE('',#668);
#668 = AXIS2_PLACEMENT_3D('',#669,#670,#671);
#669 = CARTESIAN_POINT('',(1.450009124029,-13.71517572012,
    65.326374880367));
#670 = DIRECTION('',(-0.866023802029,-0.191342777866,-0.461942329386));
#671 = DIRECTION('',(0.500002774312,-0.33141296107,-0.800101665362));
#672 = ADVANCED_FACE('',(#673),#691,.T.);
#673 = FACE_BOUND('',#674,.T.);
#674 = EDGE_LOOP('',(#675,#676,#684,#690));
#675 = ORIENTED_EDGE('',*,*,#268,.F.);
#676 = ORIENTED_EDGE('',*,*,#677,.F.);
#677 = EDGE_CURVE('',#678,#261,#680,.T.);
#678 = VERTEX_POINT('',#679);
#679 = CARTESIAN_POINT('',(2.400023865309,-16.92988232975,
    57.565385753637));
#680 = LINE('',#681,#682);
#681 = CARTESIAN_POINT('',(2.400023865309,-16.92988262345,
    57.565385875294));
#682 = VECTOR('',#683,1.);
#683 = DIRECTION('',(9.213329192675E-15,-0.923879532511,0.382683432365)
  );
#684 = ORIENTED_EDGE('',*,*,#685,.F.);
#685 = EDGE_CURVE('',#369,#678,#686,.T.);
#686 = LINE('',#687,#688);
#687 = CARTESIAN_POINT('',(4.493837150724,-15.54204605888,
    60.915918899683));
#688 = VECTOR('',#689,1.);
#689 = DIRECTION('',(-0.500000004919,-0.331413572949,-0.800103142567));
#690 = ORIENTED_EDGE('',*,*,#368,.T.);
#691 = PLANE('',#692);
#692 = AXIS2_PLACEMENT_3D('',#693,#694,#695);
#693 = CARTESIAN_POINT('',(2.400023865309,-16.92988262345,
    57.565385875294));
#694 = DIRECTION('',(0.866025400944,-0.191341718065,-0.4619397708));
#695 = DIRECTION('',(0.500000004919,0.331413572949,0.800103142567));
#696 = ADVANCED_FACE('',(#697),#708,.T.);
#697 = FACE_BOUND('',#698,.T.);
#698 = EDGE_LOOP('',(#699,#700,#701,#707));
#699 = ORIENTED_EDGE('',*,*,#299,.F.);
#700 = ORIENTED_EDGE('',*,*,#353,.F.);
#701 = ORIENTED_EDGE('',*,*,#702,.F.);
#702 = EDGE_CURVE('',#678,#346,#703,.T.);
#703 = LINE('',#704,#705);
#704 = CARTESIAN_POINT('',(-1.699981194038,-16.92988605093,
    57.565376768473));
#705 = VECTOR('',#706,1.);
#706 = DIRECTION('',(-0.999999999997,-9.077282286256E-07,
    -2.191449776562E-06));
#707 = ORIENTED_EDGE('',*,*,#677,.T.);
#708 = PLANE('',#709);
#709 = AXIS2_PLACEMENT_3D('',#710,#711,#712);
#710 = CARTESIAN_POINT('',(-3.399988614348,-16.92988788829,
    57.565373164858));
#711 = DIRECTION('',(2.372008149277E-06,-0.382683432364,-0.923879532509)
  );
#712 = DIRECTION('',(0.999999999997,9.077282286256E-07,
    2.191449776562E-06));
#713 = ADVANCED_FACE('',(#714,#784,#790,#796),#802,.T.);
#714 = FACE_BOUND('',#715,.T.);
#715 = EDGE_LOOP('',(#716,#726,#735,#743,#752,#760,#769,#777));
#716 = ORIENTED_EDGE('',*,*,#717,.F.);
#717 = EDGE_CURVE('',#718,#720,#722,.T.);
#718 = VERTEX_POINT('',#719);
#719 = CARTESIAN_POINT('',(-7.5,-16.90750893199,57.61939991252));
#720 = VERTEX_POINT('',#721);
#721 = CARTESIAN_POINT('',(-7.5,-13.27849913292,66.380604587407));
#722 = LINE('',#723,#724);
#723 = CARTESIAN_POINT('',(-7.5,-15.95116405596,59.928220682535));
#724 = VECTOR('',#725,1.);
#725 = DIRECTION('',(9.396736820755E-31,0.382683432365,0.923879532511));
#726 = ORIENTED_EDGE('',*,*,#727,.F.);
#727 = EDGE_CURVE('',#728,#718,#730,.T.);
#728 = VERTEX_POINT('',#729);
#729 = CARTESIAN_POINT('',(-5.5,-17.67287579672,55.771640847497));
#730 = CIRCLE('',#731,2.);
#731 = AXIS2_PLACEMENT_3D('',#732,#733,#734);
#732 = CARTESIAN_POINT('',(-5.5,-16.90750893199,57.61939991252));
#733 = DIRECTION('',(-9.131584377542E-15,0.923879532511,-0.382683432365)
  );
#734 = DIRECTION('',(-0.707106781187,-0.270598050073,-0.653281482438));
#735 = ORIENTED_EDGE('',*,*,#736,.F.);
#736 = EDGE_CURVE('',#737,#728,#739,.T.);
#737 = VERTEX_POINT('',#738);
#738 = CARTESIAN_POINT('',(5.5,-17.67287579672,55.771640847497));
#739 = LINE('',#740,#741);
#740 = CARTESIAN_POINT('',(4.,-17.67287579672,55.771640847497));
#741 = VECTOR('',#742,1.);
#742 = DIRECTION('',(-1.,-9.913998125124E-15,-1.99139007446E-30));
#743 = ORIENTED_EDGE('',*,*,#744,.F.);
#744 = EDGE_CURVE('',#745,#737,#747,.T.);
#745 = VERTEX_POINT('',#746);
#746 = CARTESIAN_POINT('',(7.5,-16.90750893199,57.61939991252));
#747 = CIRCLE('',#748,2.);
#748 = AXIS2_PLACEMENT_3D('',#749,#750,#751);
#749 = CARTESIAN_POINT('',(5.5,-16.90750893199,57.61939991252));
#750 = DIRECTION('',(-9.159339953158E-15,0.923879532511,-0.382683432365)
  );
#751 = DIRECTION('',(0.707106781187,-0.270598050073,-0.653281482438));
#752 = ORIENTED_EDGE('',*,*,#753,.F.);
#753 = EDGE_CURVE('',#754,#745,#756,.T.);
#754 = VERTEX_POINT('',#755);
#755 = CARTESIAN_POINT('',(7.5,-13.27849913292,66.380604587407));
#756 = LINE('',#757,#758);
#757 = CARTESIAN_POINT('',(7.5,-12.2232419946,68.928220682535));
#758 = VECTOR('',#759,1.);
#759 = DIRECTION('',(-9.396736820755E-31,-0.382683432365,-0.923879532511
    ));
#760 = ORIENTED_EDGE('',*,*,#761,.F.);
#761 = EDGE_CURVE('',#762,#754,#764,.T.);
#762 = VERTEX_POINT('',#763);
#763 = CARTESIAN_POINT('',(5.5,-12.51313226819,68.228363652429));
#764 = CIRCLE('',#765,2.);
#765 = AXIS2_PLACEMENT_3D('',#766,#767,#768);
#766 = CARTESIAN_POINT('',(5.5,-13.27849913292,66.380604587407));
#767 = DIRECTION('',(-9.103828801926E-15,0.923879532511,-0.382683432365)
  );
#768 = DIRECTION('',(0.707106781187,0.270598050073,0.653281482438));
#769 = ORIENTED_EDGE('',*,*,#770,.F.);
#770 = EDGE_CURVE('',#771,#762,#773,.T.);
#771 = VERTEX_POINT('',#772);
#772 = CARTESIAN_POINT('',(-5.5,-12.51313226819,68.228363652429));
#773 = LINE('',#774,#775);
#774 = CARTESIAN_POINT('',(-4.,-12.51313226819,68.228363652429));
#775 = VECTOR('',#776,1.);
#776 = DIRECTION('',(1.,9.913998125124E-15,1.99139007446E-30));
#777 = ORIENTED_EDGE('',*,*,#778,.F.);
#778 = EDGE_CURVE('',#720,#771,#779,.T.);
#779 = CIRCLE('',#780,2.);
#780 = AXIS2_PLACEMENT_3D('',#781,#782,#783);
#781 = CARTESIAN_POINT('',(-5.5,-13.27849913292,66.380604587407));
#782 = DIRECTION('',(-9.159339953158E-15,0.923879532511,-0.382683432365)
  );
#783 = DIRECTION('',(-0.707106781187,0.270598050073,0.653281482438));
#784 = FACE_BOUND('',#785,.T.);
#785 = EDGE_LOOP('',(#786,#787,#788,#789));
#786 = ORIENTED_EDGE('',*,*,#536,.T.);
#787 = ORIENTED_EDGE('',*,*,#567,.T.);
#788 = ORIENTED_EDGE('',*,*,#603,.T.);
#789 = ORIENTED_EDGE('',*,*,#620,.T.);
#790 = FACE_BOUND('',#791,.T.);
#791 = EDGE_LOOP('',(#792,#793,#794,#795));
#792 = ORIENTED_EDGE('',*,*,#644,.T.);
#793 = ORIENTED_EDGE('',*,*,#661,.T.);
#794 = ORIENTED_EDGE('',*,*,#154,.T.);
#795 = ORIENTED_EDGE('',*,*,#185,.T.);
#796 = FACE_BOUND('',#797,.T.);
#797 = EDGE_LOOP('',(#798,#799,#800,#801));
#798 = ORIENTED_EDGE('',*,*,#685,.T.);
#799 = ORIENTED_EDGE('',*,*,#702,.T.);
#800 = ORIENTED_EDGE('',*,*,#345,.T.);
#801 = ORIENTED_EDGE('',*,*,#376,.T.);
#802 = PLANE('',#803);
#803 = AXIS2_PLACEMENT_3D('',#804,#805,#806);
#804 = CARTESIAN_POINT('',(1.924939818664E-13,-12.69871858574,
    67.780318647617));
#805 = DIRECTION('',(9.159339953158E-15,-0.923879532511,0.382683432365)
  );
#806 = DIRECTION('',(-7.88860905221E-31,-0.382683432365,-0.923879532511)
  );
#807 = ADVANCED_FACE('',(#808),#834,.T.);
#808 = FACE_BOUND('',#809,.T.);
#809 = EDGE_LOOP('',(#810,#821,#827,#828));
#810 = ORIENTED_EDGE('',*,*,#811,.T.);
#811 = EDGE_CURVE('',#812,#814,#816,.T.);
#812 = VERTEX_POINT('',#813);
#813 = CARTESIAN_POINT('',(5.5,-16.74899626421,55.388957415132));
#814 = VERTEX_POINT('',#815);
#815 = CARTESIAN_POINT('',(7.5,-15.98362939948,57.236716480155));
#816 = CIRCLE('',#817,2.);
#817 = AXIS2_PLACEMENT_3D('',#818,#819,#820);
#818 = CARTESIAN_POINT('',(5.5,-15.98362939948,57.236716480155));
#819 = DIRECTION('',(8.909539772617E-15,-0.923879532511,0.382683432365)
  );
#820 = DIRECTION('',(0.707106781187,-0.270598050073,-0.653281482438));
#821 = ORIENTED_EDGE('',*,*,#822,.T.);
#822 = EDGE_CURVE('',#814,#745,#823,.T.);
#823 = LINE('',#824,#825);
#824 = CARTESIAN_POINT('',(7.5,-16.90750893199,57.61939991252));
#825 = VECTOR('',#826,1.);
#826 = DIRECTION('',(8.881784197001E-15,-0.923879532511,0.382683432365)
  );
#827 = ORIENTED_EDGE('',*,*,#744,.T.);
#828 = ORIENTED_EDGE('',*,*,#829,.T.);
#829 = EDGE_CURVE('',#737,#812,#830,.T.);
#830 = LINE('',#831,#832);
#831 = CARTESIAN_POINT('',(5.5,-17.67287579672,55.771640847497));
#832 = VECTOR('',#833,1.);
#833 = DIRECTION('',(-8.881784197001E-15,0.923879532511,-0.382683432365)
  );
#834 = CYLINDRICAL_SURFACE('',#835,2.);
#835 = AXIS2_PLACEMENT_3D('',#836,#837,#838);
#836 = CARTESIAN_POINT('',(5.5,-16.90750893199,57.61939991252));
#837 = DIRECTION('',(-8.881784197001E-15,0.923879532511,-0.382683432365)
  );
#838 = DIRECTION('',(0.707106781187,-0.270598050073,-0.653281482438));
#839 = ADVANCED_FACE('',(#840),#858,.T.);
#840 = FACE_BOUND('',#841,.T.);
#841 = EDGE_LOOP('',(#842,#843,#851,#857));
#842 = ORIENTED_EDGE('',*,*,#822,.F.);
#843 = ORIENTED_EDGE('',*,*,#844,.T.);
#844 = EDGE_CURVE('',#814,#845,#847,.T.);
#845 = VERTEX_POINT('',#846);
#846 = CARTESIAN_POINT('',(7.5,-12.35461960041,65.997921155042));
#847 = LINE('',#848,#849);
#848 = CARTESIAN_POINT('',(7.5,-11.29936246209,68.545537250169));
#849 = VECTOR('',#850,1.);
#850 = DIRECTION('',(9.396736820755E-31,0.382683432365,0.923879532511));
#851 = ORIENTED_EDGE('',*,*,#852,.F.);
#852 = EDGE_CURVE('',#754,#845,#853,.T.);
#853 = LINE('',#854,#855);
#854 = CARTESIAN_POINT('',(7.5,-13.27849913292,66.380604587407));
#855 = VECTOR('',#856,1.);
#856 = DIRECTION('',(-8.881784197001E-15,0.923879532511,-0.382683432365)
  );
#857 = ORIENTED_EDGE('',*,*,#753,.T.);
#858 = PLANE('',#859);
#859 = AXIS2_PLACEMENT_3D('',#860,#861,#862);
#860 = CARTESIAN_POINT('',(7.5,-11.74776540346,70.076122717452));
#861 = DIRECTION('',(1.,8.205698631792E-15,-3.398911662034E-15));
#862 = DIRECTION('',(-1.183291357832E-30,-0.382683432365,-0.923879532511
    ));
#863 = ADVANCED_FACE('',(#864),#917,.T.);
#864 = FACE_BOUND('',#865,.T.);
#865 = EDGE_LOOP('',(#866,#867,#875,#884,#892,#901,#909,#916));
#866 = ORIENTED_EDGE('',*,*,#811,.F.);
#867 = ORIENTED_EDGE('',*,*,#868,.F.);
#868 = EDGE_CURVE('',#869,#812,#871,.T.);
#869 = VERTEX_POINT('',#870);
#870 = CARTESIAN_POINT('',(-5.5,-16.74899626421,55.388957415132));
#871 = LINE('',#872,#873);
#872 = CARTESIAN_POINT('',(4.,-16.74899626421,55.388957415132));
#873 = VECTOR('',#874,1.);
#874 = DIRECTION('',(1.,9.657570042881E-15,1.062159894386E-16));
#875 = ORIENTED_EDGE('',*,*,#876,.F.);
#876 = EDGE_CURVE('',#877,#869,#879,.T.);
#877 = VERTEX_POINT('',#878);
#878 = CARTESIAN_POINT('',(-7.5,-15.98362939948,57.236716480155));
#879 = CIRCLE('',#880,2.);
#880 = AXIS2_PLACEMENT_3D('',#881,#882,#883);
#881 = CARTESIAN_POINT('',(-5.5,-15.98362939948,57.236716480155));
#882 = DIRECTION('',(8.965050923848E-15,-0.923879532511,0.382683432365)
  );
#883 = DIRECTION('',(-0.707106781187,-0.270598050073,-0.653281482438));
#884 = ORIENTED_EDGE('',*,*,#885,.F.);
#885 = EDGE_CURVE('',#886,#877,#888,.T.);
#886 = VERTEX_POINT('',#887);
#887 = CARTESIAN_POINT('',(-7.5,-12.35461960041,65.997921155042));
#888 = LINE('',#889,#890);
#889 = CARTESIAN_POINT('',(-7.5,-15.02728452345,59.545537250169));
#890 = VECTOR('',#891,1.);
#891 = DIRECTION('',(-9.396736820755E-31,-0.382683432365,-0.923879532511
    ));
#892 = ORIENTED_EDGE('',*,*,#893,.F.);
#893 = EDGE_CURVE('',#894,#886,#896,.T.);
#894 = VERTEX_POINT('',#895);
#895 = CARTESIAN_POINT('',(-5.5,-11.58925273568,67.845680220064));
#896 = CIRCLE('',#897,2.);
#897 = AXIS2_PLACEMENT_3D('',#898,#899,#900);
#898 = CARTESIAN_POINT('',(-5.5,-12.35461960041,65.997921155042));
#899 = DIRECTION('',(8.937295348233E-15,-0.923879532511,0.382683432365)
  );
#900 = DIRECTION('',(-0.707106781187,0.270598050073,0.653281482438));
#901 = ORIENTED_EDGE('',*,*,#902,.F.);
#902 = EDGE_CURVE('',#903,#894,#905,.T.);
#903 = VERTEX_POINT('',#904);
#904 = CARTESIAN_POINT('',(5.5,-11.58925273568,67.845680220064));
#905 = LINE('',#906,#907);
#906 = CARTESIAN_POINT('',(-4.,-11.58925273568,67.845680220064));
#907 = VECTOR('',#908,1.);
#908 = DIRECTION('',(-1.,-9.657570042881E-15,-1.062159894386E-16));
#909 = ORIENTED_EDGE('',*,*,#910,.F.);
#910 = EDGE_CURVE('',#845,#903,#911,.T.);
#911 = CIRCLE('',#912,2.);
#912 = AXIS2_PLACEMENT_3D('',#913,#914,#915);
#913 = CARTESIAN_POINT('',(5.5,-12.35461960041,65.997921155042));
#914 = DIRECTION('',(8.881784197001E-15,-0.923879532511,0.382683432365)
  );
#915 = DIRECTION('',(0.707106781187,0.270598050073,0.653281482438));
#916 = ORIENTED_EDGE('',*,*,#844,.F.);
#917 = PLANE('',#918);
#918 = AXIS2_PLACEMENT_3D('',#919,#920,#921);
#919 = CARTESIAN_POINT('',(1.831521045936E-13,-11.77483905323,
    67.397635215252));
#920 = DIRECTION('',(-8.881784197001E-15,0.923879532511,-0.382683432365)
  );
#921 = DIRECTION('',(1.183291357832E-30,0.382683432365,0.923879532511));
#922 = ADVANCED_FACE('',(#923),#939,.T.);
#923 = FACE_BOUND('',#924,.T.);
#924 = EDGE_LOOP('',(#925,#926,#932,#933));
#925 = ORIENTED_EDGE('',*,*,#876,.T.);
#926 = ORIENTED_EDGE('',*,*,#927,.T.);
#927 = EDGE_CURVE('',#869,#728,#928,.T.);
#928 = LINE('',#929,#930);
#929 = CARTESIAN_POINT('',(-5.5,-17.67287579672,55.771640847497));
#930 = VECTOR('',#931,1.);
#931 = DIRECTION('',(8.881784197001E-15,-0.923879532511,0.382683432365)
  );
#932 = ORIENTED_EDGE('',*,*,#727,.T.);
#933 = ORIENTED_EDGE('',*,*,#934,.T.);
#934 = EDGE_CURVE('',#718,#877,#935,.T.);
#935 = LINE('',#936,#937);
#936 = CARTESIAN_POINT('',(-7.5,-16.90750893199,57.61939991252));
#937 = VECTOR('',#938,1.);
#938 = DIRECTION('',(-8.881784197001E-15,0.923879532511,-0.382683432365)
  );
#939 = CYLINDRICAL_SURFACE('',#940,2.);
#940 = AXIS2_PLACEMENT_3D('',#941,#942,#943);
#941 = CARTESIAN_POINT('',(-5.5,-16.90750893199,57.61939991252));
#942 = DIRECTION('',(-8.881784197001E-15,0.923879532511,-0.382683432365)
  );
#943 = DIRECTION('',(-0.707106781187,-0.270598050073,-0.653281482438));
#944 = ADVANCED_FACE('',(#945),#956,.T.);
#945 = FACE_BOUND('',#946,.T.);
#946 = EDGE_LOOP('',(#947,#948,#949,#955));
#947 = ORIENTED_EDGE('',*,*,#934,.F.);
#948 = ORIENTED_EDGE('',*,*,#717,.T.);
#949 = ORIENTED_EDGE('',*,*,#950,.F.);
#950 = EDGE_CURVE('',#886,#720,#951,.T.);
#951 = LINE('',#952,#953);
#952 = CARTESIAN_POINT('',(-7.5,-13.27849913292,66.380604587407));
#953 = VECTOR('',#954,1.);
#954 = DIRECTION('',(8.881784197001E-15,-0.923879532511,0.382683432365)
  );
#955 = ORIENTED_EDGE('',*,*,#885,.T.);
#956 = PLANE('',#957);
#957 = AXIS2_PLACEMENT_3D('',#958,#959,#960);
#958 = CARTESIAN_POINT('',(-7.5,-19.20360952618,52.076122717452));
#959 = DIRECTION('',(-1.,-8.205698631792E-15,3.398911662034E-15));
#960 = DIRECTION('',(1.183291357832E-30,0.382683432365,0.923879532511));
#961 = ADVANCED_FACE('',(#962),#973,.T.);
#962 = FACE_BOUND('',#963,.T.);
#963 = EDGE_LOOP('',(#964,#965,#966,#967));
#964 = ORIENTED_EDGE('',*,*,#893,.T.);
#965 = ORIENTED_EDGE('',*,*,#950,.T.);
#966 = ORIENTED_EDGE('',*,*,#778,.T.);
#967 = ORIENTED_EDGE('',*,*,#968,.T.);
#968 = EDGE_CURVE('',#771,#894,#969,.T.);
#969 = LINE('',#970,#971);
#970 = CARTESIAN_POINT('',(-5.5,-12.51313226819,68.228363652429));
#971 = VECTOR('',#972,1.);
#972 = DIRECTION('',(-8.881784197001E-15,0.923879532511,-0.382683432365)
  );
#973 = CYLINDRICAL_SURFACE('',#974,2.);
#974 = AXIS2_PLACEMENT_3D('',#975,#976,#977);
#975 = CARTESIAN_POINT('',(-5.5,-13.27849913292,66.380604587407));
#976 = DIRECTION('',(-8.881784197001E-15,0.923879532511,-0.382683432365)
  );
#977 = DIRECTION('',(-0.707106781187,0.270598050073,0.653281482438));
#978 = ADVANCED_FACE('',(#979),#990,.T.);
#979 = FACE_BOUND('',#980,.T.);
#980 = EDGE_LOOP('',(#981,#982,#983,#989));
#981 = ORIENTED_EDGE('',*,*,#968,.F.);
#982 = ORIENTED_EDGE('',*,*,#770,.T.);
#983 = ORIENTED_EDGE('',*,*,#984,.F.);
#984 = EDGE_CURVE('',#903,#762,#985,.T.);
#985 = LINE('',#986,#987);
#986 = CARTESIAN_POINT('',(5.5,-12.51313226819,68.228363652429));
#987 = VECTOR('',#988,1.);
#988 = DIRECTION('',(8.881784197001E-15,-0.923879532511,0.382683432365)
  );
#989 = ORIENTED_EDGE('',*,*,#902,.T.);
#990 = PLANE('',#991);
#991 = AXIS2_PLACEMENT_3D('',#992,#993,#994);
#992 = CARTESIAN_POINT('',(-8.,-12.51313226819,68.228363652429));
#993 = DIRECTION('',(-3.793922830984E-15,0.382683432365,0.923879532511)
  );
#994 = DIRECTION('',(1.,9.913998125124E-15,-3.155443620884E-30));
#995 = ADVANCED_FACE('',(#996),#1002,.T.);
#996 = FACE_BOUND('',#997,.T.);
#997 = EDGE_LOOP('',(#998,#999,#1000,#1001));
#998 = ORIENTED_EDGE('',*,*,#910,.T.);
#999 = ORIENTED_EDGE('',*,*,#984,.T.);
#1000 = ORIENTED_EDGE('',*,*,#761,.T.);
#1001 = ORIENTED_EDGE('',*,*,#852,.T.);
#1002 = CYLINDRICAL_SURFACE('',#1003,2.);
#1003 = AXIS2_PLACEMENT_3D('',#1004,#1005,#1006);
#1004 = CARTESIAN_POINT('',(5.5,-13.27849913292,66.380604587407));
#1005 = DIRECTION('',(-8.881784197001E-15,0.923879532511,-0.382683432365
    ));
#1006 = DIRECTION('',(0.707106781187,0.270598050073,0.653281482438));
#1007 = ADVANCED_FACE('',(#1008),#1014,.T.);
#1008 = FACE_BOUND('',#1009,.T.);
#1009 = EDGE_LOOP('',(#1010,#1011,#1012,#1013));
#1010 = ORIENTED_EDGE('',*,*,#829,.F.);
#1011 = ORIENTED_EDGE('',*,*,#736,.T.);
#1012 = ORIENTED_EDGE('',*,*,#927,.F.);
#1013 = ORIENTED_EDGE('',*,*,#868,.T.);
#1014 = PLANE('',#1015);
#1015 = AXIS2_PLACEMENT_3D('',#1016,#1017,#1018);
#1016 = CARTESIAN_POINT('',(8.,-17.67287579672,55.771640847497));
#1017 = DIRECTION('',(3.793922830984E-15,-0.382683432365,-0.923879532511
    ));
#1018 = DIRECTION('',(-1.,-9.913998125124E-15,3.155443620884E-30));
#1019 = ( GEOMETRIC_REPRESENTATION_CONTEXT(3) 
GLOBAL_UNCERTAINTY_ASSIGNED_CONTEXT((#1023)) 
GLOBAL_UNIT_ASSIGNED_CONTEXT((#1020,#1021,#1022)) REPRESENTATION_CONTEXT
('Context #1','3D Context with UNIT and UNCERTAINTY') );
#1020 = ( LENGTH_UNIT() NAMED_UNIT(*) SI_UNIT(.MILLI.,.METRE.) );
#1021 = ( NAMED_UNIT(*) PLANE_ANGLE_UNIT() SI_UNIT($,.RADIAN.) );
#1022 = ( NAMED_UNIT(*) SI_UNIT($,.STERADIAN.) SOLID_ANGLE_UNIT() );
#1023 = UNCERTAINTY_MEASURE_WITH_UNIT(LENGTH_MEASURE(1.E-07),#1020,
  'distance_accuracy_value','confusion accuracy');
#1024 = PRODUCT_RELATED_PRODUCT_CATEGORY('part',$,(#7));
#1025 = MECHANICAL_DESIGN_GEOMETRIC_PRESENTATION_REPRESENTATION('',(
    #1026),#1019);
#1026 = STYLED_ITEM('color',(#1027),#15);
#1027 = PRESENTATION_STYLE_ASSIGNMENT((#1028,#1034));
#1028 = SURFACE_STYLE_USAGE(.BOTH.,#1029);
#1029 = SURFACE_SIDE_STYLE('',(#1030));
#1030 = SURFACE_STYLE_FILL_AREA(#1031);
#1031 = FILL_AREA_STYLE('',(#1032));
#1032 = FILL_AREA_STYLE_COLOUR('',#1033);
#1033 = COLOUR_RGB('',0.964705886078,0.964705886078,0.952941189437);
#1034 = CURVE_STYLE('',#1035,POSITIVE_LENGTH_MEASURE(0.1),#1036);
#1035 = DRAUGHTING_PRE_DEFINED_CURVE_FONT('continuous');
#1036 = COLOUR_RGB('',9.803921802644E-02,9.803921802644E-02,
  9.803921802644E-02);
ENDSEC;
END-ISO-10303-21;
