ISO-10303-21;
HEADER;
FILE_DESCRIPTION(('FreeCAD Model'),'2;1');
FILE_NAME('Open CASCADE Shape Model','2025-11-08T21:05:05',(''),(''),
  'Open CASCADE STEP processor 7.9','FreeCAD','Unknown');
FILE_SCHEMA(('AUTOMOTIVE_DESIGN { 1 0 10303 214 1 1 1 1 }'));
ENDSEC;
DATA;
#1 = APPLICATION_PROTOCOL_DEFINITION('international standard',
  'automotive_design',2000,#2);
#2 = APPLICATION_CONTEXT(
  'core data for automotive mechanical design processes');
#3 = SHAPE_DEFINITION_REPRESENTATION(#4,#10);
#4 = PRODUCT_DEFINITION_SHAPE('','',#5);
#5 = PRODUCT_DEFINITION('design','',#6,#9);
#6 = PRODUCT_DEFINITION_FORMATION('','',#7);
#7 = PRODUCT('[o]_Lens_Carrier_Barf','[o]_Lens_Carrier_Barf','',(#8));
#8 = PRODUCT_CONTEXT('',#2,'mechanical');
#9 = PRODUCT_DEFINITION_CONTEXT('part definition',#2,'design');
#10 = ADVANCED_BREP_SHAPE_REPRESENTATION('',(#11,#15),#1078);
#11 = AXIS2_PLACEMENT_3D('',#12,#13,#14);
#12 = CARTESIAN_POINT('',(0.,0.,0.));
#13 = DIRECTION('',(0.,0.,1.));
#14 = DIRECTION('',(1.,0.,-0.));
#15 = MANIFOLD_SOLID_BREP('',#16);
#16 = CLOSED_SHELL('',(#17,#89,#120,#160,#183,#223,#246,#302,#351,#382,
    #406,#462,#493,#517,#548,#564,#597,#614,#631,#715,#749,#765,#797,
    #821,#853,#870,#902,#919,#944,#961,#995,#1023,#1047,#1066));
#17 = ADVANCED_FACE('',(#18),#84,.F.);
#18 = FACE_BOUND('',#19,.T.);
#19 = EDGE_LOOP('',(#20,#30,#38,#46,#54,#62,#70,#78));
#20 = ORIENTED_EDGE('',*,*,#21,.F.);
#21 = EDGE_CURVE('',#22,#24,#26,.T.);
#22 = VERTEX_POINT('',#23);
#23 = CARTESIAN_POINT('',(-8.5,-9.317531856483,70.617318817598));
#24 = VERTEX_POINT('',#25);
#25 = CARTESIAN_POINT('',(-8.5,-8.517531856483,52.000002249963));
#26 = LINE('',#27,#28);
#27 = CARTESIAN_POINT('',(-8.5,-8.916610315546,61.287214759585));
#28 = VECTOR('',#29,1.);
#29 = DIRECTION('',(1.373431019593E-16,4.293112943201E-02,
    -0.999078034052));
#30 = ORIENTED_EDGE('',*,*,#31,.F.);
#31 = EDGE_CURVE('',#32,#22,#34,.T.);
#32 = VERTEX_POINT('',#33);
#33 = CARTESIAN_POINT('',(8.5,-9.317531856483,70.617318817598));
#34 = LINE('',#35,#36);
#35 = CARTESIAN_POINT('',(8.25,-9.317531856483,70.617318817598));
#36 = VECTOR('',#37,1.);
#37 = DIRECTION('',(-1.,0.,0.));
#38 = ORIENTED_EDGE('',*,*,#39,.F.);
#39 = EDGE_CURVE('',#40,#32,#42,.T.);
#40 = VERTEX_POINT('',#41);
#41 = CARTESIAN_POINT('',(8.5,-8.517531856483,52.000002249963));
#42 = LINE('',#43,#44);
#43 = CARTESIAN_POINT('',(8.5,-8.57021300369,53.225979243344));
#44 = VECTOR('',#45,1.);
#45 = DIRECTION('',(0.,-4.293112943201E-02,0.999078034052));
#46 = ORIENTED_EDGE('',*,*,#47,.F.);
#47 = EDGE_CURVE('',#48,#40,#50,.T.);
#48 = VERTEX_POINT('',#49);
#49 = CARTESIAN_POINT('',(7.5,-8.517531856483,52.000002249963));
#50 = LINE('',#51,#52);
#51 = CARTESIAN_POINT('',(7.261552470439E-14,-8.517531856483,
    52.000002249963));
#52 = VECTOR('',#53,1.);
#53 = DIRECTION('',(1.,0.,3.012312350806E-31));
#54 = ORIENTED_EDGE('',*,*,#55,.F.);
#55 = EDGE_CURVE('',#56,#48,#58,.T.);
#56 = VERTEX_POINT('',#57);
#57 = CARTESIAN_POINT('',(7.5,-9.107770211952,65.735820142623));
#58 = LINE('',#59,#60);
#59 = CARTESIAN_POINT('',(7.5,-8.57021300369,53.225979243344));
#60 = VECTOR('',#61,1.);
#61 = DIRECTION('',(0.,4.293112943201E-02,-0.999078034052));
#62 = ORIENTED_EDGE('',*,*,#63,.F.);
#63 = EDGE_CURVE('',#64,#56,#66,.T.);
#64 = VERTEX_POINT('',#65);
#65 = CARTESIAN_POINT('',(-7.5,-9.107770211952,65.735820142623));
#66 = LINE('',#67,#68);
#67 = CARTESIAN_POINT('',(4.25,-9.107770211952,65.735820142623));
#68 = VECTOR('',#69,1.);
#69 = DIRECTION('',(1.,-1.060033694639E-16,2.466872858181E-15));
#70 = ORIENTED_EDGE('',*,*,#71,.F.);
#71 = EDGE_CURVE('',#72,#64,#74,.T.);
#72 = VERTEX_POINT('',#73);
#73 = CARTESIAN_POINT('',(-7.5,-8.517531856483,52.000002249963));
#74 = LINE('',#75,#76);
#75 = CARTESIAN_POINT('',(-7.5,-8.916610315546,61.287214759585));
#76 = VECTOR('',#77,1.);
#77 = DIRECTION('',(-1.373431019593E-16,-4.293112943201E-02,
    0.999078034052));
#78 = ORIENTED_EDGE('',*,*,#79,.F.);
#79 = EDGE_CURVE('',#24,#72,#80,.T.);
#80 = LINE('',#81,#82);
#81 = CARTESIAN_POINT('',(7.261552470439E-14,-8.517531856483,
    52.000002249963));
#82 = VECTOR('',#83,1.);
#83 = DIRECTION('',(1.,0.,3.012312350806E-31));
#84 = PLANE('',#85);
#85 = AXIS2_PLACEMENT_3D('',#86,#87,#88);
#86 = CARTESIAN_POINT('',(8.5,-8.517531856483,52.000002249963));
#87 = DIRECTION('',(0.,-0.999078034052,-4.293112943201E-02));
#88 = DIRECTION('',(0.,-4.293112943201E-02,0.999078034052));
#89 = ADVANCED_FACE('',(#90),#115,.T.);
#90 = FACE_BOUND('',#91,.T.);
#91 = EDGE_LOOP('',(#92,#93,#101,#109));
#92 = ORIENTED_EDGE('',*,*,#31,.T.);
#93 = ORIENTED_EDGE('',*,*,#94,.F.);
#94 = EDGE_CURVE('',#95,#22,#97,.T.);
#95 = VERTEX_POINT('',#96);
#96 = CARTESIAN_POINT('',(-8.5,-11.52359463888,70.617318817598));
#97 = LINE('',#98,#99);
#98 = CARTESIAN_POINT('',(-8.5,-8.317531856483,70.617318817598));
#99 = VECTOR('',#100,1.);
#100 = DIRECTION('',(0.,1.,0.));
#101 = ORIENTED_EDGE('',*,*,#102,.T.);
#102 = EDGE_CURVE('',#95,#103,#105,.T.);
#103 = VERTEX_POINT('',#104);
#104 = CARTESIAN_POINT('',(8.5,-11.52359463888,70.617318817598));
#105 = LINE('',#106,#107);
#106 = CARTESIAN_POINT('',(4.,-11.52359463888,70.617318817598));
#107 = VECTOR('',#108,1.);
#108 = DIRECTION('',(1.,9.613573939514E-15,0.));
#109 = ORIENTED_EDGE('',*,*,#110,.F.);
#110 = EDGE_CURVE('',#32,#103,#111,.T.);
#111 = LINE('',#112,#113);
#112 = CARTESIAN_POINT('',(8.5,-8.317531856483,70.617318817598));
#113 = VECTOR('',#114,1.);
#114 = DIRECTION('',(0.,-1.,0.));
#115 = PLANE('',#116);
#116 = AXIS2_PLACEMENT_3D('',#117,#118,#119);
#117 = CARTESIAN_POINT('',(8.,-8.317531856483,70.617318817598));
#118 = DIRECTION('',(0.,0.,1.));
#119 = DIRECTION('',(-1.,0.,0.));
#120 = ADVANCED_FACE('',(#121),#155,.T.);
#121 = FACE_BOUND('',#122,.T.);
#122 = EDGE_LOOP('',(#123,#124,#132,#140,#148,#154));
#123 = ORIENTED_EDGE('',*,*,#21,.T.);
#124 = ORIENTED_EDGE('',*,*,#125,.T.);
#125 = EDGE_CURVE('',#24,#126,#128,.T.);
#126 = VERTEX_POINT('',#127);
#127 = CARTESIAN_POINT('',(-8.5,-18.22828545924,52.000002249963));
#128 = LINE('',#129,#130);
#129 = CARTESIAN_POINT('',(-8.5,-16.05059705855,52.000002249963));
#130 = VECTOR('',#131,1.);
#131 = DIRECTION('',(-6.310887241768E-30,-1.,-2.839899258796E-29));
#132 = ORIENTED_EDGE('',*,*,#133,.F.);
#133 = EDGE_CURVE('',#134,#126,#136,.T.);
#134 = VERTEX_POINT('',#135);
#135 = CARTESIAN_POINT('',(-8.5,-18.62828545924,52.400002249963));
#136 = LINE('',#137,#138);
#137 = CARTESIAN_POINT('',(-8.5,-20.50492620046,54.276642991182));
#138 = VECTOR('',#139,1.);
#139 = DIRECTION('',(9.720585923677E-17,0.707106781187,-0.707106781187)
  );
#140 = ORIENTED_EDGE('',*,*,#141,.F.);
#141 = EDGE_CURVE('',#142,#134,#144,.T.);
#142 = VERTEX_POINT('',#143);
#143 = CARTESIAN_POINT('',(-8.5,-18.62828545924,53.465077882621));
#144 = LINE('',#145,#146);
#145 = CARTESIAN_POINT('',(-8.5,-18.62828545924,53.465077882621));
#146 = VECTOR('',#147,1.);
#147 = DIRECTION('',(-1.506432264117E-16,-3.235101915742E-15,-1.));
#148 = ORIENTED_EDGE('',*,*,#149,.T.);
#149 = EDGE_CURVE('',#142,#95,#150,.T.);
#150 = LINE('',#151,#152);
#151 = CARTESIAN_POINT('',(-8.5,-12.88219910747,67.337357483623));
#152 = VECTOR('',#153,1.);
#153 = DIRECTION('',(-1.270055756477E-16,0.382683432365,0.923879532511)
  );
#154 = ORIENTED_EDGE('',*,*,#94,.T.);
#155 = PLANE('',#156);
#156 = AXIS2_PLACEMENT_3D('',#157,#158,#159);
#157 = CARTESIAN_POINT('',(-8.5,-8.317531856483,70.617318817598));
#158 = DIRECTION('',(-1.,0.,-1.374698444748E-16));
#159 = DIRECTION('',(1.374698444748E-16,0.,-1.));
#160 = ADVANCED_FACE('',(#161),#178,.F.);
#161 = FACE_BOUND('',#162,.T.);
#162 = EDGE_LOOP('',(#163,#164,#172));
#163 = ORIENTED_EDGE('',*,*,#55,.T.);
#164 = ORIENTED_EDGE('',*,*,#165,.T.);
#165 = EDGE_CURVE('',#48,#166,#168,.T.);
#166 = VERTEX_POINT('',#167);
#167 = CARTESIAN_POINT('',(7.5,-14.79733227337,52.000002249963));
#168 = LINE('',#169,#170);
#169 = CARTESIAN_POINT('',(7.5,-13.72345382792,52.000002249963));
#170 = VECTOR('',#171,1.);
#171 = DIRECTION('',(-6.310887241768E-30,-1.,-2.839899258796E-29));
#172 = ORIENTED_EDGE('',*,*,#173,.F.);
#173 = EDGE_CURVE('',#56,#166,#174,.T.);
#174 = LINE('',#175,#176);
#175 = CARTESIAN_POINT('',(7.5,-11.64220927992,59.617142971727));
#176 = VECTOR('',#177,1.);
#177 = DIRECTION('',(0.,-0.382683432365,-0.923879532511));
#178 = PLANE('',#179);
#179 = AXIS2_PLACEMENT_3D('',#180,#181,#182);
#180 = CARTESIAN_POINT('',(7.5,-8.317531856483,54.465077882621));
#181 = DIRECTION('',(1.,0.,0.));
#182 = DIRECTION('',(0.,0.,1.));
#183 = ADVANCED_FACE('',(#184),#218,.T.);
#184 = FACE_BOUND('',#185,.T.);
#185 = EDGE_LOOP('',(#186,#196,#204,#212));
#186 = ORIENTED_EDGE('',*,*,#187,.T.);
#187 = EDGE_CURVE('',#188,#190,#192,.T.);
#188 = VERTEX_POINT('',#189);
#189 = CARTESIAN_POINT('',(-3.492588645955,-9.444936104121,
    64.921829672977));
#190 = VERTEX_POINT('',#191);
#191 = CARTESIAN_POINT('',(3.070979149285,-9.386302225721,
    65.063384377426));
#192 = LINE('',#193,#194);
#193 = CARTESIAN_POINT('',(1.435618888222,-9.400911279467,
    65.028115001738));
#194 = VECTOR('',#195,1.);
#195 = DIRECTION('',(0.999727648026,8.930799707775E-03,
    2.156085777735E-02));
#196 = ORIENTED_EDGE('',*,*,#197,.F.);
#197 = EDGE_CURVE('',#198,#190,#200,.T.);
#198 = VERTEX_POINT('',#199);
#199 = CARTESIAN_POINT('',(3.070979149285,-9.940629400331,
    65.292994211141));
#200 = LINE('',#201,#202);
#201 = CARTESIAN_POINT('',(3.070979149285,-11.09547881597,
    65.771348501597));
#202 = VECTOR('',#203,1.);
#203 = DIRECTION('',(1.297251022691E-15,0.923879532511,-0.382683432365)
  );
#204 = ORIENTED_EDGE('',*,*,#205,.F.);
#205 = EDGE_CURVE('',#206,#198,#208,.T.);
#206 = VERTEX_POINT('',#207);
#207 = CARTESIAN_POINT('',(-3.492588645955,-9.999263278731,
    65.151439506693));
#208 = LINE('',#209,#210);
#209 = CARTESIAN_POINT('',(-3.492588645955,-9.999263278731,
    65.151439506693));
#210 = VECTOR('',#211,1.);
#211 = DIRECTION('',(0.999727648026,8.930799707785E-03,
    2.156085777735E-02));
#212 = ORIENTED_EDGE('',*,*,#213,.F.);
#213 = EDGE_CURVE('',#188,#206,#214,.T.);
#214 = LINE('',#215,#216);
#215 = CARTESIAN_POINT('',(-3.492588645955,-11.15411269437,
    65.629793797149));
#216 = VECTOR('',#217,1.);
#217 = DIRECTION('',(1.848922298576E-14,-0.923879532511,0.382683432365)
  );
#218 = PLANE('',#219);
#219 = AXIS2_PLACEMENT_3D('',#220,#221,#222);
#220 = CARTESIAN_POINT('',(3.070979149285,-9.940629400331,
    65.292994211141));
#221 = DIRECTION('',(2.333730428982E-02,-0.382579207777,-0.923627912097)
  );
#222 = DIRECTION('',(-0.999727648026,-8.930799707785E-03,
    -2.156085777735E-02));
#223 = ADVANCED_FACE('',(#224),#241,.T.);
#224 = FACE_BOUND('',#225,.T.);
#225 = EDGE_LOOP('',(#226,#234,#235));
#226 = ORIENTED_EDGE('',*,*,#227,.F.);
#227 = EDGE_CURVE('',#206,#228,#230,.T.);
#228 = VERTEX_POINT('',#229);
#229 = CARTESIAN_POINT('',(-0.136356544861,-9.244512216194,
    66.973569758085));
#230 = LINE('',#231,#232);
#231 = CARTESIAN_POINT('',(-3.342292727205,-9.965464661426,
    65.23303658698));
#232 = VECTOR('',#233,1.);
#233 = DIRECTION('',(0.862158050202,0.193882510168,0.468073785553));
#234 = ORIENTED_EDGE('',*,*,#205,.T.);
#235 = ORIENTED_EDGE('',*,*,#236,.F.);
#236 = EDGE_CURVE('',#228,#198,#237,.T.);
#237 = LINE('',#238,#239);
#238 = CARTESIAN_POINT('',(4.706274596875E-02,-9.284321370091,
    66.877461958839));
#239 = VECTOR('',#240,1.);
#240 = DIRECTION('',(0.869841628743,-0.188789625717,-0.45577847484));
#241 = PLANE('',#242);
#242 = AXIS2_PLACEMENT_3D('',#243,#244,#245);
#243 = CARTESIAN_POINT('',(-0.210804748335,-9.621887747462,
    66.062504632389));
#244 = DIRECTION('',(8.547073830164E-15,-0.923879532511,0.382683432365)
  );
#245 = DIRECTION('',(1.183291357832E-29,-0.382683432365,-0.923879532511)
  );
#246 = ADVANCED_FACE('',(#247),#297,.F.);
#247 = FACE_BOUND('',#248,.T.);
#248 = EDGE_LOOP('',(#249,#250,#251,#259,#267,#275,#283,#291));
#249 = ORIENTED_EDGE('',*,*,#213,.T.);
#250 = ORIENTED_EDGE('',*,*,#227,.T.);
#251 = ORIENTED_EDGE('',*,*,#252,.F.);
#252 = EDGE_CURVE('',#253,#228,#255,.T.);
#253 = VERTEX_POINT('',#254);
#254 = CARTESIAN_POINT('',(-0.136356544861,-11.55421104747,
    67.930278338998));
#255 = LINE('',#256,#257);
#256 = CARTESIAN_POINT('',(-0.136356544861,-11.55421104747,
    67.930278338998));
#257 = VECTOR('',#258,1.);
#258 = DIRECTION('',(-8.437694987151E-15,0.923879532511,-0.382683432365)
  );
#259 = ORIENTED_EDGE('',*,*,#260,.F.);
#260 = EDGE_CURVE('',#261,#253,#263,.T.);
#261 = VERTEX_POINT('',#262);
#262 = CARTESIAN_POINT('',(-6.06214563591,-12.88680530142,
    64.713111217972));
#263 = LINE('',#264,#265);
#264 = CARTESIAN_POINT('',(-4.322531169001,-12.49559997719,
    65.657564417404));
#265 = VECTOR('',#266,1.);
#266 = DIRECTION('',(0.862158050202,0.193882510168,0.468073785553));
#267 = ORIENTED_EDGE('',*,*,#268,.T.);
#268 = EDGE_CURVE('',#261,#269,#271,.T.);
#269 = VERTEX_POINT('',#270);
#270 = CARTESIAN_POINT('',(-6.06214563591,-10.57710647014,63.75640263706
    ));
#271 = LINE('',#272,#273);
#272 = CARTESIAN_POINT('',(-6.06214563591,-12.88680530142,
    64.713111217972));
#273 = VECTOR('',#274,1.);
#274 = DIRECTION('',(-8.437694987151E-15,0.923879532511,-0.382683432365)
  );
#275 = ORIENTED_EDGE('',*,*,#276,.T.);
#276 = EDGE_CURVE('',#269,#277,#279,.T.);
#277 = VERTEX_POINT('',#278);
#278 = CARTESIAN_POINT('',(-5.315494862358,-10.40919929098,
    64.161766426194));
#279 = LINE('',#280,#281);
#280 = CARTESIAN_POINT('',(-6.661624692797,-10.71191760403,
    63.430939769258));
#281 = VECTOR('',#282,1.);
#282 = DIRECTION('',(0.862158050202,0.193882510168,0.468073785553));
#283 = ORIENTED_EDGE('',*,*,#284,.T.);
#284 = EDGE_CURVE('',#277,#285,#287,.T.);
#285 = VERTEX_POINT('',#286);
#286 = CARTESIAN_POINT('',(-5.315494862358,-9.85487211638,
    63.932156592479));
#287 = LINE('',#288,#289);
#288 = CARTESIAN_POINT('',(-5.315494862358,-11.56404870662,
    64.64012071665));
#289 = VECTOR('',#290,1.);
#290 = DIRECTION('',(-8.45402501862E-15,0.923879532511,-0.382683432365)
  );
#291 = ORIENTED_EDGE('',*,*,#292,.F.);
#292 = EDGE_CURVE('',#188,#285,#293,.T.);
#293 = LINE('',#294,#295);
#294 = CARTESIAN_POINT('',(-3.971630611059,-9.552663287841,
    64.661753245004));
#295 = VECTOR('',#296,1.);
#296 = DIRECTION('',(-0.862158050202,-0.193882510168,-0.468073785553));
#297 = PLANE('',#298);
#298 = AXIS2_PLACEMENT_3D('',#299,#300,#301);
#299 = CARTESIAN_POINT('',(-6.06214563591,-12.88680530142,
    64.713111217972));
#300 = DIRECTION('',(-0.506639414644,0.329933601893,0.796530176372));
#301 = DIRECTION('',(0.862158050202,0.193882510168,0.468073785553));
#302 = ADVANCED_FACE('',(#303),#346,.F.);
#303 = FACE_BOUND('',#304,.T.);
#304 = EDGE_LOOP('',(#305,#306,#307,#315,#323,#331,#339,#345));
#305 = ORIENTED_EDGE('',*,*,#236,.T.);
#306 = ORIENTED_EDGE('',*,*,#197,.T.);
#307 = ORIENTED_EDGE('',*,*,#308,.F.);
#308 = EDGE_CURVE('',#309,#190,#311,.T.);
#309 = VERTEX_POINT('',#310);
#310 = CARTESIAN_POINT('',(5.08893840947,-9.824278244404,64.006016733127
    ));
#311 = LINE('',#312,#313);
#312 = CARTESIAN_POINT('',(0.822049813835,-8.898196674695,
    66.241775418582));
#313 = VECTOR('',#314,1.);
#314 = DIRECTION('',(-0.869841628743,0.188789625717,0.45577847484));
#315 = ORIENTED_EDGE('',*,*,#316,.T.);
#316 = EDGE_CURVE('',#309,#317,#319,.T.);
#317 = VERTEX_POINT('',#318);
#318 = CARTESIAN_POINT('',(5.08893840947,-10.37860541901,64.235626566842
    ));
#319 = LINE('',#320,#321);
#320 = CARTESIAN_POINT('',(5.08893840947,-11.53345483465,64.713980857298
    ));
#321 = VECTOR('',#322,1.);
#322 = DIRECTION('',(8.454525790178E-15,-0.923879532511,0.382683432365)
  );
#323 = ORIENTED_EDGE('',*,*,#324,.T.);
#324 = EDGE_CURVE('',#317,#325,#327,.T.);
#325 = VERTEX_POINT('',#326);
#326 = CARTESIAN_POINT('',(5.842243357232,-10.54210203085,
    63.840910829131));
#327 = LINE('',#328,#329);
#328 = CARTESIAN_POINT('',(3.459012597964,-10.02484782253,65.08967295405
    ));
#329 = VECTOR('',#330,1.);
#330 = DIRECTION('',(0.869841628743,-0.188789625717,-0.45577847484));
#331 = ORIENTED_EDGE('',*,*,#332,.F.);
#332 = EDGE_CURVE('',#333,#325,#335,.T.);
#333 = VERTEX_POINT('',#334);
#334 = CARTESIAN_POINT('',(5.842243357232,-12.85180086213,
    64.797619410044));
#335 = LINE('',#336,#337);
#336 = CARTESIAN_POINT('',(5.842243357232,-12.85180086213,
    64.797619410044));
#337 = VECTOR('',#338,1.);
#338 = DIRECTION('',(-8.437694987151E-15,0.923879532511,-0.382683432365)
  );
#339 = ORIENTED_EDGE('',*,*,#340,.F.);
#340 = EDGE_CURVE('',#253,#333,#341,.T.);
#341 = LINE('',#342,#343);
#342 = CARTESIAN_POINT('',(1.166778044971,-11.83704217827,
    67.247463587163));
#343 = VECTOR('',#344,1.);
#344 = DIRECTION('',(0.869841628743,-0.188789625717,-0.45577847484));
#345 = ORIENTED_EDGE('',*,*,#252,.T.);
#346 = PLANE('',#347);
#347 = AXIS2_PLACEMENT_3D('',#348,#349,#350);
#348 = CARTESIAN_POINT('',(-0.136356544861,-11.55421104747,
    67.930278338998));
#349 = DIRECTION('',(0.493331066228,0.332873980101,0.803628877322));
#350 = DIRECTION('',(0.869841628743,-0.188789625717,-0.45577847484));
#351 = ADVANCED_FACE('',(#352),#377,.T.);
#352 = FACE_BOUND('',#353,.T.);
#353 = EDGE_LOOP('',(#354,#362,#363,#371));
#354 = ORIENTED_EDGE('',*,*,#355,.T.);
#355 = EDGE_CURVE('',#356,#285,#358,.T.);
#356 = VERTEX_POINT('',#357);
#357 = CARTESIAN_POINT('',(-5.256029877086,-12.816459976,56.782251015619
    ));
#358 = LINE('',#359,#360);
#359 = CARTESIAN_POINT('',(-5.30062861604,-10.59526908128,
    62.144680198257));
#360 = VECTOR('',#361,1.);
#361 = DIRECTION('',(-7.683578540694E-03,0.382672135885,0.923852260396)
  );
#362 = ORIENTED_EDGE('',*,*,#284,.F.);
#363 = ORIENTED_EDGE('',*,*,#364,.T.);
#364 = EDGE_CURVE('',#277,#365,#367,.T.);
#365 = VERTEX_POINT('',#366);
#366 = CARTESIAN_POINT('',(-5.256029877086,-13.37078715061,
    57.011860849334));
#367 = LINE('',#368,#369);
#368 = CARTESIAN_POINT('',(-5.315494862358,-10.40919929098,
    64.161766426194));
#369 = VECTOR('',#370,1.);
#370 = DIRECTION('',(7.683578540694E-03,-0.382672135885,-0.923852260396)
  );
#371 = ORIENTED_EDGE('',*,*,#372,.F.);
#372 = EDGE_CURVE('',#356,#365,#373,.T.);
#373 = LINE('',#374,#375);
#374 = CARTESIAN_POINT('',(-5.256029877086,-14.52563656625,
    57.490215139791));
#375 = VECTOR('',#376,1.);
#376 = DIRECTION('',(8.454525790171E-15,-0.923879532511,0.382683432365)
  );
#377 = PLANE('',#378);
#378 = AXIS2_PLACEMENT_3D('',#379,#380,#381);
#379 = CARTESIAN_POINT('',(-5.315494862358,-10.40919929098,
    64.161766426194));
#380 = DIRECTION('',(0.999970480875,2.940378208807E-03,
    7.098700950187E-03));
#381 = DIRECTION('',(7.683578540694E-03,-0.382672135885,-0.923852260396)
  );
#382 = ADVANCED_FACE('',(#383),#401,.T.);
#383 = FACE_BOUND('',#384,.T.);
#384 = EDGE_LOOP('',(#385,#386,#394,#400));
#385 = ORIENTED_EDGE('',*,*,#276,.F.);
#386 = ORIENTED_EDGE('',*,*,#387,.F.);
#387 = EDGE_CURVE('',#388,#269,#390,.T.);
#388 = VERTEX_POINT('',#389);
#389 = CARTESIAN_POINT('',(-6.009334824846,-13.20729053876,
    57.406576587047));
#390 = LINE('',#391,#392);
#391 = CARTESIAN_POINT('',(-6.022548547688,-12.54919567889,
    58.995358123074));
#392 = VECTOR('',#393,1.);
#393 = DIRECTION('',(-7.683578540693E-03,0.382672135885,0.923852260396)
  );
#394 = ORIENTED_EDGE('',*,*,#395,.F.);
#395 = EDGE_CURVE('',#365,#388,#396,.T.);
#396 = LINE('',#397,#398);
#397 = CARTESIAN_POINT('',(-3.62610406556,-13.72454474709,
    56.157814462109));
#398 = VECTOR('',#399,1.);
#399 = DIRECTION('',(-0.869841628741,0.188789625718,0.455778474843));
#400 = ORIENTED_EDGE('',*,*,#364,.F.);
#401 = PLANE('',#402);
#402 = AXIS2_PLACEMENT_3D('',#403,#404,#405);
#403 = CARTESIAN_POINT('',(-5.659087756498,-11.8899932208,
    60.586813637764));
#404 = DIRECTION('',(8.436933836241E-15,-0.923879532511,0.382683432365)
  );
#405 = DIRECTION('',(1.183291357832E-29,-0.382683432365,-0.923879532511)
  );
#406 = ADVANCED_FACE('',(#407),#457,.F.);
#407 = FACE_BOUND('',#408,.T.);
#408 = EDGE_LOOP('',(#409,#410,#411,#419,#427,#435,#443,#451));
#409 = ORIENTED_EDGE('',*,*,#372,.T.);
#410 = ORIENTED_EDGE('',*,*,#395,.T.);
#411 = ORIENTED_EDGE('',*,*,#412,.F.);
#412 = EDGE_CURVE('',#413,#388,#415,.T.);
#413 = VERTEX_POINT('',#414);
#414 = CARTESIAN_POINT('',(-6.009334824846,-15.51698937004,
    58.36328516796));
#415 = LINE('',#416,#417);
#416 = CARTESIAN_POINT('',(-6.009334824846,-15.51698937004,
    58.36328516796));
#417 = VECTOR('',#418,1.);
#418 = DIRECTION('',(-8.437694987151E-15,0.923879532511,-0.382683432365)
  );
#419 = ORIENTED_EDGE('',*,*,#420,.F.);
#420 = EDGE_CURVE('',#421,#413,#423,.T.);
#421 = VERTEX_POINT('',#422);
#422 = CARTESIAN_POINT('',(-3.073492272509E-02,-16.81457918472,
    55.230626238968));
#423 = LINE('',#424,#425);
#424 = CARTESIAN_POINT('',(-1.716900283959,-16.44861540818,
    56.114140951628));
#425 = VECTOR('',#426,1.);
#426 = DIRECTION('',(-0.869841628741,0.188789625718,0.455778474843));
#427 = ORIENTED_EDGE('',*,*,#428,.T.);
#428 = EDGE_CURVE('',#421,#429,#431,.T.);
#429 = VERTEX_POINT('',#430);
#430 = CARTESIAN_POINT('',(-3.073492272511E-02,-14.50488035344,
    54.273917658056));
#431 = LINE('',#432,#433);
#432 = CARTESIAN_POINT('',(-3.073492272509E-02,-16.81457918472,
    55.230626238968));
#433 = VECTOR('',#434,1.);
#434 = DIRECTION('',(-8.437694987151E-15,0.923879532511,-0.382683432365)
  );
#435 = ORIENTED_EDGE('',*,*,#436,.T.);
#436 = EDGE_CURVE('',#429,#437,#439,.T.);
#437 = VERTEX_POINT('',#438);
#438 = CARTESIAN_POINT('',(-3.488327876811,-13.75444756416,
    56.085622675579));
#439 = LINE('',#440,#441);
#440 = CARTESIAN_POINT('',(-0.263913612054,-14.45427146554,
    54.396098321612));
#441 = VECTOR('',#442,1.);
#442 = DIRECTION('',(-0.869841628741,0.188789625718,0.455778474843));
#443 = ORIENTED_EDGE('',*,*,#444,.T.);
#444 = EDGE_CURVE('',#437,#445,#447,.T.);
#445 = VERTEX_POINT('',#446);
#446 = CARTESIAN_POINT('',(-3.488327876811,-13.20012038955,
    55.856012841863));
#447 = LINE('',#448,#449);
#448 = CARTESIAN_POINT('',(-3.488327876811,-14.9092969798,
    56.563976966035));
#449 = VECTOR('',#450,1.);
#450 = DIRECTION('',(1.687846814169E-15,0.923879532511,-0.382683432365)
  );
#451 = ORIENTED_EDGE('',*,*,#452,.F.);
#452 = EDGE_CURVE('',#356,#445,#453,.T.);
#453 = LINE('',#454,#455);
#454 = CARTESIAN_POINT('',(-2.061628515097,-13.5097699046,
    55.108452783049));
#455 = VECTOR('',#456,1.);
#456 = DIRECTION('',(0.869841628741,-0.188789625718,-0.455778474843));
#457 = PLANE('',#458);
#458 = AXIS2_PLACEMENT_3D('',#459,#460,#461);
#459 = CARTESIAN_POINT('',(-3.073492272509E-02,-16.81457918472,
    55.230626238968));
#460 = DIRECTION('',(-0.493331066231,-0.332873980101,-0.80362887732));
#461 = DIRECTION('',(-0.869841628741,0.188789625718,0.455778474843));
#462 = ADVANCED_FACE('',(#463),#488,.T.);
#463 = FACE_BOUND('',#464,.T.);
#464 = EDGE_LOOP('',(#465,#473,#481,#487));
#465 = ORIENTED_EDGE('',*,*,#466,.T.);
#466 = EDGE_CURVE('',#309,#467,#469,.T.);
#467 = VERTEX_POINT('',#468);
#468 = CARTESIAN_POINT('',(5.148403394779,-12.78586610402,
    56.856111156262));
#469 = LINE('',#470,#471);
#470 = CARTESIAN_POINT('',(5.133537148452,-12.04546913912,58.64358755048
    ));
#471 = VECTOR('',#472,1.);
#472 = DIRECTION('',(7.68357854534E-03,-0.382672135885,-0.923852260396)
  );
#473 = ORIENTED_EDGE('',*,*,#474,.F.);
#474 = EDGE_CURVE('',#475,#467,#477,.T.);
#475 = VERTEX_POINT('',#476);
#476 = CARTESIAN_POINT('',(5.148403394779,-13.34019327863,
    57.085720989977));
#477 = LINE('',#478,#479);
#478 = CARTESIAN_POINT('',(5.148403394779,-14.49504269427,
    57.564075280433));
#479 = VECTOR('',#480,1.);
#480 = DIRECTION('',(-8.454525790151E-15,0.923879532511,-0.382683432365)
  );
#481 = ORIENTED_EDGE('',*,*,#482,.T.);
#482 = EDGE_CURVE('',#475,#317,#483,.T.);
#483 = LINE('',#484,#485);
#484 = CARTESIAN_POINT('',(5.148403394779,-13.34019327863,
    57.085720989977));
#485 = VECTOR('',#486,1.);
#486 = DIRECTION('',(-7.68357854534E-03,0.382672135885,0.923852260396));
#487 = ORIENTED_EDGE('',*,*,#316,.F.);
#488 = PLANE('',#489);
#489 = AXIS2_PLACEMENT_3D('',#490,#491,#492);
#490 = CARTESIAN_POINT('',(5.148403394779,-13.34019327863,
    57.085720989977));
#491 = DIRECTION('',(-0.999970480875,-2.940378210585E-03,
    -7.098700954479E-03));
#492 = DIRECTION('',(-7.68357854534E-03,0.382672135885,0.923852260396));
#493 = ADVANCED_FACE('',(#494),#512,.T.);
#494 = FACE_BOUND('',#495,.T.);
#495 = EDGE_LOOP('',(#496,#504,#510,#511));
#496 = ORIENTED_EDGE('',*,*,#497,.F.);
#497 = EDGE_CURVE('',#498,#475,#500,.T.);
#498 = VERTEX_POINT('',#499);
#499 = CARTESIAN_POINT('',(5.895054168329,-13.17228609948,
    57.491084779114));
#500 = LINE('',#501,#502);
#501 = CARTESIAN_POINT('',(6.494533225213,-13.03747496559,
    57.816547646918));
#502 = VECTOR('',#503,1.);
#503 = DIRECTION('',(-0.8621580502,-0.193882510169,-0.468073785557));
#504 = ORIENTED_EDGE('',*,*,#505,.F.);
#505 = EDGE_CURVE('',#325,#498,#506,.T.);
#506 = LINE('',#507,#508);
#507 = CARTESIAN_POINT('',(5.855457080083,-11.20019689072,
    62.252129293103));
#508 = VECTOR('',#509,1.);
#509 = DIRECTION('',(7.68357854534E-03,-0.382672135885,-0.923852260396)
  );
#510 = ORIENTED_EDGE('',*,*,#324,.F.);
#511 = ORIENTED_EDGE('',*,*,#482,.F.);
#512 = PLANE('',#513);
#513 = AXIS2_PLACEMENT_3D('',#514,#515,#516);
#514 = CARTESIAN_POINT('',(5.491996288899,-11.85939934882,
    60.660673778409));
#515 = DIRECTION('',(8.590835080627E-15,-0.923879532511,0.382683432365)
  );
#516 = DIRECTION('',(1.183291357832E-29,-0.382683432365,-0.923879532511)
  );
#517 = ADVANCED_FACE('',(#518),#543,.T.);
#518 = FACE_BOUND('',#519,.T.);
#519 = EDGE_LOOP('',(#520,#528,#529,#537));
#520 = ORIENTED_EDGE('',*,*,#521,.T.);
#521 = EDGE_CURVE('',#522,#445,#524,.T.);
#522 = VERTEX_POINT('',#523);
#523 = CARTESIAN_POINT('',(3.306294651763,-13.20012038955,
    55.856012841863));
#524 = LINE('',#525,#526);
#525 = CARTESIAN_POINT('',(-1.785936805301,-13.20012038955,
    55.856012841863));
#526 = VECTOR('',#527,1.);
#527 = DIRECTION('',(-1.,9.626507985924E-16,-3.987430166063E-16));
#528 = ORIENTED_EDGE('',*,*,#444,.F.);
#529 = ORIENTED_EDGE('',*,*,#530,.T.);
#530 = EDGE_CURVE('',#437,#531,#533,.T.);
#531 = VERTEX_POINT('',#532);
#532 = CARTESIAN_POINT('',(3.306294651763,-13.75444756416,
    56.085622675579));
#533 = LINE('',#534,#535);
#534 = CARTESIAN_POINT('',(-3.488327876811,-13.75444756416,
    56.085622675579));
#535 = VECTOR('',#536,1.);
#536 = DIRECTION('',(1.,7.873504011601E-15,-3.261312145004E-15));
#537 = ORIENTED_EDGE('',*,*,#538,.F.);
#538 = EDGE_CURVE('',#522,#531,#539,.T.);
#539 = LINE('',#540,#541);
#540 = CARTESIAN_POINT('',(3.306294651763,-14.9092969798,56.563976966035
    ));
#541 = VECTOR('',#542,1.);
#542 = DIRECTION('',(1.818818441276E-14,-0.923879532511,0.382683432365)
  );
#543 = PLANE('',#544);
#544 = AXIS2_PLACEMENT_3D('',#545,#546,#547);
#545 = CARTESIAN_POINT('',(-3.488327876811,-13.75444756416,
    56.085622675579));
#546 = DIRECTION('',(-6.192558105985E-29,0.382683432365,0.923879532511)
  );
#547 = DIRECTION('',(1.,7.873504011601E-15,-3.261312145004E-15));
#548 = ADVANCED_FACE('',(#549),#559,.T.);
#549 = FACE_BOUND('',#550,.T.);
#550 = EDGE_LOOP('',(#551,#552,#558));
#551 = ORIENTED_EDGE('',*,*,#436,.F.);
#552 = ORIENTED_EDGE('',*,*,#553,.F.);
#553 = EDGE_CURVE('',#531,#429,#554,.T.);
#554 = LINE('',#555,#556);
#555 = CARTESIAN_POINT('',(3.123895540113,-13.79546556268,
    55.986596467272));
#556 = VECTOR('',#557,1.);
#557 = DIRECTION('',(-0.8621580502,-0.193882510169,-0.468073785557));
#558 = ORIENTED_EDGE('',*,*,#530,.F.);
#559 = PLANE('',#560);
#560 = AXIS2_PLACEMENT_3D('',#561,#562,#563);
#561 = CARTESIAN_POINT('',(-9.101661252379E-02,-14.1296639588,
    55.179770166817));
#562 = DIRECTION('',(8.522219331128E-15,-0.923879532511,0.382683432365)
  );
#563 = DIRECTION('',(1.262177448354E-29,-0.382683432365,-0.923879532511)
  );
#564 = ADVANCED_FACE('',(#565),#592,.F.);
#565 = FACE_BOUND('',#566,.T.);
#566 = EDGE_LOOP('',(#567,#568,#574,#575,#576,#577,#585,#591));
#567 = ORIENTED_EDGE('',*,*,#474,.T.);
#568 = ORIENTED_EDGE('',*,*,#569,.F.);
#569 = EDGE_CURVE('',#522,#467,#570,.T.);
#570 = LINE('',#571,#572);
#571 = CARTESIAN_POINT('',(5.022674647659,-12.81414004415,
    56.787851826544));
#572 = VECTOR('',#573,1.);
#573 = DIRECTION('',(0.8621580502,0.193882510169,0.468073785557));
#574 = ORIENTED_EDGE('',*,*,#538,.T.);
#575 = ORIENTED_EDGE('',*,*,#553,.T.);
#576 = ORIENTED_EDGE('',*,*,#428,.F.);
#577 = ORIENTED_EDGE('',*,*,#578,.F.);
#578 = EDGE_CURVE('',#579,#421,#581,.T.);
#579 = VERTEX_POINT('',#580);
#580 = CARTESIAN_POINT('',(5.895054168329,-15.48198493076,
    58.447793360027));
#581 = LINE('',#582,#583);
#582 = CARTESIAN_POINT('',(4.671774089715,-15.7570767335,57.783662998941
    ));
#583 = VECTOR('',#584,1.);
#584 = DIRECTION('',(-0.8621580502,-0.193882510169,-0.468073785557));
#585 = ORIENTED_EDGE('',*,*,#586,.T.);
#586 = EDGE_CURVE('',#579,#498,#587,.T.);
#587 = LINE('',#588,#589);
#588 = CARTESIAN_POINT('',(5.895054168329,-15.48198493076,
    58.447793360027));
#589 = VECTOR('',#590,1.);
#590 = DIRECTION('',(-8.437694987151E-15,0.923879532511,-0.382683432365)
  );
#591 = ORIENTED_EDGE('',*,*,#497,.T.);
#592 = PLANE('',#593);
#593 = AXIS2_PLACEMENT_3D('',#594,#595,#596);
#594 = CARTESIAN_POINT('',(5.895054168329,-15.48198493076,
    58.447793360027));
#595 = DIRECTION('',(0.506639414648,-0.329933601892,-0.79653017637));
#596 = DIRECTION('',(-0.8621580502,-0.193882510169,-0.468073785557));
#597 = ADVANCED_FACE('',(#598),#609,.F.);
#598 = FACE_BOUND('',#599,.T.);
#599 = EDGE_LOOP('',(#600,#601,#602,#608));
#600 = ORIENTED_EDGE('',*,*,#387,.T.);
#601 = ORIENTED_EDGE('',*,*,#268,.F.);
#602 = ORIENTED_EDGE('',*,*,#603,.F.);
#603 = EDGE_CURVE('',#413,#261,#604,.T.);
#604 = LINE('',#605,#606);
#605 = CARTESIAN_POINT('',(-6.026530035714,-14.66060090012,
    60.430789826717));
#606 = VECTOR('',#607,1.);
#607 = DIRECTION('',(-7.683578540693E-03,0.382672135885,0.923852260396)
  );
#608 = ORIENTED_EDGE('',*,*,#412,.T.);
#609 = PLANE('',#610);
#610 = AXIS2_PLACEMENT_3D('',#611,#612,#613);
#611 = CARTESIAN_POINT('',(-6.009334824846,-15.51698937004,
    58.36328516796));
#612 = DIRECTION('',(-0.999970480875,-2.940378208807E-03,
    -7.098700950186E-03));
#613 = DIRECTION('',(-7.683578540693E-03,0.382672135885,0.923852260396)
  );
#614 = ADVANCED_FACE('',(#615),#626,.F.);
#615 = FACE_BOUND('',#616,.T.);
#616 = EDGE_LOOP('',(#617,#618,#619,#625));
#617 = ORIENTED_EDGE('',*,*,#505,.T.);
#618 = ORIENTED_EDGE('',*,*,#586,.F.);
#619 = ORIENTED_EDGE('',*,*,#620,.F.);
#620 = EDGE_CURVE('',#333,#579,#621,.T.);
#621 = LINE('',#622,#623);
#622 = CARTESIAN_POINT('',(5.851453551902,-13.31050442651,
    63.690211043804));
#623 = VECTOR('',#624,1.);
#624 = DIRECTION('',(7.68357854534E-03,-0.382672135885,-0.923852260396)
  );
#625 = ORIENTED_EDGE('',*,*,#332,.T.);
#626 = PLANE('',#627);
#627 = AXIS2_PLACEMENT_3D('',#628,#629,#630);
#628 = CARTESIAN_POINT('',(5.842243357232,-12.85180086213,
    64.797619410044));
#629 = DIRECTION('',(0.999970480875,2.940378210585E-03,
    7.098700954479E-03));
#630 = DIRECTION('',(7.68357854534E-03,-0.382672135885,-0.923852260396)
  );
#631 = ADVANCED_FACE('',(#632,#702),#710,.F.);
#632 = FACE_BOUND('',#633,.T.);
#633 = EDGE_LOOP('',(#634,#645,#653,#662,#670,#679,#687,#696));
#634 = ORIENTED_EDGE('',*,*,#635,.T.);
#635 = EDGE_CURVE('',#636,#638,#640,.T.);
#636 = VERTEX_POINT('',#637);
#637 = CARTESIAN_POINT('',(5.5,-16.82553295068,55.20418150863));
#638 = VERTEX_POINT('',#639);
#639 = CARTESIAN_POINT('',(7.7,-15.98362939948,57.236716480155));
#640 = CIRCLE('',#641,2.2);
#641 = AXIS2_PLACEMENT_3D('',#642,#643,#644);
#642 = CARTESIAN_POINT('',(5.5,-15.98362939948,57.236716480155));
#643 = DIRECTION('',(8.965050923848E-15,-0.923879532511,0.382683432365)
  );
#644 = DIRECTION('',(0.707106781187,-0.270598050073,-0.653281482438));
#645 = ORIENTED_EDGE('',*,*,#646,.T.);
#646 = EDGE_CURVE('',#638,#647,#649,.T.);
#647 = VERTEX_POINT('',#648);
#648 = CARTESIAN_POINT('',(7.7,-12.35461960041,65.997921155042));
#649 = LINE('',#650,#651);
#650 = CARTESIAN_POINT('',(7.7,-15.60094596711,58.160596012666));
#651 = VECTOR('',#652,1.);
#652 = DIRECTION('',(-1.667250188852E-16,0.382683432365,0.923879532511)
  );
#653 = ORIENTED_EDGE('',*,*,#654,.T.);
#654 = EDGE_CURVE('',#647,#655,#657,.T.);
#655 = VERTEX_POINT('',#656);
#656 = CARTESIAN_POINT('',(5.5,-11.51271604921,68.030456126567));
#657 = CIRCLE('',#658,2.2);
#658 = AXIS2_PLACEMENT_3D('',#659,#660,#661);
#659 = CARTESIAN_POINT('',(5.5,-12.35461960041,65.997921155042));
#660 = DIRECTION('',(8.937295348233E-15,-0.923879532511,0.382683432365)
  );
#661 = DIRECTION('',(0.707106781187,0.270598050073,0.653281482438));
#662 = ORIENTED_EDGE('',*,*,#663,.T.);
#663 = EDGE_CURVE('',#655,#664,#666,.T.);
#664 = VERTEX_POINT('',#665);
#665 = CARTESIAN_POINT('',(-5.5,-11.51271604921,68.030456126567));
#666 = LINE('',#667,#668);
#667 = CARTESIAN_POINT('',(5.5,-11.51271604921,68.030456126567));
#668 = VECTOR('',#669,1.);
#669 = DIRECTION('',(-1.,-8.995590000963E-15,1.49194520578E-15));
#670 = ORIENTED_EDGE('',*,*,#671,.T.);
#671 = EDGE_CURVE('',#664,#672,#674,.T.);
#672 = VERTEX_POINT('',#673);
#673 = CARTESIAN_POINT('',(-7.7,-12.35461960041,65.997921155042));
#674 = CIRCLE('',#675,2.2);
#675 = AXIS2_PLACEMENT_3D('',#676,#677,#678);
#676 = CARTESIAN_POINT('',(-5.5,-12.35461960041,65.997921155042));
#677 = DIRECTION('',(8.965050923848E-15,-0.923879532511,0.382683432365)
  );
#678 = DIRECTION('',(-0.707106781187,0.270598050073,0.653281482438));
#679 = ORIENTED_EDGE('',*,*,#680,.T.);
#680 = EDGE_CURVE('',#672,#681,#683,.T.);
#681 = VERTEX_POINT('',#682);
#682 = CARTESIAN_POINT('',(-7.7,-15.98362939948,57.236716480155));
#683 = LINE('',#684,#685);
#684 = CARTESIAN_POINT('',(-7.7,-11.97193616805,66.921800687553));
#685 = VECTOR('',#686,1.);
#686 = DIRECTION('',(1.667250188852E-16,-0.382683432365,-0.923879532511)
  );
#687 = ORIENTED_EDGE('',*,*,#688,.T.);
#688 = EDGE_CURVE('',#681,#689,#691,.T.);
#689 = VERTEX_POINT('',#690);
#690 = CARTESIAN_POINT('',(-5.5,-16.82553295068,55.20418150863));
#691 = CIRCLE('',#692,2.2);
#692 = AXIS2_PLACEMENT_3D('',#693,#694,#695);
#693 = CARTESIAN_POINT('',(-5.5,-15.98362939948,57.236716480155));
#694 = DIRECTION('',(8.937295348233E-15,-0.923879532511,0.382683432365)
  );
#695 = DIRECTION('',(-0.707106781187,-0.270598050073,-0.653281482438));
#696 = ORIENTED_EDGE('',*,*,#697,.T.);
#697 = EDGE_CURVE('',#689,#636,#698,.T.);
#698 = LINE('',#699,#700);
#699 = CARTESIAN_POINT('',(-5.5,-16.82553295068,55.20418150863));
#700 = VECTOR('',#701,1.);
#701 = DIRECTION('',(1.,9.304581970239E-15,-7.459726028901E-16));
#702 = FACE_BOUND('',#703,.T.);
#703 = EDGE_LOOP('',(#704,#705,#706,#707,#708,#709));
#704 = ORIENTED_EDGE('',*,*,#420,.T.);
#705 = ORIENTED_EDGE('',*,*,#603,.T.);
#706 = ORIENTED_EDGE('',*,*,#260,.T.);
#707 = ORIENTED_EDGE('',*,*,#340,.T.);
#708 = ORIENTED_EDGE('',*,*,#620,.T.);
#709 = ORIENTED_EDGE('',*,*,#578,.T.);
#710 = PLANE('',#711);
#711 = AXIS2_PLACEMENT_3D('',#712,#713,#714);
#712 = CARTESIAN_POINT('',(6.883382752676E-14,-13.78644106758,
    62.541198350109));
#713 = DIRECTION('',(-8.881784197001E-15,0.923879532511,-0.382683432365)
  );
#714 = DIRECTION('',(3.944304526105E-31,0.382683432365,0.923879532511));
#715 = ADVANCED_FACE('',(#716,#734),#744,.T.);
#716 = FACE_BOUND('',#717,.T.);
#717 = EDGE_LOOP('',(#718,#719,#720,#728));
#718 = ORIENTED_EDGE('',*,*,#63,.T.);
#719 = ORIENTED_EDGE('',*,*,#173,.T.);
#720 = ORIENTED_EDGE('',*,*,#721,.T.);
#721 = EDGE_CURVE('',#166,#722,#724,.T.);
#722 = VERTEX_POINT('',#723);
#723 = CARTESIAN_POINT('',(-7.5,-14.79733227337,52.000002249963));
#724 = LINE('',#725,#726);
#725 = CARTESIAN_POINT('',(3.75,-14.79733227337,52.000002249963));
#726 = VECTOR('',#727,1.);
#727 = DIRECTION('',(-1.,8.904635980066E-16,-5.730183352904E-16));
#728 = ORIENTED_EDGE('',*,*,#729,.T.);
#729 = EDGE_CURVE('',#722,#64,#730,.T.);
#730 = LINE('',#731,#732);
#731 = CARTESIAN_POINT('',(-7.5,-8.786869505799,66.510542979592));
#732 = VECTOR('',#733,1.);
#733 = DIRECTION('',(-1.270055756477E-16,0.382683432365,0.923879532511)
  );
#734 = FACE_BOUND('',#735,.T.);
#735 = EDGE_LOOP('',(#736,#737,#738,#739,#740,#741,#742,#743));
#736 = ORIENTED_EDGE('',*,*,#452,.T.);
#737 = ORIENTED_EDGE('',*,*,#521,.F.);
#738 = ORIENTED_EDGE('',*,*,#569,.T.);
#739 = ORIENTED_EDGE('',*,*,#466,.F.);
#740 = ORIENTED_EDGE('',*,*,#308,.T.);
#741 = ORIENTED_EDGE('',*,*,#187,.F.);
#742 = ORIENTED_EDGE('',*,*,#292,.T.);
#743 = ORIENTED_EDGE('',*,*,#355,.F.);
#744 = PLANE('',#745);
#745 = AXIS2_PLACEMENT_3D('',#746,#747,#748);
#746 = CARTESIAN_POINT('',(4.813210153292E-14,-10.30756693514,
    62.839254621406));
#747 = DIRECTION('',(1.041965716002E-15,0.923879532511,-0.382683432365)
  );
#748 = DIRECTION('',(-1.,1.190214031432E-15,1.506432264114E-16));
#749 = ADVANCED_FACE('',(#750),#760,.F.);
#750 = FACE_BOUND('',#751,.T.);
#751 = EDGE_LOOP('',(#752,#753,#754));
#752 = ORIENTED_EDGE('',*,*,#71,.T.);
#753 = ORIENTED_EDGE('',*,*,#729,.F.);
#754 = ORIENTED_EDGE('',*,*,#755,.T.);
#755 = EDGE_CURVE('',#722,#72,#756,.T.);
#756 = LINE('',#757,#758);
#757 = CARTESIAN_POINT('',(-7.5,-10.89522025717,52.000002249963));
#758 = VECTOR('',#759,1.);
#759 = DIRECTION('',(6.310887241768E-30,1.,2.839899258796E-29));
#760 = PLANE('',#761);
#761 = AXIS2_PLACEMENT_3D('',#762,#763,#764);
#762 = CARTESIAN_POINT('',(-7.5,-8.317531856483,70.617318817598));
#763 = DIRECTION('',(-1.,0.,-1.374698444748E-16));
#764 = DIRECTION('',(1.374698444748E-16,0.,-1.));
#765 = ADVANCED_FACE('',(#766),#792,.F.);
#766 = FACE_BOUND('',#767,.F.);
#767 = EDGE_LOOP('',(#768,#776,#785,#791));
#768 = ORIENTED_EDGE('',*,*,#769,.F.);
#769 = EDGE_CURVE('',#770,#638,#772,.T.);
#770 = VERTEX_POINT('',#771);
#771 = CARTESIAN_POINT('',(7.7,-16.90750893199,57.61939991252));
#772 = LINE('',#773,#774);
#773 = CARTESIAN_POINT('',(7.7,-15.98362939948,57.236716480155));
#774 = VECTOR('',#775,1.);
#775 = DIRECTION('',(-8.881784197001E-15,0.923879532511,-0.382683432365)
  );
#776 = ORIENTED_EDGE('',*,*,#777,.F.);
#777 = EDGE_CURVE('',#778,#770,#780,.T.);
#778 = VERTEX_POINT('',#779);
#779 = CARTESIAN_POINT('',(5.5,-17.74941248319,55.586864940995));
#780 = CIRCLE('',#781,2.2);
#781 = AXIS2_PLACEMENT_3D('',#782,#783,#784);
#782 = CARTESIAN_POINT('',(5.5,-16.90750893199,57.61939991252));
#783 = DIRECTION('',(8.965050923848E-15,-0.923879532511,0.382683432365)
  );
#784 = DIRECTION('',(0.707106781187,-0.270598050073,-0.653281482438));
#785 = ORIENTED_EDGE('',*,*,#786,.F.);
#786 = EDGE_CURVE('',#636,#778,#787,.T.);
#787 = LINE('',#788,#789);
#788 = CARTESIAN_POINT('',(5.5,-16.82553295068,55.20418150863));
#789 = VECTOR('',#790,1.);
#790 = DIRECTION('',(8.881784197001E-15,-0.923879532511,0.382683432365)
  );
#791 = ORIENTED_EDGE('',*,*,#635,.T.);
#792 = CYLINDRICAL_SURFACE('',#793,2.2);
#793 = AXIS2_PLACEMENT_3D('',#794,#795,#796);
#794 = CARTESIAN_POINT('',(5.5,-15.98362939948,57.236716480155));
#795 = DIRECTION('',(-8.881784197001E-15,0.923879532511,-0.382683432365)
  );
#796 = DIRECTION('',(0.707106781187,-0.270598050073,-0.653281482438));
#797 = ADVANCED_FACE('',(#798),#816,.F.);
#798 = FACE_BOUND('',#799,.T.);
#799 = EDGE_LOOP('',(#800,#801,#809,#815));
#800 = ORIENTED_EDGE('',*,*,#769,.F.);
#801 = ORIENTED_EDGE('',*,*,#802,.F.);
#802 = EDGE_CURVE('',#803,#770,#805,.T.);
#803 = VERTEX_POINT('',#804);
#804 = CARTESIAN_POINT('',(7.7,-13.27849913292,66.380604587407));
#805 = LINE('',#806,#807);
#806 = CARTESIAN_POINT('',(7.7,-15.61757304986,60.733580613753));
#807 = VECTOR('',#808,1.);
#808 = DIRECTION('',(1.667250188852E-16,-0.382683432365,-0.923879532511)
  );
#809 = ORIENTED_EDGE('',*,*,#810,.F.);
#810 = EDGE_CURVE('',#647,#803,#811,.T.);
#811 = LINE('',#812,#813);
#812 = CARTESIAN_POINT('',(7.7,-12.35461960041,65.997921155042));
#813 = VECTOR('',#814,1.);
#814 = DIRECTION('',(8.881784197001E-15,-0.923879532511,0.382683432365)
  );
#815 = ORIENTED_EDGE('',*,*,#646,.F.);
#816 = PLANE('',#817);
#817 = AXIS2_PLACEMENT_3D('',#818,#819,#820);
#818 = CARTESIAN_POINT('',(7.7,-15.60094596711,58.160596012666));
#819 = DIRECTION('',(1.,8.26950153428E-15,-3.244877829529E-15));
#820 = DIRECTION('',(-1.667250188852E-16,0.382683432365,0.923879532511)
  );
#821 = ADVANCED_FACE('',(#822),#848,.F.);
#822 = FACE_BOUND('',#823,.F.);
#823 = EDGE_LOOP('',(#824,#832,#841,#847));
#824 = ORIENTED_EDGE('',*,*,#825,.F.);
#825 = EDGE_CURVE('',#826,#689,#828,.T.);
#826 = VERTEX_POINT('',#827);
#827 = CARTESIAN_POINT('',(-5.5,-17.74941248319,55.586864940995));
#828 = LINE('',#829,#830);
#829 = CARTESIAN_POINT('',(-5.5,-16.82553295068,55.20418150863));
#830 = VECTOR('',#831,1.);
#831 = DIRECTION('',(-8.881784197001E-15,0.923879532511,-0.382683432365)
  );
#832 = ORIENTED_EDGE('',*,*,#833,.F.);
#833 = EDGE_CURVE('',#834,#826,#836,.T.);
#834 = VERTEX_POINT('',#835);
#835 = CARTESIAN_POINT('',(-7.7,-16.90750893199,57.61939991252));
#836 = CIRCLE('',#837,2.2);
#837 = AXIS2_PLACEMENT_3D('',#838,#839,#840);
#838 = CARTESIAN_POINT('',(-5.5,-16.90750893199,57.61939991252));
#839 = DIRECTION('',(8.937295348233E-15,-0.923879532511,0.382683432365)
  );
#840 = DIRECTION('',(-0.707106781187,-0.270598050073,-0.653281482438));
#841 = ORIENTED_EDGE('',*,*,#842,.F.);
#842 = EDGE_CURVE('',#681,#834,#843,.T.);
#843 = LINE('',#844,#845);
#844 = CARTESIAN_POINT('',(-7.7,-15.98362939948,57.236716480155));
#845 = VECTOR('',#846,1.);
#846 = DIRECTION('',(8.881784197001E-15,-0.923879532511,0.382683432365)
  );
#847 = ORIENTED_EDGE('',*,*,#688,.T.);
#848 = CYLINDRICAL_SURFACE('',#849,2.2);
#849 = AXIS2_PLACEMENT_3D('',#850,#851,#852);
#850 = CARTESIAN_POINT('',(-5.5,-15.98362939948,57.236716480155));
#851 = DIRECTION('',(8.881784197001E-15,-0.923879532511,0.382683432365)
  );
#852 = DIRECTION('',(-0.707106781187,-0.270598050073,-0.653281482438));
#853 = ADVANCED_FACE('',(#854),#865,.F.);
#854 = FACE_BOUND('',#855,.T.);
#855 = EDGE_LOOP('',(#856,#857,#858,#859));
#856 = ORIENTED_EDGE('',*,*,#786,.F.);
#857 = ORIENTED_EDGE('',*,*,#697,.F.);
#858 = ORIENTED_EDGE('',*,*,#825,.F.);
#859 = ORIENTED_EDGE('',*,*,#860,.F.);
#860 = EDGE_CURVE('',#778,#826,#861,.T.);
#861 = LINE('',#862,#863);
#862 = CARTESIAN_POINT('',(-2.75,-17.74941248319,55.586864940995));
#863 = VECTOR('',#864,1.);
#864 = DIRECTION('',(-1.,-9.304581970239E-15,7.459726028901E-16));
#865 = PLANE('',#866);
#866 = AXIS2_PLACEMENT_3D('',#867,#868,#869);
#867 = CARTESIAN_POINT('',(-5.5,-16.82553295068,55.20418150863));
#868 = DIRECTION('',(2.871520545469E-15,-0.382683432365,-0.923879532511)
  );
#869 = DIRECTION('',(1.,9.304581970239E-15,-7.459726028901E-16));
#870 = ADVANCED_FACE('',(#871),#897,.F.);
#871 = FACE_BOUND('',#872,.F.);
#872 = EDGE_LOOP('',(#873,#881,#890,#896));
#873 = ORIENTED_EDGE('',*,*,#874,.F.);
#874 = EDGE_CURVE('',#875,#672,#877,.T.);
#875 = VERTEX_POINT('',#876);
#876 = CARTESIAN_POINT('',(-7.7,-13.27849913292,66.380604587407));
#877 = LINE('',#878,#879);
#878 = CARTESIAN_POINT('',(-7.7,-12.35461960041,65.997921155042));
#879 = VECTOR('',#880,1.);
#880 = DIRECTION('',(-8.881784197001E-15,0.923879532511,-0.382683432365)
  );
#881 = ORIENTED_EDGE('',*,*,#882,.F.);
#882 = EDGE_CURVE('',#883,#875,#885,.T.);
#883 = VERTEX_POINT('',#884);
#884 = CARTESIAN_POINT('',(-5.5,-12.43659558172,68.413139558932));
#885 = CIRCLE('',#886,2.2);
#886 = AXIS2_PLACEMENT_3D('',#887,#888,#889);
#887 = CARTESIAN_POINT('',(-5.5,-13.27849913292,66.380604587407));
#888 = DIRECTION('',(8.965050923848E-15,-0.923879532511,0.382683432365)
  );
#889 = DIRECTION('',(-0.707106781187,0.270598050073,0.653281482438));
#890 = ORIENTED_EDGE('',*,*,#891,.F.);
#891 = EDGE_CURVE('',#664,#883,#892,.T.);
#892 = LINE('',#893,#894);
#893 = CARTESIAN_POINT('',(-5.5,-11.51271604921,68.030456126567));
#894 = VECTOR('',#895,1.);
#895 = DIRECTION('',(8.881784197001E-15,-0.923879532511,0.382683432365)
  );
#896 = ORIENTED_EDGE('',*,*,#671,.T.);
#897 = CYLINDRICAL_SURFACE('',#898,2.2);
#898 = AXIS2_PLACEMENT_3D('',#899,#900,#901);
#899 = CARTESIAN_POINT('',(-5.5,-12.35461960041,65.997921155042));
#900 = DIRECTION('',(8.881784197001E-15,-0.923879532511,0.382683432365)
  );
#901 = DIRECTION('',(-0.707106781187,0.270598050073,0.653281482438));
#902 = ADVANCED_FACE('',(#903),#914,.F.);
#903 = FACE_BOUND('',#904,.T.);
#904 = EDGE_LOOP('',(#905,#906,#907,#908));
#905 = ORIENTED_EDGE('',*,*,#842,.F.);
#906 = ORIENTED_EDGE('',*,*,#680,.F.);
#907 = ORIENTED_EDGE('',*,*,#874,.F.);
#908 = ORIENTED_EDGE('',*,*,#909,.F.);
#909 = EDGE_CURVE('',#834,#875,#910,.T.);
#910 = LINE('',#911,#912);
#911 = CARTESIAN_POINT('',(-7.7,-13.80306815032,65.114182951196));
#912 = VECTOR('',#913,1.);
#913 = DIRECTION('',(-1.667250188852E-16,0.382683432365,0.923879532511)
  );
#914 = PLANE('',#915);
#915 = AXIS2_PLACEMENT_3D('',#916,#917,#918);
#916 = CARTESIAN_POINT('',(-7.7,-11.97193616805,66.921800687553));
#917 = DIRECTION('',(-1.,-8.26950153428E-15,3.244877829529E-15));
#918 = DIRECTION('',(1.667250188852E-16,-0.382683432365,-0.923879532511)
  );
#919 = ADVANCED_FACE('',(#920),#939,.F.);
#920 = FACE_BOUND('',#921,.F.);
#921 = EDGE_LOOP('',(#922,#930,#937,#938));
#922 = ORIENTED_EDGE('',*,*,#923,.F.);
#923 = EDGE_CURVE('',#924,#655,#926,.T.);
#924 = VERTEX_POINT('',#925);
#925 = CARTESIAN_POINT('',(5.5,-12.43659558172,68.413139558932));
#926 = LINE('',#927,#928);
#927 = CARTESIAN_POINT('',(5.5,-11.51271604921,68.030456126567));
#928 = VECTOR('',#929,1.);
#929 = DIRECTION('',(-8.881784197001E-15,0.923879532511,-0.382683432365)
  );
#930 = ORIENTED_EDGE('',*,*,#931,.F.);
#931 = EDGE_CURVE('',#803,#924,#932,.T.);
#932 = CIRCLE('',#933,2.2);
#933 = AXIS2_PLACEMENT_3D('',#934,#935,#936);
#934 = CARTESIAN_POINT('',(5.5,-13.27849913292,66.380604587407));
#935 = DIRECTION('',(8.937295348233E-15,-0.923879532511,0.382683432365)
  );
#936 = DIRECTION('',(0.707106781187,0.270598050073,0.653281482438));
#937 = ORIENTED_EDGE('',*,*,#810,.F.);
#938 = ORIENTED_EDGE('',*,*,#654,.T.);
#939 = CYLINDRICAL_SURFACE('',#940,2.2);
#940 = AXIS2_PLACEMENT_3D('',#941,#942,#943);
#941 = CARTESIAN_POINT('',(5.5,-12.35461960041,65.997921155042));
#942 = DIRECTION('',(-8.881784197001E-15,0.923879532511,-0.382683432365)
  );
#943 = DIRECTION('',(0.707106781187,0.270598050073,0.653281482438));
#944 = ADVANCED_FACE('',(#945),#956,.F.);
#945 = FACE_BOUND('',#946,.T.);
#946 = EDGE_LOOP('',(#947,#948,#949,#950));
#947 = ORIENTED_EDGE('',*,*,#891,.F.);
#948 = ORIENTED_EDGE('',*,*,#663,.F.);
#949 = ORIENTED_EDGE('',*,*,#923,.F.);
#950 = ORIENTED_EDGE('',*,*,#951,.F.);
#951 = EDGE_CURVE('',#883,#924,#952,.T.);
#952 = LINE('',#953,#954);
#953 = CARTESIAN_POINT('',(2.75,-12.43659558172,68.413139558932));
#954 = VECTOR('',#955,1.);
#955 = DIRECTION('',(1.,8.995590000963E-15,-1.49194520578E-15));
#956 = PLANE('',#957);
#957 = AXIS2_PLACEMENT_3D('',#958,#959,#960);
#958 = CARTESIAN_POINT('',(5.5,-11.51271604921,68.030456126567));
#959 = DIRECTION('',(-2.064085618469E-15,0.382683432365,0.923879532511)
  );
#960 = DIRECTION('',(-1.,-8.995590000963E-15,1.49194520578E-15));
#961 = ADVANCED_FACE('',(#962,#980),#990,.T.);
#962 = FACE_BOUND('',#963,.T.);
#963 = EDGE_LOOP('',(#964,#972,#973,#974));
#964 = ORIENTED_EDGE('',*,*,#965,.F.);
#965 = EDGE_CURVE('',#103,#966,#968,.T.);
#966 = VERTEX_POINT('',#967);
#967 = CARTESIAN_POINT('',(8.5,-18.62828545924,53.465077882621));
#968 = LINE('',#969,#970);
#969 = CARTESIAN_POINT('',(8.5,-15.73753888159,60.443957475758));
#970 = VECTOR('',#971,1.);
#971 = DIRECTION('',(0.,-0.382683432365,-0.923879532511));
#972 = ORIENTED_EDGE('',*,*,#102,.F.);
#973 = ORIENTED_EDGE('',*,*,#149,.F.);
#974 = ORIENTED_EDGE('',*,*,#975,.F.);
#975 = EDGE_CURVE('',#966,#142,#976,.T.);
#976 = LINE('',#977,#978);
#977 = CARTESIAN_POINT('',(-4.,-18.62828545924,53.465077882621));
#978 = VECTOR('',#979,1.);
#979 = DIRECTION('',(-1.,-9.613573939514E-15,0.));
#980 = FACE_BOUND('',#981,.T.);
#981 = EDGE_LOOP('',(#982,#983,#984,#985,#986,#987,#988,#989));
#982 = ORIENTED_EDGE('',*,*,#802,.T.);
#983 = ORIENTED_EDGE('',*,*,#777,.F.);
#984 = ORIENTED_EDGE('',*,*,#860,.T.);
#985 = ORIENTED_EDGE('',*,*,#833,.F.);
#986 = ORIENTED_EDGE('',*,*,#909,.T.);
#987 = ORIENTED_EDGE('',*,*,#882,.F.);
#988 = ORIENTED_EDGE('',*,*,#951,.T.);
#989 = ORIENTED_EDGE('',*,*,#931,.F.);
#990 = PLANE('',#991);
#991 = AXIS2_PLACEMENT_3D('',#992,#993,#994);
#992 = CARTESIAN_POINT('',(7.882583474839E-14,-14.71032060009,
    62.923881782475));
#993 = DIRECTION('',(8.881784197001E-15,-0.923879532511,0.382683432365)
  );
#994 = DIRECTION('',(-3.944304526105E-31,-0.382683432365,-0.923879532511
    ));
#995 = ADVANCED_FACE('',(#996),#1018,.T.);
#996 = FACE_BOUND('',#997,.T.);
#997 = EDGE_LOOP('',(#998,#999,#1000,#1001,#1009,#1015,#1016,#1017));
#998 = ORIENTED_EDGE('',*,*,#721,.F.);
#999 = ORIENTED_EDGE('',*,*,#165,.F.);
#1000 = ORIENTED_EDGE('',*,*,#47,.T.);
#1001 = ORIENTED_EDGE('',*,*,#1002,.F.);
#1002 = EDGE_CURVE('',#1003,#40,#1005,.T.);
#1003 = VERTEX_POINT('',#1004);
#1004 = CARTESIAN_POINT('',(8.5,-18.22828545924,52.000002249963));
#1005 = LINE('',#1006,#1007);
#1006 = CARTESIAN_POINT('',(8.5,-10.89522025717,52.000002249963));
#1007 = VECTOR('',#1008,1.);
#1008 = DIRECTION('',(6.310887241768E-30,1.,2.839899258796E-29));
#1009 = ORIENTED_EDGE('',*,*,#1010,.F.);
#1010 = EDGE_CURVE('',#126,#1003,#1011,.T.);
#1011 = LINE('',#1012,#1013);
#1012 = CARTESIAN_POINT('',(4.25,-18.22828545924,52.000002249963));
#1013 = VECTOR('',#1014,1.);
#1014 = DIRECTION('',(1.,9.613573939514E-15,3.012312350808E-31));
#1015 = ORIENTED_EDGE('',*,*,#125,.F.);
#1016 = ORIENTED_EDGE('',*,*,#79,.T.);
#1017 = ORIENTED_EDGE('',*,*,#755,.F.);
#1018 = PLANE('',#1019);
#1019 = AXIS2_PLACEMENT_3D('',#1020,#1021,#1022);
#1020 = CARTESIAN_POINT('',(7.084610675889E-14,-13.47290865786,
    52.000002249963));
#1021 = DIRECTION('',(3.012312350806E-31,2.839899258796E-29,-1.));
#1022 = DIRECTION('',(-2.584044089815E-14,-1.,-2.839899258796E-29));
#1023 = ADVANCED_FACE('',(#1024),#1042,.T.);
#1024 = FACE_BOUND('',#1025,.T.);
#1025 = EDGE_LOOP('',(#1026,#1034,#1040,#1041));
#1026 = ORIENTED_EDGE('',*,*,#1027,.T.);
#1027 = EDGE_CURVE('',#1003,#1028,#1030,.T.);
#1028 = VERTEX_POINT('',#1029);
#1029 = CARTESIAN_POINT('',(8.5,-18.62828545924,52.400002249963));
#1030 = LINE('',#1031,#1032);
#1031 = CARTESIAN_POINT('',(8.5,-16.46686596671,50.238582757438));
#1032 = VECTOR('',#1033,1.);
#1033 = DIRECTION('',(0.,-0.707106781187,0.707106781187));
#1034 = ORIENTED_EDGE('',*,*,#1035,.T.);
#1035 = EDGE_CURVE('',#1028,#134,#1036,.T.);
#1036 = LINE('',#1037,#1038);
#1037 = CARTESIAN_POINT('',(4.25,-18.62828545924,52.400002249963));
#1038 = VECTOR('',#1039,1.);
#1039 = DIRECTION('',(-1.,-9.613573939514E-15,-3.012312350808E-31));
#1040 = ORIENTED_EDGE('',*,*,#133,.T.);
#1041 = ORIENTED_EDGE('',*,*,#1010,.T.);
#1042 = PLANE('',#1043);
#1043 = AXIS2_PLACEMENT_3D('',#1044,#1045,#1046);
#1044 = CARTESIAN_POINT('',(4.25,-18.42828545924,52.200002249963));
#1045 = DIRECTION('',(6.797823324069E-15,-0.707106781187,-0.707106781187
    ));
#1046 = DIRECTION('',(-1.,1.577721810442E-30,-9.613573939514E-15));
#1047 = ADVANCED_FACE('',(#1048),#1061,.T.);
#1048 = FACE_BOUND('',#1049,.T.);
#1049 = EDGE_LOOP('',(#1050,#1051,#1052,#1053,#1059,#1060));
#1050 = ORIENTED_EDGE('',*,*,#39,.T.);
#1051 = ORIENTED_EDGE('',*,*,#110,.T.);
#1052 = ORIENTED_EDGE('',*,*,#965,.T.);
#1053 = ORIENTED_EDGE('',*,*,#1054,.T.);
#1054 = EDGE_CURVE('',#966,#1028,#1055,.T.);
#1055 = LINE('',#1056,#1057);
#1056 = CARTESIAN_POINT('',(8.5,-18.62828545924,53.465077882621));
#1057 = VECTOR('',#1058,1.);
#1058 = DIRECTION('',(-1.506432264117E-16,-3.235101915742E-15,-1.));
#1059 = ORIENTED_EDGE('',*,*,#1027,.F.);
#1060 = ORIENTED_EDGE('',*,*,#1002,.T.);
#1061 = PLANE('',#1062);
#1062 = AXIS2_PLACEMENT_3D('',#1063,#1064,#1065);
#1063 = CARTESIAN_POINT('',(8.5,-8.317531856483,54.465077882621));
#1064 = DIRECTION('',(1.,0.,0.));
#1065 = DIRECTION('',(0.,0.,1.));
#1066 = ADVANCED_FACE('',(#1067),#1073,.T.);
#1067 = FACE_BOUND('',#1068,.T.);
#1068 = EDGE_LOOP('',(#1069,#1070,#1071,#1072));
#1069 = ORIENTED_EDGE('',*,*,#1035,.F.);
#1070 = ORIENTED_EDGE('',*,*,#1054,.F.);
#1071 = ORIENTED_EDGE('',*,*,#975,.T.);
#1072 = ORIENTED_EDGE('',*,*,#141,.T.);
#1073 = PLANE('',#1074);
#1074 = AXIS2_PLACEMENT_3D('',#1075,#1076,#1077);
#1075 = CARTESIAN_POINT('',(8.5,-18.62828545924,53.465077882621));
#1076 = DIRECTION('',(9.613573939514E-15,-1.,3.235101915742E-15));
#1077 = DIRECTION('',(-1.,-9.613573939514E-15,-2.866708652018E-31));
#1078 = ( GEOMETRIC_REPRESENTATION_CONTEXT(3) 
GLOBAL_UNCERTAINTY_ASSIGNED_CONTEXT((#1082)) 
GLOBAL_UNIT_ASSIGNED_CONTEXT((#1079,#1080,#1081)) REPRESENTATION_CONTEXT
('Context #1','3D Context with UNIT and UNCERTAINTY') );
#1079 = ( LENGTH_UNIT() NAMED_UNIT(*) SI_UNIT(.MILLI.,.METRE.) );
#1080 = ( NAMED_UNIT(*) PLANE_ANGLE_UNIT() SI_UNIT($,.RADIAN.) );
#1081 = ( NAMED_UNIT(*) SI_UNIT($,.STERADIAN.) SOLID_ANGLE_UNIT() );
#1082 = UNCERTAINTY_MEASURE_WITH_UNIT(LENGTH_MEASURE(1.E-07),#1079,
  'distance_accuracy_value','confusion accuracy');
#1083 = PRODUCT_RELATED_PRODUCT_CATEGORY('part',$,(#7));
#1084 = MECHANICAL_DESIGN_GEOMETRIC_PRESENTATION_REPRESENTATION('',(
    #1085),#1078);
#1085 = STYLED_ITEM('color',(#1086),#15);
#1086 = PRESENTATION_STYLE_ASSIGNMENT((#1087,#1093));
#1087 = SURFACE_STYLE_USAGE(.BOTH.,#1088);
#1088 = SURFACE_SIDE_STYLE('',(#1089));
#1089 = SURFACE_STYLE_FILL_AREA(#1090);
#1090 = FILL_AREA_STYLE('',(#1091));
#1091 = FILL_AREA_STYLE_COLOUR('',#1092);
#1092 = COLOUR_RGB('',0.627451011593,0.627451011593,0.627451011593);
#1093 = CURVE_STYLE('',#1094,POSITIVE_LENGTH_MEASURE(0.1),#1095);
#1094 = DRAUGHTING_PRE_DEFINED_CURVE_FONT('continuous');
#1095 = COLOUR_RGB('',9.803921802644E-02,9.803921802644E-02,
  9.803921802644E-02);
ENDSEC;
END-ISO-10303-21;
