ISO-10303-21;
HEADER;
FILE_DESCRIPTION(('FreeCAD Model'),'2;1');
FILE_NAME('Open CASCADE Shape Model','2025-11-08T20:59:04',(''),(''),
  'Open CASCADE STEP processor 7.9','FreeCAD','Unknown');
FILE_SCHEMA(('AUTOMOTIVE_DESIGN { 1 0 10303 214 1 1 1 1 }'));
ENDSEC;
DATA;
#1 = APPLICATION_PROTOCOL_DEFINITION('international standard',
  'automotive_design',2000,#2);
#2 = APPLICATION_CONTEXT(
  'core data for automotive mechanical design processes');
#3 = SHAPE_DEFINITION_REPRESENTATION(#4,#10);
#4 = PRODUCT_DEFINITION_SHAPE('','',#5);
#5 = PRODUCT_DEFINITION('design','',#6,#9);
#6 = PRODUCT_DEFINITION_FORMATION('','',#7);
#7 = PRODUCT('Led_skirt003','Led_skirt003','',(#8));
#8 = PRODUCT_CONTEXT('',#2,'mechanical');
#9 = PRODUCT_DEFINITION_CONTEXT('part definition',#2,'design');
#10 = ADVANCED_BREP_SHAPE_REPRESENTATION('',(#11,#15),#1441);
#11 = AXIS2_PLACEMENT_3D('',#12,#13,#14);
#12 = CARTESIAN_POINT('',(0.,0.,0.));
#13 = DIRECTION('',(0.,0.,1.));
#14 = DIRECTION('',(1.,0.,-0.));
#15 = MANIFOLD_SOLID_BREP('',#16);
#16 = CLOSED_SHELL('',(#17,#57,#88,#119,#150,#181,#203,#234,#258,#282,
    #296,#336,#367,#407,#438,#460,#482,#513,#537,#561,#677,#737,#754,
    #771,#783,#800,#817,#829,#860,#884,#908,#925,#965,#987,#1004,#1021,
    #1033,#1064,#1088,#1112,#1129,#1160,#1184,#1208,#1225,#1237,#1268,
    #1292,#1316,#1333,#1364,#1388,#1412,#1429));
#17 = ADVANCED_FACE('',(#18),#52,.T.);
#18 = FACE_BOUND('',#19,.T.);
#19 = EDGE_LOOP('',(#20,#30,#38,#46));
#20 = ORIENTED_EDGE('',*,*,#21,.T.);
#21 = EDGE_CURVE('',#22,#24,#26,.T.);
#22 = VERTEX_POINT('',#23);
#23 = CARTESIAN_POINT('',(9.204365687373,-5.079592697917,3.360160653728)
  );
#24 = VERTEX_POINT('',#25);
#25 = CARTESIAN_POINT('',(17.743480505615,-12.1336669063,3.360160653729)
  );
#26 = LINE('',#27,#28);
#27 = CARTESIAN_POINT('',(11.250121513865,-6.769570373531,3.360160653728
    ));
#28 = VECTOR('',#29,1.);
#29 = DIRECTION('',(0.77096073924,-0.636882672515,6.037225359844E-14));
#30 = ORIENTED_EDGE('',*,*,#31,.T.);
#31 = EDGE_CURVE('',#24,#32,#34,.T.);
#32 = VERTEX_POINT('',#33);
#33 = CARTESIAN_POINT('',(17.666773192743,-12.58913295497,2.960160653729
    ));
#34 = LINE('',#35,#36);
#35 = CARTESIAN_POINT('',(17.743480505615,-12.1336669063,3.360160653729)
  );
#36 = VECTOR('',#37,1.);
#37 = DIRECTION('',(-0.125541809854,-0.745431301601,-0.654653670708));
#38 = ORIENTED_EDGE('',*,*,#39,.T.);
#39 = EDGE_CURVE('',#32,#40,#42,.T.);
#40 = VERTEX_POINT('',#41);
#41 = CARTESIAN_POINT('',(8.771566862233,-5.240895240646,2.960160653728)
  );
#42 = LINE('',#43,#44);
#43 = CARTESIAN_POINT('',(10.995368444859,-7.077954669227,2.960160653728
    ));
#44 = VECTOR('',#45,1.);
#45 = DIRECTION('',(-0.77096073924,0.636882672515,-6.037225359844E-14));
#46 = ORIENTED_EDGE('',*,*,#47,.F.);
#47 = EDGE_CURVE('',#22,#40,#48,.T.);
#48 = LINE('',#49,#50);
#49 = CARTESIAN_POINT('',(9.204365687373,-5.079592697917,3.360160653728)
  );
#50 = VECTOR('',#51,1.);
#51 = DIRECTION('',(-0.70833334889,-0.26399325423,-0.654653670708));
#52 = PLANE('',#53);
#53 = AXIS2_PLACEMENT_3D('',#54,#55,#56);
#54 = CARTESIAN_POINT('',(11.122744979362,-6.923762521379,3.160160653728
    ));
#55 = DIRECTION('',(0.450344056556,0.545151566745,-0.707106781187));
#56 = DIRECTION('',(0.77096073924,-0.636882672515,6.050715484207E-14));
#57 = ADVANCED_FACE('',(#58),#83,.T.);
#58 = FACE_BOUND('',#59,.T.);
#59 = EDGE_LOOP('',(#60,#68,#76,#82));
#60 = ORIENTED_EDGE('',*,*,#61,.T.);
#61 = EDGE_CURVE('',#24,#62,#64,.T.);
#62 = VERTEX_POINT('',#63);
#63 = CARTESIAN_POINT('',(28.122045379397,-8.265613652053,3.36016065373)
  );
#64 = LINE('',#65,#66);
#65 = CARTESIAN_POINT('',(20.229922017787,-11.20697922842,3.360160653729
    ));
#66 = VECTOR('',#67,1.);
#67 = DIRECTION('',(0.937036943248,0.349230249246,9.416818058484E-14));
#68 = ORIENTED_EDGE('',*,*,#69,.T.);
#69 = EDGE_CURVE('',#62,#70,#72,.T.);
#70 = VERTEX_POINT('',#71);
#71 = CARTESIAN_POINT('',(28.478136891665,-8.559777157987,2.96016065373)
  );
#72 = LINE('',#73,#74);
#73 = CARTESIAN_POINT('',(28.122045379397,-8.265613652053,3.36016065373)
  );
#74 = VECTOR('',#75,1.);
#75 = DIRECTION('',(0.582791539035,-0.481438047372,-0.654653670708));
#76 = ORIENTED_EDGE('',*,*,#77,.T.);
#77 = EDGE_CURVE('',#70,#32,#78,.T.);
#78 = LINE('',#79,#80);
#79 = CARTESIAN_POINT('',(20.369614117485,-11.58179400572,2.960160653729
    ));
#80 = VECTOR('',#81,1.);
#81 = DIRECTION('',(-0.937036943248,-0.349230249246,-9.416818058484E-14)
  );
#82 = ORIENTED_EDGE('',*,*,#31,.F.);
#83 = PLANE('',#84);
#84 = AXIS2_PLACEMENT_3D('',#85,#86,#87);
#85 = CARTESIAN_POINT('',(20.299768067636,-11.39438661707,3.160160653729
    ));
#86 = DIRECTION('',(-0.246943077437,0.662585176793,-0.707106781187));
#87 = DIRECTION('',(0.937036943248,0.349230249246,9.386935673206E-14));
#88 = ADVANCED_FACE('',(#89),#114,.T.);
#89 = FACE_BOUND('',#90,.T.);
#90 = EDGE_LOOP('',(#91,#99,#100,#108));
#91 = ORIENTED_EDGE('',*,*,#92,.T.);
#92 = EDGE_CURVE('',#93,#70,#95,.T.);
#93 = VERTEX_POINT('',#94);
#94 = CARTESIAN_POINT('',(30.39429426008,2.817816353338,2.96016065373));
#95 = LINE('',#96,#97);
#96 = CARTESIAN_POINT('',(28.957176233766,-5.71537878017,2.96016065373)
  );
#97 = VECTOR('',#98,1.);
#98 = DIRECTION('',(-0.166076204009,-0.98611292176,-3.37959269865E-14));
#99 = ORIENTED_EDGE('',*,*,#69,.F.);
#100 = ORIENTED_EDGE('',*,*,#101,.T.);
#101 = EDGE_CURVE('',#62,#102,#104,.T.);
#102 = VERTEX_POINT('',#103);
#103 = CARTESIAN_POINT('',(29.961495434939,2.656513810608,3.36016065373)
  );
#104 = LINE('',#105,#106);
#105 = CARTESIAN_POINT('',(28.562731065062,-5.648948298566,3.36016065373
    ));
#106 = VECTOR('',#107,1.);
#107 = DIRECTION('',(0.166076204009,0.98611292176,3.37959269865E-14));
#108 = ORIENTED_EDGE('',*,*,#109,.T.);
#109 = EDGE_CURVE('',#102,#93,#110,.T.);
#110 = LINE('',#111,#112);
#111 = CARTESIAN_POINT('',(29.961495434939,2.656513810608,3.36016065373)
  );
#112 = VECTOR('',#113,1.);
#113 = DIRECTION('',(0.70833334889,0.263993254231,-0.654653670707));
#114 = PLANE('',#115);
#115 = AXIS2_PLACEMENT_3D('',#116,#117,#118);
#116 = CARTESIAN_POINT('',(28.759953649414,-5.682163539368,3.16016065373
    ));
#117 = DIRECTION('',(-0.697287133992,0.117433610049,-0.707106781187));
#118 = DIRECTION('',(0.166076204009,0.98611292176,3.408384685599E-14));
#119 = ADVANCED_FACE('',(#120),#145,.T.);
#120 = FACE_BOUND('',#121,.T.);
#121 = EDGE_LOOP('',(#122,#130,#131,#139));
#122 = ORIENTED_EDGE('',*,*,#123,.T.);
#123 = EDGE_CURVE('',#124,#93,#126,.T.);
#124 = VERTEX_POINT('',#125);
#125 = CARTESIAN_POINT('',(21.499087929511,10.16605406765,2.960160653729
    ));
#126 = LINE('',#127,#128);
#127 = CARTESIAN_POINT('',(28.170492677433,4.65487578192,2.96016065373)
  );
#128 = VECTOR('',#129,1.);
#129 = DIRECTION('',(0.770960739243,-0.636882672512,6.037225359874E-14)
  );
#130 = ORIENTED_EDGE('',*,*,#109,.F.);
#131 = ORIENTED_EDGE('',*,*,#132,.T.);
#132 = EDGE_CURVE('',#102,#133,#135,.T.);
#133 = VERTEX_POINT('',#134);
#134 = CARTESIAN_POINT('',(21.422380616641,9.710588018986,3.36016065373)
  );
#135 = LINE('',#136,#137);
#136 = CARTESIAN_POINT('',(27.915739608428,4.346491486223,3.36016065373)
  );
#137 = VECTOR('',#138,1.);
#138 = DIRECTION('',(-0.770960739243,0.636882672512,-6.037225359874E-14)
  );
#139 = ORIENTED_EDGE('',*,*,#140,.T.);
#140 = EDGE_CURVE('',#133,#124,#141,.T.);
#141 = LINE('',#142,#143);
#142 = CARTESIAN_POINT('',(21.422380616641,9.710588018986,3.36016065373)
  );
#143 = VECTOR('',#144,1.);
#144 = DIRECTION('',(0.125541809851,0.745431301602,-0.654653670708));
#145 = PLANE('',#146);
#146 = AXIS2_PLACEMENT_3D('',#147,#148,#149);
#147 = CARTESIAN_POINT('',(28.043116142931,4.500683634071,3.16016065373)
  );
#148 = DIRECTION('',(-0.450344056553,-0.545151566747,-0.707106781187));
#149 = DIRECTION('',(-0.770960739243,0.636882672512,-6.017408793468E-14)
  );
#150 = ADVANCED_FACE('',(#151),#176,.T.);
#151 = FACE_BOUND('',#152,.T.);
#152 = EDGE_LOOP('',(#153,#161,#162,#170));
#153 = ORIENTED_EDGE('',*,*,#154,.T.);
#154 = EDGE_CURVE('',#155,#124,#157,.T.);
#155 = VERTEX_POINT('',#156);
#156 = CARTESIAN_POINT('',(10.6877242306,6.136698270613,2.960160653728)
  );
#157 = LINE('',#158,#159);
#158 = CARTESIAN_POINT('',(18.796247004777,9.158715118389,2.960160653729
    ));
#159 = VECTOR('',#160,1.);
#160 = DIRECTION('',(0.937036943246,0.34923024925,9.416818058477E-14));
#161 = ORIENTED_EDGE('',*,*,#140,.F.);
#162 = ORIENTED_EDGE('',*,*,#163,.T.);
#163 = EDGE_CURVE('',#133,#164,#166,.T.);
#164 = VERTEX_POINT('',#165);
#165 = CARTESIAN_POINT('',(11.043815742869,5.842534764679,3.360160653728
    ));
#166 = LINE('',#167,#168);
#167 = CARTESIAN_POINT('',(18.935939104477,8.78390034109,3.360160653729)
  );
#168 = VECTOR('',#169,1.);
#169 = DIRECTION('',(-0.937036943246,-0.34923024925,-9.416818058477E-14)
  );
#170 = ORIENTED_EDGE('',*,*,#171,.T.);
#171 = EDGE_CURVE('',#164,#155,#172,.T.);
#172 = LINE('',#173,#174);
#173 = CARTESIAN_POINT('',(11.043815742869,5.842534764679,3.360160653728
    ));
#174 = VECTOR('',#175,1.);
#175 = DIRECTION('',(-0.582791539037,0.481438047369,-0.654653670708));
#176 = PLANE('',#177);
#177 = AXIS2_PLACEMENT_3D('',#178,#179,#180);
#178 = CARTESIAN_POINT('',(18.866093054627,8.97130772974,3.160160653729)
  );
#179 = DIRECTION('',(0.246943077441,-0.662585176792,-0.707106781187));
#180 = DIRECTION('',(-0.937036943246,-0.34923024925,-9.398037903452E-14)
  );
#181 = ADVANCED_FACE('',(#182),#198,.T.);
#182 = FACE_BOUND('',#183,.T.);
#183 = EDGE_LOOP('',(#184,#190,#191,#197));
#184 = ORIENTED_EDGE('',*,*,#185,.T.);
#185 = EDGE_CURVE('',#40,#155,#186,.T.);
#186 = LINE('',#187,#188);
#187 = CARTESIAN_POINT('',(10.20868488851,3.292299892808,2.960160653728)
  );
#188 = VECTOR('',#189,1.);
#189 = DIRECTION('',(0.166076204006,0.98611292176,3.379592698623E-14));
#190 = ORIENTED_EDGE('',*,*,#171,.F.);
#191 = ORIENTED_EDGE('',*,*,#192,.T.);
#192 = EDGE_CURVE('',#164,#22,#193,.T.);
#193 = LINE('',#194,#195);
#194 = CARTESIAN_POINT('',(10.603130057214,3.225869411205,3.360160653728
    ));
#195 = VECTOR('',#196,1.);
#196 = DIRECTION('',(-0.166076204006,-0.98611292176,-3.379592698623E-14)
  );
#197 = ORIENTED_EDGE('',*,*,#47,.T.);
#198 = PLANE('',#199);
#199 = AXIS2_PLACEMENT_3D('',#200,#201,#202);
#200 = CARTESIAN_POINT('',(10.405907472862,3.259084652007,3.160160653728
    ));
#201 = DIRECTION('',(0.697287133993,-0.117433610046,-0.707106781186));
#202 = DIRECTION('',(-0.166076204006,-0.98611292176,-3.400058012915E-14)
  );
#203 = ADVANCED_FACE('',(#204),#229,.F.);
#204 = FACE_BOUND('',#205,.T.);
#205 = EDGE_LOOP('',(#206,#207,#215,#223));
#206 = ORIENTED_EDGE('',*,*,#154,.F.);
#207 = ORIENTED_EDGE('',*,*,#208,.T.);
#208 = EDGE_CURVE('',#155,#209,#211,.T.);
#209 = VERTEX_POINT('',#210);
#210 = CARTESIAN_POINT('',(10.687724230601,6.136698270613,
    -1.439839346272));
#211 = LINE('',#212,#213);
#212 = CARTESIAN_POINT('',(10.6877242306,6.136698270613,0.960160653728)
  );
#213 = VECTOR('',#214,1.);
#214 = DIRECTION('',(9.359760041013E-14,1.850862350881E-14,-1.));
#215 = ORIENTED_EDGE('',*,*,#216,.F.);
#216 = EDGE_CURVE('',#217,#209,#219,.T.);
#217 = VERTEX_POINT('',#218);
#218 = CARTESIAN_POINT('',(21.499087929511,10.166054067651,
    -1.43983934627));
#219 = LINE('',#220,#221);
#220 = CARTESIAN_POINT('',(18.796247004778,9.158715118389,
    -1.439839346271));
#221 = VECTOR('',#222,1.);
#222 = DIRECTION('',(-0.937036943246,-0.34923024925,-9.189842494724E-14)
  );
#223 = ORIENTED_EDGE('',*,*,#224,.T.);
#224 = EDGE_CURVE('',#217,#124,#225,.T.);
#225 = LINE('',#226,#227);
#226 = CARTESIAN_POINT('',(21.499087929511,10.166054067651,
    0.960160653729));
#227 = VECTOR('',#228,1.);
#228 = DIRECTION('',(-9.359760041013E-14,-1.850862350881E-14,1.));
#229 = PLANE('',#230);
#230 = AXIS2_PLACEMENT_3D('',#231,#232,#233);
#231 = CARTESIAN_POINT('',(21.499087929511,10.166054067651,
    0.960160653729));
#232 = DIRECTION('',(-0.34923024925,0.937036943246,-1.534384932408E-14)
  );
#233 = DIRECTION('',(-0.937036943246,-0.34923024925,-9.18251059901E-14)
  );
#234 = ADVANCED_FACE('',(#235),#253,.F.);
#235 = FACE_BOUND('',#236,.T.);
#236 = EDGE_LOOP('',(#237,#238,#246,#252));
#237 = ORIENTED_EDGE('',*,*,#185,.F.);
#238 = ORIENTED_EDGE('',*,*,#239,.F.);
#239 = EDGE_CURVE('',#240,#40,#242,.T.);
#240 = VERTEX_POINT('',#241);
#241 = CARTESIAN_POINT('',(8.771566862233,-5.240895240646,
    -1.439839346272));
#242 = LINE('',#243,#244);
#243 = CARTESIAN_POINT('',(8.771566862233,-5.240895240646,0.960160653728
    ));
#244 = VECTOR('',#245,1.);
#245 = DIRECTION('',(-9.359760041013E-14,-1.850862350881E-14,1.));
#246 = ORIENTED_EDGE('',*,*,#247,.F.);
#247 = EDGE_CURVE('',#209,#240,#248,.T.);
#248 = LINE('',#249,#250);
#249 = CARTESIAN_POINT('',(10.208684888511,3.292299892808,
    -1.439839346272));
#250 = VECTOR('',#251,1.);
#251 = DIRECTION('',(-0.166076204006,-0.98611292176,-3.32189654217E-14)
  );
#252 = ORIENTED_EDGE('',*,*,#208,.F.);
#253 = PLANE('',#254);
#254 = AXIS2_PLACEMENT_3D('',#255,#256,#257);
#255 = CARTESIAN_POINT('',(10.6877242306,6.136698270613,0.960160653728)
  );
#256 = DIRECTION('',(-0.98611292176,0.166076204006,-8.922396127648E-14)
  );
#257 = DIRECTION('',(-0.166076204006,-0.98611292176,-3.335739460313E-14)
  );
#258 = ADVANCED_FACE('',(#259),#277,.F.);
#259 = FACE_BOUND('',#260,.T.);
#260 = EDGE_LOOP('',(#261,#262,#270,#276));
#261 = ORIENTED_EDGE('',*,*,#39,.F.);
#262 = ORIENTED_EDGE('',*,*,#263,.F.);
#263 = EDGE_CURVE('',#264,#32,#266,.T.);
#264 = VERTEX_POINT('',#265);
#265 = CARTESIAN_POINT('',(17.666773192743,-12.58913295497,
    -1.439839346271));
#266 = LINE('',#267,#268);
#267 = CARTESIAN_POINT('',(17.666773192743,-12.58913295497,
    0.960160653729));
#268 = VECTOR('',#269,1.);
#269 = DIRECTION('',(-9.359760041013E-14,-1.850862350881E-14,1.));
#270 = ORIENTED_EDGE('',*,*,#271,.F.);
#271 = EDGE_CURVE('',#240,#264,#272,.T.);
#272 = LINE('',#273,#274);
#273 = CARTESIAN_POINT('',(10.99536844486,-7.077954669227,
    -1.439839346272));
#274 = VECTOR('',#275,1.);
#275 = DIRECTION('',(0.77096073924,-0.636882672515,5.867945952543E-14));
#276 = ORIENTED_EDGE('',*,*,#239,.T.);
#277 = PLANE('',#278);
#278 = AXIS2_PLACEMENT_3D('',#279,#280,#281);
#279 = CARTESIAN_POINT('',(8.771566862233,-5.240895240646,0.960160653728
    ));
#280 = DIRECTION('',(-0.636882672515,-0.77096073924,-7.388011195289E-14)
  );
#281 = DIRECTION('',(0.77096073924,-0.636882672515,5.844806151524E-14));
#282 = ADVANCED_FACE('',(#283),#291,.F.);
#283 = FACE_BOUND('',#284,.T.);
#284 = EDGE_LOOP('',(#285,#286,#287,#288,#289,#290));
#285 = ORIENTED_EDGE('',*,*,#21,.F.);
#286 = ORIENTED_EDGE('',*,*,#192,.F.);
#287 = ORIENTED_EDGE('',*,*,#163,.F.);
#288 = ORIENTED_EDGE('',*,*,#132,.F.);
#289 = ORIENTED_EDGE('',*,*,#101,.F.);
#290 = ORIENTED_EDGE('',*,*,#61,.F.);
#291 = PLANE('',#292);
#292 = AXIS2_PLACEMENT_3D('',#293,#294,#295);
#293 = CARTESIAN_POINT('',(19.582930561156,-1.211539443661,
    3.360160653729));
#294 = DIRECTION('',(-9.359760041013E-14,-1.850862350881E-14,1.));
#295 = DIRECTION('',(2.128501617345E-14,-1.,-1.850862350881E-14));
#296 = ADVANCED_FACE('',(#297),#331,.T.);
#297 = FACE_BOUND('',#298,.T.);
#298 = EDGE_LOOP('',(#299,#309,#317,#325));
#299 = ORIENTED_EDGE('',*,*,#300,.T.);
#300 = EDGE_CURVE('',#301,#303,#305,.T.);
#301 = VERTEX_POINT('',#302);
#302 = CARTESIAN_POINT('',(17.542123809326,-13.32926528405,
    4.760160653729));
#303 = VERTEX_POINT('',#304);
#304 = CARTESIAN_POINT('',(8.068268771381,-5.503011872581,4.760160653728
    ));
#305 = LINE('',#306,#307);
#306 = CARTESIAN_POINT('',(10.347709652799,-7.386034348964,
    4.760160653728));
#307 = VECTOR('',#308,1.);
#308 = DIRECTION('',(-0.77096073924,0.636882672515,-5.694850014329E-14)
  );
#309 = ORIENTED_EDGE('',*,*,#310,.T.);
#310 = EDGE_CURVE('',#303,#311,#313,.T.);
#311 = VERTEX_POINT('',#312);
#312 = CARTESIAN_POINT('',(7.635469946241,-5.664314415309,4.360160653728
    ));
#313 = LINE('',#314,#315);
#314 = CARTESIAN_POINT('',(8.068268771381,-5.503011872581,4.760160653728
    ));
#315 = VECTOR('',#316,1.);
#316 = DIRECTION('',(-0.70833334889,-0.26399325423,-0.654653670708));
#317 = ORIENTED_EDGE('',*,*,#318,.T.);
#318 = EDGE_CURVE('',#311,#319,#321,.T.);
#319 = VERTEX_POINT('',#320);
#320 = CARTESIAN_POINT('',(17.465416496454,-13.78473133271,
    4.360160653729));
#321 = LINE('',#322,#323);
#322 = CARTESIAN_POINT('',(10.092956583793,-7.69441864466,4.360160653728
    ));
#323 = VECTOR('',#324,1.);
#324 = DIRECTION('',(0.77096073924,-0.636882672515,5.694850014329E-14));
#325 = ORIENTED_EDGE('',*,*,#326,.F.);
#326 = EDGE_CURVE('',#301,#319,#327,.T.);
#327 = LINE('',#328,#329);
#328 = CARTESIAN_POINT('',(17.542123809326,-13.32926528405,
    4.760160653729));
#329 = VECTOR('',#330,1.);
#330 = DIRECTION('',(-0.125541809854,-0.745431301601,-0.654653670708));
#331 = PLANE('',#332);
#332 = AXIS2_PLACEMENT_3D('',#333,#334,#335);
#333 = CARTESIAN_POINT('',(10.220333118296,-7.540226496812,
    4.560160653728));
#334 = DIRECTION('',(-0.450344056556,-0.545151566745,0.707106781186));
#335 = DIRECTION('',(-0.77096073924,0.636882672515,-6.009082120784E-14)
  );
#336 = ADVANCED_FACE('',(#337),#362,.T.);
#337 = FACE_BOUND('',#338,.T.);
#338 = EDGE_LOOP('',(#339,#347,#355,#361));
#339 = ORIENTED_EDGE('',*,*,#340,.T.);
#340 = EDGE_CURVE('',#303,#341,#343,.T.);
#341 = VERTEX_POINT('',#342);
#342 = CARTESIAN_POINT('',(10.109075523163,6.614713967754,4.760160653728
    ));
#343 = LINE('',#344,#345);
#344 = CARTESIAN_POINT('',(9.618050663437,3.699149019846,4.760160653728)
  );
#345 = VECTOR('',#346,1.);
#346 = DIRECTION('',(0.166076204006,0.98611292176,3.305840048411E-14));
#347 = ORIENTED_EDGE('',*,*,#348,.T.);
#348 = EDGE_CURVE('',#341,#349,#351,.T.);
#349 = VERTEX_POINT('',#350);
#350 = CARTESIAN_POINT('',(9.752984010895,6.908877473688,4.360160653728)
  );
#351 = LINE('',#352,#353);
#352 = CARTESIAN_POINT('',(10.109075523163,6.614713967754,4.760160653728
    ));
#353 = VECTOR('',#354,1.);
#354 = DIRECTION('',(-0.582791539037,0.481438047369,-0.654653670708));
#355 = ORIENTED_EDGE('',*,*,#356,.T.);
#356 = EDGE_CURVE('',#349,#311,#357,.T.);
#357 = LINE('',#358,#359);
#358 = CARTESIAN_POINT('',(9.223605494733,3.765579501449,4.360160653728)
  );
#359 = VECTOR('',#360,1.);
#360 = DIRECTION('',(-0.166076204006,-0.98611292176,-3.305840048411E-14)
  );
#361 = ORIENTED_EDGE('',*,*,#310,.F.);
#362 = PLANE('',#363);
#363 = AXIS2_PLACEMENT_3D('',#364,#365,#366);
#364 = CARTESIAN_POINT('',(9.420828079085,3.732364260648,4.560160653728)
  );
#365 = DIRECTION('',(-0.697287133993,0.117433610046,0.707106781186));
#366 = DIRECTION('',(0.166076204006,0.98611292176,3.386180225107E-14));
#367 = ADVANCED_FACE('',(#368),#402,.T.);
#368 = FACE_BOUND('',#369,.T.);
#369 = EDGE_LOOP('',(#370,#380,#388,#396));
#370 = ORIENTED_EDGE('',*,*,#371,.T.);
#371 = EDGE_CURVE('',#372,#374,#376,.T.);
#372 = VERTEX_POINT('',#373);
#373 = CARTESIAN_POINT('',(21.623737312924,10.90618639673,4.760160653729
    ));
#374 = VERTEX_POINT('',#375);
#375 = CARTESIAN_POINT('',(31.097592350933,3.079932985273,4.76016065373)
  );
#376 = LINE('',#377,#378);
#377 = CARTESIAN_POINT('',(28.818151469494,4.962955461657,4.76016065373)
  );
#378 = VECTOR('',#379,1.);
#379 = DIRECTION('',(0.770960739243,-0.636882672512,5.694850014358E-14)
  );
#380 = ORIENTED_EDGE('',*,*,#381,.T.);
#381 = EDGE_CURVE('',#374,#382,#384,.T.);
#382 = VERTEX_POINT('',#383);
#383 = CARTESIAN_POINT('',(31.530391176073,3.241235528003,4.36016065373)
  );
#384 = LINE('',#385,#386);
#385 = CARTESIAN_POINT('',(31.097592350933,3.079932985273,4.76016065373)
  );
#386 = VECTOR('',#387,1.);
#387 = DIRECTION('',(0.70833334889,0.263993254231,-0.654653670707));
#388 = ORIENTED_EDGE('',*,*,#389,.T.);
#389 = EDGE_CURVE('',#382,#390,#392,.T.);
#390 = VERTEX_POINT('',#391);
#391 = CARTESIAN_POINT('',(21.700444625794,11.361652445394,4.36016065373
    ));
#392 = LINE('',#393,#394);
#393 = CARTESIAN_POINT('',(29.072904538499,5.271339757354,4.36016065373)
  );
#394 = VECTOR('',#395,1.);
#395 = DIRECTION('',(-0.770960739243,0.636882672512,-5.694850014358E-14)
  );
#396 = ORIENTED_EDGE('',*,*,#397,.T.);
#397 = EDGE_CURVE('',#390,#372,#398,.T.);
#398 = LINE('',#399,#400);
#399 = CARTESIAN_POINT('',(21.700444625794,11.361652445394,4.36016065373
    ));
#400 = VECTOR('',#401,1.);
#401 = DIRECTION('',(-0.125541809851,-0.745431301602,0.654653670708));
#402 = PLANE('',#403);
#403 = AXIS2_PLACEMENT_3D('',#404,#405,#406);
#404 = CARTESIAN_POINT('',(28.945528003996,5.117147609506,4.56016065373)
  );
#405 = DIRECTION('',(0.450344056553,0.545151566747,0.707106781187));
#406 = DIRECTION('',(0.770960739243,-0.636882672512,6.028511023715E-14)
  );
#407 = ADVANCED_FACE('',(#408),#433,.T.);
#408 = FACE_BOUND('',#409,.T.);
#409 = EDGE_LOOP('',(#410,#418,#419,#427));
#410 = ORIENTED_EDGE('',*,*,#411,.T.);
#411 = EDGE_CURVE('',#412,#382,#414,.T.);
#412 = VERTEX_POINT('',#413);
#413 = CARTESIAN_POINT('',(29.412877111367,-9.331956361066,4.36016065373
    ));
#414 = LINE('',#415,#416);
#415 = CARTESIAN_POINT('',(29.942255627541,-6.188658388814,4.36016065373
    ));
#416 = VECTOR('',#417,1.);
#417 = DIRECTION('',(0.166076204009,0.98611292176,3.305840048437E-14));
#418 = ORIENTED_EDGE('',*,*,#381,.F.);
#419 = ORIENTED_EDGE('',*,*,#420,.T.);
#420 = EDGE_CURVE('',#374,#421,#423,.T.);
#421 = VERTEX_POINT('',#422);
#422 = CARTESIAN_POINT('',(29.0567855991,-9.037792855132,4.76016065373)
  );
#423 = LINE('',#424,#425);
#424 = CARTESIAN_POINT('',(29.547810458837,-6.12222790721,4.76016065373)
  );
#425 = VECTOR('',#426,1.);
#426 = DIRECTION('',(-0.166076204009,-0.98611292176,-3.305840048437E-14)
  );
#427 = ORIENTED_EDGE('',*,*,#428,.T.);
#428 = EDGE_CURVE('',#421,#412,#429,.T.);
#429 = LINE('',#430,#431);
#430 = CARTESIAN_POINT('',(29.0567855991,-9.037792855132,4.76016065373)
  );
#431 = VECTOR('',#432,1.);
#432 = DIRECTION('',(0.582791539035,-0.481438047372,-0.654653670708));
#433 = PLANE('',#434);
#434 = AXIS2_PLACEMENT_3D('',#435,#436,#437);
#435 = CARTESIAN_POINT('',(29.745033043189,-6.155443148012,4.56016065373
    ));
#436 = DIRECTION('',(0.697287133992,-0.117433610049,0.707106781187));
#437 = DIRECTION('',(-0.166076204009,-0.98611292176,-3.408384685599E-14)
  );
#438 = ADVANCED_FACE('',(#439),#455,.T.);
#439 = FACE_BOUND('',#440,.T.);
#440 = EDGE_LOOP('',(#441,#447,#448,#454));
#441 = ORIENTED_EDGE('',*,*,#442,.T.);
#442 = EDGE_CURVE('',#341,#372,#443,.T.);
#443 = LINE('',#444,#445);
#444 = CARTESIAN_POINT('',(18.853271571763,9.873643925167,4.760160653729
    ));
#445 = VECTOR('',#446,1.);
#446 = DIRECTION('',(0.937036943246,0.34923024925,9.00069006275E-14));
#447 = ORIENTED_EDGE('',*,*,#397,.F.);
#448 = ORIENTED_EDGE('',*,*,#449,.T.);
#449 = EDGE_CURVE('',#390,#349,#450,.T.);
#450 = LINE('',#451,#452);
#451 = CARTESIAN_POINT('',(18.713579472063,10.248458702465,
    4.360160653729));
#452 = VECTOR('',#453,1.);
#453 = DIRECTION('',(-0.937036943246,-0.34923024925,-9.00069006275E-14)
  );
#454 = ORIENTED_EDGE('',*,*,#348,.F.);
#455 = PLANE('',#456);
#456 = AXIS2_PLACEMENT_3D('',#457,#458,#459);
#457 = CARTESIAN_POINT('',(18.783425521913,10.061051313816,
    4.560160653729));
#458 = DIRECTION('',(-0.246943077441,0.662585176792,0.707106781187));
#459 = DIRECTION('',(0.937036943246,0.34923024925,9.414691248821E-14));
#460 = ADVANCED_FACE('',(#461),#477,.T.);
#461 = FACE_BOUND('',#462,.T.);
#462 = EDGE_LOOP('',(#463,#469,#470,#476));
#463 = ORIENTED_EDGE('',*,*,#464,.T.);
#464 = EDGE_CURVE('',#319,#412,#465,.T.);
#465 = LINE('',#466,#467);
#466 = CARTESIAN_POINT('',(20.452281650196,-12.67153758979,
    4.360160653729));
#467 = VECTOR('',#468,1.);
#468 = DIRECTION('',(0.937036943248,0.349230249246,9.000690062757E-14));
#469 = ORIENTED_EDGE('',*,*,#428,.F.);
#470 = ORIENTED_EDGE('',*,*,#471,.T.);
#471 = EDGE_CURVE('',#421,#301,#472,.T.);
#472 = LINE('',#473,#474);
#473 = CARTESIAN_POINT('',(20.312589550497,-12.29672281249,
    4.760160653729));
#474 = VECTOR('',#475,1.);
#475 = DIRECTION('',(-0.937036943248,-0.349230249246,-9.000690062757E-14
    ));
#476 = ORIENTED_EDGE('',*,*,#326,.T.);
#477 = PLANE('',#478);
#478 = AXIS2_PLACEMENT_3D('',#479,#480,#481);
#479 = CARTESIAN_POINT('',(20.382435600346,-12.48413020114,
    4.560160653729));
#480 = DIRECTION('',(0.246943077437,-0.662585176793,0.707106781187));
#481 = DIRECTION('',(-0.937036943248,-0.349230249246,-9.434120151752E-14
    ));
#482 = ADVANCED_FACE('',(#483),#508,.T.);
#483 = FACE_BOUND('',#484,.T.);
#484 = EDGE_LOOP('',(#485,#486,#494,#502));
#485 = ORIENTED_EDGE('',*,*,#356,.F.);
#486 = ORIENTED_EDGE('',*,*,#487,.F.);
#487 = EDGE_CURVE('',#488,#349,#490,.T.);
#488 = VERTEX_POINT('',#489);
#489 = CARTESIAN_POINT('',(9.752984010895,6.908877473688,-1.439839346272
    ));
#490 = LINE('',#491,#492);
#491 = CARTESIAN_POINT('',(9.752984010895,6.908877473688,0.960160653728)
  );
#492 = VECTOR('',#493,1.);
#493 = DIRECTION('',(-8.973595510709E-14,-1.850862350881E-14,1.));
#494 = ORIENTED_EDGE('',*,*,#495,.F.);
#495 = EDGE_CURVE('',#496,#488,#498,.T.);
#496 = VERTEX_POINT('',#497);
#497 = CARTESIAN_POINT('',(7.635469946242,-5.664314415309,
    -1.439839346272));
#498 = LINE('',#499,#500);
#499 = CARTESIAN_POINT('',(9.752984010895,6.908877473688,-1.439839346272
    ));
#500 = VECTOR('',#501,1.);
#501 = DIRECTION('',(0.166076204006,0.98611292176,3.326730597878E-14));
#502 = ORIENTED_EDGE('',*,*,#503,.F.);
#503 = EDGE_CURVE('',#311,#496,#504,.T.);
#504 = LINE('',#505,#506);
#505 = CARTESIAN_POINT('',(7.635469946242,-5.664314415309,0.960160653728
    ));
#506 = VECTOR('',#507,1.);
#507 = DIRECTION('',(9.359760041013E-14,1.850862350881E-14,-1.));
#508 = PLANE('',#509);
#509 = AXIS2_PLACEMENT_3D('',#510,#511,#512);
#510 = CARTESIAN_POINT('',(9.752984010895,6.908877473688,0.960160653728)
  );
#511 = DIRECTION('',(-0.98611292176,0.166076204006,-8.54159429439E-14));
#512 = DIRECTION('',(-0.166076204006,-0.98611292176,-3.326730597878E-14)
  );
#513 = ADVANCED_FACE('',(#514),#532,.T.);
#514 = FACE_BOUND('',#515,.T.);
#515 = EDGE_LOOP('',(#516,#517,#525,#531));
#516 = ORIENTED_EDGE('',*,*,#449,.F.);
#517 = ORIENTED_EDGE('',*,*,#518,.T.);
#518 = EDGE_CURVE('',#390,#519,#521,.T.);
#519 = VERTEX_POINT('',#520);
#520 = CARTESIAN_POINT('',(21.700444625795,11.361652445394,
    -1.43983934627));
#521 = LINE('',#522,#523);
#522 = CARTESIAN_POINT('',(21.700444625795,11.361652445394,0.96016065373
    ));
#523 = VECTOR('',#524,1.);
#524 = DIRECTION('',(9.359760041013E-14,1.850862350881E-14,-1.));
#525 = ORIENTED_EDGE('',*,*,#526,.F.);
#526 = EDGE_CURVE('',#488,#519,#527,.T.);
#527 = LINE('',#528,#529);
#528 = CARTESIAN_POINT('',(21.700444625795,11.361652445394,
    -1.43983934627));
#529 = VECTOR('',#530,1.);
#530 = DIRECTION('',(0.937036943246,0.34923024925,9.194780587778E-14));
#531 = ORIENTED_EDGE('',*,*,#487,.T.);
#532 = PLANE('',#533);
#533 = AXIS2_PLACEMENT_3D('',#534,#535,#536);
#534 = CARTESIAN_POINT('',(21.700444625795,11.361652445394,0.96016065373
    ));
#535 = DIRECTION('',(-0.34923024925,0.937036943246,-1.399524597239E-14)
  );
#536 = DIRECTION('',(-0.937036943246,-0.34923024925,-9.194780587778E-14)
  );
#537 = ADVANCED_FACE('',(#538),#556,.T.);
#538 = FACE_BOUND('',#539,.T.);
#539 = EDGE_LOOP('',(#540,#541,#549,#555));
#540 = ORIENTED_EDGE('',*,*,#389,.F.);
#541 = ORIENTED_EDGE('',*,*,#542,.T.);
#542 = EDGE_CURVE('',#382,#543,#545,.T.);
#543 = VERTEX_POINT('',#544);
#544 = CARTESIAN_POINT('',(31.530391176074,3.241235528003,-1.43983934627
    ));
#545 = LINE('',#546,#547);
#546 = CARTESIAN_POINT('',(31.530391176074,3.241235528003,0.96016065373)
  );
#547 = VECTOR('',#548,1.);
#548 = DIRECTION('',(9.359760041013E-14,1.850862350881E-14,-1.));
#549 = ORIENTED_EDGE('',*,*,#550,.F.);
#550 = EDGE_CURVE('',#519,#543,#551,.T.);
#551 = LINE('',#552,#553);
#552 = CARTESIAN_POINT('',(31.530391176074,3.241235528003,-1.43983934627
    ));
#553 = VECTOR('',#554,1.);
#554 = DIRECTION('',(0.770960739243,-0.636882672512,5.866805102863E-14)
  );
#555 = ORIENTED_EDGE('',*,*,#518,.F.);
#556 = PLANE('',#557);
#557 = AXIS2_PLACEMENT_3D('',#558,#559,#560);
#558 = CARTESIAN_POINT('',(31.530391176074,3.241235528003,0.96016065373)
  );
#559 = DIRECTION('',(0.636882672512,0.770960739243,7.142069697175E-14));
#560 = DIRECTION('',(-0.770960739243,0.636882672512,-5.866805102863E-14)
  );
#561 = ADVANCED_FACE('',(#562,#570,#604,#638),#672,.F.);
#562 = FACE_BOUND('',#563,.T.);
#563 = EDGE_LOOP('',(#564,#565,#566,#567,#568,#569));
#564 = ORIENTED_EDGE('',*,*,#371,.F.);
#565 = ORIENTED_EDGE('',*,*,#442,.F.);
#566 = ORIENTED_EDGE('',*,*,#340,.F.);
#567 = ORIENTED_EDGE('',*,*,#300,.F.);
#568 = ORIENTED_EDGE('',*,*,#471,.F.);
#569 = ORIENTED_EDGE('',*,*,#420,.F.);
#570 = FACE_BOUND('',#571,.T.);
#571 = EDGE_LOOP('',(#572,#582,#590,#598));
#572 = ORIENTED_EDGE('',*,*,#573,.F.);
#573 = EDGE_CURVE('',#574,#576,#578,.T.);
#574 = VERTEX_POINT('',#575);
#575 = CARTESIAN_POINT('',(11.935278038765,-7.320386316568,
    4.760160653728));
#576 = VERTEX_POINT('',#577);
#577 = CARTESIAN_POINT('',(14.848411124611,-7.298002368963,
    4.760160653729));
#578 = LINE('',#579,#580);
#579 = CARTESIAN_POINT('',(17.238913303778,-7.279634215518,
    4.760160653729));
#580 = VECTOR('',#581,1.);
#581 = DIRECTION('',(0.999970480875,7.683578535775E-03,
    8.929628894591E-14));
#582 = ORIENTED_EDGE('',*,*,#583,.F.);
#583 = EDGE_CURVE('',#584,#574,#586,.T.);
#584 = VERTEX_POINT('',#585);
#585 = CARTESIAN_POINT('',(20.232197114731,7.308703734836,4.760160653729
    ));
#586 = LINE('',#587,#588);
#587 = CARTESIAN_POINT('',(14.176623755424,-3.368455723402,
    4.760160653729));
#588 = VECTOR('',#589,1.);
#589 = DIRECTION('',(-0.493332152854,-0.869841012462,-6.008343066492E-14
    ));
#590 = ORIENTED_EDGE('',*,*,#591,.F.);
#591 = EDGE_CURVE('',#592,#584,#594,.T.);
#592 = VERTEX_POINT('',#593);
#593 = CARTESIAN_POINT('',(23.145330200566,7.331087682422,4.76016065373)
  );
#594 = LINE('',#595,#596);
#595 = CARTESIAN_POINT('',(19.874850990916,7.305957956779,4.760160653729
    ));
#596 = VECTOR('',#597,1.);
#597 = DIRECTION('',(-0.999970480875,-7.683578529199E-03,
    -8.929628894579E-14));
#598 = ORIENTED_EDGE('',*,*,#599,.F.);
#599 = EDGE_CURVE('',#576,#592,#600,.T.);
#600 = LINE('',#601,#602);
#601 = CARTESIAN_POINT('',(20.87891944153,3.334962520318,4.760160653729)
  );
#602 = VECTOR('',#603,1.);
#603 = DIRECTION('',(0.493332152854,0.869841012462,6.008343066492E-14));
#604 = FACE_BOUND('',#605,.T.);
#605 = EDGE_LOOP('',(#606,#616,#624,#632));
#606 = ORIENTED_EDGE('',*,*,#607,.F.);
#607 = EDGE_CURVE('',#608,#610,#612,.T.);
#608 = VERTEX_POINT('',#609);
#609 = CARTESIAN_POINT('',(23.276545266459,3.907673640438,4.76016065373)
  );
#610 = VERTEX_POINT('',#611);
#611 = CARTESIAN_POINT('',(27.009535425316,-2.444805324558,4.76016065373
    ));
#612 = LINE('',#613,#614);
#613 = CARTESIAN_POINT('',(25.787039269606,-0.364467369336,4.76016065373
    ));
#614 = VECTOR('',#615,1.);
#615 = DIRECTION('',(0.506640735991,-0.862157273723,2.921307593286E-14)
  );
#616 = ORIENTED_EDGE('',*,*,#617,.F.);
#617 = EDGE_CURVE('',#618,#608,#620,.T.);
#618 = VERTEX_POINT('',#619);
#619 = CARTESIAN_POINT('',(24.713684295248,6.4416239886,4.76016065373));
#620 = LINE('',#621,#622);
#621 = CARTESIAN_POINT('',(21.728692537158,1.178513911459,4.760160653729
    ));
#622 = VECTOR('',#623,1.);
#623 = DIRECTION('',(-0.493333134442,-0.869840455751,-6.008350787616E-14
    ));
#624 = ORIENTED_EDGE('',*,*,#625,.F.);
#625 = EDGE_CURVE('',#626,#618,#628,.T.);
#626 = VERTEX_POINT('',#627);
#627 = CARTESIAN_POINT('',(28.446674454108,8.914502359497E-02,
    4.76016065373));
#628 = LINE('',#629,#630);
#629 = CARTESIAN_POINT('',(25.726657139956,4.717834636288,4.76016065373)
  );
#630 = VECTOR('',#631,1.);
#631 = DIRECTION('',(-0.506640735991,0.862157273723,-2.921307593283E-14)
  );
#632 = ORIENTED_EDGE('',*,*,#633,.F.);
#633 = EDGE_CURVE('',#610,#626,#634,.T.);
#634 = LINE('',#635,#636);
#635 = CARTESIAN_POINT('',(27.088980591373,-2.304728336766,4.76016065373
    ));
#636 = VECTOR('',#637,1.);
#637 = DIRECTION('',(0.493333134444,0.86984045575,6.008350787633E-14));
#638 = FACE_BOUND('',#639,.T.);
#639 = EDGE_LOOP('',(#640,#650,#658,#666));
#640 = ORIENTED_EDGE('',*,*,#641,.F.);
#641 = EDGE_CURVE('',#642,#644,#646,.T.);
#642 = VERTEX_POINT('',#643);
#643 = CARTESIAN_POINT('',(25.735346766825,-4.6914430751,4.76016065373)
  );
#644 = VERTEX_POINT('',#645);
#645 = CARTESIAN_POINT('',(18.367416691727,-4.748056815728,
    4.760160653729));
#646 = LINE('',#647,#648);
#647 = CARTESIAN_POINT('',(18.988723899503,-4.743282812073,
    4.760160653729));
#648 = VECTOR('',#649,1.);
#649 = DIRECTION('',(-0.999970480875,-7.683578544177E-03,
    -8.929628894606E-14));
#650 = ORIENTED_EDGE('',*,*,#651,.F.);
#651 = EDGE_CURVE('',#652,#642,#654,.T.);
#652 = VERTEX_POINT('',#653);
#653 = CARTESIAN_POINT('',(24.298208565245,-7.22539196472,4.760160653729
    ));
#654 = LINE('',#655,#656);
#655 = CARTESIAN_POINT('',(25.733316747742,-4.69502238612,4.76016065373)
  );
#656 = VECTOR('',#657,1.);
#657 = DIRECTION('',(0.493333134445,0.86984045575,6.008350787634E-14));
#658 = ORIENTED_EDGE('',*,*,#659,.F.);
#659 = EDGE_CURVE('',#660,#652,#662,.T.);
#660 = VERTEX_POINT('',#661);
#661 = CARTESIAN_POINT('',(16.930278490155,-7.282005705348,
    4.760160653729));
#662 = LINE('',#663,#664);
#663 = CARTESIAN_POINT('',(21.96381202412,-7.243329013383,4.760160653729
    ));
#664 = VECTOR('',#665,1.);
#665 = DIRECTION('',(0.999970480875,7.683578544161E-03,
    8.929628894606E-14));
#666 = ORIENTED_EDGE('',*,*,#667,.F.);
#667 = EDGE_CURVE('',#644,#660,#668,.T.);
#668 = LINE('',#669,#670);
#669 = CARTESIAN_POINT('',(18.555559149024,-4.416325761444,
    4.760160653729));
#670 = VECTOR('',#671,1.);
#671 = DIRECTION('',(-0.493333134442,-0.869840455751,-6.008350787616E-14
    ));
#672 = PLANE('',#673);
#673 = AXIS2_PLACEMENT_3D('',#674,#675,#676);
#674 = CARTESIAN_POINT('',(19.582930561157,-1.21153944366,4.760160653729
    ));
#675 = DIRECTION('',(8.915670831163E-14,1.850862350881E-14,-1.));
#676 = DIRECTION('',(-2.128501617345E-14,1.,1.850862350881E-14));
#677 = ADVANCED_FACE('',(#678,#705),#732,.T.);
#678 = FACE_BOUND('',#679,.T.);
#679 = EDGE_LOOP('',(#680,#681,#682,#690,#698,#704));
#680 = ORIENTED_EDGE('',*,*,#526,.T.);
#681 = ORIENTED_EDGE('',*,*,#550,.T.);
#682 = ORIENTED_EDGE('',*,*,#683,.T.);
#683 = EDGE_CURVE('',#543,#684,#686,.T.);
#684 = VERTEX_POINT('',#685);
#685 = CARTESIAN_POINT('',(29.412877111368,-9.331956361066,
    -1.43983934627));
#686 = LINE('',#687,#688);
#687 = CARTESIAN_POINT('',(29.412877111368,-9.331956361066,
    -1.43983934627));
#688 = VECTOR('',#689,1.);
#689 = DIRECTION('',(-0.166076204009,-0.98611292176,-3.330527841249E-14)
  );
#690 = ORIENTED_EDGE('',*,*,#691,.T.);
#691 = EDGE_CURVE('',#684,#692,#694,.T.);
#692 = VERTEX_POINT('',#693);
#693 = CARTESIAN_POINT('',(17.465416496455,-13.78473133271,
    -1.439839346271));
#694 = LINE('',#695,#696);
#695 = CARTESIAN_POINT('',(17.465416496455,-13.78473133271,
    -1.439839346271));
#696 = VECTOR('',#697,1.);
#697 = DIRECTION('',(-0.937036943248,-0.349230249246,-9.18984249473E-14)
  );
#698 = ORIENTED_EDGE('',*,*,#699,.T.);
#699 = EDGE_CURVE('',#692,#496,#700,.T.);
#700 = LINE('',#701,#702);
#701 = CARTESIAN_POINT('',(7.635469946242,-5.664314415309,
    -1.439839346272));
#702 = VECTOR('',#703,1.);
#703 = DIRECTION('',(-0.77096073924,0.636882672515,-5.867945952543E-14)
  );
#704 = ORIENTED_EDGE('',*,*,#495,.T.);
#705 = FACE_BOUND('',#706,.T.);
#706 = EDGE_LOOP('',(#707,#708,#709,#710,#718,#726));
#707 = ORIENTED_EDGE('',*,*,#216,.T.);
#708 = ORIENTED_EDGE('',*,*,#247,.T.);
#709 = ORIENTED_EDGE('',*,*,#271,.T.);
#710 = ORIENTED_EDGE('',*,*,#711,.T.);
#711 = EDGE_CURVE('',#264,#712,#714,.T.);
#712 = VERTEX_POINT('',#713);
#713 = CARTESIAN_POINT('',(28.478136891665,-8.559777157987,
    -1.43983934627));
#714 = LINE('',#715,#716);
#715 = CARTESIAN_POINT('',(20.369614117486,-11.58179400572,
    -1.439839346271));
#716 = VECTOR('',#717,1.);
#717 = DIRECTION('',(0.937036943248,0.349230249246,9.18984249473E-14));
#718 = ORIENTED_EDGE('',*,*,#719,.T.);
#719 = EDGE_CURVE('',#712,#720,#722,.T.);
#720 = VERTEX_POINT('',#721);
#721 = CARTESIAN_POINT('',(30.39429426008,2.817816353338,-1.43983934627)
  );
#722 = LINE('',#723,#724);
#723 = CARTESIAN_POINT('',(28.957176233766,-5.715378780169,
    -1.43983934627));
#724 = VECTOR('',#725,1.);
#725 = DIRECTION('',(0.166076204009,0.98611292176,3.321896542197E-14));
#726 = ORIENTED_EDGE('',*,*,#727,.T.);
#727 = EDGE_CURVE('',#720,#217,#728,.T.);
#728 = LINE('',#729,#730);
#729 = CARTESIAN_POINT('',(28.170492677434,4.65487578192,-1.43983934627)
  );
#730 = VECTOR('',#731,1.);
#731 = DIRECTION('',(-0.770960739243,0.636882672512,-5.867945952573E-14)
  );
#732 = PLANE('',#733);
#733 = AXIS2_PLACEMENT_3D('',#734,#735,#736);
#734 = CARTESIAN_POINT('',(19.582930561158,-1.21153944366,
    -1.439839346271));
#735 = DIRECTION('',(9.359760041013E-14,1.850862350881E-14,-1.));
#736 = DIRECTION('',(-2.128501617345E-14,1.,1.850862350881E-14));
#737 = ADVANCED_FACE('',(#738),#749,.F.);
#738 = FACE_BOUND('',#739,.T.);
#739 = EDGE_LOOP('',(#740,#741,#742,#743));
#740 = ORIENTED_EDGE('',*,*,#123,.F.);
#741 = ORIENTED_EDGE('',*,*,#224,.F.);
#742 = ORIENTED_EDGE('',*,*,#727,.F.);
#743 = ORIENTED_EDGE('',*,*,#744,.T.);
#744 = EDGE_CURVE('',#720,#93,#745,.T.);
#745 = LINE('',#746,#747);
#746 = CARTESIAN_POINT('',(30.39429426008,2.817816353338,0.96016065373)
  );
#747 = VECTOR('',#748,1.);
#748 = DIRECTION('',(-9.359760041013E-14,-1.850862350881E-14,1.));
#749 = PLANE('',#750);
#750 = AXIS2_PLACEMENT_3D('',#751,#752,#753);
#751 = CARTESIAN_POINT('',(30.39429426008,2.817816353338,0.96016065373)
  );
#752 = DIRECTION('',(0.636882672512,0.770960739243,7.388011195264E-14));
#753 = DIRECTION('',(-0.770960739243,0.636882672512,-5.844757017448E-14)
  );
#754 = ADVANCED_FACE('',(#755),#766,.F.);
#755 = FACE_BOUND('',#756,.T.);
#756 = EDGE_LOOP('',(#757,#758,#759,#760));
#757 = ORIENTED_EDGE('',*,*,#92,.F.);
#758 = ORIENTED_EDGE('',*,*,#744,.F.);
#759 = ORIENTED_EDGE('',*,*,#719,.F.);
#760 = ORIENTED_EDGE('',*,*,#761,.T.);
#761 = EDGE_CURVE('',#712,#70,#762,.T.);
#762 = LINE('',#763,#764);
#763 = CARTESIAN_POINT('',(28.478136891665,-8.559777157987,0.96016065373
    ));
#764 = VECTOR('',#765,1.);
#765 = DIRECTION('',(-9.359760041013E-14,-1.850862350881E-14,1.));
#766 = PLANE('',#767);
#767 = AXIS2_PLACEMENT_3D('',#768,#769,#770);
#768 = CARTESIAN_POINT('',(28.478136891665,-8.559777157987,0.96016065373
    ));
#769 = DIRECTION('',(0.98611292176,-0.166076204009,8.922396127638E-14));
#770 = DIRECTION('',(0.166076204009,0.98611292176,3.340599828341E-14));
#771 = ADVANCED_FACE('',(#772),#778,.F.);
#772 = FACE_BOUND('',#773,.T.);
#773 = EDGE_LOOP('',(#774,#775,#776,#777));
#774 = ORIENTED_EDGE('',*,*,#77,.F.);
#775 = ORIENTED_EDGE('',*,*,#761,.F.);
#776 = ORIENTED_EDGE('',*,*,#711,.F.);
#777 = ORIENTED_EDGE('',*,*,#263,.T.);
#778 = PLANE('',#779);
#779 = AXIS2_PLACEMENT_3D('',#780,#781,#782);
#780 = CARTESIAN_POINT('',(17.666773192743,-12.58913295497,
    0.960160653729));
#781 = DIRECTION('',(0.349230249246,-0.937036943248,1.534384932365E-14)
  );
#782 = DIRECTION('',(0.937036943248,0.349230249246,9.177601096911E-14));
#783 = ADVANCED_FACE('',(#784),#795,.T.);
#784 = FACE_BOUND('',#785,.T.);
#785 = EDGE_LOOP('',(#786,#787,#793,#794));
#786 = ORIENTED_EDGE('',*,*,#411,.F.);
#787 = ORIENTED_EDGE('',*,*,#788,.T.);
#788 = EDGE_CURVE('',#412,#684,#789,.T.);
#789 = LINE('',#790,#791);
#790 = CARTESIAN_POINT('',(29.412877111368,-9.331956361066,0.96016065373
    ));
#791 = VECTOR('',#792,1.);
#792 = DIRECTION('',(9.359760041013E-14,1.850862350881E-14,-1.));
#793 = ORIENTED_EDGE('',*,*,#683,.F.);
#794 = ORIENTED_EDGE('',*,*,#542,.F.);
#795 = PLANE('',#796);
#796 = AXIS2_PLACEMENT_3D('',#797,#798,#799);
#797 = CARTESIAN_POINT('',(29.412877111368,-9.331956361066,0.96016065373
    ));
#798 = DIRECTION('',(0.98611292176,-0.166076204009,8.541594294379E-14));
#799 = DIRECTION('',(0.166076204009,0.98611292176,3.330527841249E-14));
#800 = ADVANCED_FACE('',(#801),#812,.T.);
#801 = FACE_BOUND('',#802,.T.);
#802 = EDGE_LOOP('',(#803,#804,#810,#811));
#803 = ORIENTED_EDGE('',*,*,#464,.F.);
#804 = ORIENTED_EDGE('',*,*,#805,.T.);
#805 = EDGE_CURVE('',#319,#692,#806,.T.);
#806 = LINE('',#807,#808);
#807 = CARTESIAN_POINT('',(17.465416496454,-13.78473133271,
    0.960160653729));
#808 = VECTOR('',#809,1.);
#809 = DIRECTION('',(9.359760041013E-14,1.850862350881E-14,-1.));
#810 = ORIENTED_EDGE('',*,*,#691,.F.);
#811 = ORIENTED_EDGE('',*,*,#788,.F.);
#812 = PLANE('',#813);
#813 = AXIS2_PLACEMENT_3D('',#814,#815,#816);
#814 = CARTESIAN_POINT('',(17.465416496454,-13.78473133271,
    0.960160653729));
#815 = DIRECTION('',(0.349230249246,-0.937036943248,1.399524597196E-14)
  );
#816 = DIRECTION('',(0.937036943248,0.349230249246,9.18984249473E-14));
#817 = ADVANCED_FACE('',(#818),#824,.T.);
#818 = FACE_BOUND('',#819,.T.);
#819 = EDGE_LOOP('',(#820,#821,#822,#823));
#820 = ORIENTED_EDGE('',*,*,#318,.F.);
#821 = ORIENTED_EDGE('',*,*,#503,.T.);
#822 = ORIENTED_EDGE('',*,*,#699,.F.);
#823 = ORIENTED_EDGE('',*,*,#805,.F.);
#824 = PLANE('',#825);
#825 = AXIS2_PLACEMENT_3D('',#826,#827,#828);
#826 = CARTESIAN_POINT('',(7.635469946242,-5.664314415309,0.960160653728
    ));
#827 = DIRECTION('',(-0.636882672515,-0.77096073924,-7.142069697198E-14)
  );
#828 = DIRECTION('',(0.77096073924,-0.636882672515,5.867945952543E-14));
#829 = ADVANCED_FACE('',(#830),#855,.F.);
#830 = FACE_BOUND('',#831,.T.);
#831 = EDGE_LOOP('',(#832,#833,#841,#849));
#832 = ORIENTED_EDGE('',*,*,#667,.T.);
#833 = ORIENTED_EDGE('',*,*,#834,.F.);
#834 = EDGE_CURVE('',#835,#660,#837,.T.);
#835 = VERTEX_POINT('',#836);
#836 = CARTESIAN_POINT('',(16.930278490154,-7.282005705347,
    8.360160653731));
#837 = LINE('',#838,#839);
#838 = CARTESIAN_POINT('',(16.930278490156,-7.282005705348,
    0.760160653731));
#839 = VECTOR('',#840,1.);
#840 = DIRECTION('',(2.712332843502E-13,-1.147181394462E-13,-1.));
#841 = ORIENTED_EDGE('',*,*,#842,.T.);
#842 = EDGE_CURVE('',#835,#843,#845,.T.);
#843 = VERTEX_POINT('',#844);
#844 = CARTESIAN_POINT('',(18.367416691726,-4.748056815728,
    8.360160653731));
#845 = LINE('',#846,#847);
#846 = CARTESIAN_POINT('',(18.583553755916,-4.366965927453,
    8.360160653731));
#847 = VECTOR('',#848,1.);
#848 = DIRECTION('',(0.493333134442,0.869840455751,3.640615062107E-14));
#849 = ORIENTED_EDGE('',*,*,#850,.T.);
#850 = EDGE_CURVE('',#843,#644,#851,.T.);
#851 = LINE('',#852,#853);
#852 = CARTESIAN_POINT('',(18.367416691728,-4.748056815729,
    0.760160653731));
#853 = VECTOR('',#854,1.);
#854 = DIRECTION('',(2.712332843502E-13,-1.147181394462E-13,-1.));
#855 = PLANE('',#856);
#856 = AXIS2_PLACEMENT_3D('',#857,#858,#859);
#857 = CARTESIAN_POINT('',(16.930278490156,-7.282005705348,
    0.760160653731));
#858 = DIRECTION('',(0.869840455751,-0.493333134442,2.932739551998E-13)
  );
#859 = DIRECTION('',(0.493333134442,0.869840455751,3.743310691884E-14));
#860 = ADVANCED_FACE('',(#861),#879,.F.);
#861 = FACE_BOUND('',#862,.T.);
#862 = EDGE_LOOP('',(#863,#864,#872,#878));
#863 = ORIENTED_EDGE('',*,*,#659,.T.);
#864 = ORIENTED_EDGE('',*,*,#865,.T.);
#865 = EDGE_CURVE('',#652,#866,#868,.T.);
#866 = VERTEX_POINT('',#867);
#867 = CARTESIAN_POINT('',(24.298208565244,-7.225391964719,
    8.360160653733));
#868 = LINE('',#869,#870);
#869 = CARTESIAN_POINT('',(24.298208565246,-7.22539196472,0.760160653733
    ));
#870 = VECTOR('',#871,1.);
#871 = DIRECTION('',(-2.732316857945E-13,1.130435103609E-13,1.));
#872 = ORIENTED_EDGE('',*,*,#873,.T.);
#873 = EDGE_CURVE('',#866,#835,#874,.T.);
#874 = LINE('',#875,#876);
#875 = CARTESIAN_POINT('',(22.101039268927,-7.242274585943,
    8.360160653733));
#876 = VECTOR('',#877,1.);
#877 = DIRECTION('',(-0.999970480875,-7.683578544161E-03,
    -2.722054011618E-13));
#878 = ORIENTED_EDGE('',*,*,#834,.T.);
#879 = PLANE('',#880);
#880 = AXIS2_PLACEMENT_3D('',#881,#882,#883);
#881 = CARTESIAN_POINT('',(24.298208565246,-7.22539196472,0.760160653733
    ));
#882 = DIRECTION('',(-7.683578544161E-03,0.999970480875,
    -1.151802438827E-13));
#883 = DIRECTION('',(-0.999970480875,-7.683578544161E-03,
    -2.726494903717E-13));
#884 = ADVANCED_FACE('',(#885),#903,.F.);
#885 = FACE_BOUND('',#886,.T.);
#886 = EDGE_LOOP('',(#887,#888,#896,#902));
#887 = ORIENTED_EDGE('',*,*,#651,.T.);
#888 = ORIENTED_EDGE('',*,*,#889,.T.);
#889 = EDGE_CURVE('',#642,#890,#892,.T.);
#890 = VERTEX_POINT('',#891);
#891 = CARTESIAN_POINT('',(25.735346766824,-4.6914430751,8.360160653733)
  );
#892 = LINE('',#893,#894);
#893 = CARTESIAN_POINT('',(25.735346766826,-4.6914430751,0.760160653733)
  );
#894 = VECTOR('',#895,1.);
#895 = DIRECTION('',(-2.732316857945E-13,1.130435103609E-13,1.));
#896 = ORIENTED_EDGE('',*,*,#897,.T.);
#897 = EDGE_CURVE('',#890,#866,#898,.T.);
#898 = LINE('',#899,#900);
#899 = CARTESIAN_POINT('',(25.761311354634,-4.645662552128,
    8.360160653733));
#900 = VECTOR('',#901,1.);
#901 = DIRECTION('',(-0.493333134445,-0.86984045575,-3.637839504564E-14)
  );
#902 = ORIENTED_EDGE('',*,*,#865,.F.);
#903 = PLANE('',#904);
#904 = AXIS2_PLACEMENT_3D('',#905,#906,#907);
#905 = CARTESIAN_POINT('',(25.735346766826,-4.6914430751,0.760160653733)
  );
#906 = DIRECTION('',(-0.86984045575,0.493333134445,-2.932739551996E-13)
  );
#907 = DIRECTION('',(-0.493333134445,-0.86984045575,-3.729432904095E-14)
  );
#908 = ADVANCED_FACE('',(#909),#920,.F.);
#909 = FACE_BOUND('',#910,.T.);
#910 = EDGE_LOOP('',(#911,#912,#913,#919));
#911 = ORIENTED_EDGE('',*,*,#641,.T.);
#912 = ORIENTED_EDGE('',*,*,#850,.F.);
#913 = ORIENTED_EDGE('',*,*,#914,.T.);
#914 = EDGE_CURVE('',#843,#890,#915,.T.);
#915 = LINE('',#916,#917);
#916 = CARTESIAN_POINT('',(19.12595114431,-4.742228384633,8.360160653732
    ));
#917 = VECTOR('',#918,1.);
#918 = DIRECTION('',(0.999970480875,7.683578544177E-03,
    2.722054011618E-13));
#919 = ORIENTED_EDGE('',*,*,#889,.F.);
#920 = PLANE('',#921);
#921 = AXIS2_PLACEMENT_3D('',#922,#923,#924);
#922 = CARTESIAN_POINT('',(18.367416691728,-4.748056815729,
    0.760160653731));
#923 = DIRECTION('',(7.683578544177E-03,-0.999970480875,
    1.151802438827E-13));
#924 = DIRECTION('',(0.999970480875,7.683578544177E-03,
    2.726494903717E-13));
#925 = ADVANCED_FACE('',(#926),#960,.F.);
#926 = FACE_BOUND('',#927,.T.);
#927 = EDGE_LOOP('',(#928,#938,#946,#954));
#928 = ORIENTED_EDGE('',*,*,#929,.T.);
#929 = EDGE_CURVE('',#930,#932,#934,.T.);
#930 = VERTEX_POINT('',#931);
#931 = CARTESIAN_POINT('',(17.620006832417,-6.876694159013,
    8.760160653731));
#932 = VERTEX_POINT('',#933);
#933 = CARTESIAN_POINT('',(24.064202477333,-6.827178213954,
    8.760160653733));
#934 = LINE('',#935,#936);
#935 = CARTESIAN_POINT('',(22.097965837509,-6.842286393593,
    8.760160653733));
#936 = VECTOR('',#937,1.);
#937 = DIRECTION('',(0.999970480875,7.683578544161E-03,
    2.722054011618E-13));
#938 = ORIENTED_EDGE('',*,*,#939,.T.);
#939 = EDGE_CURVE('',#932,#940,#942,.T.);
#940 = VERTEX_POINT('',#941);
#941 = CARTESIAN_POINT('',(25.045618424559,-5.096754621434,
    8.760160653733));
#942 = LINE('',#943,#944);
#943 = CARTESIAN_POINT('',(25.413375172334,-4.44832929835,8.760160653733
    ));
#944 = VECTOR('',#945,1.);
#945 = DIRECTION('',(0.493333134445,0.86984045575,3.637839504564E-14));
#946 = ORIENTED_EDGE('',*,*,#947,.T.);
#947 = EDGE_CURVE('',#940,#948,#950,.T.);
#948 = VERTEX_POINT('',#949);
#949 = CARTESIAN_POINT('',(18.601422779637,-5.146270566493,
    8.760160653732));
#950 = LINE('',#951,#952);
#951 = CARTESIAN_POINT('',(19.129024575728,-5.142216576982,
    8.760160653732));
#952 = VECTOR('',#953,1.);
#953 = DIRECTION('',(-0.999970480875,-7.683578544177E-03,
    -2.722054011618E-13));
#954 = ORIENTED_EDGE('',*,*,#955,.T.);
#955 = EDGE_CURVE('',#948,#930,#956,.T.);
#956 = LINE('',#957,#958);
#957 = CARTESIAN_POINT('',(18.931489938217,-4.56429918123,8.760160653732
    ));
#958 = VECTOR('',#959,1.);
#959 = DIRECTION('',(-0.493333134442,-0.869840455751,-3.640615062107E-14
    ));
#960 = PLANE('',#961);
#961 = AXIS2_PLACEMENT_3D('',#962,#963,#964);
#962 = CARTESIAN_POINT('',(19.857595679326,-1.2368425992,8.760160653731)
  );
#963 = DIRECTION('',(2.732316857945E-13,-1.130435103609E-13,-1.));
#964 = DIRECTION('',(0.866025403784,0.5,1.801038258364E-13));
#965 = ADVANCED_FACE('',(#966),#982,.F.);
#966 = FACE_BOUND('',#967,.T.);
#967 = EDGE_LOOP('',(#968,#969,#975,#976));
#968 = ORIENTED_EDGE('',*,*,#842,.F.);
#969 = ORIENTED_EDGE('',*,*,#970,.F.);
#970 = EDGE_CURVE('',#930,#835,#971,.T.);
#971 = LINE('',#972,#973);
#972 = CARTESIAN_POINT('',(17.620006832417,-6.876694159013,
    8.760160653731));
#973 = VECTOR('',#974,1.);
#974 = DIRECTION('',(-0.771138459343,-0.45315133835,-0.447212858798));
#975 = ORIENTED_EDGE('',*,*,#955,.F.);
#976 = ORIENTED_EDGE('',*,*,#977,.T.);
#977 = EDGE_CURVE('',#948,#843,#978,.T.);
#978 = LINE('',#979,#980);
#979 = CARTESIAN_POINT('',(18.601422779637,-5.146270566493,
    8.760160653732));
#980 = VECTOR('',#981,1.);
#981 = DIRECTION('',(-0.382982511259,0.651730489782,-0.654653927475));
#982 = PLANE('',#983);
#983 = AXIS2_PLACEMENT_3D('',#984,#985,#986);
#984 = CARTESIAN_POINT('',(18.757521847066,-4.465632554341,
    8.560160653732));
#985 = DIRECTION('',(0.615070084812,-0.348839204748,-0.707106781186));
#986 = DIRECTION('',(-0.493333134442,-0.869840455751,-6.644684802382E-14
    ));
#987 = ADVANCED_FACE('',(#988),#999,.F.);
#988 = FACE_BOUND('',#989,.T.);
#989 = EDGE_LOOP('',(#990,#991,#997,#998));
#990 = ORIENTED_EDGE('',*,*,#947,.F.);
#991 = ORIENTED_EDGE('',*,*,#992,.T.);
#992 = EDGE_CURVE('',#940,#890,#993,.T.);
#993 = LINE('',#994,#995);
#994 = CARTESIAN_POINT('',(25.045618424559,-5.096754621434,
    8.760160653733));
#995 = VECTOR('',#996,1.);
#996 = DIRECTION('',(0.771138459344,0.453151338349,-0.447212858797));
#997 = ORIENTED_EDGE('',*,*,#914,.F.);
#998 = ORIENTED_EDGE('',*,*,#977,.F.);
#999 = PLANE('',#1000);
#1000 = AXIS2_PLACEMENT_3D('',#1001,#1002,#1003);
#1001 = CARTESIAN_POINT('',(19.127487860019,-4.942222480808,
    8.560160653732));
#1002 = DIRECTION('',(5.43311049256E-03,-0.707085908013,-0.707106781186)
  );
#1003 = DIRECTION('',(-0.999970480875,-7.683578543965E-03,
    -4.841257603139E-13));
#1004 = ADVANCED_FACE('',(#1005),#1016,.F.);
#1005 = FACE_BOUND('',#1006,.T.);
#1006 = EDGE_LOOP('',(#1007,#1008,#1014,#1015));
#1007 = ORIENTED_EDGE('',*,*,#939,.F.);
#1008 = ORIENTED_EDGE('',*,*,#1009,.T.);
#1009 = EDGE_CURVE('',#932,#866,#1010,.T.);
#1010 = LINE('',#1011,#1012);
#1011 = CARTESIAN_POINT('',(24.064202477333,-6.827178213954,
    8.760160653733));
#1012 = VECTOR('',#1013,1.);
#1013 = DIRECTION('',(0.382982511259,-0.651730489783,-0.654653927475));
#1014 = ORIENTED_EDGE('',*,*,#897,.F.);
#1015 = ORIENTED_EDGE('',*,*,#992,.F.);
#1016 = PLANE('',#1017);
#1017 = AXIS2_PLACEMENT_3D('',#1018,#1019,#1020);
#1018 = CARTESIAN_POINT('',(25.587343263484,-4.546995925239,
    8.560160653733));
#1019 = DIRECTION('',(-0.615070084811,0.34883920475,-0.707106781187));
#1020 = DIRECTION('',(0.493333134444,0.86984045575,6.689093723367E-14));
#1021 = ADVANCED_FACE('',(#1022),#1028,.F.);
#1022 = FACE_BOUND('',#1023,.T.);
#1023 = EDGE_LOOP('',(#1024,#1025,#1026,#1027));
#1024 = ORIENTED_EDGE('',*,*,#929,.F.);
#1025 = ORIENTED_EDGE('',*,*,#970,.T.);
#1026 = ORIENTED_EDGE('',*,*,#873,.F.);
#1027 = ORIENTED_EDGE('',*,*,#1009,.F.);
#1028 = PLANE('',#1029);
#1029 = AXIS2_PLACEMENT_3D('',#1030,#1031,#1032);
#1030 = CARTESIAN_POINT('',(22.099502553218,-7.042280489768,
    8.560160653733));
#1031 = DIRECTION('',(-5.433110492163E-03,0.707085908013,-0.707106781187
    ));
#1032 = DIRECTION('',(0.999970480875,7.683578544373E-03,
    4.840611418644E-13));
#1033 = ADVANCED_FACE('',(#1034),#1059,.F.);
#1034 = FACE_BOUND('',#1035,.T.);
#1035 = EDGE_LOOP('',(#1036,#1037,#1045,#1053));
#1036 = ORIENTED_EDGE('',*,*,#625,.T.);
#1037 = ORIENTED_EDGE('',*,*,#1038,.T.);
#1038 = EDGE_CURVE('',#618,#1039,#1041,.T.);
#1039 = VERTEX_POINT('',#1040);
#1040 = CARTESIAN_POINT('',(24.713684295247,6.4416239886,8.360160653732)
  );
#1041 = LINE('',#1042,#1043);
#1042 = CARTESIAN_POINT('',(24.713684295249,6.4416239886,0.760160653732)
  );
#1043 = VECTOR('',#1044,1.);
#1044 = DIRECTION('',(-2.732316857945E-13,1.130435103609E-13,1.));
#1045 = ORIENTED_EDGE('',*,*,#1046,.T.);
#1046 = EDGE_CURVE('',#1039,#1047,#1049,.T.);
#1047 = VERTEX_POINT('',#1048);
#1048 = CARTESIAN_POINT('',(28.446674454107,8.914502359543E-02,
    8.360160653734));
#1049 = LINE('',#1050,#1051);
#1050 = CARTESIAN_POINT('',(25.767434584996,4.648443116128,
    8.360160653732));
#1051 = VECTOR('',#1052,1.);
#1052 = DIRECTION('',(0.506640735991,-0.862157273723,2.358550716076E-13)
  );
#1053 = ORIENTED_EDGE('',*,*,#1054,.F.);
#1054 = EDGE_CURVE('',#626,#1047,#1055,.T.);
#1055 = LINE('',#1056,#1057);
#1056 = CARTESIAN_POINT('',(28.446674454109,8.914502359451E-02,
    0.760160653734));
#1057 = VECTOR('',#1058,1.);
#1058 = DIRECTION('',(-2.732316857945E-13,1.130435103609E-13,1.));
#1059 = PLANE('',#1060);
#1060 = AXIS2_PLACEMENT_3D('',#1061,#1062,#1063);
#1061 = CARTESIAN_POINT('',(24.713684295249,6.4416239886,0.760160653732)
  );
#1062 = DIRECTION('',(-0.862157273723,-0.506640735991,
    -1.782247827886E-13));
#1063 = DIRECTION('',(0.506640735991,-0.862157273723,2.368265167541E-13)
  );
#1064 = ADVANCED_FACE('',(#1065),#1083,.F.);
#1065 = FACE_BOUND('',#1066,.T.);
#1066 = EDGE_LOOP('',(#1067,#1068,#1069,#1077));
#1067 = ORIENTED_EDGE('',*,*,#633,.T.);
#1068 = ORIENTED_EDGE('',*,*,#1054,.T.);
#1069 = ORIENTED_EDGE('',*,*,#1070,.T.);
#1070 = EDGE_CURVE('',#1047,#1071,#1073,.T.);
#1071 = VERTEX_POINT('',#1072);
#1072 = CARTESIAN_POINT('',(27.009535425315,-2.444805324557,
    8.360160653734));
#1073 = LINE('',#1074,#1075);
#1074 = CARTESIAN_POINT('',(27.116975198266,-2.255368502775,
    8.360160653734));
#1075 = VECTOR('',#1076,1.);
#1076 = DIRECTION('',(-0.493333134444,-0.86984045575,-3.640615062125E-14
    ));
#1077 = ORIENTED_EDGE('',*,*,#1078,.F.);
#1078 = EDGE_CURVE('',#610,#1071,#1079,.T.);
#1079 = LINE('',#1080,#1081);
#1080 = CARTESIAN_POINT('',(27.009535425317,-2.444805324558,
    0.760160653734));
#1081 = VECTOR('',#1082,1.);
#1082 = DIRECTION('',(-2.732316857945E-13,1.130435103609E-13,1.));
#1083 = PLANE('',#1084);
#1084 = AXIS2_PLACEMENT_3D('',#1085,#1086,#1087);
#1085 = CARTESIAN_POINT('',(28.446674454109,8.914502359451E-02,
    0.760160653734));
#1086 = DIRECTION('',(-0.86984045575,0.493333134444,-2.933294663509E-13)
  );
#1087 = DIRECTION('',(-0.493333134444,-0.86984045575,-3.59620614114E-14)
  );
#1088 = ADVANCED_FACE('',(#1089),#1107,.F.);
#1089 = FACE_BOUND('',#1090,.T.);
#1090 = EDGE_LOOP('',(#1091,#1092,#1100,#1106));
#1091 = ORIENTED_EDGE('',*,*,#617,.T.);
#1092 = ORIENTED_EDGE('',*,*,#1093,.F.);
#1093 = EDGE_CURVE('',#1094,#608,#1096,.T.);
#1094 = VERTEX_POINT('',#1095);
#1095 = CARTESIAN_POINT('',(23.276545266458,3.907673640438,
    8.360160653732));
#1096 = LINE('',#1097,#1098);
#1097 = CARTESIAN_POINT('',(23.27654526646,3.907673640438,0.760160653732
    ));
#1098 = VECTOR('',#1099,1.);
#1099 = DIRECTION('',(2.712332843502E-13,-1.147181394462E-13,-1.));
#1100 = ORIENTED_EDGE('',*,*,#1101,.T.);
#1101 = EDGE_CURVE('',#1094,#1039,#1102,.T.);
#1102 = LINE('',#1103,#1104);
#1103 = CARTESIAN_POINT('',(21.75668714405,1.22787374545,8.360160653732)
  );
#1104 = VECTOR('',#1105,1.);
#1105 = DIRECTION('',(0.493333134442,0.869840455751,3.640615062107E-14)
  );
#1106 = ORIENTED_EDGE('',*,*,#1038,.F.);
#1107 = PLANE('',#1108);
#1108 = AXIS2_PLACEMENT_3D('',#1109,#1110,#1111);
#1109 = CARTESIAN_POINT('',(23.27654526646,3.907673640438,0.760160653732
    ));
#1110 = DIRECTION('',(0.869840455751,-0.493333134442,2.93329466351E-13)
  );
#1111 = DIRECTION('',(0.493333134442,0.869840455751,3.596206141122E-14)
  );
#1112 = ADVANCED_FACE('',(#1113),#1124,.F.);
#1113 = FACE_BOUND('',#1114,.T.);
#1114 = EDGE_LOOP('',(#1115,#1116,#1117,#1123));
#1115 = ORIENTED_EDGE('',*,*,#607,.T.);
#1116 = ORIENTED_EDGE('',*,*,#1078,.T.);
#1117 = ORIENTED_EDGE('',*,*,#1118,.T.);
#1118 = EDGE_CURVE('',#1071,#1094,#1119,.T.);
#1119 = LINE('',#1120,#1121);
#1120 = CARTESIAN_POINT('',(25.827816714646,-0.433858889497,
    8.360160653733));
#1121 = VECTOR('',#1122,1.);
#1122 = DIRECTION('',(-0.506640735991,0.862157273723,-2.35827316032E-13)
  );
#1123 = ORIENTED_EDGE('',*,*,#1093,.T.);
#1124 = PLANE('',#1125);
#1125 = AXIS2_PLACEMENT_3D('',#1126,#1127,#1128);
#1126 = CARTESIAN_POINT('',(27.009535425317,-2.444805324558,
    0.760160653734));
#1127 = DIRECTION('',(0.862157273723,0.506640735991,1.782247827886E-13)
  );
#1128 = DIRECTION('',(-0.506640735991,0.862157273723,-2.367432500273E-13
    ));
#1129 = ADVANCED_FACE('',(#1130),#1155,.F.);
#1130 = FACE_BOUND('',#1131,.T.);
#1131 = EDGE_LOOP('',(#1132,#1142,#1148,#1149));
#1132 = ORIENTED_EDGE('',*,*,#1133,.F.);
#1133 = EDGE_CURVE('',#1134,#1136,#1138,.T.);
#1134 = VERTEX_POINT('',#1135);
#1135 = CARTESIAN_POINT('',(27.003388921323,-1.644831646303,
    8.760160653733));
#1136 = VERTEX_POINT('',#1137);
#1137 = CARTESIAN_POINT('',(27.984807350197,8.5596321838E-02,
    8.760160653733));
#1138 = LINE('',#1139,#1140);
#1139 = CARTESIAN_POINT('',(26.769039015966,-2.058035248997,
    8.760160653733));
#1140 = VECTOR('',#1141,1.);
#1141 = DIRECTION('',(0.493333134444,0.86984045575,3.640615062125E-14));
#1142 = ORIENTED_EDGE('',*,*,#1143,.T.);
#1143 = EDGE_CURVE('',#1134,#1071,#1144,.T.);
#1144 = LINE('',#1145,#1146);
#1145 = CARTESIAN_POINT('',(27.003388921323,-1.644831646303,
    8.760160653733));
#1146 = VECTOR('',#1147,1.);
#1147 = DIRECTION('',(6.872018992286E-03,-0.894400185433,-0.447214807059
    ));
#1148 = ORIENTED_EDGE('',*,*,#1070,.F.);
#1149 = ORIENTED_EDGE('',*,*,#1150,.F.);
#1150 = EDGE_CURVE('',#1136,#1047,#1151,.T.);
#1151 = LINE('',#1152,#1153);
#1152 = CARTESIAN_POINT('',(27.984807350197,8.5596321838E-02,
    8.760160653733));
#1153 = VECTOR('',#1154,1.);
#1154 = DIRECTION('',(0.7559069998,5.80792283294E-03,-0.654653248434));
#1155 = PLANE('',#1156);
#1156 = AXIS2_PLACEMENT_3D('',#1157,#1158,#1159);
#1157 = CARTESIAN_POINT('',(26.943007107116,-2.156701875886,
    8.560160653733));
#1158 = DIRECTION('',(-0.615070084811,0.34883920475,-0.707106781187));
#1159 = DIRECTION('',(0.493333134444,0.86984045575,6.658562590189E-14));
#1160 = ADVANCED_FACE('',(#1161),#1179,.F.);
#1161 = FACE_BOUND('',#1162,.T.);
#1162 = EDGE_LOOP('',(#1163,#1171,#1172,#1173));
#1163 = ORIENTED_EDGE('',*,*,#1164,.F.);
#1164 = EDGE_CURVE('',#1136,#1165,#1167,.T.);
#1165 = VERTEX_POINT('',#1166);
#1166 = CARTESIAN_POINT('',(24.71983079924,5.641650310344,8.760160653732
    ));
#1167 = LINE('',#1168,#1169);
#1168 = CARTESIAN_POINT('',(25.422571675506,4.445786821732,
    8.760160653732));
#1169 = VECTOR('',#1170,1.);
#1170 = DIRECTION('',(-0.506640735991,0.862157273723,-2.358550716076E-13
    ));
#1171 = ORIENTED_EDGE('',*,*,#1150,.T.);
#1172 = ORIENTED_EDGE('',*,*,#1046,.F.);
#1173 = ORIENTED_EDGE('',*,*,#1174,.F.);
#1174 = EDGE_CURVE('',#1165,#1039,#1175,.T.);
#1175 = LINE('',#1176,#1177);
#1176 = CARTESIAN_POINT('',(24.71983079924,5.641650310344,8.760160653732
    ));
#1177 = VECTOR('',#1178,1.);
#1178 = DIRECTION('',(-6.872018993073E-03,0.894400185433,-0.447214807058
    ));
#1179 = PLANE('',#1180);
#1180 = AXIS2_PLACEMENT_3D('',#1181,#1182,#1183);
#1181 = CARTESIAN_POINT('',(25.595003130251,4.54711496893,8.560160653732
    ));
#1182 = DIRECTION('',(-0.609637254699,-0.358249100045,-0.707106781187));
#1183 = DIRECTION('',(-0.506640735991,0.862157273724,-4.173605905322E-13
    ));
#1184 = ADVANCED_FACE('',(#1185),#1203,.F.);
#1185 = FACE_BOUND('',#1186,.T.);
#1186 = EDGE_LOOP('',(#1187,#1195,#1196,#1197));
#1187 = ORIENTED_EDGE('',*,*,#1188,.F.);
#1188 = EDGE_CURVE('',#1165,#1189,#1191,.T.);
#1189 = VERTEX_POINT('',#1190);
#1190 = CARTESIAN_POINT('',(23.738412370368,3.911222342197,
    8.760160653732));
#1191 = LINE('',#1192,#1193);
#1192 = CARTESIAN_POINT('',(22.10462332635,1.030540491674,8.760160653732
    ));
#1193 = VECTOR('',#1194,1.);
#1194 = DIRECTION('',(-0.493333134442,-0.869840455751,
    -3.640615062107E-14));
#1195 = ORIENTED_EDGE('',*,*,#1174,.T.);
#1196 = ORIENTED_EDGE('',*,*,#1101,.F.);
#1197 = ORIENTED_EDGE('',*,*,#1198,.F.);
#1198 = EDGE_CURVE('',#1189,#1094,#1199,.T.);
#1199 = LINE('',#1200,#1201);
#1200 = CARTESIAN_POINT('',(23.738412370368,3.911222342197,
    8.760160653732));
#1201 = VECTOR('',#1202,1.);
#1202 = DIRECTION('',(-0.755906999799,-5.807922834218E-03,
    -0.654653248435));
#1203 = PLANE('',#1204);
#1204 = AXIS2_PLACEMENT_3D('',#1205,#1206,#1207);
#1205 = CARTESIAN_POINT('',(21.9306552352,1.129207118562,8.560160653732)
  );
#1206 = DIRECTION('',(0.615070084812,-0.348839204748,-0.707106781186));
#1207 = DIRECTION('',(-0.493333134442,-0.869840455751,
    -6.647460359943E-14));
#1208 = ADVANCED_FACE('',(#1209),#1220,.F.);
#1209 = FACE_BOUND('',#1210,.T.);
#1210 = EDGE_LOOP('',(#1211,#1212,#1213,#1219));
#1211 = ORIENTED_EDGE('',*,*,#1118,.F.);
#1212 = ORIENTED_EDGE('',*,*,#1143,.F.);
#1213 = ORIENTED_EDGE('',*,*,#1214,.F.);
#1214 = EDGE_CURVE('',#1189,#1134,#1215,.T.);
#1215 = LINE('',#1216,#1217);
#1216 = CARTESIAN_POINT('',(26.172679624135,-0.2312025951,8.760160653733
    ));
#1217 = VECTOR('',#1218,1.);
#1218 = DIRECTION('',(0.506640735991,-0.862157273723,2.35827316032E-13)
  );
#1219 = ORIENTED_EDGE('',*,*,#1198,.T.);
#1220 = PLANE('',#1221);
#1221 = AXIS2_PLACEMENT_3D('',#1222,#1223,#1224);
#1222 = CARTESIAN_POINT('',(26.00024816939,-0.332530742299,
    8.560160653733));
#1223 = DIRECTION('',(0.609637254699,0.358249100045,-0.707106781186));
#1224 = DIRECTION('',(0.506640735992,-0.862157273723,4.167777234443E-13)
  );
#1225 = ADVANCED_FACE('',(#1226),#1232,.F.);
#1226 = FACE_BOUND('',#1227,.T.);
#1227 = EDGE_LOOP('',(#1228,#1229,#1230,#1231));
#1228 = ORIENTED_EDGE('',*,*,#1133,.T.);
#1229 = ORIENTED_EDGE('',*,*,#1164,.T.);
#1230 = ORIENTED_EDGE('',*,*,#1188,.T.);
#1231 = ORIENTED_EDGE('',*,*,#1214,.T.);
#1232 = PLANE('',#1233);
#1233 = AXIS2_PLACEMENT_3D('',#1234,#1235,#1236);
#1234 = CARTESIAN_POINT('',(19.857595679326,-1.2368425992,8.760160653731
    ));
#1235 = DIRECTION('',(2.732316857945E-13,-1.130435103609E-13,-1.));
#1236 = DIRECTION('',(0.866025403784,0.5,1.801038258364E-13));
#1237 = ADVANCED_FACE('',(#1238),#1263,.F.);
#1238 = FACE_BOUND('',#1239,.T.);
#1239 = EDGE_LOOP('',(#1240,#1241,#1249,#1257));
#1240 = ORIENTED_EDGE('',*,*,#591,.T.);
#1241 = ORIENTED_EDGE('',*,*,#1242,.F.);
#1242 = EDGE_CURVE('',#1243,#584,#1245,.T.);
#1243 = VERTEX_POINT('',#1244);
#1244 = CARTESIAN_POINT('',(20.23219711473,7.308703734837,8.360160653731
    ));
#1245 = LINE('',#1246,#1247);
#1246 = CARTESIAN_POINT('',(20.232197114732,7.308703734836,
    0.760160653731));
#1247 = VECTOR('',#1248,1.);
#1248 = DIRECTION('',(2.712332843502E-13,-1.147181394462E-13,-1.));
#1249 = ORIENTED_EDGE('',*,*,#1250,.T.);
#1250 = EDGE_CURVE('',#1243,#1251,#1253,.T.);
#1251 = VERTEX_POINT('',#1252);
#1252 = CARTESIAN_POINT('',(23.145330200565,7.331087682422,
    8.360160653731));
#1253 = LINE('',#1254,#1255);
#1254 = CARTESIAN_POINT('',(20.012078235724,7.307012384217,
    8.360160653731));
#1255 = VECTOR('',#1256,1.);
#1256 = DIRECTION('',(0.999970480875,7.683578529199E-03,
    2.722054011615E-13));
#1257 = ORIENTED_EDGE('',*,*,#1258,.F.);
#1258 = EDGE_CURVE('',#592,#1251,#1259,.T.);
#1259 = LINE('',#1260,#1261);
#1260 = CARTESIAN_POINT('',(23.145330200567,7.331087682421,
    0.760160653731));
#1261 = VECTOR('',#1262,1.);
#1262 = DIRECTION('',(-2.732316857945E-13,1.130435103609E-13,1.));
#1263 = PLANE('',#1264);
#1264 = AXIS2_PLACEMENT_3D('',#1265,#1266,#1267);
#1265 = CARTESIAN_POINT('',(20.232197114732,7.308703734836,
    0.760160653731));
#1266 = DIRECTION('',(7.683578529199E-03,-0.999970480875,
    1.151802438813E-13));
#1267 = DIRECTION('',(0.999970480875,7.683578529199E-03,
    2.726494903714E-13));
#1268 = ADVANCED_FACE('',(#1269),#1287,.F.);
#1269 = FACE_BOUND('',#1270,.T.);
#1270 = EDGE_LOOP('',(#1271,#1272,#1273,#1281));
#1271 = ORIENTED_EDGE('',*,*,#599,.T.);
#1272 = ORIENTED_EDGE('',*,*,#1258,.T.);
#1273 = ORIENTED_EDGE('',*,*,#1274,.T.);
#1274 = EDGE_CURVE('',#1251,#1275,#1277,.T.);
#1275 = VERTEX_POINT('',#1276);
#1276 = CARTESIAN_POINT('',(14.84841112461,-7.298002368963,
    8.360160653731));
#1277 = LINE('',#1278,#1279);
#1278 = CARTESIAN_POINT('',(20.906913922743,3.384322262516,
    8.360160653731));
#1279 = VECTOR('',#1280,1.);
#1280 = DIRECTION('',(-0.493332152854,-0.869841012462,
    -3.637831347508E-14));
#1281 = ORIENTED_EDGE('',*,*,#1282,.F.);
#1282 = EDGE_CURVE('',#576,#1275,#1283,.T.);
#1283 = LINE('',#1284,#1285);
#1284 = CARTESIAN_POINT('',(14.848411124612,-7.298002368964,
    0.760160653731));
#1285 = VECTOR('',#1286,1.);
#1286 = DIRECTION('',(-2.732316857945E-13,1.130435103609E-13,1.));
#1287 = PLANE('',#1288);
#1288 = AXIS2_PLACEMENT_3D('',#1289,#1290,#1291);
#1289 = CARTESIAN_POINT('',(23.145330200567,7.331087682421,
    0.760160653731));
#1290 = DIRECTION('',(-0.869841012462,0.493332152854,-2.932740254744E-13
    ));
#1291 = DIRECTION('',(-0.493332152854,-0.869841012462,
    -3.593422426523E-14));
#1292 = ADVANCED_FACE('',(#1293),#1311,.F.);
#1293 = FACE_BOUND('',#1294,.T.);
#1294 = EDGE_LOOP('',(#1295,#1296,#1304,#1310));
#1295 = ORIENTED_EDGE('',*,*,#583,.T.);
#1296 = ORIENTED_EDGE('',*,*,#1297,.T.);
#1297 = EDGE_CURVE('',#574,#1298,#1300,.T.);
#1298 = VERTEX_POINT('',#1299);
#1299 = CARTESIAN_POINT('',(11.935278038764,-7.320386316568,
    8.36016065373));
#1300 = LINE('',#1301,#1302);
#1301 = CARTESIAN_POINT('',(11.935278038766,-7.320386316568,
    0.76016065373));
#1302 = VECTOR('',#1303,1.);
#1303 = DIRECTION('',(-2.732316857945E-13,1.130435103609E-13,1.));
#1304 = ORIENTED_EDGE('',*,*,#1305,.T.);
#1305 = EDGE_CURVE('',#1298,#1243,#1306,.T.);
#1306 = LINE('',#1307,#1308);
#1307 = CARTESIAN_POINT('',(14.204618236637,-3.319095981204,
    8.36016065373));
#1308 = VECTOR('',#1309,1.);
#1309 = DIRECTION('',(0.493332152854,0.869841012462,3.640606905069E-14)
  );
#1310 = ORIENTED_EDGE('',*,*,#1242,.T.);
#1311 = PLANE('',#1312);
#1312 = AXIS2_PLACEMENT_3D('',#1313,#1314,#1315);
#1313 = CARTESIAN_POINT('',(11.935278038766,-7.320386316568,
    0.76016065373));
#1314 = DIRECTION('',(0.869841012462,-0.493332152854,2.932740254744E-13)
  );
#1315 = DIRECTION('',(0.493332152854,0.869841012462,3.596197984084E-14)
  );
#1316 = ADVANCED_FACE('',(#1317),#1328,.F.);
#1317 = FACE_BOUND('',#1318,.T.);
#1318 = EDGE_LOOP('',(#1319,#1320,#1321,#1327));
#1319 = ORIENTED_EDGE('',*,*,#573,.T.);
#1320 = ORIENTED_EDGE('',*,*,#1282,.T.);
#1321 = ORIENTED_EDGE('',*,*,#1322,.T.);
#1322 = EDGE_CURVE('',#1275,#1298,#1323,.T.);
#1323 = LINE('',#1324,#1325);
#1324 = CARTESIAN_POINT('',(17.376140548585,-7.278579788079,
    8.360160653731));
#1325 = VECTOR('',#1326,1.);
#1326 = DIRECTION('',(-0.999970480875,-7.683578535775E-03,
    -2.722054011617E-13));
#1327 = ORIENTED_EDGE('',*,*,#1297,.F.);
#1328 = PLANE('',#1329);
#1329 = AXIS2_PLACEMENT_3D('',#1330,#1331,#1332);
#1330 = CARTESIAN_POINT('',(14.848411124612,-7.298002368964,
    0.760160653731));
#1331 = DIRECTION('',(-7.683578535775E-03,0.999970480875,
    -1.151802438819E-13));
#1332 = DIRECTION('',(-0.999970480875,-7.683578535775E-03,
    -2.726494903715E-13));
#1333 = ADVANCED_FACE('',(#1334),#1359,.F.);
#1334 = FACE_BOUND('',#1335,.T.);
#1335 = EDGE_LOOP('',(#1336,#1346,#1352,#1353));
#1336 = ORIENTED_EDGE('',*,*,#1337,.F.);
#1337 = EDGE_CURVE('',#1338,#1340,#1342,.T.);
#1338 = VERTEX_POINT('',#1339);
#1339 = CARTESIAN_POINT('',(14.614404735784,-6.899788620508,
    8.760160653731));
#1340 = VERTEX_POINT('',#1341);
#1341 = CARTESIAN_POINT('',(22.455602761059,6.925776143035,
    8.760160653731));
#1342 = LINE('',#1343,#1344);
#1343 = CARTESIAN_POINT('',(20.558977517758,3.581655123657,
    8.760160653731));
#1344 = VECTOR('',#1345,1.);
#1345 = DIRECTION('',(0.493332152854,0.869841012462,3.637831347508E-14)
  );
#1346 = ORIENTED_EDGE('',*,*,#1347,.T.);
#1347 = EDGE_CURVE('',#1338,#1275,#1348,.T.);
#1348 = LINE('',#1349,#1350);
#1349 = CARTESIAN_POINT('',(14.614404735784,-6.899788620508,
    8.760160653731));
#1350 = VECTOR('',#1351,1.);
#1351 = DIRECTION('',(0.382982932455,-0.651730364682,-0.65465380561));
#1352 = ORIENTED_EDGE('',*,*,#1274,.F.);
#1353 = ORIENTED_EDGE('',*,*,#1354,.F.);
#1354 = EDGE_CURVE('',#1340,#1251,#1355,.T.);
#1355 = LINE('',#1356,#1357);
#1356 = CARTESIAN_POINT('',(22.455602761059,6.925776143035,
    8.760160653731));
#1357 = VECTOR('',#1358,1.);
#1358 = DIRECTION('',(0.771138052937,0.453151684874,-0.447213208446));
#1359 = PLANE('',#1360);
#1360 = AXIS2_PLACEMENT_3D('',#1361,#1362,#1363);
#1361 = CARTESIAN_POINT('',(20.73294572025,3.482988693087,8.560160653731
    ));
#1362 = DIRECTION('',(-0.615070478466,0.34883851066,-0.707106781187));
#1363 = DIRECTION('',(0.493332152854,0.869841012462,6.675215935559E-14)
  );
#1364 = ADVANCED_FACE('',(#1365),#1383,.F.);
#1365 = FACE_BOUND('',#1366,.T.);
#1366 = EDGE_LOOP('',(#1367,#1375,#1376,#1377));
#1367 = ORIENTED_EDGE('',*,*,#1368,.F.);
#1368 = EDGE_CURVE('',#1340,#1369,#1371,.T.);
#1369 = VERTEX_POINT('',#1370);
#1370 = CARTESIAN_POINT('',(20.466203503555,6.91048998638,8.760160653731
    ));
#1371 = LINE('',#1372,#1373);
#1372 = CARTESIAN_POINT('',(20.015151667135,6.907024191867,
    8.760160653731));
#1373 = VECTOR('',#1374,1.);
#1374 = DIRECTION('',(-0.999970480875,-7.683578529199E-03,
    -2.722054011615E-13));
#1375 = ORIENTED_EDGE('',*,*,#1354,.T.);
#1376 = ORIENTED_EDGE('',*,*,#1250,.F.);
#1377 = ORIENTED_EDGE('',*,*,#1378,.F.);
#1378 = EDGE_CURVE('',#1369,#1243,#1379,.T.);
#1379 = LINE('',#1380,#1381);
#1380 = CARTESIAN_POINT('',(20.466203503555,6.91048998638,8.760160653731
    ));
#1381 = VECTOR('',#1382,1.);
#1382 = DIRECTION('',(-0.382982932453,0.651730364683,-0.65465380561));
#1383 = PLANE('',#1384);
#1384 = AXIS2_PLACEMENT_3D('',#1385,#1386,#1387);
#1385 = CARTESIAN_POINT('',(20.01361495143,7.107018288042,8.560160653731
    ));
#1386 = DIRECTION('',(5.43311048197E-03,-0.707085908013,-0.707106781186)
  );
#1387 = DIRECTION('',(-0.999970480875,-7.683578528988E-03,
    -4.841543832512E-13));
#1388 = ADVANCED_FACE('',(#1389),#1407,.F.);
#1389 = FACE_BOUND('',#1390,.T.);
#1390 = EDGE_LOOP('',(#1391,#1399,#1400,#1401));
#1391 = ORIENTED_EDGE('',*,*,#1392,.F.);
#1392 = EDGE_CURVE('',#1369,#1393,#1395,.T.);
#1393 = VERTEX_POINT('',#1394);
#1394 = CARTESIAN_POINT('',(12.625005478273,-6.915074777176,
    8.76016065373));
#1395 = LINE('',#1396,#1397);
#1396 = CARTESIAN_POINT('',(14.552554641622,-3.516428842346,
    8.76016065373));
#1397 = VECTOR('',#1398,1.);
#1398 = DIRECTION('',(-0.493332152854,-0.869841012462,
    -3.640606905069E-14));
#1399 = ORIENTED_EDGE('',*,*,#1378,.T.);
#1400 = ORIENTED_EDGE('',*,*,#1305,.F.);
#1401 = ORIENTED_EDGE('',*,*,#1402,.F.);
#1402 = EDGE_CURVE('',#1393,#1298,#1403,.T.);
#1403 = LINE('',#1404,#1405);
#1404 = CARTESIAN_POINT('',(12.625005478273,-6.915074777176,
    8.76016065373));
#1405 = VECTOR('',#1406,1.);
#1406 = DIRECTION('',(-0.771138052936,-0.453151684877,-0.447213208444));
#1407 = PLANE('',#1408);
#1408 = AXIS2_PLACEMENT_3D('',#1409,#1410,#1411);
#1409 = CARTESIAN_POINT('',(14.378586439129,-3.417762411775,
    8.56016065373));
#1410 = DIRECTION('',(0.615070478466,-0.34883851066,-0.707106781186));
#1411 = DIRECTION('',(-0.493332152854,-0.869841012462,
    -6.653011475066E-14));
#1412 = ADVANCED_FACE('',(#1413),#1424,.F.);
#1413 = FACE_BOUND('',#1414,.T.);
#1414 = EDGE_LOOP('',(#1415,#1416,#1417,#1423));
#1415 = ORIENTED_EDGE('',*,*,#1322,.F.);
#1416 = ORIENTED_EDGE('',*,*,#1347,.F.);
#1417 = ORIENTED_EDGE('',*,*,#1418,.F.);
#1418 = EDGE_CURVE('',#1393,#1338,#1419,.T.);
#1419 = LINE('',#1420,#1421);
#1420 = CARTESIAN_POINT('',(17.373067117171,-6.878591595729,
    8.760160653731));
#1421 = VECTOR('',#1422,1.);
#1422 = DIRECTION('',(0.999970480875,7.683578535775E-03,
    2.722054011617E-13));
#1423 = ORIENTED_EDGE('',*,*,#1402,.T.);
#1424 = PLANE('',#1425);
#1425 = AXIS2_PLACEMENT_3D('',#1426,#1427,#1428);
#1426 = CARTESIAN_POINT('',(17.374603832878,-7.078585691904,
    8.560160653731));
#1427 = DIRECTION('',(-5.433110486233E-03,0.707085908013,-0.707106781187
    ));
#1428 = DIRECTION('',(0.999970480875,7.683578535987E-03,
    4.841457096338E-13));
#1429 = ADVANCED_FACE('',(#1430),#1436,.F.);
#1430 = FACE_BOUND('',#1431,.T.);
#1431 = EDGE_LOOP('',(#1432,#1433,#1434,#1435));
#1432 = ORIENTED_EDGE('',*,*,#1337,.T.);
#1433 = ORIENTED_EDGE('',*,*,#1368,.T.);
#1434 = ORIENTED_EDGE('',*,*,#1392,.T.);
#1435 = ORIENTED_EDGE('',*,*,#1418,.T.);
#1436 = PLANE('',#1437);
#1437 = AXIS2_PLACEMENT_3D('',#1438,#1439,#1440);
#1438 = CARTESIAN_POINT('',(19.857595679326,-1.2368425992,8.760160653731
    ));
#1439 = DIRECTION('',(2.732316857945E-13,-1.130435103609E-13,-1.));
#1440 = DIRECTION('',(0.866025403784,0.5,1.801038258364E-13));
#1441 = ( GEOMETRIC_REPRESENTATION_CONTEXT(3) 
GLOBAL_UNCERTAINTY_ASSIGNED_CONTEXT((#1445)) 
GLOBAL_UNIT_ASSIGNED_CONTEXT((#1442,#1443,#1444)) REPRESENTATION_CONTEXT
('Context #1','3D Context with UNIT and UNCERTAINTY') );
#1442 = ( LENGTH_UNIT() NAMED_UNIT(*) SI_UNIT(.MILLI.,.METRE.) );
#1443 = ( NAMED_UNIT(*) PLANE_ANGLE_UNIT() SI_UNIT($,.RADIAN.) );
#1444 = ( NAMED_UNIT(*) SI_UNIT($,.STERADIAN.) SOLID_ANGLE_UNIT() );
#1445 = UNCERTAINTY_MEASURE_WITH_UNIT(LENGTH_MEASURE(1.E-07),#1442,
  'distance_accuracy_value','confusion accuracy');
#1446 = PRODUCT_RELATED_PRODUCT_CATEGORY('part',$,(#7));
#1447 = MECHANICAL_DESIGN_GEOMETRIC_PRESENTATION_REPRESENTATION('',(
    #1448),#1441);
#1448 = STYLED_ITEM('color',(#1449),#15);
#1449 = PRESENTATION_STYLE_ASSIGNMENT((#1450,#1456));
#1450 = SURFACE_STYLE_USAGE(.BOTH.,#1451);
#1451 = SURFACE_SIDE_STYLE('',(#1452));
#1452 = SURFACE_STYLE_FILL_AREA(#1453);
#1453 = FILL_AREA_STYLE('',(#1454));
#1454 = FILL_AREA_STYLE_COLOUR('',#1455);
#1455 = COLOUR_RGB('',0.964705886078,0.964705886078,0.952941189437);
#1456 = CURVE_STYLE('',#1457,POSITIVE_LENGTH_MEASURE(0.1),#1458);
#1457 = DRAUGHTING_PRE_DEFINED_CURVE_FONT('continuous');
#1458 = COLOUR_RGB('',9.803921802644E-02,9.803921802644E-02,
  9.803921802644E-02);
ENDSEC;
END-ISO-10303-21;
