ISO-10303-21;
HEADER;
FILE_DESCRIPTION(('FreeCAD Model'),'2;1');
FILE_NAME('Open CASCADE Shape Model','2025-11-08T20:41:44',(''),(''),
  'Open CASCADE STEP processor 7.9','FreeCAD','Unknown');
FILE_SCHEMA(('AUTOMOTIVE_DESIGN { 1 0 10303 214 1 1 1 1 }'));
ENDSEC;
DATA;
#1 = APPLICATION_PROTOCOL_DEFINITION('international standard',
  'automotive_design',2000,#2);
#2 = APPLICATION_CONTEXT(
  'core data for automotive mechanical design processes');
#3 = SHAPE_DEFINITION_REPRESENTATION(#4,#10);
#4 = PRODUCT_DEFINITION_SHAPE('','',#5);
#5 = PRODUCT_DEFINITION('design','',#6,#9);
#6 = PRODUCT_DEFINITION_FORMATION('','',#7);
#7 = PRODUCT('[a]skirt_plate_x6 (1)','[a]skirt_plate_x6 (1)','',(#8));
#8 = PRODUCT_CONTEXT('',#2,'mechanical');
#9 = PRODUCT_DEFINITION_CONTEXT('part definition',#2,'design');
#10 = ADVANCED_BREP_SHAPE_REPRESENTATION('',(#11,#15),#1097);
#11 = AXIS2_PLACEMENT_3D('',#12,#13,#14);
#12 = CARTESIAN_POINT('',(0.,0.,0.));
#13 = DIRECTION('',(0.,0.,1.));
#14 = DIRECTION('',(1.,0.,-0.));
#15 = MANIFOLD_SOLID_BREP('',#16);
#16 = CLOSED_SHELL('',(#17,#60,#161,#187,#222,#248,#283,#309,#354,#379,
    #416,#441,#472,#497,#528,#545,#576,#601,#625,#650,#670,#695,#715,
    #740,#760,#785,#823,#848,#872,#897,#921,#954,#985,#1009,#1026,#1043,
    #1060,#1072));
#17 = ADVANCED_FACE('',(#18),#55,.T.);
#18 = FACE_BOUND('',#19,.T.);
#19 = EDGE_LOOP('',(#20,#29,#38,#47,#54));
#20 = ORIENTED_EDGE('',*,*,#21,.T.);
#21 = EDGE_CURVE('',#22,#22,#24,.T.);
#22 = VERTEX_POINT('',#23);
#23 = CARTESIAN_POINT('',(65.214135904059,12.557469700685,
    49.684149792054));
#24 = CIRCLE('',#25,3.7);
#25 = AXIS2_PLACEMENT_3D('',#26,#27,#28);
#26 = CARTESIAN_POINT('',(68.914135904059,12.557469700685,
    49.684149792054));
#27 = DIRECTION('',(-4.736951571734E-14,1.480297366167E-15,-1.));
#28 = DIRECTION('',(1.,-2.312964634635E-16,-4.736951571734E-14));
#29 = ORIENTED_EDGE('',*,*,#30,.T.);
#30 = EDGE_CURVE('',#22,#31,#33,.T.);
#31 = VERTEX_POINT('',#32);
#32 = CARTESIAN_POINT('',(65.714135904059,12.557469700685,
    50.184149792057));
#33 = CIRCLE('',#34,0.5);
#34 = AXIS2_PLACEMENT_3D('',#35,#36,#37);
#35 = CARTESIAN_POINT('',(65.214135904059,12.557469700685,
    50.184149792057));
#36 = DIRECTION('',(-6.886880918596E-29,-1.,-1.480297366167E-15));
#37 = DIRECTION('',(-1.,-1.793662034336E-43,4.65236315081E-14));
#38 = ORIENTED_EDGE('',*,*,#39,.T.);
#39 = EDGE_CURVE('',#31,#40,#42,.T.);
#40 = VERTEX_POINT('',#41);
#41 = CARTESIAN_POINT('',(72.114135904059,12.557469700685,
    50.184149792057));
#42 = CIRCLE('',#43,3.2);
#43 = AXIS2_PLACEMENT_3D('',#44,#45,#46);
#44 = CARTESIAN_POINT('',(68.914135904059,12.557469700685,
    50.184149792057));
#45 = DIRECTION('',(4.736951571734E-14,-1.480297366167E-15,1.));
#46 = DIRECTION('',(1.,-2.312964634635E-16,-4.736951571734E-14));
#47 = ORIENTED_EDGE('',*,*,#48,.T.);
#48 = EDGE_CURVE('',#40,#31,#49,.T.);
#49 = CIRCLE('',#50,3.2);
#50 = AXIS2_PLACEMENT_3D('',#51,#52,#53);
#51 = CARTESIAN_POINT('',(68.914135904059,12.557469700685,
    50.184149792057));
#52 = DIRECTION('',(4.736951571734E-14,-1.480297366167E-15,1.));
#53 = DIRECTION('',(1.,-2.312964634635E-16,-4.736951571734E-14));
#54 = ORIENTED_EDGE('',*,*,#30,.F.);
#55 = TOROIDAL_SURFACE('',#56,3.7,0.5);
#56 = AXIS2_PLACEMENT_3D('',#57,#58,#59);
#57 = CARTESIAN_POINT('',(68.914135904059,12.557469700685,
    50.184149792057));
#58 = DIRECTION('',(4.736951571734E-14,-1.480297366167E-15,1.));
#59 = DIRECTION('',(1.,0.,-4.736951571734E-14));
#60 = ADVANCED_FACE('',(#61,#131,#142,#153),#156,.T.);
#61 = FACE_BOUND('',#62,.T.);
#62 = EDGE_LOOP('',(#63,#74,#82,#91,#99,#108,#116,#125));
#63 = ORIENTED_EDGE('',*,*,#64,.F.);
#64 = EDGE_CURVE('',#65,#67,#69,.T.);
#65 = VERTEX_POINT('',#66);
#66 = CARTESIAN_POINT('',(-86.16307240188,6.572387118973,49.684149792061
    ));
#67 = VERTEX_POINT('',#68);
#68 = CARTESIAN_POINT('',(-85.66307240196,6.072378240083,49.684149792061
    ));
#69 = CIRCLE('',#70,0.5);
#70 = AXIS2_PLACEMENT_3D('',#71,#72,#73);
#71 = CARTESIAN_POINT('',(-85.66307240196,6.572378240083,49.684149792061
    ));
#72 = DIRECTION('',(4.736951571734E-14,-1.480297366167E-15,1.));
#73 = DIRECTION('',(-0.707113059482,-0.707100502836,3.24488841731E-14));
#74 = ORIENTED_EDGE('',*,*,#75,.F.);
#75 = EDGE_CURVE('',#76,#65,#78,.T.);
#76 = VERTEX_POINT('',#77);
#77 = CARTESIAN_POINT('',(-86.16285930853,18.572387118973,
    49.684149792061));
#78 = LINE('',#79,#80);
#79 = CARTESIAN_POINT('',(-86.16302799485,9.073095552717,49.684149792061
    ));
#80 = VECTOR('',#81,1.);
#81 = DIRECTION('',(-1.775777945273E-05,-0.999999999842,
    -1.479456188521E-15));
#82 = ORIENTED_EDGE('',*,*,#83,.F.);
#83 = EDGE_CURVE('',#84,#76,#86,.T.);
#84 = VERTEX_POINT('',#85);
#85 = CARTESIAN_POINT('',(-85.6628593086,19.072378240083,49.684149792061
    ));
#86 = CIRCLE('',#87,0.5);
#87 = AXIS2_PLACEMENT_3D('',#88,#89,#90);
#88 = CARTESIAN_POINT('',(-85.6628593086,18.572378240083,49.684149792061
    ));
#89 = DIRECTION('',(4.736951571734E-14,-1.480297366167E-15,1.));
#90 = DIRECTION('',(-0.707100502836,0.707113059482,3.454174598234E-14));
#91 = ORIENTED_EDGE('',*,*,#92,.F.);
#92 = EDGE_CURVE('',#93,#84,#95,.T.);
#93 = VERTEX_POINT('',#94);
#94 = CARTESIAN_POINT('',(75.914029093746,19.072378240087,
    49.684149792053));
#95 = LINE('',#96,#97);
#96 = CARTESIAN_POINT('',(-45.76862832921,19.072378240084,
    49.684149792059));
#97 = VECTOR('',#98,1.);
#98 = DIRECTION('',(-1.,-2.465098181233E-14,4.736951571734E-14));
#99 = ORIENTED_EDGE('',*,*,#100,.F.);
#100 = EDGE_CURVE('',#101,#93,#103,.T.);
#101 = VERTEX_POINT('',#102);
#102 = CARTESIAN_POINT('',(76.414029093667,18.572387118977,
    49.684149792053));
#103 = CIRCLE('',#104,0.5);
#104 = AXIS2_PLACEMENT_3D('',#105,#106,#107);
#105 = CARTESIAN_POINT('',(75.914029093746,18.572378240087,
    49.684149792053));
#106 = DIRECTION('',(4.736951571734E-14,-1.480297366167E-15,1.));
#107 = DIRECTION('',(0.707100502836,0.707113059482,-3.244827078327E-14)
  );
#108 = ORIENTED_EDGE('',*,*,#109,.F.);
#109 = EDGE_CURVE('',#110,#101,#112,.T.);
#110 = VERTEX_POINT('',#111);
#111 = CARTESIAN_POINT('',(76.41424218702,6.572387118977,49.684149792053
    ));
#112 = LINE('',#113,#114);
#113 = CARTESIAN_POINT('',(76.414073475535,16.073095552719,
    49.684149792053));
#114 = VECTOR('',#115,1.);
#115 = DIRECTION('',(-1.775777945146E-05,0.999999999842,
    1.481138543346E-15));
#116 = ORIENTED_EDGE('',*,*,#117,.F.);
#117 = EDGE_CURVE('',#118,#110,#120,.T.);
#118 = VERTEX_POINT('',#119);
#119 = CARTESIAN_POINT('',(75.914242187099,6.072378240087,
    49.684149792053));
#120 = CIRCLE('',#121,0.5);
#121 = AXIS2_PLACEMENT_3D('',#122,#123,#124);
#122 = CARTESIAN_POINT('',(75.914242187099,6.572378240087,
    49.684149792053));
#123 = DIRECTION('',(4.736951571734E-14,-1.480297366167E-15,1.));
#124 = DIRECTION('',(0.707113059482,-0.707100502836,-3.454232219702E-14)
  );
#125 = ORIENTED_EDGE('',*,*,#126,.F.);
#126 = EDGE_CURVE('',#67,#118,#127,.T.);
#127 = LINE('',#128,#129);
#128 = CARTESIAN_POINT('',(36.019922418802,6.072378240086,
    49.684149792055));
#129 = VECTOR('',#130,1.);
#130 = DIRECTION('',(1.,2.475950118543E-14,-4.736951571734E-14));
#131 = FACE_BOUND('',#132,.T.);
#132 = EDGE_LOOP('',(#133));
#133 = ORIENTED_EDGE('',*,*,#134,.F.);
#134 = EDGE_CURVE('',#135,#135,#137,.T.);
#135 = VERTEX_POINT('',#136);
#136 = CARTESIAN_POINT('',(-8.476957717828,12.557956769308,
    49.684149792057));
#137 = CIRCLE('',#138,3.7);
#138 = AXIS2_PLACEMENT_3D('',#139,#140,#141);
#139 = CARTESIAN_POINT('',(-4.776957717828,12.557956769308,
    49.684149792057));
#140 = DIRECTION('',(-4.736951571734E-14,1.480297366167E-15,-1.));
#141 = DIRECTION('',(1.,-2.312964634635E-16,-4.736951571734E-14));
#142 = FACE_BOUND('',#143,.T.);
#143 = EDGE_LOOP('',(#144));
#144 = ORIENTED_EDGE('',*,*,#145,.F.);
#145 = EDGE_CURVE('',#146,#146,#148,.T.);
#146 = VERTEX_POINT('',#147);
#147 = CARTESIAN_POINT('',(-82.36296611902,12.55746409576,
    49.684149792061));
#148 = CIRCLE('',#149,3.7);
#149 = AXIS2_PLACEMENT_3D('',#150,#151,#152);
#150 = CARTESIAN_POINT('',(-78.66296611902,12.55746409576,
    49.684149792061));
#151 = DIRECTION('',(-4.736951571734E-14,1.480297366167E-15,-1.));
#152 = DIRECTION('',(1.,-2.312964634635E-16,-4.736951571734E-14));
#153 = FACE_BOUND('',#154,.T.);
#154 = EDGE_LOOP('',(#155));
#155 = ORIENTED_EDGE('',*,*,#21,.F.);
#156 = PLANE('',#157);
#157 = AXIS2_PLACEMENT_3D('',#158,#159,#160);
#158 = CARTESIAN_POINT('',(-4.874415107432,12.572378240085,
    49.684149792057));
#159 = DIRECTION('',(-4.736951571734E-14,1.480297366167E-15,-1.));
#160 = DIRECTION('',(-1.,-1.670516819262E-29,4.736951571734E-14));
#161 = ADVANCED_FACE('',(#162),#182,.F.);
#162 = FACE_BOUND('',#163,.F.);
#163 = EDGE_LOOP('',(#164,#172,#179,#180,#181));
#164 = ORIENTED_EDGE('',*,*,#165,.T.);
#165 = EDGE_CURVE('',#40,#166,#168,.T.);
#166 = VERTEX_POINT('',#167);
#167 = CARTESIAN_POINT('',(72.114135904059,12.557469700685,
    51.684149792057));
#168 = LINE('',#169,#170);
#169 = CARTESIAN_POINT('',(72.114135904059,12.557469700685,
    50.684149792057));
#170 = VECTOR('',#171,1.);
#171 = DIRECTION('',(-9.466330862652E-30,-1.329333678297E-58,1.));
#172 = ORIENTED_EDGE('',*,*,#173,.F.);
#173 = EDGE_CURVE('',#166,#166,#174,.T.);
#174 = CIRCLE('',#175,3.2);
#175 = AXIS2_PLACEMENT_3D('',#176,#177,#178);
#176 = CARTESIAN_POINT('',(68.914135904059,12.557469700685,
    51.684149792057));
#177 = DIRECTION('',(-9.466330862652E-30,-1.329333678297E-58,1.));
#178 = DIRECTION('',(-1.,-1.670516819262E-29,-9.466330862652E-30));
#179 = ORIENTED_EDGE('',*,*,#165,.F.);
#180 = ORIENTED_EDGE('',*,*,#48,.T.);
#181 = ORIENTED_EDGE('',*,*,#39,.T.);
#182 = CYLINDRICAL_SURFACE('',#183,3.2);
#183 = AXIS2_PLACEMENT_3D('',#184,#185,#186);
#184 = CARTESIAN_POINT('',(68.914135904059,12.557469700685,
    50.684149792057));
#185 = DIRECTION('',(-9.466330862652E-30,-1.329333678297E-58,1.));
#186 = DIRECTION('',(-1.,-1.670516819262E-29,-9.466330862652E-30));
#187 = ADVANCED_FACE('',(#188),#217,.T.);
#188 = FACE_BOUND('',#189,.T.);
#189 = EDGE_LOOP('',(#190,#191,#200,#209,#216));
#190 = ORIENTED_EDGE('',*,*,#134,.T.);
#191 = ORIENTED_EDGE('',*,*,#192,.T.);
#192 = EDGE_CURVE('',#135,#193,#195,.T.);
#193 = VERTEX_POINT('',#194);
#194 = CARTESIAN_POINT('',(-7.976957717828,12.557956769308,
    50.184149792057));
#195 = CIRCLE('',#196,0.5);
#196 = AXIS2_PLACEMENT_3D('',#197,#198,#199);
#197 = CARTESIAN_POINT('',(-8.476957717828,12.557956769308,
    50.184149792057));
#198 = DIRECTION('',(-6.886880918596E-29,-1.,-1.480297366167E-15));
#199 = DIRECTION('',(-1.,-1.793662034336E-43,4.65236315081E-14));
#200 = ORIENTED_EDGE('',*,*,#201,.T.);
#201 = EDGE_CURVE('',#193,#202,#204,.T.);
#202 = VERTEX_POINT('',#203);
#203 = CARTESIAN_POINT('',(-1.576957717828,12.557956769308,
    50.184149792057));
#204 = CIRCLE('',#205,3.2);
#205 = AXIS2_PLACEMENT_3D('',#206,#207,#208);
#206 = CARTESIAN_POINT('',(-4.776957717828,12.557956769308,
    50.184149792057));
#207 = DIRECTION('',(4.736951571734E-14,-1.480297366167E-15,1.));
#208 = DIRECTION('',(1.,-2.312964634635E-16,-4.736951571734E-14));
#209 = ORIENTED_EDGE('',*,*,#210,.T.);
#210 = EDGE_CURVE('',#202,#193,#211,.T.);
#211 = CIRCLE('',#212,3.2);
#212 = AXIS2_PLACEMENT_3D('',#213,#214,#215);
#213 = CARTESIAN_POINT('',(-4.776957717828,12.557956769308,
    50.184149792057));
#214 = DIRECTION('',(4.736951571734E-14,-1.480297366167E-15,1.));
#215 = DIRECTION('',(1.,-2.312964634635E-16,-4.736951571734E-14));
#216 = ORIENTED_EDGE('',*,*,#192,.F.);
#217 = TOROIDAL_SURFACE('',#218,3.7,0.5);
#218 = AXIS2_PLACEMENT_3D('',#219,#220,#221);
#219 = CARTESIAN_POINT('',(-4.776957717828,12.557956769308,
    50.184149792057));
#220 = DIRECTION('',(4.736951571734E-14,-1.480297366167E-15,1.));
#221 = DIRECTION('',(1.,0.,-4.736951571734E-14));
#222 = ADVANCED_FACE('',(#223),#243,.F.);
#223 = FACE_BOUND('',#224,.F.);
#224 = EDGE_LOOP('',(#225,#233,#240,#241,#242));
#225 = ORIENTED_EDGE('',*,*,#226,.T.);
#226 = EDGE_CURVE('',#202,#227,#229,.T.);
#227 = VERTEX_POINT('',#228);
#228 = CARTESIAN_POINT('',(-1.576957717828,12.557956769308,
    51.684149792057));
#229 = LINE('',#230,#231);
#230 = CARTESIAN_POINT('',(-1.576957717828,12.557956769308,
    50.684149792057));
#231 = VECTOR('',#232,1.);
#232 = DIRECTION('',(-9.466330862652E-30,-1.329333678297E-58,1.));
#233 = ORIENTED_EDGE('',*,*,#234,.F.);
#234 = EDGE_CURVE('',#227,#227,#235,.T.);
#235 = CIRCLE('',#236,3.2);
#236 = AXIS2_PLACEMENT_3D('',#237,#238,#239);
#237 = CARTESIAN_POINT('',(-4.776957717828,12.557956769308,
    51.684149792057));
#238 = DIRECTION('',(-9.466330862652E-30,-1.329333678297E-58,1.));
#239 = DIRECTION('',(-1.,-1.670516819262E-29,-9.466330862652E-30));
#240 = ORIENTED_EDGE('',*,*,#226,.F.);
#241 = ORIENTED_EDGE('',*,*,#210,.T.);
#242 = ORIENTED_EDGE('',*,*,#201,.T.);
#243 = CYLINDRICAL_SURFACE('',#244,3.2);
#244 = AXIS2_PLACEMENT_3D('',#245,#246,#247);
#245 = CARTESIAN_POINT('',(-4.776957717828,12.557956769308,
    50.684149792057));
#246 = DIRECTION('',(-9.466330862652E-30,-1.329333678297E-58,1.));
#247 = DIRECTION('',(-1.,-1.670516819262E-29,-9.466330862652E-30));
#248 = ADVANCED_FACE('',(#249),#278,.T.);
#249 = FACE_BOUND('',#250,.T.);
#250 = EDGE_LOOP('',(#251,#252,#261,#270,#277));
#251 = ORIENTED_EDGE('',*,*,#145,.T.);
#252 = ORIENTED_EDGE('',*,*,#253,.T.);
#253 = EDGE_CURVE('',#146,#254,#256,.T.);
#254 = VERTEX_POINT('',#255);
#255 = CARTESIAN_POINT('',(-81.86296611902,12.55746409576,
    50.184149792057));
#256 = CIRCLE('',#257,0.5);
#257 = AXIS2_PLACEMENT_3D('',#258,#259,#260);
#258 = CARTESIAN_POINT('',(-82.36296611902,12.55746409576,
    50.184149792057));
#259 = DIRECTION('',(-6.886880918596E-29,-1.,-1.480297366167E-15));
#260 = DIRECTION('',(-1.,-1.793662034336E-43,4.65236315081E-14));
#261 = ORIENTED_EDGE('',*,*,#262,.T.);
#262 = EDGE_CURVE('',#254,#263,#265,.T.);
#263 = VERTEX_POINT('',#264);
#264 = CARTESIAN_POINT('',(-75.46296611902,12.55746409576,
    50.184149792057));
#265 = CIRCLE('',#266,3.2);
#266 = AXIS2_PLACEMENT_3D('',#267,#268,#269);
#267 = CARTESIAN_POINT('',(-78.66296611902,12.55746409576,
    50.184149792057));
#268 = DIRECTION('',(4.736951571734E-14,-1.480297366167E-15,1.));
#269 = DIRECTION('',(1.,-2.312964634635E-16,-4.736951571734E-14));
#270 = ORIENTED_EDGE('',*,*,#271,.T.);
#271 = EDGE_CURVE('',#263,#254,#272,.T.);
#272 = CIRCLE('',#273,3.2);
#273 = AXIS2_PLACEMENT_3D('',#274,#275,#276);
#274 = CARTESIAN_POINT('',(-78.66296611902,12.55746409576,
    50.184149792057));
#275 = DIRECTION('',(4.736951571734E-14,-1.480297366167E-15,1.));
#276 = DIRECTION('',(1.,-2.312964634635E-16,-4.736951571734E-14));
#277 = ORIENTED_EDGE('',*,*,#253,.F.);
#278 = TOROIDAL_SURFACE('',#279,3.7,0.5);
#279 = AXIS2_PLACEMENT_3D('',#280,#281,#282);
#280 = CARTESIAN_POINT('',(-78.66296611902,12.55746409576,
    50.184149792057));
#281 = DIRECTION('',(4.736951571734E-14,-1.480297366167E-15,1.));
#282 = DIRECTION('',(1.,0.,-4.736951571734E-14));
#283 = ADVANCED_FACE('',(#284),#304,.F.);
#284 = FACE_BOUND('',#285,.F.);
#285 = EDGE_LOOP('',(#286,#294,#301,#302,#303));
#286 = ORIENTED_EDGE('',*,*,#287,.T.);
#287 = EDGE_CURVE('',#263,#288,#290,.T.);
#288 = VERTEX_POINT('',#289);
#289 = CARTESIAN_POINT('',(-75.46296611902,12.55746409576,
    51.684149792057));
#290 = LINE('',#291,#292);
#291 = CARTESIAN_POINT('',(-75.46296611902,12.55746409576,
    50.684149792057));
#292 = VECTOR('',#293,1.);
#293 = DIRECTION('',(-9.466330862652E-30,-1.329333678297E-58,1.));
#294 = ORIENTED_EDGE('',*,*,#295,.F.);
#295 = EDGE_CURVE('',#288,#288,#296,.T.);
#296 = CIRCLE('',#297,3.2);
#297 = AXIS2_PLACEMENT_3D('',#298,#299,#300);
#298 = CARTESIAN_POINT('',(-78.66296611902,12.55746409576,
    51.684149792057));
#299 = DIRECTION('',(-9.466330862652E-30,-1.329333678297E-58,1.));
#300 = DIRECTION('',(-1.,-1.670516819262E-29,-9.466330862652E-30));
#301 = ORIENTED_EDGE('',*,*,#287,.F.);
#302 = ORIENTED_EDGE('',*,*,#271,.T.);
#303 = ORIENTED_EDGE('',*,*,#262,.T.);
#304 = CYLINDRICAL_SURFACE('',#305,3.2);
#305 = AXIS2_PLACEMENT_3D('',#306,#307,#308);
#306 = CARTESIAN_POINT('',(-78.66296611902,12.55746409576,
    50.684149792057));
#307 = DIRECTION('',(-9.466330862652E-30,-1.329333678297E-58,1.));
#308 = DIRECTION('',(-1.,-1.670516819262E-29,-9.466330862652E-30));
#309 = ADVANCED_FACE('',(#310),#338,.F.);
#310 = FACE_BOUND('',#311,.F.);
#311 = EDGE_LOOP('',(#312,#323,#330,#331));
#312 = ORIENTED_EDGE('',*,*,#313,.F.);
#313 = EDGE_CURVE('',#314,#316,#318,.T.);
#314 = VERTEX_POINT('',#315);
#315 = CARTESIAN_POINT('',(-85.66307240196,5.572378240083,
    50.184149792061));
#316 = VERTEX_POINT('',#317);
#317 = CARTESIAN_POINT('',(-86.6630724018,6.572395997862,50.184149792061
    ));
#318 = CIRCLE('',#319,1.);
#319 = AXIS2_PLACEMENT_3D('',#320,#321,#322);
#320 = CARTESIAN_POINT('',(-85.66307240196,6.572378240083,
    50.184149792061));
#321 = DIRECTION('',(-4.736951571734E-14,1.480297366167E-15,-1.));
#322 = DIRECTION('',(-0.707113059482,-0.707100502836,3.24488841731E-14)
  );
#323 = ORIENTED_EDGE('',*,*,#324,.F.);
#324 = EDGE_CURVE('',#67,#314,#325,.T.);
#325 = CIRCLE('',#326,0.5);
#326 = AXIS2_PLACEMENT_3D('',#327,#328,#329);
#327 = CARTESIAN_POINT('',(-85.66307240196,6.072378240083,
    50.184149792061));
#328 = DIRECTION('',(-1.,-3.552713678801E-14,3.552713678801E-14));
#329 = DIRECTION('',(-3.552713678801E-14,2.22044604925E-15,-1.));
#330 = ORIENTED_EDGE('',*,*,#64,.F.);
#331 = ORIENTED_EDGE('',*,*,#332,.F.);
#332 = EDGE_CURVE('',#316,#65,#333,.T.);
#333 = CIRCLE('',#334,0.5);
#334 = AXIS2_PLACEMENT_3D('',#335,#336,#337);
#335 = CARTESIAN_POINT('',(-86.16307240188,6.572387118973,
    50.184149792061));
#336 = DIRECTION('',(-1.775777945356E-05,-0.999999999842,
    -2.219815165841E-15));
#337 = DIRECTION('',(-0.999999999842,1.775777945356E-05,5.3290705182E-14
    ));
#338 = ( BOUNDED_SURFACE() B_SPLINE_SURFACE(2,2,(
    (#339,#340,#341,#342,#343)
    ,(#344,#345,#346,#347,#348)
    ,(#349,#350,#351,#352,#353
)),.UNSPECIFIED.,.F.,.F.,.F.) B_SPLINE_SURFACE_WITH_KNOTS((3,3),(3,2,3),
  (-1.570796326795,6.156505229817E-15),(-0.785407042287,
    1.110223024625E-16,0.785407042287),.UNSPECIFIED.) 
GEOMETRIC_REPRESENTATION_ITEM() RATIONAL_B_SPLINE_SURFACE((
    (1.,0.9238778336,1.,0.9238778336,1.)
    ,(0.707106781187,0.653280281127,0.707106781187,0.653280281127
      ,0.707106781187)
,(1.,0.9238778336,1.,0.9238778336,1.
  ))) REPRESENTATION_ITEM('') SURFACE() );
#339 = CARTESIAN_POINT('',(-86.16307240188,6.572387118973,
    49.684149792061));
#340 = CARTESIAN_POINT('',(-86.16307607968,6.365277737247,
    49.684149792061));
#341 = CARTESIAN_POINT('',(-86.0166289317,6.218827988665,49.684149792061
    ));
#342 = CARTESIAN_POINT('',(-85.87018178372,6.072378240083,
    49.684149792061));
#343 = CARTESIAN_POINT('',(-85.66307240196,6.072378240083,
    49.684149792061));
#344 = CARTESIAN_POINT('',(-86.6630724018,6.572395997862,49.684149792061
    ));
#345 = CARTESIAN_POINT('',(-86.66307975741,6.158177234412,
    49.684149792061));
#346 = CARTESIAN_POINT('',(-86.37018546144,5.865277737247,
    49.684149792061));
#347 = CARTESIAN_POINT('',(-86.07729116547,5.572378240083,
    49.684149792061));
#348 = CARTESIAN_POINT('',(-85.66307240196,5.572378240083,
    49.684149792061));
#349 = CARTESIAN_POINT('',(-86.6630724018,6.572395997862,50.184149792061
    ));
#350 = CARTESIAN_POINT('',(-86.66307975741,6.158177234412,
    50.184149792061));
#351 = CARTESIAN_POINT('',(-86.37018546144,5.865277737247,
    50.184149792061));
#352 = CARTESIAN_POINT('',(-86.07729116547,5.572378240083,
    50.184149792061));
#353 = CARTESIAN_POINT('',(-85.66307240196,5.572378240083,
    50.184149792061));
#354 = ADVANCED_FACE('',(#355),#374,.T.);
#355 = FACE_BOUND('',#356,.T.);
#356 = EDGE_LOOP('',(#357,#366,#372,#373));
#357 = ORIENTED_EDGE('',*,*,#358,.T.);
#358 = EDGE_CURVE('',#118,#359,#361,.T.);
#359 = VERTEX_POINT('',#360);
#360 = CARTESIAN_POINT('',(75.914242187099,5.572378240087,
    50.184149792053));
#361 = CIRCLE('',#362,0.5);
#362 = AXIS2_PLACEMENT_3D('',#363,#364,#365);
#363 = CARTESIAN_POINT('',(75.914242187099,6.072378240087,
    50.184149792053));
#364 = DIRECTION('',(-1.,-1.7763568394E-14,5.329070518201E-14));
#365 = DIRECTION('',(-5.329070518201E-14,2.22044604925E-15,-1.));
#366 = ORIENTED_EDGE('',*,*,#367,.T.);
#367 = EDGE_CURVE('',#359,#314,#368,.T.);
#368 = LINE('',#369,#370);
#369 = CARTESIAN_POINT('',(36.019922418802,5.572378240086,
    50.184149792055));
#370 = VECTOR('',#371,1.);
#371 = DIRECTION('',(-1.,-2.475950118543E-14,4.736951571734E-14));
#372 = ORIENTED_EDGE('',*,*,#324,.F.);
#373 = ORIENTED_EDGE('',*,*,#126,.T.);
#374 = CYLINDRICAL_SURFACE('',#375,0.5);
#375 = AXIS2_PLACEMENT_3D('',#376,#377,#378);
#376 = CARTESIAN_POINT('',(36.019922418802,6.072378240086,
    50.184149792055));
#377 = DIRECTION('',(-1.,-2.475950118543E-14,4.736951571734E-14));
#378 = DIRECTION('',(-1.598769459824E-14,-0.707106781187,-0.707106781187
    ));
#379 = ADVANCED_FACE('',(#380),#400,.F.);
#380 = FACE_BOUND('',#381,.F.);
#381 = EDGE_LOOP('',(#382,#383,#384,#393));
#382 = ORIENTED_EDGE('',*,*,#117,.F.);
#383 = ORIENTED_EDGE('',*,*,#358,.T.);
#384 = ORIENTED_EDGE('',*,*,#385,.F.);
#385 = EDGE_CURVE('',#386,#359,#388,.T.);
#386 = VERTEX_POINT('',#387);
#387 = CARTESIAN_POINT('',(76.914242186941,6.572395997866,
    50.184149792053));
#388 = CIRCLE('',#389,1.);
#389 = AXIS2_PLACEMENT_3D('',#390,#391,#392);
#390 = CARTESIAN_POINT('',(75.914242187099,6.572378240087,
    50.184149792053));
#391 = DIRECTION('',(-4.736951571734E-14,1.480297366167E-15,-1.));
#392 = DIRECTION('',(0.707113059482,-0.707100502836,-3.454232219702E-14)
  );
#393 = ORIENTED_EDGE('',*,*,#394,.F.);
#394 = EDGE_CURVE('',#110,#386,#395,.T.);
#395 = CIRCLE('',#396,0.5);
#396 = AXIS2_PLACEMENT_3D('',#397,#398,#399);
#397 = CARTESIAN_POINT('',(76.41424218702,6.572387118977,50.184149792053
    ));
#398 = DIRECTION('',(1.775777945134E-05,-0.999999999842,
    -2.22139237349E-15));
#399 = DIRECTION('',(-5.329070518201E-14,2.22044604925E-15,-1.));
#400 = ( BOUNDED_SURFACE() B_SPLINE_SURFACE(2,2,(
    (#401,#402,#403,#404,#405)
    ,(#406,#407,#408,#409,#410)
    ,(#411,#412,#413,#414,#415
)),.UNSPECIFIED.,.F.,.F.,.F.) B_SPLINE_SURFACE_WITH_KNOTS((3,3),(3,2,3),
  (-1.570796326795,5.921136876142E-15),(-1.570796326795,-0.785389284508,
1.77577794532E-05),.UNSPECIFIED.) GEOMETRIC_REPRESENTATION_ITEM() 
RATIONAL_B_SPLINE_SURFACE((
    (1.,0.9238778336,1.,0.9238778336,1.)
    ,(0.707106781187,0.653280281127,0.707106781187,0.653280281127
      ,0.707106781187)
,(1.,0.9238778336,1.,0.9238778336,1.
  ))) REPRESENTATION_ITEM('') SURFACE() );
#401 = CARTESIAN_POINT('',(75.914242187099,6.072378240087,
    49.684149792053));
#402 = CARTESIAN_POINT('',(76.121351568857,6.072378240087,
    49.684149792053));
#403 = CARTESIAN_POINT('',(76.26779871684,6.218827988669,49.684149792053
    ));
#404 = CARTESIAN_POINT('',(76.414245864823,6.365277737251,
    49.684149792053));
#405 = CARTESIAN_POINT('',(76.41424218702,6.572387118977,49.684149792053
    ));
#406 = CARTESIAN_POINT('',(75.914242187099,5.572378240087,
    49.684149792053));
#407 = CARTESIAN_POINT('',(76.328460950615,5.572378240087,
    49.684149792053));
#408 = CARTESIAN_POINT('',(76.621355246581,5.865277737251,
    49.684149792053));
#409 = CARTESIAN_POINT('',(76.914249542547,6.158177234416,
    49.684149792053));
#410 = CARTESIAN_POINT('',(76.914242186941,6.572395997866,
    49.684149792053));
#411 = CARTESIAN_POINT('',(75.914242187099,5.572378240087,
    50.184149792053));
#412 = CARTESIAN_POINT('',(76.328460950615,5.572378240087,
    50.184149792053));
#413 = CARTESIAN_POINT('',(76.621355246581,5.865277737251,
    50.184149792053));
#414 = CARTESIAN_POINT('',(76.914249542547,6.158177234416,
    50.184149792053));
#415 = CARTESIAN_POINT('',(76.914242186941,6.572395997866,
    50.184149792053));
#416 = ADVANCED_FACE('',(#417),#436,.T.);
#417 = FACE_BOUND('',#418,.T.);
#418 = EDGE_LOOP('',(#419,#428,#434,#435));
#419 = ORIENTED_EDGE('',*,*,#420,.T.);
#420 = EDGE_CURVE('',#101,#421,#423,.T.);
#421 = VERTEX_POINT('',#422);
#422 = CARTESIAN_POINT('',(76.914029093588,18.572395997867,
    50.184149792053));
#423 = CIRCLE('',#424,0.5);
#424 = AXIS2_PLACEMENT_3D('',#425,#426,#427);
#425 = CARTESIAN_POINT('',(76.414029093667,18.572387118977,
    50.184149792053));
#426 = DIRECTION('',(1.775777945134E-05,-0.999999999842,
    -9.463245894287E-19));
#427 = DIRECTION('',(-5.329070518201E-14,3.851859888774E-34,-1.));
#428 = ORIENTED_EDGE('',*,*,#429,.T.);
#429 = EDGE_CURVE('',#421,#386,#430,.T.);
#430 = LINE('',#431,#432);
#431 = CARTESIAN_POINT('',(76.914073475457,16.073104431609,
    50.184149792053));
#432 = VECTOR('',#433,1.);
#433 = DIRECTION('',(1.775777945146E-05,-0.999999999842,
    -1.481138543346E-15));
#434 = ORIENTED_EDGE('',*,*,#394,.F.);
#435 = ORIENTED_EDGE('',*,*,#109,.T.);
#436 = CYLINDRICAL_SURFACE('',#437,0.5);
#437 = AXIS2_PLACEMENT_3D('',#438,#439,#440);
#438 = CARTESIAN_POINT('',(76.414073475535,16.073095552719,
    50.184149792053));
#439 = DIRECTION('',(1.775777945146E-05,-0.999999999842,
    -1.481138543346E-15));
#440 = DIRECTION('',(0.707106781075,1.255664626999E-05,-0.707106781187)
  );
#441 = ADVANCED_FACE('',(#442),#462,.F.);
#442 = FACE_BOUND('',#443,.F.);
#443 = EDGE_LOOP('',(#444,#445,#446,#455));
#444 = ORIENTED_EDGE('',*,*,#100,.F.);
#445 = ORIENTED_EDGE('',*,*,#420,.T.);
#446 = ORIENTED_EDGE('',*,*,#447,.F.);
#447 = EDGE_CURVE('',#448,#421,#450,.T.);
#448 = VERTEX_POINT('',#449);
#449 = CARTESIAN_POINT('',(75.914029093746,19.572378240087,
    50.184149792053));
#450 = CIRCLE('',#451,1.);
#451 = AXIS2_PLACEMENT_3D('',#452,#453,#454);
#452 = CARTESIAN_POINT('',(75.914029093746,18.572378240087,
    50.184149792053));
#453 = DIRECTION('',(-4.736951571734E-14,1.480297366167E-15,-1.));
#454 = DIRECTION('',(0.707100502836,0.707113059482,-3.244827078327E-14)
  );
#455 = ORIENTED_EDGE('',*,*,#456,.F.);
#456 = EDGE_CURVE('',#93,#448,#457,.T.);
#457 = CIRCLE('',#458,0.5);
#458 = AXIS2_PLACEMENT_3D('',#459,#460,#461);
#459 = CARTESIAN_POINT('',(75.914029093746,19.072378240087,
    50.184149792053));
#460 = DIRECTION('',(1.,3.5527136788E-14,-5.329070518201E-14));
#461 = DIRECTION('',(-5.329070518201E-14,-7.174648137343E-43,-1.));
#462 = ( BOUNDED_SURFACE() B_SPLINE_SURFACE(2,2,(
    (#463,#464,#465)
    ,(#466,#467,#468)
    ,(#469,#470,#471
)),.UNSPECIFIED.,.F.,.F.,.F.) B_SPLINE_SURFACE_WITH_KNOTS((3,3),(3,3),(
    -1.570796326795,5.921136876142E-15),(1.77577794508E-05,
    1.570796326795),.PIECEWISE_BEZIER_KNOTS.) 
GEOMETRIC_REPRESENTATION_ITEM() RATIONAL_B_SPLINE_SURFACE((
    (1.,0.707113059482,1.)
    ,(0.707106781187,0.500004439425,0.707106781187)
,(1.,0.707113059482,1.))) REPRESENTATION_ITEM('') SURFACE() );
#463 = CARTESIAN_POINT('',(76.414029093667,18.572387118977,
    49.684149792053));
#464 = CARTESIAN_POINT('',(76.414020214935,19.072378240087,
    49.684149792053));
#465 = CARTESIAN_POINT('',(75.914029093746,19.072378240087,
    49.684149792053));
#466 = CARTESIAN_POINT('',(76.914029093588,18.572395997866,
    49.684149792053));
#467 = CARTESIAN_POINT('',(76.914011336124,19.572378240087,
    49.684149792053));
#468 = CARTESIAN_POINT('',(75.914029093746,19.572378240087,
    49.684149792053));
#469 = CARTESIAN_POINT('',(76.914029093588,18.572395997866,
    50.184149792053));
#470 = CARTESIAN_POINT('',(76.914011336124,19.572378240087,
    50.184149792053));
#471 = CARTESIAN_POINT('',(75.914029093746,19.572378240087,
    50.184149792053));
#472 = ADVANCED_FACE('',(#473),#492,.T.);
#473 = FACE_BOUND('',#474,.T.);
#474 = EDGE_LOOP('',(#475,#484,#490,#491));
#475 = ORIENTED_EDGE('',*,*,#476,.T.);
#476 = EDGE_CURVE('',#84,#477,#479,.T.);
#477 = VERTEX_POINT('',#478);
#478 = CARTESIAN_POINT('',(-85.6628593086,19.572378240083,
    50.184149792061));
#479 = CIRCLE('',#480,0.5);
#480 = AXIS2_PLACEMENT_3D('',#481,#482,#483);
#481 = CARTESIAN_POINT('',(-85.6628593086,19.072378240083,
    50.184149792061));
#482 = DIRECTION('',(1.,1.670516819262E-29,-3.552713678801E-14));
#483 = DIRECTION('',(-3.552713678801E-14,-5.934867954459E-43,-1.));
#484 = ORIENTED_EDGE('',*,*,#485,.T.);
#485 = EDGE_CURVE('',#477,#448,#486,.T.);
#486 = LINE('',#487,#488);
#487 = CARTESIAN_POINT('',(-45.76862832921,19.572378240084,
    50.184149792059));
#488 = VECTOR('',#489,1.);
#489 = DIRECTION('',(1.,2.465098181233E-14,-4.736951571734E-14));
#490 = ORIENTED_EDGE('',*,*,#456,.F.);
#491 = ORIENTED_EDGE('',*,*,#92,.T.);
#492 = CYLINDRICAL_SURFACE('',#493,0.5);
#493 = AXIS2_PLACEMENT_3D('',#494,#495,#496);
#494 = CARTESIAN_POINT('',(-45.76862832921,19.072378240084,
    50.184149792059));
#495 = DIRECTION('',(1.,2.465098181233E-14,-4.736951571734E-14));
#496 = DIRECTION('',(-5.092618218766E-14,0.707106781187,-0.707106781187)
  );
#497 = ADVANCED_FACE('',(#498),#518,.F.);
#498 = FACE_BOUND('',#499,.F.);
#499 = EDGE_LOOP('',(#500,#501,#502,#511));
#500 = ORIENTED_EDGE('',*,*,#83,.F.);
#501 = ORIENTED_EDGE('',*,*,#476,.T.);
#502 = ORIENTED_EDGE('',*,*,#503,.F.);
#503 = EDGE_CURVE('',#504,#477,#506,.T.);
#504 = VERTEX_POINT('',#505);
#505 = CARTESIAN_POINT('',(-86.66285930845,18.572395997863,
    50.184149792061));
#506 = CIRCLE('',#507,1.);
#507 = AXIS2_PLACEMENT_3D('',#508,#509,#510);
#508 = CARTESIAN_POINT('',(-85.6628593086,18.572378240083,
    50.184149792061));
#509 = DIRECTION('',(-4.736951571734E-14,1.480297366167E-15,-1.));
#510 = DIRECTION('',(-0.707100502836,0.707113059482,3.454174598234E-14)
  );
#511 = ORIENTED_EDGE('',*,*,#512,.F.);
#512 = EDGE_CURVE('',#76,#504,#513,.T.);
#513 = CIRCLE('',#514,0.5);
#514 = AXIS2_PLACEMENT_3D('',#515,#516,#517);
#515 = CARTESIAN_POINT('',(-86.16285930853,18.572387118973,
    50.184149792061));
#516 = DIRECTION('',(1.775777945134E-05,0.999999999842,
    -6.308830596192E-19));
#517 = DIRECTION('',(-3.552713678801E-14,-2.600005424923E-33,-1.));
#518 = ( BOUNDED_SURFACE() B_SPLINE_SURFACE(2,2,(
    (#519,#520,#521)
    ,(#522,#523,#524)
    ,(#525,#526,#527
)),.UNSPECIFIED.,.F.,.F.,.F.) B_SPLINE_SURFACE_WITH_KNOTS((3,3),(3,3),(
    -1.570796326795,1.970781611328E-15),(1.570796326795,3.14157489581),
.PIECEWISE_BEZIER_KNOTS.) GEOMETRIC_REPRESENTATION_ITEM() 
RATIONAL_B_SPLINE_SURFACE((
    (1.,0.707113059482,1.)
    ,(0.707106781187,0.500004439425,0.707106781187)
,(1.,0.707113059482,1.))) REPRESENTATION_ITEM('') SURFACE() );
#519 = CARTESIAN_POINT('',(-85.6628593086,19.072378240083,
    49.684149792061));
#520 = CARTESIAN_POINT('',(-86.16285042979,19.072378240083,
    49.684149792061));
#521 = CARTESIAN_POINT('',(-86.16285930853,18.572387118973,
    49.684149792061));
#522 = CARTESIAN_POINT('',(-85.6628593086,19.572378240083,
    49.684149792061));
#523 = CARTESIAN_POINT('',(-86.66284155098,19.572378240083,
    49.684149792061));
#524 = CARTESIAN_POINT('',(-86.66285930845,18.572395997863,
    49.684149792061));
#525 = CARTESIAN_POINT('',(-85.6628593086,19.572378240083,
    50.184149792061));
#526 = CARTESIAN_POINT('',(-86.66284155098,19.572378240083,
    50.184149792061));
#527 = CARTESIAN_POINT('',(-86.66285930845,18.572395997863,
    50.184149792061));
#528 = ADVANCED_FACE('',(#529),#540,.T.);
#529 = FACE_BOUND('',#530,.T.);
#530 = EDGE_LOOP('',(#531,#532,#533,#534));
#531 = ORIENTED_EDGE('',*,*,#512,.F.);
#532 = ORIENTED_EDGE('',*,*,#75,.T.);
#533 = ORIENTED_EDGE('',*,*,#332,.F.);
#534 = ORIENTED_EDGE('',*,*,#535,.T.);
#535 = EDGE_CURVE('',#316,#504,#536,.T.);
#536 = LINE('',#537,#538);
#537 = CARTESIAN_POINT('',(-86.66302799477,9.073104431607,
    50.184149792061));
#538 = VECTOR('',#539,1.);
#539 = DIRECTION('',(1.775777945273E-05,0.999999999842,
    1.479456188521E-15));
#540 = CYLINDRICAL_SURFACE('',#541,0.5);
#541 = AXIS2_PLACEMENT_3D('',#542,#543,#544);
#542 = CARTESIAN_POINT('',(-86.16302799485,9.073095552717,
    50.184149792061));
#543 = DIRECTION('',(1.775777945273E-05,0.999999999842,
    1.479456188521E-15));
#544 = DIRECTION('',(-0.707106781075,1.255664627089E-05,-0.707106781187)
  );
#545 = ADVANCED_FACE('',(#546),#571,.T.);
#546 = FACE_BOUND('',#547,.T.);
#547 = EDGE_LOOP('',(#548,#549,#557,#565));
#548 = ORIENTED_EDGE('',*,*,#485,.F.);
#549 = ORIENTED_EDGE('',*,*,#550,.F.);
#550 = EDGE_CURVE('',#551,#477,#553,.T.);
#551 = VERTEX_POINT('',#552);
#552 = CARTESIAN_POINT('',(-85.6628593086,19.572378240083,
    52.284149792061));
#553 = LINE('',#554,#555);
#554 = CARTESIAN_POINT('',(-85.6628593086,19.572378240083,
    52.684149792061));
#555 = VECTOR('',#556,1.);
#556 = DIRECTION('',(-4.736951571734E-14,1.480297366167E-15,-1.));
#557 = ORIENTED_EDGE('',*,*,#558,.F.);
#558 = EDGE_CURVE('',#559,#551,#561,.T.);
#559 = VERTEX_POINT('',#560);
#560 = CARTESIAN_POINT('',(75.914029093746,19.572378240087,
    52.284149792054));
#561 = LINE('',#562,#563);
#562 = CARTESIAN_POINT('',(-45.76862832921,19.572378240084,
    52.284149792059));
#563 = VECTOR('',#564,1.);
#564 = DIRECTION('',(-1.,-2.465098181233E-14,4.456205792665E-14));
#565 = ORIENTED_EDGE('',*,*,#566,.F.);
#566 = EDGE_CURVE('',#448,#559,#567,.T.);
#567 = LINE('',#568,#569);
#568 = CARTESIAN_POINT('',(75.914029093746,19.572378240087,
    52.684149792054));
#569 = VECTOR('',#570,1.);
#570 = DIRECTION('',(4.736951571734E-14,-1.480297366167E-15,1.));
#571 = PLANE('',#572);
#572 = AXIS2_PLACEMENT_3D('',#573,#574,#575);
#573 = CARTESIAN_POINT('',(-86.66284155098,19.572378240083,
    52.684149792061));
#574 = DIRECTION('',(-2.465098181233E-14,1.,1.480297366168E-15));
#575 = DIRECTION('',(1.,2.465098181233E-14,-4.456205792665E-14));
#576 = ADVANCED_FACE('',(#577),#596,.T.);
#577 = FACE_BOUND('',#578,.T.);
#578 = EDGE_LOOP('',(#579,#580,#588,#595));
#579 = ORIENTED_EDGE('',*,*,#503,.F.);
#580 = ORIENTED_EDGE('',*,*,#581,.T.);
#581 = EDGE_CURVE('',#504,#582,#584,.T.);
#582 = VERTEX_POINT('',#583);
#583 = CARTESIAN_POINT('',(-86.66285930845,18.572395997863,
    52.284149792061));
#584 = LINE('',#585,#586);
#585 = CARTESIAN_POINT('',(-86.66285930845,18.572395997863,
    52.684149792061));
#586 = VECTOR('',#587,1.);
#587 = DIRECTION('',(4.736951571734E-14,-1.480297366167E-15,1.));
#588 = ORIENTED_EDGE('',*,*,#589,.F.);
#589 = EDGE_CURVE('',#551,#582,#590,.T.);
#590 = CIRCLE('',#591,1.);
#591 = AXIS2_PLACEMENT_3D('',#592,#593,#594);
#592 = CARTESIAN_POINT('',(-85.6628593086,18.572378240083,
    52.284149792061));
#593 = DIRECTION('',(4.456205792665E-14,-1.191582002719E-15,1.));
#594 = DIRECTION('',(-0.707100502836,0.707113059482,3.235243676289E-14)
  );
#595 = ORIENTED_EDGE('',*,*,#550,.T.);
#596 = CYLINDRICAL_SURFACE('',#597,1.);
#597 = AXIS2_PLACEMENT_3D('',#598,#599,#600);
#598 = CARTESIAN_POINT('',(-85.6628593086,18.572378240083,
    52.684149792061));
#599 = DIRECTION('',(-4.736951571734E-14,1.480297366167E-15,-1.));
#600 = DIRECTION('',(-0.707100502836,0.707113059482,3.454174598234E-14)
  );
#601 = ADVANCED_FACE('',(#602),#620,.T.);
#602 = FACE_BOUND('',#603,.T.);
#603 = EDGE_LOOP('',(#604,#605,#613,#619));
#604 = ORIENTED_EDGE('',*,*,#535,.F.);
#605 = ORIENTED_EDGE('',*,*,#606,.F.);
#606 = EDGE_CURVE('',#607,#316,#609,.T.);
#607 = VERTEX_POINT('',#608);
#608 = CARTESIAN_POINT('',(-86.6630724018,6.572395997862,52.284149792061
    ));
#609 = LINE('',#610,#611);
#610 = CARTESIAN_POINT('',(-86.6630724018,6.572395997862,52.684149792061
    ));
#611 = VECTOR('',#612,1.);
#612 = DIRECTION('',(-4.736951571734E-14,1.480297366167E-15,-1.));
#613 = ORIENTED_EDGE('',*,*,#614,.F.);
#614 = EDGE_CURVE('',#582,#607,#615,.T.);
#615 = LINE('',#616,#617);
#616 = CARTESIAN_POINT('',(-86.66302799477,9.073104431607,
    52.284149792061));
#617 = VECTOR('',#618,1.);
#618 = DIRECTION('',(-1.775777945273E-05,-0.999999999842,
    -1.190790679335E-15));
#619 = ORIENTED_EDGE('',*,*,#581,.F.);
#620 = PLANE('',#621);
#621 = AXIS2_PLACEMENT_3D('',#622,#623,#624);
#622 = CARTESIAN_POINT('',(-86.6630901599,5.572378240083,52.684149792061
    ));
#623 = DIRECTION('',(-0.999999999842,1.775777945273E-05,
    4.736954199667E-14));
#624 = DIRECTION('',(1.775777945273E-05,0.999999999842,
    1.190790679335E-15));
#625 = ADVANCED_FACE('',(#626),#645,.T.);
#626 = FACE_BOUND('',#627,.T.);
#627 = EDGE_LOOP('',(#628,#629,#637,#644));
#628 = ORIENTED_EDGE('',*,*,#313,.F.);
#629 = ORIENTED_EDGE('',*,*,#630,.T.);
#630 = EDGE_CURVE('',#314,#631,#633,.T.);
#631 = VERTEX_POINT('',#632);
#632 = CARTESIAN_POINT('',(-85.66307240196,5.572378240083,
    52.284149792061));
#633 = LINE('',#634,#635);
#634 = CARTESIAN_POINT('',(-85.66307240196,5.572378240083,
    52.684149792061));
#635 = VECTOR('',#636,1.);
#636 = DIRECTION('',(4.736951571734E-14,-1.480297366167E-15,1.));
#637 = ORIENTED_EDGE('',*,*,#638,.F.);
#638 = EDGE_CURVE('',#607,#631,#639,.T.);
#639 = CIRCLE('',#640,1.);
#640 = AXIS2_PLACEMENT_3D('',#641,#642,#643);
#641 = CARTESIAN_POINT('',(-85.66307240196,6.572378240083,
    52.284149792061));
#642 = DIRECTION('',(4.456205792665E-14,-1.191582002719E-15,1.));
#643 = DIRECTION('',(-0.707113059482,-0.707100502836,3.066784488403E-14)
  );
#644 = ORIENTED_EDGE('',*,*,#606,.T.);
#645 = CYLINDRICAL_SURFACE('',#646,1.);
#646 = AXIS2_PLACEMENT_3D('',#647,#648,#649);
#647 = CARTESIAN_POINT('',(-85.66307240196,6.572378240083,
    52.684149792061));
#648 = DIRECTION('',(-4.736951571734E-14,1.480297366167E-15,-1.));
#649 = DIRECTION('',(-0.707113059482,-0.707100502836,3.24488841731E-14)
  );
#650 = ADVANCED_FACE('',(#651,#654),#665,.F.);
#651 = FACE_BOUND('',#652,.T.);
#652 = EDGE_LOOP('',(#653));
#653 = ORIENTED_EDGE('',*,*,#234,.F.);
#654 = FACE_BOUND('',#655,.T.);
#655 = EDGE_LOOP('',(#656));
#656 = ORIENTED_EDGE('',*,*,#657,.T.);
#657 = EDGE_CURVE('',#658,#658,#660,.T.);
#658 = VERTEX_POINT('',#659);
#659 = CARTESIAN_POINT('',(-3.176957717828,12.557956769308,
    51.684149792057));
#660 = CIRCLE('',#661,1.6);
#661 = AXIS2_PLACEMENT_3D('',#662,#663,#664);
#662 = CARTESIAN_POINT('',(-4.776957717828,12.557956769308,
    51.684149792057));
#663 = DIRECTION('',(-9.466330862652E-30,-1.329333678297E-58,1.));
#664 = DIRECTION('',(-1.,-1.670516819262E-29,-9.466330862652E-30));
#665 = PLANE('',#666);
#666 = AXIS2_PLACEMENT_3D('',#667,#668,#669);
#667 = CARTESIAN_POINT('',(-4.776957717828,12.557956769308,
    51.684149792057));
#668 = DIRECTION('',(-9.466330862652E-30,-1.329333678297E-58,1.));
#669 = DIRECTION('',(-1.,-1.670516819262E-29,-9.466330862652E-30));
#670 = ADVANCED_FACE('',(#671),#690,.F.);
#671 = FACE_BOUND('',#672,.F.);
#672 = EDGE_LOOP('',(#673,#681,#688,#689));
#673 = ORIENTED_EDGE('',*,*,#674,.T.);
#674 = EDGE_CURVE('',#658,#675,#677,.T.);
#675 = VERTEX_POINT('',#676);
#676 = CARTESIAN_POINT('',(-3.176957717828,12.557956769308,
    52.684149792057));
#677 = LINE('',#678,#679);
#678 = CARTESIAN_POINT('',(-3.176957717828,12.557956769308,
    60.684149792057));
#679 = VECTOR('',#680,1.);
#680 = DIRECTION('',(-9.466330862652E-30,-1.329333678297E-58,1.));
#681 = ORIENTED_EDGE('',*,*,#682,.T.);
#682 = EDGE_CURVE('',#675,#675,#683,.T.);
#683 = CIRCLE('',#684,1.6);
#684 = AXIS2_PLACEMENT_3D('',#685,#686,#687);
#685 = CARTESIAN_POINT('',(-4.776957717828,12.557956769308,
    52.684149792057));
#686 = DIRECTION('',(-4.456205792665E-14,1.191582002719E-15,-1.));
#687 = DIRECTION('',(-1.,-6.980451442215E-29,4.456205792665E-14));
#688 = ORIENTED_EDGE('',*,*,#674,.F.);
#689 = ORIENTED_EDGE('',*,*,#657,.T.);
#690 = CYLINDRICAL_SURFACE('',#691,1.6);
#691 = AXIS2_PLACEMENT_3D('',#692,#693,#694);
#692 = CARTESIAN_POINT('',(-4.776957717828,12.557956769308,
    60.684149792057));
#693 = DIRECTION('',(-9.466330862652E-30,-1.329333678297E-58,1.));
#694 = DIRECTION('',(-1.,-1.670516819262E-29,-9.466330862652E-30));
#695 = ADVANCED_FACE('',(#696,#699),#710,.F.);
#696 = FACE_BOUND('',#697,.T.);
#697 = EDGE_LOOP('',(#698));
#698 = ORIENTED_EDGE('',*,*,#295,.F.);
#699 = FACE_BOUND('',#700,.T.);
#700 = EDGE_LOOP('',(#701));
#701 = ORIENTED_EDGE('',*,*,#702,.T.);
#702 = EDGE_CURVE('',#703,#703,#705,.T.);
#703 = VERTEX_POINT('',#704);
#704 = CARTESIAN_POINT('',(-77.06296611902,12.55746409576,
    51.684149792057));
#705 = CIRCLE('',#706,1.6);
#706 = AXIS2_PLACEMENT_3D('',#707,#708,#709);
#707 = CARTESIAN_POINT('',(-78.66296611902,12.55746409576,
    51.684149792057));
#708 = DIRECTION('',(-9.466330862652E-30,-1.329333678297E-58,1.));
#709 = DIRECTION('',(-1.,-1.670516819262E-29,-9.466330862652E-30));
#710 = PLANE('',#711);
#711 = AXIS2_PLACEMENT_3D('',#712,#713,#714);
#712 = CARTESIAN_POINT('',(-78.66296611902,12.55746409576,
    51.684149792057));
#713 = DIRECTION('',(-9.466330862652E-30,-1.329333678297E-58,1.));
#714 = DIRECTION('',(-1.,-1.670516819262E-29,-9.466330862652E-30));
#715 = ADVANCED_FACE('',(#716),#735,.F.);
#716 = FACE_BOUND('',#717,.F.);
#717 = EDGE_LOOP('',(#718,#726,#733,#734));
#718 = ORIENTED_EDGE('',*,*,#719,.T.);
#719 = EDGE_CURVE('',#703,#720,#722,.T.);
#720 = VERTEX_POINT('',#721);
#721 = CARTESIAN_POINT('',(-77.06296611902,12.55746409576,
    52.684149792057));
#722 = LINE('',#723,#724);
#723 = CARTESIAN_POINT('',(-77.06296611902,12.55746409576,
    60.684149792057));
#724 = VECTOR('',#725,1.);
#725 = DIRECTION('',(-9.466330862652E-30,-1.329333678297E-58,1.));
#726 = ORIENTED_EDGE('',*,*,#727,.T.);
#727 = EDGE_CURVE('',#720,#720,#728,.T.);
#728 = CIRCLE('',#729,1.6);
#729 = AXIS2_PLACEMENT_3D('',#730,#731,#732);
#730 = CARTESIAN_POINT('',(-78.66296611902,12.55746409576,
    52.684149792057));
#731 = DIRECTION('',(-4.456205792665E-14,1.191582002719E-15,-1.));
#732 = DIRECTION('',(-1.,-6.980451442215E-29,4.456205792665E-14));
#733 = ORIENTED_EDGE('',*,*,#719,.F.);
#734 = ORIENTED_EDGE('',*,*,#702,.T.);
#735 = CYLINDRICAL_SURFACE('',#736,1.6);
#736 = AXIS2_PLACEMENT_3D('',#737,#738,#739);
#737 = CARTESIAN_POINT('',(-78.66296611902,12.55746409576,
    60.684149792057));
#738 = DIRECTION('',(-9.466330862652E-30,-1.329333678297E-58,1.));
#739 = DIRECTION('',(-1.,-1.670516819262E-29,-9.466330862652E-30));
#740 = ADVANCED_FACE('',(#741,#744),#755,.F.);
#741 = FACE_BOUND('',#742,.T.);
#742 = EDGE_LOOP('',(#743));
#743 = ORIENTED_EDGE('',*,*,#173,.F.);
#744 = FACE_BOUND('',#745,.T.);
#745 = EDGE_LOOP('',(#746));
#746 = ORIENTED_EDGE('',*,*,#747,.T.);
#747 = EDGE_CURVE('',#748,#748,#750,.T.);
#748 = VERTEX_POINT('',#749);
#749 = CARTESIAN_POINT('',(70.514135904059,12.557469700685,
    51.684149792057));
#750 = CIRCLE('',#751,1.6);
#751 = AXIS2_PLACEMENT_3D('',#752,#753,#754);
#752 = CARTESIAN_POINT('',(68.914135904059,12.557469700685,
    51.684149792057));
#753 = DIRECTION('',(-9.466330862652E-30,-1.329333678297E-58,1.));
#754 = DIRECTION('',(-1.,-1.670516819262E-29,-9.466330862652E-30));
#755 = PLANE('',#756);
#756 = AXIS2_PLACEMENT_3D('',#757,#758,#759);
#757 = CARTESIAN_POINT('',(68.914135904059,12.557469700685,
    51.684149792057));
#758 = DIRECTION('',(-9.466330862652E-30,-1.329333678297E-58,1.));
#759 = DIRECTION('',(-1.,-1.670516819262E-29,-9.466330862652E-30));
#760 = ADVANCED_FACE('',(#761),#780,.F.);
#761 = FACE_BOUND('',#762,.F.);
#762 = EDGE_LOOP('',(#763,#771,#778,#779));
#763 = ORIENTED_EDGE('',*,*,#764,.T.);
#764 = EDGE_CURVE('',#748,#765,#767,.T.);
#765 = VERTEX_POINT('',#766);
#766 = CARTESIAN_POINT('',(70.514135904059,12.557469700685,
    52.684149792057));
#767 = LINE('',#768,#769);
#768 = CARTESIAN_POINT('',(70.514135904059,12.557469700685,
    60.684149792057));
#769 = VECTOR('',#770,1.);
#770 = DIRECTION('',(-9.466330862652E-30,-1.329333678297E-58,1.));
#771 = ORIENTED_EDGE('',*,*,#772,.T.);
#772 = EDGE_CURVE('',#765,#765,#773,.T.);
#773 = CIRCLE('',#774,1.6);
#774 = AXIS2_PLACEMENT_3D('',#775,#776,#777);
#775 = CARTESIAN_POINT('',(68.914135904059,12.557469700685,
    52.684149792057));
#776 = DIRECTION('',(-4.456205792665E-14,1.191582002719E-15,-1.));
#777 = DIRECTION('',(-1.,-6.980451442215E-29,4.456205792665E-14));
#778 = ORIENTED_EDGE('',*,*,#764,.F.);
#779 = ORIENTED_EDGE('',*,*,#747,.T.);
#780 = CYLINDRICAL_SURFACE('',#781,1.6);
#781 = AXIS2_PLACEMENT_3D('',#782,#783,#784);
#782 = CARTESIAN_POINT('',(68.914135904059,12.557469700685,
    60.684149792057));
#783 = DIRECTION('',(-9.466330862652E-30,-1.329333678297E-58,1.));
#784 = DIRECTION('',(-1.,-1.670516819262E-29,-9.466330862652E-30));
#785 = ADVANCED_FACE('',(#786),#818,.T.);
#786 = FACE_BOUND('',#787,.T.);
#787 = EDGE_LOOP('',(#788,#796,#804,#812));
#788 = ORIENTED_EDGE('',*,*,#789,.T.);
#789 = EDGE_CURVE('',#790,#631,#792,.T.);
#790 = VERTEX_POINT('',#791);
#791 = CARTESIAN_POINT('',(-85.66307240196,5.972378240083,
    52.684149792061));
#792 = LINE('',#793,#794);
#793 = CARTESIAN_POINT('',(-85.66307240196,5.972378240083,
    52.684149792061));
#794 = VECTOR('',#795,1.);
#795 = DIRECTION('',(-3.140184917368E-14,-0.707106781187,-0.707106781187
    ));
#796 = ORIENTED_EDGE('',*,*,#797,.T.);
#797 = EDGE_CURVE('',#631,#798,#800,.T.);
#798 = VERTEX_POINT('',#799);
#799 = CARTESIAN_POINT('',(75.914242187099,5.572378240087,
    52.284149792054));
#800 = LINE('',#801,#802);
#801 = CARTESIAN_POINT('',(36.019922418803,5.572378240086,
    52.284149792056));
#802 = VECTOR('',#803,1.);
#803 = DIRECTION('',(1.,2.475950118543E-14,-4.456205792665E-14));
#804 = ORIENTED_EDGE('',*,*,#805,.T.);
#805 = EDGE_CURVE('',#798,#806,#808,.T.);
#806 = VERTEX_POINT('',#807);
#807 = CARTESIAN_POINT('',(75.914242187099,5.972378240087,
    52.684149792054));
#808 = LINE('',#809,#810);
#809 = CARTESIAN_POINT('',(75.914242187099,5.572378240087,
    52.284149792054));
#810 = VECTOR('',#811,1.);
#811 = DIRECTION('',(1.570092458684E-14,0.707106781187,0.707106781187));
#812 = ORIENTED_EDGE('',*,*,#813,.T.);
#813 = EDGE_CURVE('',#806,#790,#814,.T.);
#814 = LINE('',#815,#816);
#815 = CARTESIAN_POINT('',(36.019922418803,5.972378240086,
    52.684149792055));
#816 = VECTOR('',#817,1.);
#817 = DIRECTION('',(-1.,-2.475950118543E-14,4.456205792665E-14));
#818 = PLANE('',#819);
#819 = AXIS2_PLACEMENT_3D('',#820,#821,#822);
#820 = CARTESIAN_POINT('',(36.019922418803,5.772378240086,
    52.484149792055));
#821 = DIRECTION('',(4.901774453058E-14,-0.707106781187,0.707106781187)
  );
#822 = DIRECTION('',(1.,2.524354896707E-29,-6.932155911208E-14));
#823 = ADVANCED_FACE('',(#824),#843,.T.);
#824 = FACE_BOUND('',#825,.T.);
#825 = EDGE_LOOP('',(#826,#834,#835,#836));
#826 = ORIENTED_EDGE('',*,*,#827,.T.);
#827 = EDGE_CURVE('',#828,#607,#830,.T.);
#828 = VERTEX_POINT('',#829);
#829 = CARTESIAN_POINT('',(-86.26307240186,6.572388894751,
    52.684149792061));
#830 = LINE('',#831,#832);
#831 = CARTESIAN_POINT('',(-86.26307240186,6.572388894751,
    52.684149792061));
#832 = VECTOR('',#833,1.);
#833 = DIRECTION('',(-0.707106781075,1.255664626965E-05,-0.707106781186)
  );
#834 = ORIENTED_EDGE('',*,*,#638,.T.);
#835 = ORIENTED_EDGE('',*,*,#789,.F.);
#836 = ORIENTED_EDGE('',*,*,#837,.T.);
#837 = EDGE_CURVE('',#790,#828,#838,.T.);
#838 = CIRCLE('',#839,0.6);
#839 = AXIS2_PLACEMENT_3D('',#840,#841,#842);
#840 = CARTESIAN_POINT('',(-85.66307240196,6.572378240083,
    52.684149792061));
#841 = DIRECTION('',(-4.456205792665E-14,1.191582002719E-15,-1.));
#842 = DIRECTION('',(-0.707113059482,-0.707100502836,3.066784488403E-14)
  );
#843 = CONICAL_SURFACE('',#844,0.8,0.785398163398);
#844 = AXIS2_PLACEMENT_3D('',#845,#846,#847);
#845 = CARTESIAN_POINT('',(-85.66307240196,6.572378240083,
    52.484149792061));
#846 = DIRECTION('',(-4.440892098506E-14,-7.418584943082E-43,-1.));
#847 = DIRECTION('',(-0.707113059482,-0.707100502836,3.140212798603E-14)
  );
#848 = ADVANCED_FACE('',(#849),#867,.T.);
#849 = FACE_BOUND('',#850,.T.);
#850 = EDGE_LOOP('',(#851,#852,#860,#866));
#851 = ORIENTED_EDGE('',*,*,#827,.F.);
#852 = ORIENTED_EDGE('',*,*,#853,.T.);
#853 = EDGE_CURVE('',#828,#854,#856,.T.);
#854 = VERTEX_POINT('',#855);
#855 = CARTESIAN_POINT('',(-86.26285930851,18.572388894751,
    52.684149792061));
#856 = LINE('',#857,#858);
#857 = CARTESIAN_POINT('',(-86.26302799483,9.073097328495,
    52.684149792061));
#858 = VECTOR('',#859,1.);
#859 = DIRECTION('',(1.775777945273E-05,0.999999999842,
    1.190790679335E-15));
#860 = ORIENTED_EDGE('',*,*,#861,.T.);
#861 = EDGE_CURVE('',#854,#582,#862,.T.);
#862 = LINE('',#863,#864);
#863 = CARTESIAN_POINT('',(-86.26285930851,18.572388894751,
    52.684149792061));
#864 = VECTOR('',#865,1.);
#865 = DIRECTION('',(-0.707106781075,1.255664626572E-05,-0.707106781187)
  );
#866 = ORIENTED_EDGE('',*,*,#614,.T.);
#867 = PLANE('',#868);
#868 = AXIS2_PLACEMENT_3D('',#869,#870,#871);
#869 = CARTESIAN_POINT('',(-86.4630279948,9.073100880051,52.484149792061
    ));
#870 = DIRECTION('',(-0.707106781075,1.2556646269E-05,0.707106781187));
#871 = DIRECTION('',(0.707106781242,9.317362419797E-21,0.707106781131));
#872 = ADVANCED_FACE('',(#873),#892,.T.);
#873 = FACE_BOUND('',#874,.T.);
#874 = EDGE_LOOP('',(#875,#883,#884,#885));
#875 = ORIENTED_EDGE('',*,*,#876,.T.);
#876 = EDGE_CURVE('',#877,#551,#879,.T.);
#877 = VERTEX_POINT('',#878);
#878 = CARTESIAN_POINT('',(-85.6628593086,19.172378240083,
    52.684149792061));
#879 = LINE('',#880,#881);
#880 = CARTESIAN_POINT('',(-85.6628593086,19.172378240083,
    52.684149792061));
#881 = VECTOR('',#882,1.);
#882 = DIRECTION('',(-3.140184917369E-14,0.707106781187,-0.707106781186)
  );
#883 = ORIENTED_EDGE('',*,*,#589,.T.);
#884 = ORIENTED_EDGE('',*,*,#861,.F.);
#885 = ORIENTED_EDGE('',*,*,#886,.T.);
#886 = EDGE_CURVE('',#854,#877,#887,.T.);
#887 = CIRCLE('',#888,0.6);
#888 = AXIS2_PLACEMENT_3D('',#889,#890,#891);
#889 = CARTESIAN_POINT('',(-85.6628593086,18.572378240083,
    52.684149792061));
#890 = DIRECTION('',(-4.456205792665E-14,1.191582002719E-15,-1.));
#891 = DIRECTION('',(-0.707100502836,0.707113059482,3.235243676289E-14)
  );
#892 = CONICAL_SURFACE('',#893,0.8,0.785398163398);
#893 = AXIS2_PLACEMENT_3D('',#894,#895,#896);
#894 = CARTESIAN_POINT('',(-85.6628593086,18.572378240083,
    52.484149792061));
#895 = DIRECTION('',(-4.440892098506E-14,-7.418584943082E-43,-1.));
#896 = DIRECTION('',(-0.707100502836,0.707113059482,3.140157035892E-14)
  );
#897 = ADVANCED_FACE('',(#898),#916,.T.);
#898 = FACE_BOUND('',#899,.T.);
#899 = EDGE_LOOP('',(#900,#908,#909,#910));
#900 = ORIENTED_EDGE('',*,*,#901,.T.);
#901 = EDGE_CURVE('',#902,#559,#904,.T.);
#902 = VERTEX_POINT('',#903);
#903 = CARTESIAN_POINT('',(75.914029093746,19.172378240087,
    52.684149792054));
#904 = LINE('',#905,#906);
#905 = CARTESIAN_POINT('',(75.914029093746,19.172378240087,
    52.684149792054));
#906 = VECTOR('',#907,1.);
#907 = DIRECTION('',(-4.710277376051E-14,0.707106781187,-0.707106781187)
  );
#908 = ORIENTED_EDGE('',*,*,#558,.T.);
#909 = ORIENTED_EDGE('',*,*,#876,.F.);
#910 = ORIENTED_EDGE('',*,*,#911,.T.);
#911 = EDGE_CURVE('',#877,#902,#912,.T.);
#912 = LINE('',#913,#914);
#913 = CARTESIAN_POINT('',(-45.76862832921,19.172378240084,
    52.684149792059));
#914 = VECTOR('',#915,1.);
#915 = DIRECTION('',(1.,2.465098181233E-14,-4.456205792665E-14));
#916 = PLANE('',#917);
#917 = AXIS2_PLACEMENT_3D('',#918,#919,#920);
#918 = CARTESIAN_POINT('',(-45.76862832921,19.372378240084,
    52.484149792059));
#919 = DIRECTION('',(1.407925694116E-14,0.707106781187,0.707106781187));
#920 = DIRECTION('',(1.,1.577721810442E-30,-1.991107611432E-14));
#921 = ADVANCED_FACE('',(#922),#949,.T.);
#922 = FACE_BOUND('',#923,.T.);
#923 = EDGE_LOOP('',(#924,#934,#941,#942));
#924 = ORIENTED_EDGE('',*,*,#925,.T.);
#925 = EDGE_CURVE('',#926,#928,#930,.T.);
#926 = VERTEX_POINT('',#927);
#927 = CARTESIAN_POINT('',(76.514029093651,18.572388894755,
    52.684149792054));
#928 = VERTEX_POINT('',#929);
#929 = CARTESIAN_POINT('',(76.914029093588,18.572395997866,
    52.284149792053));
#930 = LINE('',#931,#932);
#931 = CARTESIAN_POINT('',(76.514029093651,18.572388894755,
    52.684149792054));
#932 = VECTOR('',#933,1.);
#933 = DIRECTION('',(0.707106781075,1.255664626571E-05,-0.707106781187)
  );
#934 = ORIENTED_EDGE('',*,*,#935,.T.);
#935 = EDGE_CURVE('',#928,#559,#936,.T.);
#936 = CIRCLE('',#937,1.);
#937 = AXIS2_PLACEMENT_3D('',#938,#939,#940);
#938 = CARTESIAN_POINT('',(75.914029093746,18.572378240087,
    52.284149792053));
#939 = DIRECTION('',(4.456205792665E-14,-1.191582002719E-15,1.));
#940 = DIRECTION('',(0.707100502836,0.707113059482,-3.066727037175E-14)
  );
#941 = ORIENTED_EDGE('',*,*,#901,.F.);
#942 = ORIENTED_EDGE('',*,*,#943,.T.);
#943 = EDGE_CURVE('',#902,#926,#944,.T.);
#944 = CIRCLE('',#945,0.6);
#945 = AXIS2_PLACEMENT_3D('',#946,#947,#948);
#946 = CARTESIAN_POINT('',(75.914029093746,18.572378240087,
    52.684149792054));
#947 = DIRECTION('',(-4.456205792665E-14,1.191582002719E-15,-1.));
#948 = DIRECTION('',(0.707100502836,0.707113059482,-3.066727037175E-14)
  );
#949 = CONICAL_SURFACE('',#950,0.8,0.785398163397);
#950 = AXIS2_PLACEMENT_3D('',#951,#952,#953);
#951 = CARTESIAN_POINT('',(75.914029093746,18.572378240087,
    52.484149792054));
#952 = DIRECTION('',(-4.440892098496E-14,-7.418584943065E-43,-1.));
#953 = DIRECTION('',(0.707100502836,0.707113059482,-3.140157035885E-14)
  );
#954 = ADVANCED_FACE('',(#955),#980,.T.);
#955 = FACE_BOUND('',#956,.T.);
#956 = EDGE_LOOP('',(#957,#967,#973,#974));
#957 = ORIENTED_EDGE('',*,*,#958,.T.);
#958 = EDGE_CURVE('',#959,#961,#963,.T.);
#959 = VERTEX_POINT('',#960);
#960 = CARTESIAN_POINT('',(76.514242187005,6.572388894755,
    52.684149792054));
#961 = VERTEX_POINT('',#962);
#962 = CARTESIAN_POINT('',(76.914242186942,6.572395997866,
    52.284149792054));
#963 = LINE('',#964,#965);
#964 = CARTESIAN_POINT('',(76.514242187005,6.572388894755,
    52.684149792054));
#965 = VECTOR('',#966,1.);
#966 = DIRECTION('',(0.707106781075,1.255664626965E-05,-0.707106781187)
  );
#967 = ORIENTED_EDGE('',*,*,#968,.T.);
#968 = EDGE_CURVE('',#961,#928,#969,.T.);
#969 = LINE('',#970,#971);
#970 = CARTESIAN_POINT('',(76.914073475457,16.073104431609,
    52.284149792054));
#971 = VECTOR('',#972,1.);
#972 = DIRECTION('',(-1.775777945146E-05,0.999999999842,
    1.192373325728E-15));
#973 = ORIENTED_EDGE('',*,*,#925,.F.);
#974 = ORIENTED_EDGE('',*,*,#975,.T.);
#975 = EDGE_CURVE('',#926,#959,#976,.T.);
#976 = LINE('',#977,#978);
#977 = CARTESIAN_POINT('',(76.51407347552,16.073097328497,
    52.684149792054));
#978 = VECTOR('',#979,1.);
#979 = DIRECTION('',(1.775777945146E-05,-0.999999999842,
    -1.192373325728E-15));
#980 = PLANE('',#981);
#981 = AXIS2_PLACEMENT_3D('',#982,#983,#984);
#982 = CARTESIAN_POINT('',(76.714073475488,16.073100880053,
    52.484149792054));
#983 = DIRECTION('',(0.707106781075,1.25566462681E-05,0.707106781187));
#984 = DIRECTION('',(0.707106781242,1.185846126156E-20,-0.707106781131)
  );
#985 = ADVANCED_FACE('',(#986),#1004,.T.);
#986 = FACE_BOUND('',#987,.T.);
#987 = EDGE_LOOP('',(#988,#989,#996,#997));
#988 = ORIENTED_EDGE('',*,*,#805,.F.);
#989 = ORIENTED_EDGE('',*,*,#990,.T.);
#990 = EDGE_CURVE('',#798,#961,#991,.T.);
#991 = CIRCLE('',#992,1.);
#992 = AXIS2_PLACEMENT_3D('',#993,#994,#995);
#993 = CARTESIAN_POINT('',(75.914242187099,6.572378240087,
    52.284149792053));
#994 = DIRECTION('',(4.456205792665E-14,-1.191582002719E-15,1.));
#995 = DIRECTION('',(0.707113059482,-0.707100502836,-3.235298135061E-14)
  );
#996 = ORIENTED_EDGE('',*,*,#958,.F.);
#997 = ORIENTED_EDGE('',*,*,#998,.T.);
#998 = EDGE_CURVE('',#959,#806,#999,.T.);
#999 = CIRCLE('',#1000,0.6);
#1000 = AXIS2_PLACEMENT_3D('',#1001,#1002,#1003);
#1001 = CARTESIAN_POINT('',(75.914242187099,6.572378240087,
    52.684149792054));
#1002 = DIRECTION('',(-4.456205792665E-14,1.191582002719E-15,-1.));
#1003 = DIRECTION('',(0.707113059482,-0.707100502836,-3.235298135061E-14
    ));
#1004 = CONICAL_SURFACE('',#1005,0.8,0.785398163397);
#1005 = AXIS2_PLACEMENT_3D('',#1006,#1007,#1008);
#1006 = CARTESIAN_POINT('',(75.914242187099,6.572378240087,
    52.484149792054));
#1007 = DIRECTION('',(-4.440892098496E-14,-7.418584943065E-43,-1.));
#1008 = DIRECTION('',(0.707113059482,-0.707100502836,-3.140212798596E-14
    ));
#1009 = ADVANCED_FACE('',(#1010),#1021,.T.);
#1010 = FACE_BOUND('',#1011,.T.);
#1011 = EDGE_LOOP('',(#1012,#1013,#1014,#1015));
#1012 = ORIENTED_EDGE('',*,*,#447,.F.);
#1013 = ORIENTED_EDGE('',*,*,#566,.T.);
#1014 = ORIENTED_EDGE('',*,*,#935,.F.);
#1015 = ORIENTED_EDGE('',*,*,#1016,.T.);
#1016 = EDGE_CURVE('',#928,#421,#1017,.T.);
#1017 = LINE('',#1018,#1019);
#1018 = CARTESIAN_POINT('',(76.914029093588,18.572395997866,
    52.684149792053));
#1019 = VECTOR('',#1020,1.);
#1020 = DIRECTION('',(-4.736951571734E-14,1.480297366167E-15,-1.));
#1021 = CYLINDRICAL_SURFACE('',#1022,1.);
#1022 = AXIS2_PLACEMENT_3D('',#1023,#1024,#1025);
#1023 = CARTESIAN_POINT('',(75.914029093746,18.572378240087,
    52.684149792054));
#1024 = DIRECTION('',(-4.736951571734E-14,1.480297366167E-15,-1.));
#1025 = DIRECTION('',(0.707100502836,0.707113059482,-3.244827078327E-14)
  );
#1026 = ADVANCED_FACE('',(#1027),#1038,.T.);
#1027 = FACE_BOUND('',#1028,.T.);
#1028 = EDGE_LOOP('',(#1029,#1030,#1031,#1032));
#1029 = ORIENTED_EDGE('',*,*,#429,.F.);
#1030 = ORIENTED_EDGE('',*,*,#1016,.F.);
#1031 = ORIENTED_EDGE('',*,*,#968,.F.);
#1032 = ORIENTED_EDGE('',*,*,#1033,.F.);
#1033 = EDGE_CURVE('',#386,#961,#1034,.T.);
#1034 = LINE('',#1035,#1036);
#1035 = CARTESIAN_POINT('',(76.914242186942,6.572395997866,
    52.684149792054));
#1036 = VECTOR('',#1037,1.);
#1037 = DIRECTION('',(4.736951571734E-14,-1.480297366167E-15,1.));
#1038 = PLANE('',#1039);
#1039 = AXIS2_PLACEMENT_3D('',#1040,#1041,#1042);
#1040 = CARTESIAN_POINT('',(76.914011336124,19.572378240087,
    52.684149792054));
#1041 = DIRECTION('',(0.999999999842,1.775777945146E-05,
    -4.736948942308E-14));
#1042 = DIRECTION('',(1.775777945146E-05,-0.999999999842,
    -1.024788322009E-15));
#1043 = ADVANCED_FACE('',(#1044),#1055,.T.);
#1044 = FACE_BOUND('',#1045,.T.);
#1045 = EDGE_LOOP('',(#1046,#1047,#1048,#1049));
#1046 = ORIENTED_EDGE('',*,*,#385,.F.);
#1047 = ORIENTED_EDGE('',*,*,#1033,.T.);
#1048 = ORIENTED_EDGE('',*,*,#990,.F.);
#1049 = ORIENTED_EDGE('',*,*,#1050,.T.);
#1050 = EDGE_CURVE('',#798,#359,#1051,.T.);
#1051 = LINE('',#1052,#1053);
#1052 = CARTESIAN_POINT('',(75.914242187099,5.572378240087,
    52.684149792054));
#1053 = VECTOR('',#1054,1.);
#1054 = DIRECTION('',(-4.736951571734E-14,1.480297366167E-15,-1.));
#1055 = CYLINDRICAL_SURFACE('',#1056,1.);
#1056 = AXIS2_PLACEMENT_3D('',#1057,#1058,#1059);
#1057 = CARTESIAN_POINT('',(75.914242187099,6.572378240087,
    52.684149792054));
#1058 = DIRECTION('',(-4.736951571734E-14,1.480297366167E-15,-1.));
#1059 = DIRECTION('',(0.707113059482,-0.707100502836,-3.454232219702E-14
    ));
#1060 = ADVANCED_FACE('',(#1061),#1067,.T.);
#1061 = FACE_BOUND('',#1062,.T.);
#1062 = EDGE_LOOP('',(#1063,#1064,#1065,#1066));
#1063 = ORIENTED_EDGE('',*,*,#367,.F.);
#1064 = ORIENTED_EDGE('',*,*,#1050,.F.);
#1065 = ORIENTED_EDGE('',*,*,#797,.F.);
#1066 = ORIENTED_EDGE('',*,*,#630,.F.);
#1067 = PLANE('',#1068);
#1068 = AXIS2_PLACEMENT_3D('',#1069,#1070,#1071);
#1069 = CARTESIAN_POINT('',(76.914259945036,5.572378240087,
    52.684149792054));
#1070 = DIRECTION('',(2.475950118543E-14,-1.,-1.480297366168E-15));
#1071 = DIRECTION('',(-1.,-2.475950118543E-14,4.454769884488E-14));
#1072 = ADVANCED_FACE('',(#1073,#1083,#1086,#1089),#1092,.F.);
#1073 = FACE_BOUND('',#1074,.T.);
#1074 = EDGE_LOOP('',(#1075,#1076,#1077,#1078,#1079,#1080,#1081,#1082));
#1075 = ORIENTED_EDGE('',*,*,#813,.F.);
#1076 = ORIENTED_EDGE('',*,*,#998,.F.);
#1077 = ORIENTED_EDGE('',*,*,#975,.F.);
#1078 = ORIENTED_EDGE('',*,*,#943,.F.);
#1079 = ORIENTED_EDGE('',*,*,#911,.F.);
#1080 = ORIENTED_EDGE('',*,*,#886,.F.);
#1081 = ORIENTED_EDGE('',*,*,#853,.F.);
#1082 = ORIENTED_EDGE('',*,*,#837,.F.);
#1083 = FACE_BOUND('',#1084,.T.);
#1084 = EDGE_LOOP('',(#1085));
#1085 = ORIENTED_EDGE('',*,*,#682,.T.);
#1086 = FACE_BOUND('',#1087,.T.);
#1087 = EDGE_LOOP('',(#1088));
#1088 = ORIENTED_EDGE('',*,*,#727,.T.);
#1089 = FACE_BOUND('',#1090,.T.);
#1090 = EDGE_LOOP('',(#1091));
#1091 = ORIENTED_EDGE('',*,*,#772,.T.);
#1092 = PLANE('',#1093);
#1093 = AXIS2_PLACEMENT_3D('',#1094,#1095,#1096);
#1094 = CARTESIAN_POINT('',(-4.874415107432,12.572378240085,
    52.684149792057));
#1095 = DIRECTION('',(-4.456205792665E-14,1.191582002719E-15,-1.));
#1096 = DIRECTION('',(-1.,-3.414190642217E-29,4.456205792665E-14));
#1097 = ( GEOMETRIC_REPRESENTATION_CONTEXT(3) 
GLOBAL_UNCERTAINTY_ASSIGNED_CONTEXT((#1101)) 
GLOBAL_UNIT_ASSIGNED_CONTEXT((#1098,#1099,#1100)) REPRESENTATION_CONTEXT
('Context #1','3D Context with UNIT and UNCERTAINTY') );
#1098 = ( LENGTH_UNIT() NAMED_UNIT(*) SI_UNIT(.MILLI.,.METRE.) );
#1099 = ( NAMED_UNIT(*) PLANE_ANGLE_UNIT() SI_UNIT($,.RADIAN.) );
#1100 = ( NAMED_UNIT(*) SI_UNIT($,.STERADIAN.) SOLID_ANGLE_UNIT() );
#1101 = UNCERTAINTY_MEASURE_WITH_UNIT(LENGTH_MEASURE(2.E-03),#1098,
  'distance_accuracy_value','confusion accuracy');
#1102 = PRODUCT_RELATED_PRODUCT_CATEGORY('part',$,(#7));
#1103 = MECHANICAL_DESIGN_GEOMETRIC_PRESENTATION_REPRESENTATION('',(
    #1104),#1097);
#1104 = STYLED_ITEM('color',(#1105),#15);
#1105 = PRESENTATION_STYLE_ASSIGNMENT((#1106,#1112));
#1106 = SURFACE_STYLE_USAGE(.BOTH.,#1107);
#1107 = SURFACE_SIDE_STYLE('',(#1108));
#1108 = SURFACE_STYLE_FILL_AREA(#1109);
#1109 = FILL_AREA_STYLE('',(#1110));
#1110 = FILL_AREA_STYLE_COLOUR('',#1111);
#1111 = COLOUR_RGB('',1.,0.435294116471,0.);
#1112 = CURVE_STYLE('',#1113,POSITIVE_LENGTH_MEASURE(0.1),#1114);
#1113 = DRAUGHTING_PRE_DEFINED_CURVE_FONT('continuous');
#1114 = COLOUR_RGB('',9.803921802644E-02,9.803921802644E-02,
  9.803921802644E-02);
ENDSEC;
END-ISO-10303-21;
