ISO-10303-21;
HEADER;
FILE_DESCRIPTION(('FreeCAD Model'),'2;1');
FILE_NAME('Open CASCADE Shape Model','2025-11-08T20:40:13',(''),(''),
  'Open CASCADE STEP processor 7.9','FreeCAD','Unknown');
FILE_SCHEMA(('AUTOMOTIVE_DESIGN { 1 0 10303 214 1 1 1 1 }'));
ENDSEC;
DATA;
#1 = APPLICATION_PROTOCOL_DEFINITION('international standard',
  'automotive_design',2000,#2);
#2 = APPLICATION_CONTEXT(
  'core data for automotive mechanical design processes');
#3 = SHAPE_DEFINITION_REPRESENTATION(#4,#10);
#4 = PRODUCT_DEFINITION_SHAPE('','',#5);
#5 = PRODUCT_DEFINITION('design','',#6,#9);
#6 = PRODUCT_DEFINITION_FORMATION('','',#7);
#7 = PRODUCT('[a]skirt_dv_logo_x8 (1)001','[a]skirt_dv_logo_x8 (1)001',
  '',(#8));
#8 = PRODUCT_CONTEXT('',#2,'mechanical');
#9 = PRODUCT_DEFINITION_CONTEXT('part definition',#2,'design');
#10 = ADVANCED_BREP_SHAPE_REPRESENTATION('',(#11,#15),#807);
#11 = AXIS2_PLACEMENT_3D('',#12,#13,#14);
#12 = CARTESIAN_POINT('',(0.,0.,0.));
#13 = DIRECTION('',(0.,0.,1.));
#14 = DIRECTION('',(1.,0.,-0.));
#15 = MANIFOLD_SOLID_BREP('',#16);
#16 = CLOSED_SHELL('',(#17,#57,#88,#119,#141,#172,#196,#208,#248,#279,
    #310,#332,#363,#387,#399,#439,#470,#501,#523,#554,#578,#590,#614,
    #631,#655,#672,#696,#713,#748,#781,#798));
#17 = ADVANCED_FACE('',(#18),#52,.F.);
#18 = FACE_BOUND('',#19,.T.);
#19 = EDGE_LOOP('',(#20,#30,#38,#46));
#20 = ORIENTED_EDGE('',*,*,#21,.F.);
#21 = EDGE_CURVE('',#22,#24,#26,.T.);
#22 = VERTEX_POINT('',#23);
#23 = CARTESIAN_POINT('',(98.133848451115,21.772378240087,
    99.331501735255));
#24 = VERTEX_POINT('',#25);
#25 = CARTESIAN_POINT('',(91.689652806199,21.772378240086,
    99.281985790196));
#26 = LINE('',#27,#28);
#27 = CARTESIAN_POINT('',(93.655889446023,21.772378240086,
    99.297093969835));
#28 = VECTOR('',#29,1.);
#29 = DIRECTION('',(-0.999970480875,-2.791236246722E-13,
    -7.68357854414E-03));
#30 = ORIENTED_EDGE('',*,*,#31,.T.);
#31 = EDGE_CURVE('',#22,#32,#34,.T.);
#32 = VERTEX_POINT('',#33);
#33 = CARTESIAN_POINT('',(98.823576793379,22.172378240087,99.73681328159
    ));
#34 = LINE('',#35,#36);
#35 = CARTESIAN_POINT('',(98.133848451115,21.772378240087,
    99.331501735255));
#36 = VECTOR('',#37,1.);
#37 = DIRECTION('',(0.771138459343,0.447212858798,0.45315133835));
#38 = ORIENTED_EDGE('',*,*,#39,.F.);
#39 = EDGE_CURVE('',#40,#32,#42,.T.);
#40 = VERTEX_POINT('',#41);
#41 = CARTESIAN_POINT('',(91.455646718289,22.172378240085,
    99.680199540962));
#42 = LINE('',#43,#44);
#43 = CARTESIAN_POINT('',(93.652816014605,22.172378240086,
    99.697082162185));
#44 = VECTOR('',#45,1.);
#45 = DIRECTION('',(0.999970480875,2.791236246722E-13,7.68357854414E-03)
  );
#46 = ORIENTED_EDGE('',*,*,#47,.F.);
#47 = EDGE_CURVE('',#24,#40,#48,.T.);
#48 = LINE('',#49,#50);
#49 = CARTESIAN_POINT('',(91.689652806199,21.772378240086,
    99.281985790196));
#50 = VECTOR('',#51,1.);
#51 = DIRECTION('',(-0.382982511259,0.654653927475,0.651730489783));
#52 = PLANE('',#53);
#53 = AXIS2_PLACEMENT_3D('',#54,#55,#56);
#54 = CARTESIAN_POINT('',(93.654352730314,21.972378240086,99.49708806601
    ));
#55 = DIRECTION('',(5.433110492143E-03,0.707106781187,-0.707085908013));
#56 = DIRECTION('',(-0.999970480875,-4.909813874909E-13,
    -7.683578544352E-03));
#57 = ADVANCED_FACE('',(#58),#83,.F.);
#58 = FACE_BOUND('',#59,.T.);
#59 = EDGE_LOOP('',(#60,#68,#69,#77));
#60 = ORIENTED_EDGE('',*,*,#61,.F.);
#61 = EDGE_CURVE('',#24,#62,#64,.T.);
#62 = VERTEX_POINT('',#63);
#63 = CARTESIAN_POINT('',(90.708236858974,21.772378240086,
    97.551562197676));
#64 = LINE('',#65,#66);
#65 = CARTESIAN_POINT('',(90.340480111199,21.772378240085,
    96.903136874593));
#66 = VECTOR('',#67,1.);
#67 = DIRECTION('',(-0.493333134445,-1.936822113265E-14,-0.86984045575)
  );
#68 = ORIENTED_EDGE('',*,*,#47,.T.);
#69 = ORIENTED_EDGE('',*,*,#70,.F.);
#70 = EDGE_CURVE('',#71,#40,#73,.T.);
#71 = VERTEX_POINT('',#72);
#72 = CARTESIAN_POINT('',(90.018508516708,22.172378240085,
    97.146250651342));
#73 = LINE('',#74,#75);
#74 = CARTESIAN_POINT('',(89.992543928898,22.172378240085,
    97.100470128371));
#75 = VECTOR('',#76,1.);
#76 = DIRECTION('',(0.493333134445,1.936822113265E-14,0.86984045575));
#77 = ORIENTED_EDGE('',*,*,#78,.F.);
#78 = EDGE_CURVE('',#62,#71,#79,.T.);
#79 = LINE('',#80,#81);
#80 = CARTESIAN_POINT('',(90.708236858974,21.772378240086,
    97.551562197676));
#81 = VECTOR('',#82,1.);
#82 = DIRECTION('',(-0.771138459344,0.447212858797,-0.453151338349));
#83 = PLANE('',#84);
#84 = AXIS2_PLACEMENT_3D('',#85,#86,#87);
#85 = CARTESIAN_POINT('',(90.166512020049,21.972378240085,
    97.001803501482));
#86 = DIRECTION('',(0.615070084811,0.707106781187,-0.34883920475));
#87 = DIRECTION('',(-0.493333134445,-5.02653474399E-14,-0.86984045575));
#88 = ADVANCED_FACE('',(#89),#114,.F.);
#89 = FACE_BOUND('',#90,.T.);
#90 = EDGE_LOOP('',(#91,#99,#100,#108));
#91 = ORIENTED_EDGE('',*,*,#92,.F.);
#92 = EDGE_CURVE('',#62,#93,#95,.T.);
#93 = VERTEX_POINT('',#94);
#94 = CARTESIAN_POINT('',(97.152432503896,21.772378240087,
    97.601078142735));
#95 = LINE('',#96,#97);
#96 = CARTESIAN_POINT('',(96.624830707805,21.772378240087,
    97.597024153225));
#97 = VECTOR('',#98,1.);
#98 = DIRECTION('',(0.999970480875,2.791236246722E-13,7.683578544155E-03
    ));
#99 = ORIENTED_EDGE('',*,*,#78,.T.);
#100 = ORIENTED_EDGE('',*,*,#101,.F.);
#101 = EDGE_CURVE('',#102,#71,#104,.T.);
#102 = VERTEX_POINT('',#103);
#103 = CARTESIAN_POINT('',(97.386438591807,22.172378240087,
    97.20286439197));
#104 = LINE('',#105,#106);
#105 = CARTESIAN_POINT('',(96.627904139222,22.172378240087,
    97.197035960875));
#106 = VECTOR('',#107,1.);
#107 = DIRECTION('',(-0.999970480875,-2.791236246722E-13,
    -7.683578544155E-03));
#108 = ORIENTED_EDGE('',*,*,#109,.F.);
#109 = EDGE_CURVE('',#93,#102,#110,.T.);
#110 = LINE('',#111,#112);
#111 = CARTESIAN_POINT('',(97.152432503896,21.772378240087,
    97.601078142735));
#112 = VECTOR('',#113,1.);
#113 = DIRECTION('',(0.382982511259,0.654653927475,-0.651730489782));
#114 = PLANE('',#115);
#115 = AXIS2_PLACEMENT_3D('',#116,#117,#118);
#116 = CARTESIAN_POINT('',(96.626367423513,21.972378240087,
    97.39703005705));
#117 = DIRECTION('',(-5.43311049255E-03,0.707106781186,0.707085908013));
#118 = DIRECTION('',(0.999970480875,4.910438375361E-13,
    7.683578543943E-03));
#119 = ADVANCED_FACE('',(#120),#136,.F.);
#120 = FACE_BOUND('',#121,.T.);
#121 = EDGE_LOOP('',(#122,#128,#129,#135));
#122 = ORIENTED_EDGE('',*,*,#123,.F.);
#123 = EDGE_CURVE('',#32,#102,#124,.T.);
#124 = LINE('',#125,#126);
#125 = CARTESIAN_POINT('',(97.170301527616,22.172378240087,
    96.821773503695));
#126 = VECTOR('',#127,1.);
#127 = DIRECTION('',(-0.493333134442,-1.939597670803E-14,-0.869840455751
    ));
#128 = ORIENTED_EDGE('',*,*,#31,.F.);
#129 = ORIENTED_EDGE('',*,*,#130,.F.);
#130 = EDGE_CURVE('',#93,#22,#131,.T.);
#131 = LINE('',#132,#133);
#132 = CARTESIAN_POINT('',(96.822365345316,21.772378240087,
    97.019106757472));
#133 = VECTOR('',#134,1.);
#134 = DIRECTION('',(0.493333134442,1.939597670803E-14,0.869840455751));
#135 = ORIENTED_EDGE('',*,*,#109,.T.);
#136 = PLANE('',#137);
#137 = AXIS2_PLACEMENT_3D('',#138,#139,#140);
#138 = CARTESIAN_POINT('',(96.996333436466,21.972378240087,
    96.920440130583));
#139 = DIRECTION('',(-0.615070084812,0.707106781186,0.348839204748));
#140 = DIRECTION('',(0.493333134442,4.987676938129E-14,0.869840455751));
#141 = ADVANCED_FACE('',(#142),#167,.F.);
#142 = FACE_BOUND('',#143,.T.);
#143 = EDGE_LOOP('',(#144,#145,#153,#161));
#144 = ORIENTED_EDGE('',*,*,#123,.T.);
#145 = ORIENTED_EDGE('',*,*,#146,.F.);
#146 = EDGE_CURVE('',#147,#102,#149,.T.);
#147 = VERTEX_POINT('',#148);
#148 = CARTESIAN_POINT('',(97.386438591805,29.772378240087,
    97.202864391971));
#149 = LINE('',#150,#151);
#150 = CARTESIAN_POINT('',(97.386438591805,29.772378240087,
    97.202864391971));
#151 = VECTOR('',#152,1.);
#152 = DIRECTION('',(2.803313137178E-13,-1.,-1.366256000121E-13));
#153 = ORIENTED_EDGE('',*,*,#154,.T.);
#154 = EDGE_CURVE('',#147,#155,#157,.T.);
#155 = VERTEX_POINT('',#156);
#156 = CARTESIAN_POINT('',(98.823576793376,29.772378240087,
    99.736813281591));
#157 = LINE('',#158,#159);
#158 = CARTESIAN_POINT('',(97.170301527614,29.772378240087,
    96.821773503696));
#159 = VECTOR('',#160,1.);
#160 = DIRECTION('',(0.493333134442,1.895188749818E-14,0.869840455751));
#161 = ORIENTED_EDGE('',*,*,#162,.T.);
#162 = EDGE_CURVE('',#155,#32,#163,.T.);
#163 = LINE('',#164,#165);
#164 = CARTESIAN_POINT('',(98.823576793376,29.772378240087,
    99.736813281591));
#165 = VECTOR('',#166,1.);
#166 = DIRECTION('',(2.803313137178E-13,-1.,-1.366256000121E-13));
#167 = PLANE('',#168);
#168 = AXIS2_PLACEMENT_3D('',#169,#170,#171);
#169 = CARTESIAN_POINT('',(98.823576793376,29.772378240087,
    99.736813281591));
#170 = DIRECTION('',(-0.869840455751,-3.110833249926E-13,0.493333134442)
  );
#171 = DIRECTION('',(-0.493333134442,-2.042293300581E-14,-0.869840455751
    ));
#172 = ADVANCED_FACE('',(#173),#191,.F.);
#173 = FACE_BOUND('',#174,.T.);
#174 = EDGE_LOOP('',(#175,#176,#177,#185));
#175 = ORIENTED_EDGE('',*,*,#39,.T.);
#176 = ORIENTED_EDGE('',*,*,#162,.F.);
#177 = ORIENTED_EDGE('',*,*,#178,.T.);
#178 = EDGE_CURVE('',#155,#179,#181,.T.);
#179 = VERTEX_POINT('',#180);
#180 = CARTESIAN_POINT('',(91.455646718287,29.772378240085,
    99.680199540963));
#181 = LINE('',#182,#183);
#182 = CARTESIAN_POINT('',(93.652816014603,29.772378240086,
    99.697082162186));
#183 = VECTOR('',#184,1.);
#184 = DIRECTION('',(-0.999970480875,-2.795677138821E-13,
    -7.68357854414E-03));
#185 = ORIENTED_EDGE('',*,*,#186,.T.);
#186 = EDGE_CURVE('',#179,#40,#187,.T.);
#187 = LINE('',#188,#189);
#188 = CARTESIAN_POINT('',(91.455646718287,29.772378240085,
    99.680199540963));
#189 = VECTOR('',#190,1.);
#190 = DIRECTION('',(2.803313137178E-13,-1.,-1.366256000121E-13));
#191 = PLANE('',#192);
#192 = AXIS2_PLACEMENT_3D('',#193,#194,#195);
#193 = CARTESIAN_POINT('',(91.455646718287,29.772378240085,
    99.680199540963));
#194 = DIRECTION('',(7.68357854414E-03,1.388161879601E-13,
    -0.999970480875));
#195 = DIRECTION('',(0.999970480875,2.795677138821E-13,7.68357854414E-03
    ));
#196 = ADVANCED_FACE('',(#197),#203,.F.);
#197 = FACE_BOUND('',#198,.T.);
#198 = EDGE_LOOP('',(#199,#200,#201,#202));
#199 = ORIENTED_EDGE('',*,*,#21,.T.);
#200 = ORIENTED_EDGE('',*,*,#61,.T.);
#201 = ORIENTED_EDGE('',*,*,#92,.T.);
#202 = ORIENTED_EDGE('',*,*,#130,.T.);
#203 = PLANE('',#204);
#204 = AXIS2_PLACEMENT_3D('',#205,#206,#207);
#205 = CARTESIAN_POINT('',(95.896259604207,21.772378240087,
    93.691650175443));
#206 = DIRECTION('',(-2.803313137178E-13,1.,1.366256000121E-13));
#207 = DIRECTION('',(-0.866025403784,-1.744612391498E-13,-0.5));
#208 = ADVANCED_FACE('',(#209),#243,.F.);
#209 = FACE_BOUND('',#210,.T.);
#210 = EDGE_LOOP('',(#211,#221,#229,#237));
#211 = ORIENTED_EDGE('',*,*,#212,.F.);
#212 = EDGE_CURVE('',#213,#215,#217,.T.);
#213 = VERTEX_POINT('',#214);
#214 = CARTESIAN_POINT('',(88.75046636221,21.772378240085,
    94.099639222545));
#215 = VERTEX_POINT('',#216);
#216 = CARTESIAN_POINT('',(87.769047933336,21.772378240085,
    92.369211254404));
#217 = LINE('',#218,#219);
#218 = CARTESIAN_POINT('',(88.984816267567,21.772378240085,
    94.512842825239));
#219 = VECTOR('',#220,1.);
#220 = DIRECTION('',(-0.493333134444,-1.939597670826E-14,-0.86984045575)
  );
#221 = ORIENTED_EDGE('',*,*,#222,.T.);
#222 = EDGE_CURVE('',#213,#223,#225,.T.);
#223 = VERTEX_POINT('',#224);
#224 = CARTESIAN_POINT('',(88.744319858218,22.172378240085,94.8996129008
    ));
#225 = LINE('',#226,#227);
#226 = CARTESIAN_POINT('',(88.75046636221,21.772378240085,
    94.099639222545));
#227 = VECTOR('',#228,1.);
#228 = DIRECTION('',(-6.87201899227E-03,0.447214807059,0.894400185433));
#229 = ORIENTED_EDGE('',*,*,#230,.F.);
#230 = EDGE_CURVE('',#231,#223,#233,.T.);
#231 = VERTEX_POINT('',#232);
#232 = CARTESIAN_POINT('',(87.307180829425,22.172378240085,
    92.365662552647));
#233 = LINE('',#234,#235);
#234 = CARTESIAN_POINT('',(88.636880085267,22.172378240085,
    94.710176079017));
#235 = VECTOR('',#236,1.);
#236 = DIRECTION('',(0.493333134444,1.939597670826E-14,0.86984045575));
#237 = ORIENTED_EDGE('',*,*,#238,.F.);
#238 = EDGE_CURVE('',#215,#231,#239,.T.);
#239 = LINE('',#240,#241);
#240 = CARTESIAN_POINT('',(87.769047933336,21.772378240085,
    92.369211254404));
#241 = VECTOR('',#242,1.);
#242 = DIRECTION('',(-0.7559069998,0.654653248434,-5.807922832908E-03));
#243 = PLANE('',#244);
#244 = AXIS2_PLACEMENT_3D('',#245,#246,#247);
#245 = CARTESIAN_POINT('',(88.810848176417,21.972378240085,
    94.611509452128));
#246 = DIRECTION('',(0.615070084811,0.707106781187,-0.34883920475));
#247 = DIRECTION('',(-0.493333134444,-4.965472477636E-14,-0.86984045575)
  );
#248 = ADVANCED_FACE('',(#249),#274,.F.);
#249 = FACE_BOUND('',#250,.T.);
#250 = EDGE_LOOP('',(#251,#259,#260,#268));
#251 = ORIENTED_EDGE('',*,*,#252,.F.);
#252 = EDGE_CURVE('',#215,#253,#255,.T.);
#253 = VERTEX_POINT('',#254);
#254 = CARTESIAN_POINT('',(91.034024484292,21.772378240087,
    86.813157265898));
#255 = LINE('',#256,#257);
#256 = CARTESIAN_POINT('',(90.331283608026,21.772378240087,
    88.009020754511));
#257 = VECTOR('',#258,1.);
#258 = DIRECTION('',(0.506640735991,2.597835024463E-13,-0.862157273723)
  );
#259 = ORIENTED_EDGE('',*,*,#238,.T.);
#260 = ORIENTED_EDGE('',*,*,#261,.F.);
#261 = EDGE_CURVE('',#262,#231,#264,.T.);
#262 = VERTEX_POINT('',#263);
#263 = CARTESIAN_POINT('',(91.040170988285,22.172378240087,
    86.013183587642));
#264 = LINE('',#265,#266);
#265 = CARTESIAN_POINT('',(89.986420698537,22.172378240087,
    87.806364460114));
#266 = VECTOR('',#267,1.);
#267 = DIRECTION('',(-0.506640735991,-2.597835024463E-13,0.862157273723)
  );
#268 = ORIENTED_EDGE('',*,*,#269,.F.);
#269 = EDGE_CURVE('',#253,#262,#270,.T.);
#270 = LINE('',#271,#272);
#271 = CARTESIAN_POINT('',(91.034024484292,21.772378240087,
    86.813157265898));
#272 = VECTOR('',#273,1.);
#273 = DIRECTION('',(6.872018993051E-03,0.447214807059,-0.894400185433)
  );
#274 = PLANE('',#275);
#275 = AXIS2_PLACEMENT_3D('',#276,#277,#278);
#276 = CARTESIAN_POINT('',(90.158852153282,21.972378240087,
    87.907692607313));
#277 = DIRECTION('',(0.609637254699,0.707106781187,0.358249100045));
#278 = DIRECTION('',(0.506640735991,4.414801857422E-13,-0.862157273724)
  );
#279 = ADVANCED_FACE('',(#280),#305,.F.);
#280 = FACE_BOUND('',#281,.T.);
#281 = EDGE_LOOP('',(#282,#290,#291,#299));
#282 = ORIENTED_EDGE('',*,*,#283,.F.);
#283 = EDGE_CURVE('',#253,#284,#286,.T.);
#284 = VERTEX_POINT('',#285);
#285 = CARTESIAN_POINT('',(92.015442913165,21.772378240087,
    88.543585234046));
#286 = LINE('',#287,#288);
#287 = CARTESIAN_POINT('',(93.649231957182,21.772378240087,
    91.424267084569));
#288 = VECTOR('',#289,1.);
#289 = DIRECTION('',(0.493333134442,1.939597670803E-14,0.869840455751));
#290 = ORIENTED_EDGE('',*,*,#269,.T.);
#291 = ORIENTED_EDGE('',*,*,#292,.F.);
#292 = EDGE_CURVE('',#293,#262,#295,.T.);
#293 = VERTEX_POINT('',#294);
#294 = CARTESIAN_POINT('',(92.477310017075,22.172378240087,
    88.547133935804));
#295 = LINE('',#296,#297);
#296 = CARTESIAN_POINT('',(93.997168139482,22.172378240087,
    91.226933830792));
#297 = VECTOR('',#298,1.);
#298 = DIRECTION('',(-0.493333134442,-1.939597670803E-14,-0.869840455751
    ));
#299 = ORIENTED_EDGE('',*,*,#300,.F.);
#300 = EDGE_CURVE('',#284,#293,#301,.T.);
#301 = LINE('',#302,#303);
#302 = CARTESIAN_POINT('',(92.015442913165,21.772378240087,
    88.543585234046));
#303 = VECTOR('',#304,1.);
#304 = DIRECTION('',(0.755906999799,0.654653248435,5.807922834217E-03));
#305 = PLANE('',#306);
#306 = AXIS2_PLACEMENT_3D('',#307,#308,#309);
#307 = CARTESIAN_POINT('',(93.823200048332,21.972378240087,
    91.32560045768));
#308 = DIRECTION('',(-0.615070084812,0.707106781186,0.348839204748));
#309 = DIRECTION('',(0.493333134442,4.982125823005E-14,0.869840455751));
#310 = ADVANCED_FACE('',(#311),#327,.F.);
#311 = FACE_BOUND('',#312,.T.);
#312 = EDGE_LOOP('',(#313,#319,#320,#326));
#313 = ORIENTED_EDGE('',*,*,#314,.F.);
#314 = EDGE_CURVE('',#223,#293,#315,.T.);
#315 = LINE('',#316,#317);
#316 = CARTESIAN_POINT('',(89.926038568887,22.172378240086,
    92.888666465739));
#317 = VECTOR('',#318,1.);
#318 = DIRECTION('',(0.506640735991,2.597557468707E-13,-0.862157273723)
  );
#319 = ORIENTED_EDGE('',*,*,#222,.F.);
#320 = ORIENTED_EDGE('',*,*,#321,.F.);
#321 = EDGE_CURVE('',#284,#213,#322,.T.);
#322 = LINE('',#323,#324);
#323 = CARTESIAN_POINT('',(89.581175659398,21.772378240086,
    92.686010171343));
#324 = VECTOR('',#325,1.);
#325 = DIRECTION('',(-0.506640735991,-2.597557468707E-13,0.862157273723)
  );
#326 = ORIENTED_EDGE('',*,*,#300,.T.);
#327 = PLANE('',#328);
#328 = AXIS2_PLACEMENT_3D('',#329,#330,#331);
#329 = CARTESIAN_POINT('',(89.753607114142,21.972378240086,
    92.787338318541));
#330 = DIRECTION('',(-0.609637254699,0.707106781186,-0.358249100045));
#331 = DIRECTION('',(-0.506640735992,-4.41063852108E-13,0.862157273723)
  );
#332 = ADVANCED_FACE('',(#333),#358,.F.);
#333 = FACE_BOUND('',#334,.T.);
#334 = EDGE_LOOP('',(#335,#336,#344,#352));
#335 = ORIENTED_EDGE('',*,*,#314,.T.);
#336 = ORIENTED_EDGE('',*,*,#337,.F.);
#337 = EDGE_CURVE('',#338,#293,#340,.T.);
#338 = VERTEX_POINT('',#339);
#339 = CARTESIAN_POINT('',(92.477310017072,29.772378240087,
    88.547133935805));
#340 = LINE('',#341,#342);
#341 = CARTESIAN_POINT('',(92.477310017072,29.772378240087,
    88.547133935805));
#342 = VECTOR('',#343,1.);
#343 = DIRECTION('',(2.803313137178E-13,-1.,-1.366256000121E-13));
#344 = ORIENTED_EDGE('',*,*,#345,.T.);
#345 = EDGE_CURVE('',#338,#346,#348,.T.);
#346 = VERTEX_POINT('',#347);
#347 = CARTESIAN_POINT('',(88.744319858216,29.772378240085,
    94.899612900801));
#348 = LINE('',#349,#350);
#349 = CARTESIAN_POINT('',(89.926038568885,29.772378240086,
    92.88866646574));
#350 = VECTOR('',#351,1.);
#351 = DIRECTION('',(-0.506640735991,-2.60671680866E-13,0.862157273723)
  );
#352 = ORIENTED_EDGE('',*,*,#353,.T.);
#353 = EDGE_CURVE('',#346,#223,#354,.T.);
#354 = LINE('',#355,#356);
#355 = CARTESIAN_POINT('',(88.744319858216,29.772378240085,
    94.899612900801));
#356 = VECTOR('',#357,1.);
#357 = DIRECTION('',(2.803313137178E-13,-1.,-1.366256000121E-13));
#358 = PLANE('',#359);
#359 = AXIS2_PLACEMENT_3D('',#360,#361,#362);
#360 = CARTESIAN_POINT('',(88.744319858216,29.772378240085,
    94.899612900801));
#361 = DIRECTION('',(-0.862157273723,-1.723981313862E-13,-0.506640735991
    ));
#362 = DIRECTION('',(0.506640735991,2.60671680866E-13,-0.862157273723));
#363 = ADVANCED_FACE('',(#364),#382,.F.);
#364 = FACE_BOUND('',#365,.T.);
#365 = EDGE_LOOP('',(#366,#367,#368,#376));
#366 = ORIENTED_EDGE('',*,*,#230,.T.);
#367 = ORIENTED_EDGE('',*,*,#353,.F.);
#368 = ORIENTED_EDGE('',*,*,#369,.T.);
#369 = EDGE_CURVE('',#346,#370,#372,.T.);
#370 = VERTEX_POINT('',#371);
#371 = CARTESIAN_POINT('',(87.307180829423,29.772378240085,
    92.365662552648));
#372 = LINE('',#373,#374);
#373 = CARTESIAN_POINT('',(88.636880085265,29.772378240085,
    94.710176079018));
#374 = VECTOR('',#375,1.);
#375 = DIRECTION('',(-0.493333134444,-1.895188749841E-14,-0.86984045575)
  );
#376 = ORIENTED_EDGE('',*,*,#377,.T.);
#377 = EDGE_CURVE('',#370,#231,#378,.T.);
#378 = LINE('',#379,#380);
#379 = CARTESIAN_POINT('',(87.307180829423,29.772378240085,
    92.365662552648));
#380 = VECTOR('',#381,1.);
#381 = DIRECTION('',(2.803313137178E-13,-1.,-1.366256000121E-13));
#382 = PLANE('',#383);
#383 = AXIS2_PLACEMENT_3D('',#384,#385,#386);
#384 = CARTESIAN_POINT('',(87.307180829423,29.772378240085,
    92.365662552648));
#385 = DIRECTION('',(0.86984045575,3.111388361437E-13,-0.493333134444));
#386 = DIRECTION('',(0.493333134444,1.895188749841E-14,0.86984045575));
#387 = ADVANCED_FACE('',(#388),#394,.F.);
#388 = FACE_BOUND('',#389,.T.);
#389 = EDGE_LOOP('',(#390,#391,#392,#393));
#390 = ORIENTED_EDGE('',*,*,#212,.T.);
#391 = ORIENTED_EDGE('',*,*,#252,.T.);
#392 = ORIENTED_EDGE('',*,*,#283,.T.);
#393 = ORIENTED_EDGE('',*,*,#321,.T.);
#394 = PLANE('',#395);
#395 = AXIS2_PLACEMENT_3D('',#396,#397,#398);
#396 = CARTESIAN_POINT('',(95.896259604207,21.772378240088,
    93.691650175443));
#397 = DIRECTION('',(-2.803313137178E-13,1.,1.366256000121E-13));
#398 = DIRECTION('',(-0.866025403784,-1.744612391498E-13,-0.5));
#399 = ADVANCED_FACE('',(#400),#434,.F.);
#400 = FACE_BOUND('',#401,.T.);
#401 = EDGE_LOOP('',(#402,#412,#420,#428));
#402 = ORIENTED_EDGE('',*,*,#403,.F.);
#403 = EDGE_CURVE('',#404,#406,#408,.T.);
#404 = VERTEX_POINT('',#405);
#405 = CARTESIAN_POINT('',(101.13945054774,21.772378240088,
    99.35459619675));
#406 = VERTEX_POINT('',#407);
#407 = CARTESIAN_POINT('',(93.298252522474,21.772378240088,
    85.529031433207));
#408 = LINE('',#409,#410);
#409 = CARTESIAN_POINT('',(95.194877765774,21.772378240088,
    88.873152452585));
#410 = VECTOR('',#411,1.);
#411 = DIRECTION('',(-0.493332152854,-1.936811946473E-14,-0.869841012462
    ));
#412 = ORIENTED_EDGE('',*,*,#413,.T.);
#413 = EDGE_CURVE('',#404,#414,#416,.T.);
#414 = VERTEX_POINT('',#415);
#415 = CARTESIAN_POINT('',(100.90544415892,22.172378240088,
    99.752809945205));
#416 = LINE('',#417,#418);
#417 = CARTESIAN_POINT('',(101.13945054774,21.772378240088,
    99.35459619675));
#418 = VECTOR('',#419,1.);
#419 = DIRECTION('',(-0.382982932455,0.65465380561,0.651730364682));
#420 = ORIENTED_EDGE('',*,*,#421,.F.);
#421 = EDGE_CURVE('',#422,#414,#424,.T.);
#422 = VERTEX_POINT('',#423);
#423 = CARTESIAN_POINT('',(92.608525082968,22.172378240088,
    85.12371989382));
#424 = LINE('',#425,#426);
#425 = CARTESIAN_POINT('',(94.84694136079,22.172378240088,
    89.070485313727));
#426 = VECTOR('',#427,1.);
#427 = DIRECTION('',(0.493332152854,1.936811946473E-14,0.869841012462));
#428 = ORIENTED_EDGE('',*,*,#429,.F.);
#429 = EDGE_CURVE('',#406,#422,#430,.T.);
#430 = LINE('',#431,#432);
#431 = CARTESIAN_POINT('',(93.298252522474,21.772378240088,
    85.529031433207));
#432 = VECTOR('',#433,1.);
#433 = DIRECTION('',(-0.771138052937,0.447213208446,-0.453151684874));
#434 = PLANE('',#435);
#435 = AXIS2_PLACEMENT_3D('',#436,#437,#438);
#436 = CARTESIAN_POINT('',(95.020909563282,21.972378240088,
    88.971818883156));
#437 = DIRECTION('',(0.615070478466,0.707106781187,-0.34883851066));
#438 = DIRECTION('',(-0.493332152854,-4.965472477636E-14,-0.869841012462
    ));
#439 = ADVANCED_FACE('',(#440),#465,.F.);
#440 = FACE_BOUND('',#441,.T.);
#441 = EDGE_LOOP('',(#442,#450,#451,#459));
#442 = ORIENTED_EDGE('',*,*,#443,.F.);
#443 = EDGE_CURVE('',#406,#444,#446,.T.);
#444 = VERTEX_POINT('',#445);
#445 = CARTESIAN_POINT('',(95.287651779978,21.772378240088,
    85.544317589862));
#446 = LINE('',#447,#448);
#447 = CARTESIAN_POINT('',(95.738703616397,21.772378240088,
    85.547783384375));
#448 = VECTOR('',#449,1.);
#449 = DIRECTION('',(0.999970480875,2.791236246723E-13,
    7.683578529178E-03));
#450 = ORIENTED_EDGE('',*,*,#429,.T.);
#451 = ORIENTED_EDGE('',*,*,#452,.F.);
#452 = EDGE_CURVE('',#453,#422,#455,.T.);
#453 = VERTEX_POINT('',#454);
#454 = CARTESIAN_POINT('',(95.521658168802,22.172378240088,
    85.146103841406));
#455 = LINE('',#456,#457);
#456 = CARTESIAN_POINT('',(95.741777047809,22.172378240088,
    85.147795192025));
#457 = VECTOR('',#458,1.);
#458 = DIRECTION('',(-0.999970480875,-2.791236246723E-13,
    -7.683578529178E-03));
#459 = ORIENTED_EDGE('',*,*,#460,.F.);
#460 = EDGE_CURVE('',#444,#453,#461,.T.);
#461 = LINE('',#462,#463);
#462 = CARTESIAN_POINT('',(95.287651779978,21.772378240088,
    85.544317589862));
#463 = VECTOR('',#464,1.);
#464 = DIRECTION('',(0.382982932453,0.65465380561,-0.651730364683));
#465 = PLANE('',#466);
#466 = AXIS2_PLACEMENT_3D('',#467,#468,#469);
#467 = CARTESIAN_POINT('',(95.740240332103,21.972378240088,85.3477892882
    ));
#468 = DIRECTION('',(-5.43311048196E-03,0.707106781186,0.707085908013));
#469 = DIRECTION('',(0.999970480875,4.910715931117E-13,
    7.683578528966E-03));
#470 = ADVANCED_FACE('',(#471),#496,.F.);
#471 = FACE_BOUND('',#472,.T.);
#472 = EDGE_LOOP('',(#473,#481,#482,#490));
#473 = ORIENTED_EDGE('',*,*,#474,.F.);
#474 = EDGE_CURVE('',#444,#475,#477,.T.);
#475 = VERTEX_POINT('',#476);
#476 = CARTESIAN_POINT('',(103.12884980526,21.772378240089,
    99.369882353418));
#477 = LINE('',#478,#479);
#478 = CARTESIAN_POINT('',(101.20130064191,21.772378240089,
    95.971236418588));
#479 = VECTOR('',#480,1.);
#480 = DIRECTION('',(0.493332152854,1.939587504035E-14,0.869841012462));
#481 = ORIENTED_EDGE('',*,*,#460,.T.);
#482 = ORIENTED_EDGE('',*,*,#483,.F.);
#483 = EDGE_CURVE('',#484,#453,#486,.T.);
#484 = VERTEX_POINT('',#485);
#485 = CARTESIAN_POINT('',(103.81857724476,22.172378240089,
    99.77519389281));
#486 = LINE('',#487,#488);
#487 = CARTESIAN_POINT('',(101.54923704689,22.172378240089,
    95.773903557447));
#488 = VECTOR('',#489,1.);
#489 = DIRECTION('',(-0.493332152854,-1.939587504035E-14,-0.869841012462
    ));
#490 = ORIENTED_EDGE('',*,*,#491,.F.);
#491 = EDGE_CURVE('',#475,#484,#492,.T.);
#492 = LINE('',#493,#494);
#493 = CARTESIAN_POINT('',(103.12884980526,21.772378240089,
    99.369882353418));
#494 = VECTOR('',#495,1.);
#495 = DIRECTION('',(0.771138052936,0.447213208444,0.453151684877));
#496 = PLANE('',#497);
#497 = AXIS2_PLACEMENT_3D('',#498,#499,#500);
#498 = CARTESIAN_POINT('',(101.3752688444,21.972378240089,
    95.872569988017));
#499 = DIRECTION('',(-0.615070478466,0.707106781186,0.34883851066));
#500 = DIRECTION('',(0.493332152854,5.001554725936E-14,0.869841012462));
#501 = ADVANCED_FACE('',(#502),#518,.F.);
#502 = FACE_BOUND('',#503,.T.);
#503 = EDGE_LOOP('',(#504,#510,#511,#517));
#504 = ORIENTED_EDGE('',*,*,#505,.F.);
#505 = EDGE_CURVE('',#414,#484,#506,.T.);
#506 = LINE('',#507,#508);
#507 = CARTESIAN_POINT('',(98.377714734948,22.172378240087,
    99.733387364321));
#508 = VECTOR('',#509,1.);
#509 = DIRECTION('',(0.999970480875,2.791236246723E-13,
    7.683578535754E-03));
#510 = ORIENTED_EDGE('',*,*,#413,.F.);
#511 = ORIENTED_EDGE('',*,*,#512,.F.);
#512 = EDGE_CURVE('',#475,#404,#513,.T.);
#513 = LINE('',#514,#515);
#514 = CARTESIAN_POINT('',(98.380788166362,21.772378240087,
    99.333399171971));
#515 = VECTOR('',#516,1.);
#516 = DIRECTION('',(-0.999970480875,-2.791236246723E-13,
    -7.683578535754E-03));
#517 = ORIENTED_EDGE('',*,*,#491,.T.);
#518 = PLANE('',#519);
#519 = AXIS2_PLACEMENT_3D('',#520,#521,#522);
#520 = CARTESIAN_POINT('',(98.379251450655,21.972378240087,
    99.533393268146));
#521 = DIRECTION('',(5.433110486213E-03,0.707106781187,-0.707085908013)
  );
#522 = DIRECTION('',(-0.999970480875,-4.910611847708E-13,
    -7.683578535966E-03));
#523 = ADVANCED_FACE('',(#524),#549,.F.);
#524 = FACE_BOUND('',#525,.T.);
#525 = EDGE_LOOP('',(#526,#527,#535,#543));
#526 = ORIENTED_EDGE('',*,*,#505,.T.);
#527 = ORIENTED_EDGE('',*,*,#528,.F.);
#528 = EDGE_CURVE('',#529,#484,#531,.T.);
#529 = VERTEX_POINT('',#530);
#530 = CARTESIAN_POINT('',(103.81857724476,29.772378240089,
    99.775193892811));
#531 = LINE('',#532,#533);
#532 = CARTESIAN_POINT('',(103.81857724476,29.772378240089,
    99.775193892811));
#533 = VECTOR('',#534,1.);
#534 = DIRECTION('',(2.803313137178E-13,-1.,-1.366256000121E-13));
#535 = ORIENTED_EDGE('',*,*,#536,.T.);
#536 = EDGE_CURVE('',#529,#537,#539,.T.);
#537 = VERTEX_POINT('',#538);
#538 = CARTESIAN_POINT('',(100.90544415892,29.772378240088,
    99.752809945206));
#539 = LINE('',#540,#541);
#540 = CARTESIAN_POINT('',(98.377714734945,29.772378240087,
    99.733387364322));
#541 = VECTOR('',#542,1.);
#542 = DIRECTION('',(-0.999970480875,-2.795677138821E-13,
    -7.683578535754E-03));
#543 = ORIENTED_EDGE('',*,*,#544,.T.);
#544 = EDGE_CURVE('',#537,#414,#545,.T.);
#545 = LINE('',#546,#547);
#546 = CARTESIAN_POINT('',(100.90544415892,29.772378240088,
    99.752809945206));
#547 = VECTOR('',#548,1.);
#548 = DIRECTION('',(2.803313137178E-13,-1.,-1.366256000121E-13));
#549 = PLANE('',#550);
#550 = AXIS2_PLACEMENT_3D('',#551,#552,#553);
#551 = CARTESIAN_POINT('',(100.90544415892,29.772378240088,
    99.752809945206));
#552 = DIRECTION('',(7.683578535754E-03,1.388161879592E-13,
    -0.999970480875));
#553 = DIRECTION('',(0.999970480875,2.795677138821E-13,
    7.683578535754E-03));
#554 = ADVANCED_FACE('',(#555),#573,.F.);
#555 = FACE_BOUND('',#556,.T.);
#556 = EDGE_LOOP('',(#557,#558,#559,#567));
#557 = ORIENTED_EDGE('',*,*,#421,.T.);
#558 = ORIENTED_EDGE('',*,*,#544,.F.);
#559 = ORIENTED_EDGE('',*,*,#560,.T.);
#560 = EDGE_CURVE('',#537,#561,#563,.T.);
#561 = VERTEX_POINT('',#562);
#562 = CARTESIAN_POINT('',(92.608525082965,29.772378240088,
    85.123719893821));
#563 = LINE('',#564,#565);
#564 = CARTESIAN_POINT('',(94.846941360787,29.772378240088,
    89.070485313728));
#565 = VECTOR('',#566,1.);
#566 = DIRECTION('',(-0.493332152854,-1.892403025488E-14,-0.869841012462
    ));
#567 = ORIENTED_EDGE('',*,*,#568,.T.);
#568 = EDGE_CURVE('',#561,#422,#569,.T.);
#569 = LINE('',#570,#571);
#570 = CARTESIAN_POINT('',(92.608525082965,29.772378240088,
    85.123719893821));
#571 = VECTOR('',#572,1.);
#572 = DIRECTION('',(2.803313137178E-13,-1.,-1.366256000121E-13));
#573 = PLANE('',#574);
#574 = AXIS2_PLACEMENT_3D('',#575,#576,#577);
#575 = CARTESIAN_POINT('',(92.608525082965,29.772378240088,
    85.123719893821));
#576 = DIRECTION('',(0.869841012462,3.110833760717E-13,-0.493332152854)
  );
#577 = DIRECTION('',(0.493332152854,1.892403025488E-14,0.869841012462));
#578 = ADVANCED_FACE('',(#579),#585,.F.);
#579 = FACE_BOUND('',#580,.T.);
#580 = EDGE_LOOP('',(#581,#582,#583,#584));
#581 = ORIENTED_EDGE('',*,*,#403,.T.);
#582 = ORIENTED_EDGE('',*,*,#443,.T.);
#583 = ORIENTED_EDGE('',*,*,#474,.T.);
#584 = ORIENTED_EDGE('',*,*,#512,.T.);
#585 = PLANE('',#586);
#586 = AXIS2_PLACEMENT_3D('',#587,#588,#589);
#587 = CARTESIAN_POINT('',(95.896259604207,21.772378240088,
    93.691650175443));
#588 = DIRECTION('',(-2.803313137178E-13,1.,1.366256000121E-13));
#589 = DIRECTION('',(-0.866025403784,-1.744612391498E-13,-0.5));
#590 = ADVANCED_FACE('',(#591),#609,.F.);
#591 = FACE_BOUND('',#592,.T.);
#592 = EDGE_LOOP('',(#593,#594,#602,#608));
#593 = ORIENTED_EDGE('',*,*,#483,.T.);
#594 = ORIENTED_EDGE('',*,*,#595,.F.);
#595 = EDGE_CURVE('',#596,#453,#598,.T.);
#596 = VERTEX_POINT('',#597);
#597 = CARTESIAN_POINT('',(95.5216581688,29.772378240088,85.146103841407
    ));
#598 = LINE('',#599,#600);
#599 = CARTESIAN_POINT('',(95.5216581688,29.772378240088,85.146103841407
    ));
#600 = VECTOR('',#601,1.);
#601 = DIRECTION('',(2.803313137178E-13,-1.,-1.366256000121E-13));
#602 = ORIENTED_EDGE('',*,*,#603,.T.);
#603 = EDGE_CURVE('',#596,#529,#604,.T.);
#604 = LINE('',#605,#606);
#605 = CARTESIAN_POINT('',(101.54923704689,29.772378240089,
    95.773903557448));
#606 = VECTOR('',#607,1.);
#607 = DIRECTION('',(0.493332152854,1.89517858305E-14,0.869841012462));
#608 = ORIENTED_EDGE('',*,*,#528,.T.);
#609 = PLANE('',#610);
#610 = AXIS2_PLACEMENT_3D('',#611,#612,#613);
#611 = CARTESIAN_POINT('',(103.81857724476,29.772378240089,
    99.775193892811));
#612 = DIRECTION('',(-0.869841012462,-3.110833760717E-13,0.493332152854)
  );
#613 = DIRECTION('',(-0.493332152854,-1.89517858305E-14,-0.869841012462)
  );
#614 = ADVANCED_FACE('',(#615),#626,.F.);
#615 = FACE_BOUND('',#616,.T.);
#616 = EDGE_LOOP('',(#617,#618,#619,#625));
#617 = ORIENTED_EDGE('',*,*,#452,.T.);
#618 = ORIENTED_EDGE('',*,*,#568,.F.);
#619 = ORIENTED_EDGE('',*,*,#620,.T.);
#620 = EDGE_CURVE('',#561,#596,#621,.T.);
#621 = LINE('',#622,#623);
#622 = CARTESIAN_POINT('',(95.741777047806,29.772378240089,
    85.147795192026));
#623 = VECTOR('',#624,1.);
#624 = DIRECTION('',(0.999970480875,2.795677138821E-13,
    7.683578529178E-03));
#625 = ORIENTED_EDGE('',*,*,#595,.T.);
#626 = PLANE('',#627);
#627 = AXIS2_PLACEMENT_3D('',#628,#629,#630);
#628 = CARTESIAN_POINT('',(95.5216581688,29.772378240088,85.146103841407
    ));
#629 = DIRECTION('',(-7.683578529178E-03,-1.388161879586E-13,
    0.999970480875));
#630 = DIRECTION('',(-0.999970480875,-2.795677138821E-13,
    -7.683578529178E-03));
#631 = ADVANCED_FACE('',(#632),#650,.F.);
#632 = FACE_BOUND('',#633,.T.);
#633 = EDGE_LOOP('',(#634,#635,#636,#644));
#634 = ORIENTED_EDGE('',*,*,#70,.T.);
#635 = ORIENTED_EDGE('',*,*,#186,.F.);
#636 = ORIENTED_EDGE('',*,*,#637,.T.);
#637 = EDGE_CURVE('',#179,#638,#640,.T.);
#638 = VERTEX_POINT('',#639);
#639 = CARTESIAN_POINT('',(90.018508516706,29.772378240085,
    97.146250651343));
#640 = LINE('',#641,#642);
#641 = CARTESIAN_POINT('',(89.992543928896,29.772378240085,
    97.100470128371));
#642 = VECTOR('',#643,1.);
#643 = DIRECTION('',(-0.493333134445,-1.897964307403E-14,-0.86984045575)
  );
#644 = ORIENTED_EDGE('',*,*,#645,.T.);
#645 = EDGE_CURVE('',#638,#71,#646,.T.);
#646 = LINE('',#647,#648);
#647 = CARTESIAN_POINT('',(90.018508516706,29.772378240085,
    97.146250651343));
#648 = VECTOR('',#649,1.);
#649 = DIRECTION('',(2.803313137178E-13,-1.,-1.366256000121E-13));
#650 = PLANE('',#651);
#651 = AXIS2_PLACEMENT_3D('',#652,#653,#654);
#652 = CARTESIAN_POINT('',(90.018508516706,29.772378240085,
    97.146250651343));
#653 = DIRECTION('',(0.86984045575,3.110833249925E-13,-0.493333134445));
#654 = DIRECTION('',(0.493333134445,2.028415512797E-14,0.86984045575));
#655 = ADVANCED_FACE('',(#656),#667,.F.);
#656 = FACE_BOUND('',#657,.T.);
#657 = EDGE_LOOP('',(#658,#659,#660,#666));
#658 = ORIENTED_EDGE('',*,*,#101,.T.);
#659 = ORIENTED_EDGE('',*,*,#645,.F.);
#660 = ORIENTED_EDGE('',*,*,#661,.T.);
#661 = EDGE_CURVE('',#638,#147,#662,.T.);
#662 = LINE('',#663,#664);
#663 = CARTESIAN_POINT('',(96.62790413922,29.772378240087,
    97.197035960876));
#664 = VECTOR('',#665,1.);
#665 = DIRECTION('',(0.999970480875,2.795677138821E-13,
    7.683578544155E-03));
#666 = ORIENTED_EDGE('',*,*,#146,.T.);
#667 = PLANE('',#668);
#668 = AXIS2_PLACEMENT_3D('',#669,#670,#671);
#669 = CARTESIAN_POINT('',(97.386438591805,29.772378240087,
    97.202864391971));
#670 = DIRECTION('',(-7.683578544155E-03,-1.388161879601E-13,
    0.999970480875));
#671 = DIRECTION('',(-0.999970480875,-2.795677138821E-13,
    -7.683578544155E-03));
#672 = ADVANCED_FACE('',(#673),#691,.F.);
#673 = FACE_BOUND('',#674,.T.);
#674 = EDGE_LOOP('',(#675,#676,#677,#685));
#675 = ORIENTED_EDGE('',*,*,#261,.T.);
#676 = ORIENTED_EDGE('',*,*,#377,.F.);
#677 = ORIENTED_EDGE('',*,*,#678,.T.);
#678 = EDGE_CURVE('',#370,#679,#681,.T.);
#679 = VERTEX_POINT('',#680);
#680 = CARTESIAN_POINT('',(91.040170988283,29.772378240087,
    86.013183587643));
#681 = LINE('',#682,#683);
#682 = CARTESIAN_POINT('',(89.986420698535,29.772378240087,
    87.806364460115));
#683 = VECTOR('',#684,1.);
#684 = DIRECTION('',(0.506640735991,2.607549475928E-13,-0.862157273723)
  );
#685 = ORIENTED_EDGE('',*,*,#686,.T.);
#686 = EDGE_CURVE('',#679,#262,#687,.T.);
#687 = LINE('',#688,#689);
#688 = CARTESIAN_POINT('',(91.040170988283,29.772378240087,
    86.013183587643));
#689 = VECTOR('',#690,1.);
#690 = DIRECTION('',(2.803313137178E-13,-1.,-1.366256000121E-13));
#691 = PLANE('',#692);
#692 = AXIS2_PLACEMENT_3D('',#693,#694,#695);
#693 = CARTESIAN_POINT('',(91.040170988283,29.772378240087,
    86.013183587643));
#694 = DIRECTION('',(0.862157273723,1.723981313863E-13,0.506640735991));
#695 = DIRECTION('',(-0.506640735991,-2.607549475928E-13,0.862157273723)
  );
#696 = ADVANCED_FACE('',(#697),#708,.F.);
#697 = FACE_BOUND('',#698,.T.);
#698 = EDGE_LOOP('',(#699,#700,#701,#707));
#699 = ORIENTED_EDGE('',*,*,#292,.T.);
#700 = ORIENTED_EDGE('',*,*,#686,.F.);
#701 = ORIENTED_EDGE('',*,*,#702,.T.);
#702 = EDGE_CURVE('',#679,#338,#703,.T.);
#703 = LINE('',#704,#705);
#704 = CARTESIAN_POINT('',(93.99716813948,29.772378240087,
    91.226933830793));
#705 = VECTOR('',#706,1.);
#706 = DIRECTION('',(0.493333134442,1.895188749818E-14,0.869840455751));
#707 = ORIENTED_EDGE('',*,*,#337,.T.);
#708 = PLANE('',#709);
#709 = AXIS2_PLACEMENT_3D('',#710,#711,#712);
#710 = CARTESIAN_POINT('',(92.477310017072,29.772378240087,
    88.547133935805));
#711 = DIRECTION('',(-0.869840455751,-3.111388361438E-13,0.493333134442)
  );
#712 = DIRECTION('',(-0.493333134442,-1.895188749818E-14,-0.869840455751
    ));
#713 = ADVANCED_FACE('',(#714,#725,#731,#737),#743,.T.);
#714 = FACE_BOUND('',#715,.T.);
#715 = EDGE_LOOP('',(#716));
#716 = ORIENTED_EDGE('',*,*,#717,.T.);
#717 = EDGE_CURVE('',#718,#718,#720,.T.);
#718 = VERTEX_POINT('',#719);
#719 = CARTESIAN_POINT('',(89.396259604203,29.772378240084,
    104.94998042464));
#720 = CIRCLE('',#721,13.);
#721 = AXIS2_PLACEMENT_3D('',#722,#723,#724);
#722 = CARTESIAN_POINT('',(95.896259604204,29.772378240088,
    93.691650175444));
#723 = DIRECTION('',(2.807754029276E-13,-1.,-1.373860227269E-13));
#724 = DIRECTION('',(0.5,2.593674872702E-13,-0.866025403784));
#725 = FACE_BOUND('',#726,.T.);
#726 = EDGE_LOOP('',(#727,#728,#729,#730));
#727 = ORIENTED_EDGE('',*,*,#603,.F.);
#728 = ORIENTED_EDGE('',*,*,#620,.F.);
#729 = ORIENTED_EDGE('',*,*,#560,.F.);
#730 = ORIENTED_EDGE('',*,*,#536,.F.);
#731 = FACE_BOUND('',#732,.T.);
#732 = EDGE_LOOP('',(#733,#734,#735,#736));
#733 = ORIENTED_EDGE('',*,*,#178,.F.);
#734 = ORIENTED_EDGE('',*,*,#154,.F.);
#735 = ORIENTED_EDGE('',*,*,#661,.F.);
#736 = ORIENTED_EDGE('',*,*,#637,.F.);
#737 = FACE_BOUND('',#738,.T.);
#738 = EDGE_LOOP('',(#739,#740,#741,#742));
#739 = ORIENTED_EDGE('',*,*,#345,.F.);
#740 = ORIENTED_EDGE('',*,*,#702,.F.);
#741 = ORIENTED_EDGE('',*,*,#678,.F.);
#742 = ORIENTED_EDGE('',*,*,#369,.F.);
#743 = PLANE('',#744);
#744 = AXIS2_PLACEMENT_3D('',#745,#746,#747);
#745 = CARTESIAN_POINT('',(95.896259604204,29.772378240088,
    93.691650175444));
#746 = DIRECTION('',(2.807754029276E-13,-1.,-1.373860227269E-13));
#747 = DIRECTION('',(0.5,2.593674872702E-13,-0.866025403784));
#748 = ADVANCED_FACE('',(#749),#776,.T.);
#749 = FACE_BOUND('',#750,.T.);
#750 = EDGE_LOOP('',(#751,#760,#768,#775));
#751 = ORIENTED_EDGE('',*,*,#752,.F.);
#752 = EDGE_CURVE('',#753,#753,#755,.T.);
#753 = VERTEX_POINT('',#754);
#754 = CARTESIAN_POINT('',(89.396259604203,30.172378240084,
    104.94998042464));
#755 = CIRCLE('',#756,13.);
#756 = AXIS2_PLACEMENT_3D('',#757,#758,#759);
#757 = CARTESIAN_POINT('',(95.896259604204,30.172378240088,
    93.691650175444));
#758 = DIRECTION('',(2.807754029276E-13,-1.,-1.373860227269E-13));
#759 = DIRECTION('',(0.5,2.593674872702E-13,-0.866025403784));
#760 = ORIENTED_EDGE('',*,*,#761,.T.);
#761 = EDGE_CURVE('',#753,#762,#764,.T.);
#762 = VERTEX_POINT('',#763);
#763 = CARTESIAN_POINT('',(89.596259604203,30.572378240084,
    104.60357026312));
#764 = LINE('',#765,#766);
#765 = CARTESIAN_POINT('',(89.496259604203,30.372378240084,
    104.77677534388));
#766 = VECTOR('',#767,1.);
#767 = DIRECTION('',(0.353553390593,0.707106781187,-0.612372435696));
#768 = ORIENTED_EDGE('',*,*,#769,.F.);
#769 = EDGE_CURVE('',#762,#762,#770,.T.);
#770 = CIRCLE('',#771,12.6);
#771 = AXIS2_PLACEMENT_3D('',#772,#773,#774);
#772 = CARTESIAN_POINT('',(95.896259604204,30.572378240087,
    93.691650175444));
#773 = DIRECTION('',(-2.807754029276E-13,1.,1.373860227269E-13));
#774 = DIRECTION('',(0.5,2.593674872702E-13,-0.866025403784));
#775 = ORIENTED_EDGE('',*,*,#761,.F.);
#776 = CONICAL_SURFACE('',#777,12.8,0.785398163397);
#777 = AXIS2_PLACEMENT_3D('',#778,#779,#780);
#778 = CARTESIAN_POINT('',(95.896259604204,30.372378240087,
    93.691650175444));
#779 = DIRECTION('',(2.807754029276E-13,-1.,-1.373860227269E-13));
#780 = DIRECTION('',(0.5,2.593674872702E-13,-0.866025403784));
#781 = ADVANCED_FACE('',(#782),#793,.T.);
#782 = FACE_BOUND('',#783,.T.);
#783 = EDGE_LOOP('',(#784,#785,#791,#792));
#784 = ORIENTED_EDGE('',*,*,#752,.T.);
#785 = ORIENTED_EDGE('',*,*,#786,.T.);
#786 = EDGE_CURVE('',#753,#718,#787,.T.);
#787 = LINE('',#788,#789);
#788 = CARTESIAN_POINT('',(89.396259604203,29.772378240084,
    104.94998042464));
#789 = VECTOR('',#790,1.);
#790 = DIRECTION('',(2.807754029276E-13,-1.,-1.373860227269E-13));
#791 = ORIENTED_EDGE('',*,*,#717,.F.);
#792 = ORIENTED_EDGE('',*,*,#786,.F.);
#793 = CYLINDRICAL_SURFACE('',#794,13.);
#794 = AXIS2_PLACEMENT_3D('',#795,#796,#797);
#795 = CARTESIAN_POINT('',(95.896259604204,29.772378240088,
    93.691650175444));
#796 = DIRECTION('',(2.807754029276E-13,-1.,-1.373860227269E-13));
#797 = DIRECTION('',(0.5,2.593674872702E-13,-0.866025403784));
#798 = ADVANCED_FACE('',(#799),#802,.F.);
#799 = FACE_BOUND('',#800,.T.);
#800 = EDGE_LOOP('',(#801));
#801 = ORIENTED_EDGE('',*,*,#769,.T.);
#802 = PLANE('',#803);
#803 = AXIS2_PLACEMENT_3D('',#804,#805,#806);
#804 = CARTESIAN_POINT('',(95.896259604204,30.572378240087,
    93.691650175444));
#805 = DIRECTION('',(2.807754029276E-13,-1.,-1.373860227269E-13));
#806 = DIRECTION('',(0.5,2.593674872702E-13,-0.866025403784));
#807 = ( GEOMETRIC_REPRESENTATION_CONTEXT(3) 
GLOBAL_UNCERTAINTY_ASSIGNED_CONTEXT((#811)) GLOBAL_UNIT_ASSIGNED_CONTEXT
((#808,#809,#810)) REPRESENTATION_CONTEXT('Context #1',
  '3D Context with UNIT and UNCERTAINTY') );
#808 = ( LENGTH_UNIT() NAMED_UNIT(*) SI_UNIT(.MILLI.,.METRE.) );
#809 = ( NAMED_UNIT(*) PLANE_ANGLE_UNIT() SI_UNIT($,.RADIAN.) );
#810 = ( NAMED_UNIT(*) SI_UNIT($,.STERADIAN.) SOLID_ANGLE_UNIT() );
#811 = UNCERTAINTY_MEASURE_WITH_UNIT(LENGTH_MEASURE(1.E-07),#808,
  'distance_accuracy_value','confusion accuracy');
#812 = PRODUCT_RELATED_PRODUCT_CATEGORY('part',$,(#7));
#813 = MECHANICAL_DESIGN_GEOMETRIC_PRESENTATION_REPRESENTATION('',(#814)
  ,#807);
#814 = STYLED_ITEM('color',(#815),#15);
#815 = PRESENTATION_STYLE_ASSIGNMENT((#816,#822));
#816 = SURFACE_STYLE_USAGE(.BOTH.,#817);
#817 = SURFACE_SIDE_STYLE('',(#818));
#818 = SURFACE_STYLE_FILL_AREA(#819);
#819 = FILL_AREA_STYLE('',(#820));
#820 = FILL_AREA_STYLE_COLOUR('',#821);
#821 = COLOUR_RGB('',1.,0.435294116471,0.);
#822 = CURVE_STYLE('',#823,POSITIVE_LENGTH_MEASURE(0.1),#824);
#823 = DRAUGHTING_PRE_DEFINED_CURVE_FONT('continuous');
#824 = COLOUR_RGB('',9.803921802644E-02,9.803921802644E-02,
  9.803921802644E-02);
ENDSEC;
END-ISO-10303-21;
